<?xml version="1.0" encoding="utf-8"?>
<!-- Generator: Adobe Illustrator 16.0.4, SVG Export Plug-In . SVG Version: 6.00 Build 0)  -->
<!DOCTYPE svg PUBLIC "-//W3C//DTD SVG 1.1//EN" "http://www.w3.org/Graphics/SVG/1.1/DTD/svg11.dtd">
<svg version="1.1" xmlns="http://www.w3.org/2000/svg" xmlns:xlink="http://www.w3.org/1999/xlink" x="0px" y="0px" width="181px"
	 height="134.211px" viewBox="0 0 181 134.211" enable-background="new 0 0 181 134.211" xml:space="preserve">
<g id="brand">
</g>
<g id="icons_x2F_graphics">
	<path fill="#7E4D8C" d="M142.724,119.967c-18.021-16.306-36.043-32.61-54.064-48.916c-1.112-1.007-2.418-1.044-3.488-0.56
		c-0.362,0.12-0.721,0.293-1.062,0.56c-20.883,16.306-41.765,32.61-62.646,48.916c-2.316,1.809-0.285,5.493,2.275,5.493
		c38.904,0,77.808,0,116.711,0C143.153,125.46,144.849,121.889,142.724,119.967z"/>
	<g>
		<line fill-rule="evenodd" clip-rule="evenodd" fill="#7E4D8C" x1="10.98" y1="62.055" x2="169.956" y2="75.9"/>
		<path fill="#7E4D8C" d="M10.98,68.491c52.993,4.615,105.983,9.231,158.976,13.846c8.273,0.721,8.204-12.158,0-12.872
			C116.964,64.85,63.974,60.233,10.98,55.619C2.708,54.898,2.776,67.777,10.98,68.491L10.98,68.491z"/>
	</g>
	<g>
		<path fill="#7E4D8C" d="M46.286,32.73H31.903l-2.734,8.202h-8.722l14.819-39.81h7.602l14.9,39.81h-8.721L46.286,32.73z
			 M34.118,26.086h9.952l-5.003-14.901L34.118,26.086z"/>
	</g>
	<g>
		<path fill="#7E4D8C" d="M138.517,49.14V6.833h14.818c5.135,0,9.027,0.982,11.682,2.949c2.653,1.966,3.98,4.847,3.98,8.644
			c0,2.074-0.533,3.899-1.598,5.479c-1.066,1.578-2.548,2.735-4.446,3.472c2.17,0.543,3.88,1.637,5.129,3.283
			c1.249,1.647,1.874,3.661,1.874,6.044c0,4.068-1.299,7.148-3.895,9.24s-6.295,3.157-11.098,3.196H138.517z M147.233,24.558h6.45
			c4.398-0.078,6.597-1.83,6.597-5.26c0-1.918-0.558-3.299-1.672-4.141c-1.113-0.843-2.871-1.264-5.273-1.264h-6.102V24.558z
			 M147.233,30.718v11.419h7.467c2.055,0,3.657-0.489,4.811-1.467c1.152-0.979,1.729-2.33,1.729-4.055
			c0-3.874-2.006-5.84-6.015-5.897H147.233z"/>
	</g>
</g>
<g id="doodles">
</g>
</svg>
