<?xml version="1.0" encoding="utf-8"?>
<!-- Generator: Adobe Illustrator 16.0.4, SVG Export Plug-In . SVG Version: 6.00 Build 0)  -->
<!DOCTYPE svg PUBLIC "-//W3C//DTD SVG 1.1//EN" "http://www.w3.org/Graphics/SVG/1.1/DTD/svg11.dtd">
<svg version="1.1" xmlns="http://www.w3.org/2000/svg" xmlns:xlink="http://www.w3.org/1999/xlink" x="0px" y="0px"
	 width="130.92px" height="143.847px" viewBox="0 0 130.92 143.847" enable-background="new 0 0 130.92 143.847"
	 xml:space="preserve">
<g id="brand">
</g>
<g id="icons_x2F_graphics">
	<g>
		<path fill-rule="evenodd" clip-rule="evenodd" fill="#2F56A7" d="M107.397,124.204c-4.66-4.277-9.308-8.569-13.961-12.854
			c-2.408-2.218-4.813-4.439-7.236-6.643c-1.104-1.006-2.404-1.133-3.701-0.51c-1.281,0.613-1.801,1.729-1.755,3.16
			c0.036,1.07,0.557,1.823,1.298,2.508c6.114,5.639,12.22,11.285,18.332,16.926c1.008,0.929,1.996,1.881,3.053,2.754
			c1.119,0.927,2.422,1.113,3.726,0.454c1.163-0.587,1.726-1.611,1.667-2.978C108.894,125.836,108.248,124.984,107.397,124.204z"/>
		<path fill-rule="evenodd" clip-rule="evenodd" fill="#2F56A7" d="M45.799,104.847c-0.967,0.842-1.886,1.739-2.83,2.609
			c-6.149,5.662-12.297,11.326-18.449,16.986c-0.79,0.727-1.274,1.578-1.188,2.631c-0.047,1.395,0.571,2.377,1.738,2.947
			c1.259,0.613,2.521,0.469,3.606-0.429c0.953-0.787,1.833-1.665,2.743-2.505c6.276-5.786,12.562-11.561,18.818-17.368
			c1.519-1.409,1.6-3.486,0.316-4.858C49.289,103.508,47.364,103.485,45.799,104.847z"/>
		<path fill-rule="evenodd" clip-rule="evenodd" fill="#2F56A7" d="M127.777,66.464c-0.002-2.978-1.049-5.545-3.318-7.511
			c-18.137-15.721-36.324-31.386-54.391-47.188c-2.228-1.948-3.565-1.742-5.724,0.048C45.953,27.07,27.515,42.273,8.946,57.315
			c-3.202,2.593-4.642,5.497-4.593,9.476c0.082,6.518,0.02,13.038,0.02,19.557c-0.001,15.645-0.024,31.29,0.012,46.936
			c0.014,5.746,3.119,9.645,8.017,10.203c1.833,0.209,3.684,0.342,5.525,0.345c16.033,0.026,32.065,0.016,48.098,0.016
			c0-0.062,0-0.122,0.001-0.184c4.439,0,8.879,0.007,13.318-0.001c12.784-0.022,25.57,0.008,38.354-0.105
			c6.201-0.055,10.013-3.745,10.039-9.948C127.834,111.227,127.783,88.846,127.777,66.464z M67.224,34.088
			c5.762,0,11.07,1.771,15.396,5.634c4.455,3.868,7.336,8.915,7.336,15.008c0,5.372-1.439,10.351-4.059,13.759
			c-3.148,4.129-6.947,5.768-10.094,5.634c-1.83-0.063-3.143-1.505-3.537-3.995c-2.227,2.229-4.979,3.995-8.91,3.995
			c-5.768,0-11.006-5.308-11.006-11.987c0-7.864,5.238-15.467,13.363-15.467c3.34,0,6.094,1.18,8.719,4.588l0.912-3.996h4.652
			L76.72,63.97c-0.459,2.161-1.307,5.564,0.918,5.564c3.016,0,7.271-6.29,7.604-12.511c0.656-11.534-7.533-18.214-18.215-18.214
			c-11.662,0-20.117,8.909-20.117,20.833c0,12.58,9.373,20.834,21.227,20.834c5.443,0,9.764-1.046,12.518-3.015l4.588,3.345
			c-4.588,2.358-9.699,4.391-17.627,4.391c-14.086,0-25.422-10.813-25.422-25.555C42.192,45.1,53.269,34.088,67.224,34.088z
			 M113.812,134.109c-31.849-0.126-63.697-0.115-95.547-0.012c-3.207,0.01-4.043-1.08-4.024-4.143
			c0.117-17.936,0.048-35.871,0.077-53.807c0.002-1.008-0.572-2.431,0.637-2.917c0.899-0.363,1.688,0.768,2.452,1.341
			c15.224,11.402,30.479,22.763,45.616,34.278c2.338,1.777,3.881,1.696,6.174-0.038C84.194,97.472,99.3,86.274,114.374,75.037
			c0.937-0.698,1.911-1.345,3.498-2.456c0,5.782,0,10.771,0,15.759c0,13.806-0.083,27.611,0.062,41.414
			C117.967,132.902,117.266,134.122,113.812,134.109z"/>
		<path fill-rule="evenodd" clip-rule="evenodd" fill="#2F56A7" d="M66.108,51.123c-5.309,0-9.176,5.506-9.176,10.553
			c0,4.455,2.492,7.858,7.08,7.858c5.83,0,8.189-4.913,8.775-9.565C73.444,54.729,70.628,51.123,66.108,51.123z"/>
	</g>
</g>
<g id="doodles">
</g>
</svg>
