<?xml version="1.0" encoding="utf-8"?>
<!-- Generator: Adobe Illustrator 16.0.4, SVG Export Plug-In . SVG Version: 6.00 Build 0)  -->
<!DOCTYPE svg PUBLIC "-//W3C//DTD SVG 1.1//EN" "http://www.w3.org/Graphics/SVG/1.1/DTD/svg11.dtd">
<svg version="1.1" xmlns="http://www.w3.org/2000/svg" xmlns:xlink="http://www.w3.org/1999/xlink" x="0px" y="0px"
	 width="141.396px" height="133.406px" viewBox="0 0 141.396 133.406" enable-background="new 0 0 141.396 133.406"
	 xml:space="preserve">
<g id="brand">
</g>
<g id="icons_x2F_graphics">
	<path opacity="0.8" fill-rule="evenodd" clip-rule="evenodd" fill="#EE9521" d="M2.521,86.682c0-2.447-0.083-4.898,0.024-7.342
		c0.101-2.313,0.965-4.344,3.213-5.354c2.14-0.963,4.161-0.317,5.938,1.015c1.908,1.427,3.8,2.818,6.266,3.106
		c7.518,0.884,12.885-6.292,10.512-14.065c-2.046-6.705-8.893-9.197-14.767-5.363c-0.917,0.598-1.745,1.34-2.686,1.895
		c-3.817,2.253-7.95,0.559-8.294-3.831c-0.43-5.452-0.26-10.963-0.107-16.441c0.064-2.303,2.012-3.559,5.012-3.611
		c4.219-0.072,8.439-0.034,12.661-0.029c2.465,0.004,4.847-0.345,6.063-2.805c1.213-2.452,0.067-4.53-1.432-6.517
		c-4.021-5.333-3.578-11.2,1.053-14.836c4.67-3.668,12.502-2.824,16.291,1.758c2.418,2.922,2.675,7.597,0.555,11.189
		c-0.598,1.013-1.389,1.911-2.033,2.898c-2.632,4.021-0.72,8.017,4.086,8.233c4.297,0.192,8.607,0.058,12.912,0.083
		c4.866,0.029,6.161,1.325,6.17,6.148c0.006,3.461-0.036,6.922,0.021,10.383c0.023,1.254,0.142,2.537,0.441,3.752
		c1.037,4.19,11.526,5.468,15.146,3.041c0.559-0.375,1.07-0.823,1.625-1.208c3.708-2.562,7.568-3.278,11.6-0.792
		c3.543,2.187,5.598,7.197,4.805,11.491c-1.576,8.542-9.572,11.758-16.652,6.696c-0.551-0.392-1.057-0.848-1.627-1.205
		c-3.461-2.166-13.774-0.891-14.874,3.01c-0.37,1.311-0.496,2.646-0.488,4.007c0.017,3.713,0.024,7.427-0.003,11.142
		c-0.027,3.712-1.475,5.242-5.201,5.313c-4.557,0.088-9.119-0.05-13.674,0.087c-4.027,0.121-6.223,2.846-5.257,6.257
		c0.351,1.242,1.118,2.253,1.907,3.254c1.614,2.05,2.509,4.335,2.5,7.004c-0.011,3.755-1.704,6.544-4.879,8.29
		c-4.058,2.23-8.306,2.206-12.354-0.048c-4.74-2.638-6.211-8.581-3.465-13.443c0.537-0.949,1.246-1.804,1.882-2.696
		c1.298-1.82,2.009-3.79,0.931-5.918c-1.026-2.025-2.955-2.69-5.088-2.72c-3.967-0.053-7.934-0.031-11.901-0.04
		c-5.771-0.011-6.86-1.077-6.864-6.724c0-1.688,0-3.376,0-5.064C2.502,86.682,2.511,86.682,2.521,86.682z"/>
	<path fill-rule="evenodd" clip-rule="evenodd" fill="#EE9521" d="M141.182,45.541c0,2.616,0.038,5.233-0.013,7.848
		c-0.056,2.867-0.872,5.454-3.664,6.762c-2.68,1.256-5.115,0.271-7.291-1.424c-2.092-1.63-4.267-3.023-6.995-3.288
		c-8.418-0.815-14.368,7.049-11.962,15.819c2.191,7.985,10.321,11.001,17.241,6.385c1.048-0.697,2.005-1.544,3.095-2.159
		c4.212-2.374,8.643-0.606,9.264,4.155c0.839,6.433,0.558,12.968,0.119,19.433c-0.207,3.052-2.927,3.874-5.621,3.922
		c-4.746,0.083-9.495,0.047-14.243,0.03c-2.908-0.009-5.791,0.244-7.281,3.173c-1.491,2.93-0.021,5.361,1.752,7.716
		c4.605,6.113,3.843,13.189-1.762,17.158c-5.736,4.062-14.988,2.678-18.752-2.996c-2.591-3.904-2.366-8.07-0.189-12.128
		c0.591-1.1,1.444-2.058,2.167-3.089c1.409-2.014,2.154-4.203,1.034-6.549c-1.125-2.359-3.317-3.187-5.768-3.227
		c-4.746-0.079-9.495-0.04-14.241-0.056c-6.024-0.022-7.432-1.399-7.44-7.294c-0.005-4.554,0.002-6.108,0.021-10.661
		c0.008-1.896,0.232-3.801,2.072-4.82c2.01-1.112,3.741-0.061,5.337,1.136c2.52,1.888,5.196,3.389,8.417,3.63
		c9.863,0.739,17.857-11.589,15.054-21.738c-2.636-9.545-13.401-15.202-21.723-9.754c-0.892,0.583-1.724,1.263-2.632,1.815
		c-3.405,2.069-6.299,0.687-6.439-3.334c-0.199-5.709-0.155-9.433-0.021-15.145c0.071-3.07,2.117-4.665,5.814-4.735
		c4.843-0.093,9.688-0.042,14.533-0.036c2.827,0.004,5.562-0.389,6.967-3.208c1.4-2.812,0.091-5.198-1.63-7.479
		c-4.617-6.126-4.117-12.853,1.191-17.03c5.353-4.216,14.345-3.253,18.701,2.002c2.778,3.353,3.079,8.717,0.646,12.843
		c-0.686,1.163-1.593,2.194-2.333,3.327c-3.026,4.617-0.839,9.204,4.677,9.454c4.931,0.224,9.881,0.068,14.821,0.098
		c5.587,0.033,7.073,1.518,7.087,7.051c0.004,2.131,0,4.263,0,6.395C141.192,45.541,141.185,45.541,141.182,45.541z"/>
</g>
<g id="doodles">
</g>
</svg>
