<?xml version="1.0" encoding="utf-8"?>
<!-- Generator: Adobe Illustrator 16.0.4, SVG Export Plug-In . SVG Version: 6.00 Build 0)  -->
<!DOCTYPE svg PUBLIC "-//W3C//DTD SVG 1.1//EN" "http://www.w3.org/Graphics/SVG/1.1/DTD/svg11.dtd">
<svg version="1.1" xmlns="http://www.w3.org/2000/svg" xmlns:xlink="http://www.w3.org/1999/xlink" x="0px" y="0px"
	 width="113.615px" height="151.673px" viewBox="0 0 113.615 151.673" enable-background="new 0 0 113.615 151.673"
	 xml:space="preserve">
<g id="brand">
</g>
<g id="icons_x2F_graphics">
	<path fill-rule="evenodd" clip-rule="evenodd" fill="#B83434" d="M107.746,33.437c-0.003-3.346-0.11-3.442-3.589-3.447
		c-6.737-0.006-13.473-0.002-20.208-0.001c0.001-6.54-0.001-13.081,0.001-19.621c0.001-3.087-0.749-5.798-3.41-7.682
		c-23.652,0-47.308,0-70.961,0c-3.017,1.928-3.508,4.881-3.506,8.161c0.028,42.1,0.016,84.2,0.021,126.3
		c0.001,6.609,2.008,8.627,8.656,8.632c20.245,0.015,40.491,0.015,60.737-0.001c6.365-0.005,8.432-1.947,8.438-8.259
		c0.02-22.384,0.022-44.768,0.022-67.15c6.854,0.002,13.709-0.027,20.561,0.048c2.506,0.03,3.309-0.814,3.286-3.3
		C107.692,55.891,107.757,44.663,107.746,33.437z M37.155,7.747h15.712c0.683,0,1.234,0.553,1.234,1.234
		c0,0.683-0.552,1.234-1.234,1.234H37.155c-0.682,0-1.234-0.552-1.234-1.234C35.921,8.3,36.474,7.747,37.155,7.747z M45.384,139.878
		c-2.812,0.077-5.032-2.074-5.082-4.922c-0.051-3.071,1.812-5.003,4.85-5.021c2.824-0.018,5.097,2.205,5.07,4.959
		C50.196,137.509,47.964,139.81,45.384,139.878z M73.212,123.478c-19.953-0.114-36.315-0.059-56.271-0.062
		c-3.679,0-3.687-0.009-3.687-3.795c-0.003-16.929-0.002-33.857-0.002-50.785c0-17.021,0.068-34.045-0.066-51.066
		c-0.022-2.936,0.893-3.645,3.712-3.628c19.953,0.111,36.317,0.106,56.271,0.002c2.757-0.014,3.76,0.588,3.75,3.581
		c-0.013,4.088-0.01,8.177-0.019,12.265c-0.149,0-0.298,0-0.446,0c-9.326,0-18.651,0.075-27.975-0.05
		c-2.59-0.033-3.493,0.753-3.467,3.405c0.119,11.135,0.047,22.272,0.054,33.407c0.002,3.558,0.077,3.809,3.684,3.559
		c3.145-0.216,5.315,0.818,7.081,3.391c1.426,2.081,3.292,3.858,4.816,5.878c1.076,1.426,1.87,1.307,2.967,0.057
		c2.146-2.451,4.451-4.765,6.566-7.24c1.289-1.51,2.739-2.075,4.723-2.059c0.646,0.006,1.293,0.005,1.94,0.009
		c0.001,16.505,0.024,33.01,0.074,49.515C76.927,122.797,76.031,123.493,73.212,123.478z"/>
</g>
<g id="doodles">
</g>
</svg>
