<?xml version="1.0" encoding="utf-8"?>
<!-- Generator: Adobe Illustrator 16.0.4, SVG Export Plug-In . SVG Version: 6.00 Build 0)  -->
<!DOCTYPE svg PUBLIC "-//W3C//DTD SVG 1.1//EN" "http://www.w3.org/Graphics/SVG/1.1/DTD/svg11.dtd">
<svg version="1.1" xmlns="http://www.w3.org/2000/svg" xmlns:xlink="http://www.w3.org/1999/xlink" x="0px" y="0px"
	 width="88.691px" height="153.59px" viewBox="0 0 88.691 153.59" enable-background="new 0 0 88.691 153.59" xml:space="preserve">
<g id="brand">
</g>
<g id="icons_x2F_graphics">
	<path fill-rule="evenodd" clip-rule="evenodd" fill="#509B56" d="M85.938,32.552c0.001-6.54-0.001-13.081,0.001-19.621
		c0.001-3.087,0.93-7.682-3.41-7.682c-23.652,0-53.308,0-76.961,0c-4.324,0-3.508,4.881-3.506,8.161
		c0.028,42.1,0.016,84.2,0.021,126.3c0.001,6.609,2.008,8.627,8.656,8.632c20.245,0.015,43.491,0.015,63.737-0.001
		c6.365-0.005,11.432-1.947,11.438-8.259c0.02-22.384,0.022-44.768,0.022-67.15L85.938,32.552z M36.145,10.311h15.712
		c0.683,0,1.234,0.553,1.234,1.234c0,0.683-0.552,1.234-1.234,1.234H36.145c-0.682,0-1.234-0.552-1.234-1.234
		C34.91,10.863,35.463,10.311,36.145,10.311z M44.373,142.441c-2.812,0.077-5.032-2.074-5.082-4.922
		c-0.051-3.071,1.812-5.003,4.85-5.021c2.824-0.018,5.097,2.205,5.07,4.959C49.186,140.072,46.953,142.373,44.373,142.441z
		 M78.833,72.908c0.001,16.505,0.024,33.01,0.074,49.515c0.009,2.938-3.887,3.634-6.706,3.618
		c-19.953-0.114-36.315-0.059-56.271-0.062c-3.678,0-6.686-0.009-6.686-3.795c-0.003-16.929-0.002-33.857-0.002-50.785
		c0-17.021,0.068-34.045-0.066-51.066c-0.022-2.936,3.893-3.645,6.712-3.628c19.953,0.111,36.317,0.106,56.271,0.002
		c2.757-0.014,6.76,0.588,6.75,3.581c-0.014,4.088-0.01,8.177-0.019,12.265L78.833,72.908z"/>
	<path fill-rule="evenodd" clip-rule="evenodd" fill="#509B56" d="M46.142,72.671c-9.347,0-18.694,0-28.041,0v3.322
		c0,6.627,5.373,12,12,12h16.041C46.142,82.886,46.142,77.778,46.142,72.671z"/>
	<path fill-rule="evenodd" clip-rule="evenodd" fill="#509B56" d="M47.392,72.671c0,5.107,0,10.215,0,15.322h16.042
		c6.628,0,12-5.373,12-12v-3.322C66.087,72.671,56.739,72.671,47.392,72.671z"/>
	<path fill-rule="evenodd" clip-rule="evenodd" fill="#509B56" d="M63.434,43.418H30.101c-6.627,0-12,5.372-12,12v16.003
		c19.111,0,38.222,0,57.333,0V55.418C75.434,48.79,70.062,43.418,63.434,43.418z M61.568,62.251c-10.369,0-20.738,0-31.107,0
		c-1.612,0-1.612-2.5,0-2.5c10.369,0,20.738,0,31.107,0C63.182,59.751,63.182,62.251,61.568,62.251z M61.568,54.251
		c-10.369,0-20.738,0-31.107,0c-1.612,0-1.612-2.5,0-2.5c10.369,0,20.738,0,31.107,0C63.182,51.751,63.182,54.251,61.568,54.251z"/>
</g>
<g id="doodles">
</g>
</svg>
