<?xml version="1.0" encoding="utf-8"?>
<!-- Generator: Adobe Illustrator 16.0.4, SVG Export Plug-In . SVG Version: 6.00 Build 0)  -->
<!DOCTYPE svg PUBLIC "-//W3C//DTD SVG 1.1//EN" "http://www.w3.org/Graphics/SVG/1.1/DTD/svg11.dtd">
<svg version="1.1" xmlns="http://www.w3.org/2000/svg" xmlns:xlink="http://www.w3.org/1999/xlink" x="0px" y="0px"
	 width="137.928px" height="141.704px" viewBox="0 0 137.928 141.704" enable-background="new 0 0 137.928 141.704"
	 xml:space="preserve">
<g id="brand">
</g>
<g id="icons_x2F_graphics">
	<g>
		<path fill-rule="evenodd" clip-rule="evenodd" fill="#42A9C1" d="M48.095,28.232l-0.011,0.197c0,0.42,0.145,0.765,0.441,1.036
			c0.295,0.271,0.699,0.407,1.213,0.407c0.494,0,0.951-0.109,1.372-0.331c0.419-0.222,0.729-0.519,0.931-0.892v-2.164h-1.26
			C49.1,26.486,48.203,27.067,48.095,28.232z"/>
		<path fill-rule="evenodd" clip-rule="evenodd" fill="#42A9C1" d="M86.319,24.446c-0.015-0.749-0.217-1.328-0.604-1.738
			c-0.388-0.409-0.938-0.612-1.654-0.612c-0.666,0-1.208,0.227-1.623,0.679c-0.417,0.451-0.682,1.1-0.798,1.941h4.68V24.446z"/>
		<path fill-rule="evenodd" clip-rule="evenodd" fill="#42A9C1" d="M120.432,5.155c-17.076-0.024-34.154-0.007-51.234-0.007
			c0,0.013,0,0.026,0,0.039c-17.077,0-34.154-0.024-51.232,0.01C8.707,5.215,3.976,9.863,3.956,19.146
			c-0.048,22.726-0.019,45.45,0.05,68.175c0.015,4.944-0.204,9.882,0.471,14.841c0.792,5.816,3.302,8.64,9.156,8.858
			c4.815,0.181,9.646,0.213,14.458,0.021c3.635-0.146,4.677,0.938,3.488,4.557c-1.89,5.75-3.466,11.606-5.026,17.458
			c-0.409,1.541-0.754,3.436,0.944,4.532c1.69,1.092,2.758-0.47,3.939-1.326c10.147-7.345,20.304-14.678,30.437-22.043
			c2.988-2.173,6.168-3.229,9.974-3.195c16.112,0.146,32.228,0.143,48.341-0.006c8.51-0.078,12.942-2.295,13.004-12.381
			c0.164-26.847,0.503-53.692,0.6-80.54C133.824,9.235,129.406,5.168,120.432,5.155z M103.332,34.786
			c0.521-0.945,0.787-1.89,0.801-2.828v-2.607h2.844l-0.014,2.328c-0.006,0.861-0.225,1.73-0.65,2.608
			c-0.428,0.877-0.975,1.602-1.643,2.177l-1.757-0.921L103.332,34.786z M97.75,27.76c-0.41-0.237-1.062-0.448-1.964-0.634
			c-2.995-0.629-4.493-1.901-4.493-3.818c0-1.119,0.463-2.053,1.391-2.802c0.928-0.75,2.141-1.124,3.639-1.124
			c1.598,0,2.877,0.377,3.836,1.13c0.96,0.753,1.438,1.731,1.438,2.934h-3.363c0-0.48-0.155-0.878-0.467-1.193
			c-0.309-0.313-0.795-0.471-1.455-0.471c-0.566,0-1.006,0.129-1.316,0.385c-0.311,0.257-0.465,0.581-0.465,0.978
			c0,0.371,0.177,0.673,0.53,0.902c0.352,0.23,0.948,0.427,1.788,0.594c0.836,0.166,1.543,0.356,2.117,0.564
			c1.777,0.652,2.666,1.781,2.666,3.39c0,1.146-0.492,2.078-1.479,2.786c-0.985,0.712-2.258,1.066-3.817,1.066
			c-1.055,0-1.994-0.188-2.811-0.564c-0.82-0.377-1.463-0.893-1.929-1.549s-0.7-1.365-0.7-2.123h3.192
			c0.031,0.596,0.253,1.055,0.663,1.372c0.411,0.317,0.963,0.479,1.654,0.479c0.643,0,1.131-0.124,1.46-0.367
			c0.329-0.246,0.495-0.564,0.495-0.961C98.359,28.321,98.154,27.996,97.75,27.76z M78.193,25.892c0-1.268,0.244-2.396,0.733-3.394
			c0.487-0.998,1.183-1.766,2.079-2.306s1.918-0.811,3.066-0.811c1.724,0,3.081,0.545,4.07,1.631
			c0.988,1.086,1.484,2.627,1.484,4.622v1.375h-8.021c0.107,0.822,0.436,1.481,0.982,1.979c0.549,0.495,1.24,0.746,2.078,0.746
			c1.297,0,2.311-0.471,3.04-1.412l1.651,1.853c-0.504,0.715-1.187,1.272-2.048,1.671c-0.861,0.4-1.815,0.6-2.864,0.6
			c-1.847,0-3.352-0.567-4.511-1.699c-1.161-1.133-1.741-2.643-1.741-4.529V25.892z M81.61,51.126c3.181,0,5.757,2.577,5.757,5.756
			c0,3.18-2.576,5.757-5.757,5.757c-3.179,0-5.757-2.577-5.757-5.757C75.854,53.703,78.432,51.126,81.61,51.126z M58.004,19.615
			h3.154l0.104,1.41c0.894-1.097,2.101-1.644,3.623-1.644c1.621,0,2.733,0.641,3.342,1.922c0.882-1.281,2.144-1.922,3.782-1.922
			c1.367,0,2.384,0.397,3.051,1.194c0.667,0.795,1.002,1.993,1.002,3.592v8.046h-3.377V24.16c0-0.715-0.139-1.238-0.42-1.567
			c-0.279-0.331-0.771-0.497-1.478-0.497c-1.01,0-1.708,0.482-2.095,1.447l0.011,8.671h-3.366v-8.041c0-0.73-0.145-1.26-0.428-1.586
			c-0.289-0.33-0.779-0.491-1.469-0.491c-0.955,0-1.646,0.396-2.074,1.188v8.93h-3.363V19.615z M62.039,51.126
			c3.179,0,5.756,2.577,5.756,5.756c0,3.18-2.577,5.757-5.756,5.757c-3.18,0-5.758-2.577-5.758-5.757
			C56.281,53.703,58.859,51.126,62.039,51.126z M51.593,22.399c-0.298-0.352-0.771-0.524-1.414-0.524
			c-0.567,0-1.011,0.135-1.334,0.405c-0.319,0.273-0.482,0.646-0.482,1.119h-3.364c0-0.729,0.225-1.404,0.676-2.026
			c0.449-0.621,1.086-1.107,1.908-1.461c0.822-0.353,1.746-0.53,2.771-0.53c1.551,0,2.783,0.392,3.697,1.172
			c0.911,0.779,1.367,1.875,1.367,3.288v5.46c0.009,1.197,0.175,2.102,0.5,2.716v0.196h-3.399c-0.155-0.303-0.269-0.68-0.339-1.129
			c-0.814,0.908-1.873,1.361-3.177,1.361c-1.235,0-2.257-0.355-3.067-1.071c-0.812-0.713-1.219-1.613-1.219-2.701
			c0-1.335,0.495-2.358,1.485-3.073c0.989-0.715,2.42-1.075,4.29-1.084h1.549v-0.722C52.041,23.213,51.891,22.747,51.593,22.399z
			 M31.072,27.207h3.516c0,0.831,0.175,1.443,0.523,1.84c0.351,0.396,0.9,0.594,1.654,0.594c0.666,0,1.199-0.229,1.595-0.687
			s0.595-1.11,0.595-1.956V15.261h3.492v11.737c0,1.079-0.24,2.03-0.715,2.857c-0.479,0.827-1.15,1.466-2.021,1.914
			c-0.869,0.454-1.85,0.677-2.945,0.677c-1.793,0-3.191-0.455-4.192-1.369C31.572,30.166,31.072,28.876,31.072,27.207z
			 M66.35,91.968c-7.445-0.411-15.576-2.111-21.695-6.514c-5.631-4.053-10.014-10.399-12.447-16.87
			c-1.309-3.48,4.258-4.97,5.551-1.529C42.34,79.246,53.747,85.843,66.35,86.212c10.656,0.311,38.139-3.104,38.863-18.393
			c0.174-3.695,5.932-3.712,5.756,0C110.064,86.899,81.094,92.782,66.35,91.968z"/>
	</g>
</g>
<g id="doodles">
</g>
</svg>
