<?xml version="1.0" encoding="utf-8"?>
<!-- Generator: Adobe Illustrator 16.0.4, SVG Export Plug-In . SVG Version: 6.00 Build 0)  -->
<!DOCTYPE svg PUBLIC "-//W3C//DTD SVG 1.1//EN" "http://www.w3.org/Graphics/SVG/1.1/DTD/svg11.dtd">
<svg version="1.1" xmlns="http://www.w3.org/2000/svg" xmlns:xlink="http://www.w3.org/1999/xlink" x="0px" y="0px" width="156px"
	 height="149.74px" viewBox="0 0 156 149.74" enable-background="new 0 0 156 149.74" xml:space="preserve">
<g id="brand">
</g>
<g id="icons_x2F_graphics">
	<path fill-rule="evenodd" clip-rule="evenodd" fill="#7E4D8C" d="M67.124,146.731c-11.536-4.789-17.496-13.526-19.713-25.757
		c-2.185-12.064-5.564-23.91-8.314-35.876c-2.004-8.72,0.602-15.092,8.947-18.222c19.398-7.274,39.285-7.249,58.772-0.622
		c10.128,3.442,12.451,9.818,9.927,20.01c-2.948,11.913-6.015,23.813-8.473,35.833c-2.365,11.58-8.299,19.974-19.264,24.634
		C80.834,148.751,74.834,149.001,67.124,146.731z"/>
	<path opacity="0.8" fill-rule="evenodd" clip-rule="evenodd" fill="#7E4D8C" d="M149.814,86.556
		c-2.234,8.569-4.529,17.125-6.688,25.714c-3.526,14.025-10.717,19.148-25.113,18.354c-5.084-0.28-6.312-2.452-5.189-6.984
		c3.164-12.803,6.157-25.648,9.428-38.422c1.113-4.349,1.683-8.452-0.809-12.489c-2.199-3.562-0.604-5.264,3.017-5.08
		c9.38,0.477,18.755,1.211,25.355,9.334C151.834,79.001,151.238,82.57,149.814,86.556z"/>
	<path opacity="0.5" fill-rule="evenodd" clip-rule="evenodd" fill="#7E4D8C" d="M6.316,76.982
		c6.633-8.104,16.018-8.863,25.416-9.329c3.717-0.185,5.1,1.674,2.948,5.146c-2.508,4.047-1.897,8.164-0.813,12.518
		c3.082,12.373,6.011,24.788,8.798,37.231c1.552,6.921,0.642,7.839-6.641,8.013c-13.4,0.323-20.217-5.145-23.203-18.193
		c-1.98-8.646-4.324-17.21-6.505-25.812C5.113,83.942,4.584,80.751,6.316,76.982z"/>
	<path opacity="0.5" fill-rule="evenodd" clip-rule="evenodd" fill="#7E4D8C" d="M15.292,43.943
		c0.144-9.372,7.772-17.14,16.85-17.152c9.855-0.018,17.86,8.122,17.673,17.966c-0.177,9.362-8.407,17.287-17.85,17.188
		C22.551,61.847,15.142,53.844,15.292,43.943z"/>
	<path opacity="0.8" fill-rule="evenodd" clip-rule="evenodd" fill="#7E4D8C" d="M142.836,44.396
		c0.012,9.778-7.793,17.781-17.121,17.549c-9.538-0.237-17.453-8.261-17.402-17.639c0.052-9.562,7.851-17.402,17.438-17.533
		C135.044,26.646,142.821,34.668,142.836,44.396z"/>
	<circle fill-rule="evenodd" clip-rule="evenodd" fill="#7E4D8C" cx="78.069" cy="27.772" r="23.821"/>
</g>
<g id="doodles">
</g>
</svg>
