<?xml version="1.0" encoding="utf-8"?>
<!-- Generator: Adobe Illustrator 16.0.4, SVG Export Plug-In . SVG Version: 6.00 Build 0)  -->
<!DOCTYPE svg PUBLIC "-//W3C//DTD SVG 1.1//EN" "http://www.w3.org/Graphics/SVG/1.1/DTD/svg11.dtd">
<svg version="1.1" xmlns="http://www.w3.org/2000/svg" xmlns:xlink="http://www.w3.org/1999/xlink" x="0px" y="0px"
	 width="141.171px" height="159.173px" viewBox="0 0 141.171 159.173" enable-background="new 0 0 141.171 159.173"
	 xml:space="preserve">
<g id="brand">
</g>
<g id="icons_x2F_graphics">
	<g>
		<path fill="#FBD20F" d="M102.173,141.961c1.008,0.929,1.996,1.881,3.053,2.754c1.119,0.927,2.422,1.113,3.726,0.454
			c1.163-0.587,1.726-1.611,1.667-2.978c0.074-1.187-0.571-2.038-1.422-2.818c-4.66-4.277-9.308-8.569-13.961-12.854
			c-2.408-2.218-4.813-4.439-7.236-6.643c-1.104-1.006-2.404-1.133-3.701-0.51c-1.281,0.613-1.801,1.729-1.755,3.16
			c0.036,1.07,0.557,1.823,1.298,2.508C89.955,130.674,96.061,136.32,102.173,141.961z"/>
		<path fill="#FBD20F" d="M47.598,120.016c-0.967,0.842-1.886,1.739-2.83,2.609c-6.149,5.662-12.297,11.326-18.449,16.986
			c-0.79,0.727-1.274,1.578-1.188,2.631c-0.047,1.395,0.571,2.377,1.738,2.947c1.259,0.613,2.521,0.469,3.606-0.429
			c0.953-0.787,1.833-1.665,2.743-2.505c6.276-5.786,12.562-11.561,18.818-17.368c1.519-1.409,1.6-3.486,0.316-4.858
			C51.088,118.677,49.163,118.654,47.598,120.016z"/>
		<path fill="#FBD20F" d="M117.418,37.825l21.001-33.2L90.541,42.232c-5.738-4.98-11.482-9.955-17.202-14.957
			c-2.228-1.948-3.565-1.742-5.724,0.048c-18.392,15.257-36.83,30.46-55.398,45.502c-3.202,2.593-4.642,5.497-4.593,9.476
			c0.082,6.518,0.02,13.038,0.02,19.557c-0.001,15.645-0.024,31.29,0.012,46.936c0.014,5.746,3.119,9.645,8.017,10.203
			c1.833,0.209,3.684,0.342,5.525,0.345c16.033,0.026,32.065,0.016,48.098,0.016c0-0.062,0-0.122,0.001-0.184
			c4.439,0,8.879,0.007,13.318-0.001c12.784-0.022,25.57,0.008,38.354-0.105c6.201-0.055,10.013-3.745,10.039-9.948
			c0.098-22.382,0.047-44.763,0.041-67.145c-0.002-2.978-1.049-5.545-3.318-7.511c-5.575-4.832-11.155-9.658-16.734-14.485
			l25.446-19.098L117.418,37.825z M121.143,88.091c0,5.782,0,10.771,0,15.759c0,13.806-0.083,27.611,0.062,41.414
			c0.032,3.148-0.669,4.368-4.122,4.355c-31.849-0.126-63.697-0.115-95.547-0.012c-3.207,0.01-4.043-1.08-4.024-4.143
			c0.117-17.936,0.048-35.871,0.077-53.807c0.002-1.008-0.572-2.431,0.637-2.917c0.899-0.363,1.688,0.768,2.452,1.341
			c15.224,11.402,30.479,22.763,45.616,34.278c2.338,1.777,3.881,1.696,6.174-0.038c14.997-11.341,30.103-22.538,45.177-33.775
			C118.581,89.849,119.556,89.202,121.143,88.091z M116.974,77.359c0.828,0.715,0.431,1.892-0.315,2.444
			c-15.665,11.611-31.328,23.223-46.994,34.835c-0.395,0.291-1.18,0.301-1.571,0C52.75,102.83,37.407,91.022,22.064,79.215
			c-0.124-0.095-0.224-0.204-0.31-0.316c-0.565-0.548-0.759-1.445-0.005-2.127c0.089-0.082,0.18-0.161,0.269-0.241
			c0.006-0.005,0.008-0.009,0.012-0.012c15.019-13.594,30.597-26.635,46.587-39.065c0.709-0.552,1.497-0.609,2.201,0
			c8.324,7.196,16.648,14.394,24.972,21.591L77.467,85.141l25.967-19.488C107.947,69.555,112.46,73.457,116.974,77.359z
			 M94.486,45.664l10.304,0.562l-3.66,5.213C98.912,49.518,96.703,47.586,94.486,45.664z"/>
	</g>
</g>
<g id="doodles">
</g>
</svg>
