<?xml version="1.0" encoding="utf-8"?>
<!-- Generator: Adobe Illustrator 16.0.4, SVG Export Plug-In . SVG Version: 6.00 Build 0)  -->
<!DOCTYPE svg PUBLIC "-//W3C//DTD SVG 1.1//EN" "http://www.w3.org/Graphics/SVG/1.1/DTD/svg11.dtd">
<svg version="1.1" xmlns="http://www.w3.org/2000/svg" xmlns:xlink="http://www.w3.org/1999/xlink" x="0px" y="0px"
	 width="167.373px" height="138.465px" viewBox="0 0 167.373 138.465" enable-background="new 0 0 167.373 138.465"
	 xml:space="preserve">
<g id="brand">
</g>
<g id="icons_x2F_graphics">
	<g>
		<path fill="#509B56" d="M155.369,4.254H14.629c-5.378,0-9.737,5.62-9.737,12.553v101.988c0,6.933,4.359,12.553,9.737,12.553
			h140.74c5.378,0,9.738-5.62,9.738-12.553V16.807C165.107,9.874,160.747,4.254,155.369,4.254z M41,13.254
			c1.795,0,3.25,1.455,3.25,3.25s-1.455,3.25-3.25,3.25s-3.25-1.455-3.25-3.25S39.205,13.254,41,13.254z M30.125,13.254
			c1.795,0,3.25,1.455,3.25,3.25s-1.455,3.25-3.25,3.25s-3.25-1.455-3.25-3.25S28.33,13.254,30.125,13.254z M19.25,13.254
			c1.795,0,3.25,1.455,3.25,3.25s-1.455,3.25-3.25,3.25S16,18.299,16,16.504S17.455,13.254,19.25,13.254z M154.25,120.754H15.75v-91
			h138.5V120.754z"/>
	</g>
	<path fill-rule="evenodd" clip-rule="evenodd" fill="#509B56" d="M140.443,62.426c-0.003-3.164-0.104-3.256-3.396-3.26
		c-8.735-0.008-17.469-0.002-26.202-0.002c-8.82,0-17.641,0.071-26.459-0.046c-2.449-0.032-3.305,0.711-3.279,3.221
		c0.113,10.531,0.045,21.065,0.051,31.598c0.002,3.364,0.073,3.603,3.484,3.366c2.975-0.205,5.027,0.773,6.697,3.207
		c1.35,1.968,3.113,3.648,4.556,5.559c1.019,1.349,1.77,1.236,2.806,0.054c2.03-2.318,4.211-4.507,6.211-6.849
		c1.219-1.428,2.591-1.962,4.468-1.946c9.333,0.078,18.669-0.027,28,0.076c2.371,0.027,3.13-0.771,3.108-3.122
		C140.393,83.664,140.453,73.045,140.443,62.426z M92.346,67.548c11.283-0.017,22.566-0.017,33.85,0.001
		c1.244,0.003,2.762-0.224,2.712,1.781c-0.052,2.021-1.625,1.644-2.824,1.651c-5.642,0.037-11.283,0.017-16.925,0.017
		c-5.555,0-11.111,0.021-16.666-0.017c-1.204-0.008-2.788,0.364-2.854-1.634C89.572,67.368,91.086,67.551,92.346,67.548z
		 M114.617,88.976c-3.767,0.003-7.532,0.001-11.298,0.001c-3.766-0.001-7.531,0-11.297-0.001c-1.297-0.001-2.444-0.188-2.424-1.894
		c0.019-1.575,1.171-1.772,2.308-1.776c7.616-0.033,15.232-0.033,22.849-0.001c1.144,0.005,2.293,0.233,2.307,1.79
		C117.076,88.793,115.909,88.975,114.617,88.976z M126.514,80.131c-5.736,0.023-11.474,0.011-17.211,0.011c0,0.011,0,0.02,0,0.029
		c-5.051,0-10.104,0.002-15.154-0.001c-0.77-0.002-1.542-0.004-2.312-0.043c-1.208-0.063-2.224-0.379-2.238-1.882
		c-0.014-1.493,0.933-1.898,2.185-1.899c11.646-0.007,23.289-0.008,34.935-0.001c1.225,0,2.215,0.316,2.222,1.846
		C128.948,79.887,127.785,80.127,126.514,80.131z"/>
</g>
<g id="doodles">
</g>
</svg>
