<?xml version="1.0" encoding="utf-8"?>
<!-- Generator: Adobe Illustrator 16.0.4, SVG Export Plug-In . SVG Version: 6.00 Build 0)  -->
<!DOCTYPE svg PUBLIC "-//W3C//DTD SVG 1.1//EN" "http://www.w3.org/Graphics/SVG/1.1/DTD/svg11.dtd">
<svg version="1.1" id="Layer_1" xmlns="http://www.w3.org/2000/svg" xmlns:xlink="http://www.w3.org/1999/xlink" x="0px" y="0px"
	 width="1152px" height="648px" viewBox="0 0 1152 648" enable-background="new 0 0 1152 648" xml:space="preserve">
<g id="cFzJu2_1_">
	<g>
		<path opacity="0.5" fill-rule="evenodd" clip-rule="evenodd" fill="#244196" d="M384,242.941c1.84,0.96,3.549,1.215,5.33,0.885
			c1.434-0.266,2.848-0.627,4.278-0.899c1.788-0.339,3.573-0.776,5.378-0.912c4.729-0.352,9.467-0.587,14.205-0.804
			c1.08-0.049,2.171,0.205,3.26,0.263c2.363,0.123,4.714,0.228,7.088-0.101c1.794-0.248,3.643-0.14,5.467-0.129
			c2.613,0.018,5.229,0.059,7.842,0.15c1.578,0.057,3.15,0.241,4.729,0.344c0.908,0.059,1.822,0.119,2.73,0.096
			c4.437-0.122,8.873-0.302,13.311-0.404c5.776-0.136,11.537-0.478,17.274-1.167c2.348-0.282,4.688-0.651,7.04-0.903
			c1.264-0.133,2.547-0.101,3.819-0.148c2.674-0.104,5.347-0.291,8.019-0.295c2.551-0.006,5.101,0.263,7.652,0.242
			c1.754-0.014,3.522-0.21,5.252-0.515c3.506-0.62,7.031-0.452,10.555-0.479c0.805-0.008,1.191,0.434,1.332,1.208
			c0.418,2.3-1.008,3.765-3.281,3.53c-1.747-0.18-3.525-0.229-5.28-0.139c-6.317,0.322-12.6,0.961-18.868,1.878
			c-3.716,0.544-7.506,0.632-11.27,0.79c-4.618,0.196-9.258,0.039-13.855,0.42c-5.605,0.465-11.18-0.053-16.766,0
			c-2.92,0.027-5.84,0.171-8.76,0.236c-1.94,0.042-3.881,0.048-5.822,0.057c-3.895,0.018-7.785,0.061-11.678,0.033
			c-4.497-0.031-8.993-0.126-13.488-0.195c-5.123-0.08-10.184,0.646-15.263,1.138c-1.571,0.152-3.161,0.174-4.714,0.428
			c-1.482,0.242-2.926,0.712-4.68,1.156c0.645,0.731,1.088,1.369,1.656,1.864c4.08,3.548,8.184,7.065,12.281,10.593
			c3.639,3.132,7.266,6.276,10.92,9.392c1.895,1.613,3.827,3.181,5.752,4.759c3.621,2.971,6.968,6.193,10.047,9.755
			c3.934,4.547,8.151,8.854,12.342,13.172c2.238,2.308,4.586,4.528,7.054,6.586c2.788,2.328,5.72,4.492,8.672,6.613
			c3.001,2.159,6.114,4.161,9.157,6.264c1.436,0.994,3.105,1.033,4.719,1.153c2.728,0.202,5.47,0.226,8.207,0.317
			c5.655,0.188,11.309,0.367,16.963,0.557c1.936,0.064,3.871,0.114,5.805,0.232c1.694,0.104,3.383,0.345,5.08,0.43
			c2.793,0.143,5.588,0.24,8.385,0.291c3.094,0.059,6.19,0.111,9.283,0.044c2.609-0.058,5.216-0.285,7.822-0.45
			c1.213-0.077,2.423-0.236,3.638-0.271c3.245-0.096,6.339-1.008,9.479-1.677c1.188-0.254,2.377-0.509,3.561-0.784
			c2.896-0.672,5.787-1.383,8.691-2.022c1.237-0.274,2.507-0.573,3.762-0.572c2.477,0.003,4.97-0.113,7.377,0.829
			c1.486,0.583,2.104,0.106,2.033-1.482c-0.114-2.611-0.371-5.215-0.568-7.821c-0.086-1.152-0.137-2.31-0.264-3.456
			c-0.301-2.713-0.604-5.43-0.973-8.135c-0.33-2.401-0.785-4.785-1.128-7.186c-0.164-1.158,1.368-3.115,2.337-3.105
			c1.051,0.01,2.627,1.43,2.771,2.521c0.119,0.904,0.262,1.81,0.292,2.719c0.14,3.946,0.231,7.894,0.362,11.841
			c0.07,2.066,0.173,4.132,0.282,6.198c0.173,3.215,0.321,6.433,0.589,9.641c0.047,0.583,0.48,1.279,0.949,1.656
			c2.014,1.619,3.688,3.506,4.988,5.734c0.116,0.203,0.305,0.4,0.51,0.512c2.42,1.336,3.752,3.742,5.538,5.687
			c2.293,2.493,4.382,5.174,6.585,7.751c0.348,0.408,0.785,0.786,1.254,1.037c3.749,2.006,6.779,4.878,9.766,7.84
			c1.762,1.747,3.748,3.266,5.646,4.873c3.242,2.744,6.744,5.168,9.767,8.186c1.045,1.045,2.436,1.743,3.687,2.608
			c1.163-0.933,1.699-2.072,2.253-3.213c0.229-0.475,0.471-1.026,0.871-1.322c3.635-2.68,6.72-5.942,9.907-9.11
			c4.91-4.877,9.939-9.633,14.903-14.455c0.827-0.802,1.548-1.713,2.378-2.511c2.057-1.975,4.214-3.847,6.209-5.882
			c1.562-1.594,3.191-3.217,4.344-5.1c1.857-3.031,4.007-5.769,6.494-8.291c1.271-1.291,2.324-2.798,3.537-4.15
			c1.613-1.799,3.296-3.536,4.93-5.316c1.15-1.254,2.275-2.531,3.4-3.806c1.039-1.178,1.66-2.471,1.592-4.127
			c-0.122-3.035-0.09-6.074-0.143-9.112c-0.02-1.031-0.365-1.473-1.537-1.674c-1.973-0.339-3.957-0.611-5.944-0.834
			c-2.774-0.311-5.554-0.59-8.337-0.806c-1.33-0.103-2.674,0.011-4.008-0.038c-4.072-0.15-8.141-0.38-12.213-0.48
			c-2.357-0.059-4.721,0.07-7.084,0.114c-0.24,0.005-0.485,0.024-0.725,0.002c-4.854-0.483-9.695-0.134-14.545,0.141
			c-1.374,0.079-2.771-0.29-4.164-0.379c-1.995-0.128-3.996-0.191-5.994-0.278c-1.033-0.043-2.066-0.074-3.1-0.12
			c-3.395-0.148-6.816-0.085-10.178-0.506c-4.711-0.591-9.484-0.066-14.174-1.072c-1.747-0.374-3.631-0.078-5.453-0.141
			c-2.369-0.079-4.736-0.215-7.107-0.312c-1.396-0.058-2.795-0.072-4.193-0.133c-1.693-0.072-3.386-0.211-5.08-0.256
			c-2.43-0.064-4.862-0.016-7.289-0.122c-2.356-0.104-4.706-0.343-7.059-0.521c-1.074-0.081-2.148-0.158-3.223-0.239
			c-3.555-0.27-7.119-0.467-10.664-0.836c-3.046-0.316-5.604-1.646-7.777-3.898c-1.296-1.343-2.088-3.142-3.826-4.111
			c-0.404-0.226-0.392-1.109-0.708-1.604c-1.39-2.171-1.786-4.59-2.05-7.095c-0.13-1.243-0.686-2.438-1.019-3.663
			c-0.69-2.553-0.39-5.193-0.647-7.785c-0.078-0.785-0.17-1.567-0.248-2.353c-0.049-0.479-0.23-1.009-0.102-1.439
			c0.477-1.603,0.012-3.121-0.254-4.665c-0.648-3.765-1.141-7.565-1.992-11.283c-1.123-4.898-1.023-9.908-1.687-14.845
			c-0.194-1.438-0.171-2.922-0.098-4.376c0.122-2.451-0.33-4.814-0.718-7.215c-0.395-2.453-0.49-4.96-0.646-7.448
			c-0.361-5.758-0.691-11.518-1.727-17.208c-0.14-0.774-0.109-1.578-0.18-2.365c-0.359-3.931-0.725-7.861-1.088-11.791
			c-0.186-1.997-0.383-3.993-0.557-5.99c-0.396-4.539-0.773-9.08-1.174-13.619c-0.35-3.995-0.756-7.984-1.061-11.981
			c-0.096-1.265,0.102-2.549,0.086-3.821c-0.031-2.734-0.189-5.467-0.156-8.198c0.041-3.159,0.26-6.315,0.345-9.474
			c0.056-2.057,0.01-4.117,0.01-6.504c-0.518,0.453-0.848,0.67-1.084,0.961c-1.796,2.218-3.665,4.387-5.327,6.7
			c-1.342,1.866-2.548,3.855-3.589,5.903c-0.816,1.607-1.733,3.035-3.196,4.114c-2.297,1.693-4.586,3.399-6.824,5.169
			c-3.1,2.451-6.092,5.024-8.512,8.186c-1.068,1.396-2.02,2.897-3.2,4.188c-2.373,2.599-4.853,5.1-7.316,7.612
			c-2.206,2.254-4.612,4.338-6.624,6.75c-1.398,1.678-2.709,3.423-4.344,4.876c-1.72,1.53-3.57,2.916-5.273,4.466
			c-1.162,1.056-2.152,2.298-3.244,3.432c-0.885,0.92-1.844,1.77-2.709,2.708c-2.883,3.125-5.773,6.246-8.596,9.429
			c-1.932,2.18-3.717,4.488-5.633,6.682c-2.434,2.787-4.885,5.564-7.416,8.263c-3.658,3.902-7.375,7.751-11.107,11.583
			c-2.325,2.388-4.76,4.669-7.087,7.055c-4.285,4.391-8.608,8.745-12.752,13.264c-2.539,2.77-4.732,5.853-7.159,8.729
			c-1.09,1.289-2.364,2.421-3.566,3.614c-0.602,0.601-1.29,1.129-1.82,1.786C384.48,241.719,384.293,242.35,384,242.941z"/>
		<path opacity="0.5" fill-rule="evenodd" clip-rule="evenodd" fill="#244196" d="M571.08,141.776
			c-1.809-1.252-3.355-2.773-4.859-4.378c-1.106-1.182-2.496-2.105-3.779-3.119c-2.932-2.312-5.864-4.625-8.819-6.908
			c-1.243-0.961-2.569-1.816-3.812-2.777c-0.959-0.741-1.838-1.588-2.775-2.358c-4.125-3.387-7.992-7.073-12.396-10.147
			c-2.221-1.55-4.281-3.378-6.586-4.818c-1.419-0.886-3.049-1.463-4.631-2.062c-1.732-0.657-3.518-1.178-5.443-1.813
			c-0.229,0.671-0.494,1.104-0.505,1.543c-0.092,3.324-0.761,6.615-0.376,9.969c0.7,6.1,0.668,12.234,0.798,18.361
			c0.067,3.152,0.569,6.293,0.704,9.447c0.164,3.879,0.111,7.768,0.233,11.651c0.075,2.362,0.284,4.723,0.472,7.08
			c0.155,1.935,0.472,3.86,0.539,5.796c0.178,5.062,1.154,10.025,1.747,15.034c0.278,2.353,0.376,4.729,0.511,7.098
			c0.155,2.722,0.31,5.446,0.372,8.171c0.04,1.816-0.147,3.639-0.117,5.457c0.069,4.186-0.416,8.421,0.58,12.537
			c1.135,4.695,1.134,9.518,1.862,14.254c0.406,2.639,0.965,5.258,1.336,7.902c0.434,3.068,0.721,6.156,1.1,9.233
			c0.311,2.531,0.615,5.063,1.007,7.585c0.56,3.591,1.675,7.041,2.782,10.488c0.333,1.035,0.756,2.064,1.309,2.997
			c0.311,0.522,0.907,0.991,1.481,1.225c3.487,1.425,7.056,2.463,10.87,2.729c4.969,0.346,9.917,0.97,14.875,1.475
			c0.302,0.031,0.606,0.126,0.904,0.103c4.402-0.331,8.711,0.711,13.079,0.892c2.12,0.087,4.226,0.491,6.342,0.706
			c3.808,0.389,7.616,0.741,11.427,1.113c1.451,0.143,2.896,0.346,4.348,0.438c5.034,0.318,10.068,0.719,15.108,0.868
			c8.196,0.243,16.399,0.301,24.599,0.455c3.7,0.07,7.4,0.188,11.1,0.278c1.639,0.04,3.277,0.047,4.916,0.105
			c4.785,0.17,9.547,0.975,14.357,0.528c0.605-0.058,1.213-0.055,1.817-0.119c3.026-0.316,6.046-0.714,9.085-0.095
			c0.468,0.095,0.971,0.025,1.457,0.018c1.711-0.025,2.043-0.463,1.703-2.095c-0.627-3.032-1.41-6.046-1.793-9.108
			c-0.525-4.188-1.738-8.193-2.791-12.242c-0.502-1.934-1.449-3.778-1.741-5.73c-0.454-3.029-1.792-5.685-3.123-8.316
			c-1.803-3.564-3.882-6.994-5.946-10.418c-1.551-2.572-3.426-4.956-4.365-7.867c-0.055-0.172-0.127-0.346-0.227-0.495
			c-2.129-3.23-1.65-6.593-0.478-9.97c0.324-0.932,0.226-1.564-0.622-2.189c-3.17-2.336-6.297-4.734-9.436-7.116
			c-2.078-1.575-4.1-3.231-6.238-4.728c-2.035-1.423-4.192-2.674-6.284-4.02c-4.344-2.794-8.521-5.814-12.413-9.216
			c-4.622-4.038-9.24-8.079-13.835-12.146c-4.546-4.025-9.019-8.133-13.608-12.107c-1.829-1.584-3.914-2.868-5.83-4.356
			c-2.442-1.897-4.811-3.889-7.249-5.792c-1.626-1.267-3.349-2.41-4.973-3.684c-0.804-0.63-1.446-1.461-2.214-2.14
			c-0.545-0.478-1.021-1.331-1.993-0.569c-0.168,0.132-0.72-0.012-0.942-0.203c-0.918-0.791-1.779-1.649-2.661-2.483L571.08,141.776
			z"/>
		<path opacity="0.2" fill-rule="evenodd" clip-rule="evenodd" fill="#E8821B" d="M664.863,232.492
			c0.579-0.383,0.92-0.607,1.375-0.908c-0.018,0.332,0.037,0.553-0.048,0.667c-0.728,0.98-0.429,1.836,0.22,2.714
			c2.266,3.065,4.076,6.359,5.145,10.047c0.414,1.426,1.024,2.796,1.566,4.183c0.844,2.159,0.756,4.484,1.206,6.717
			c0.885,4.385,1.661,8.79,2.419,13.198c0.433,2.511,0.893,5.031,1.078,7.567c0.488,6.628,0.955,13.263,1.193,19.903
			c0.188,5.332,0.14,10.676-0.541,15.995c-0.447,3.505-0.711,7.034-1.061,10.552c-0.295,2.965-0.576,5.932-0.904,8.892
			c-0.459,4.133-0.934,8.264-1.452,12.391c-0.108,0.853-0.414,1.685-0.677,2.512c-0.73,2.301-0.894,4.671-0.498,7.017
			c0.43,2.557,1.521,4.881,3.689,6.454c1.277,0.928,2.705,1.657,4.104,2.399c0.411,0.218,0.972,0.287,1.443,0.235
			c2.546-0.282,5.07-0.661,7.149-2.373c0.285-0.233,0.615-0.478,0.961-0.556c2.77-0.624,4.834-2.473,7.074-4.018
			c0.461-0.315,0.896-0.676,1.383-0.943c2.615-1.437,4.902-3.325,7.284-5.096c2.476-1.84,4.724-4.011,7.665-5.225
			c1.404-0.581,2.609-1.647,3.904-2.495c0.57-0.375,1.108-0.811,1.711-1.124c3.246-1.684,6.511-3.328,9.759-5.008
			c1.87-0.965,3.714-1.979,5.581-2.95c0.604-0.315,1.23-0.598,1.867-0.833c1.35-0.502,2.617-1.088,3.686-2.119
			c0.742-0.715,1.584-1.345,2.832-1.082c0.51,0.109,1.186-0.282,1.71-0.58c2.478-1.407,5.228-1.837,7.974-2.262
			c1.596-0.245,3.203-0.405,4.809-0.582c0.549-0.061,1.105-0.084,1.656-0.071c1.18,0.027,2.359,0.151,3.536,0.12
			c0.998-0.025,1.927,0.001,2.912,0.338c0.675,0.23,1.597,0.028,2.319-0.231c1.18-0.421,1.259-0.944,0.559-1.965
			c-1.191-1.741-2.313-3.531-3.565-5.225c-0.844-1.144-1.819-2.194-2.807-3.222c-3.827-3.98-7.734-7.887-11.505-11.92
			c-1.939-2.073-3.641-4.369-5.475-6.54c-3.918-4.638-7.886-9.231-11.771-13.896c-3.617-4.341-7.167-8.737-10.716-13.134
			c-2.218-2.746-4.393-5.527-6.56-8.312c-0.72-0.928-1.312-1.957-2.044-2.875c-1.349-1.69-2.751-3.338-4.144-4.995
			c-1.599-1.903-3.202-3.802-4.816-5.691c-3.829-4.483-7.628-8.993-11.512-13.43c-2.529-2.889-5.146-5.704-7.796-8.484
			c-1.916-2.012-3.964-3.899-5.926-5.869c-1.167-1.172-2.55-1.94-4.087-2.517c-0.979-0.366-1.883-0.922-2.84-1.352
			c-0.502-0.225-1.031-0.443-1.568-0.521c-1.411-0.2-2.838-0.298-4.252-0.481c-2.709-0.348-5.186,0.494-7.545,1.616
			c-2.387,1.138-2.561,4.098-1.582,5.812C660.781,226.148,662.83,229.237,664.863,232.492z"/>
		<path opacity="0.7" fill-rule="evenodd" clip-rule="evenodd" fill="#E8821B" d="M303.924,318.862
			c-5.871,0.261-11.537,1.346-16.943,3.654c-1.576,0.673-3.262,1.26-3.892,3.149c-0.067,0.208-0.341,0.373-0.553,0.505
			c-3.849,2.409-6.579,5.878-9.086,9.562c-0.288,0.423-0.604,0.834-0.944,1.22c-1.271,1.452-2.642,2.825-3.824,4.348
			c-2.887,3.713-5.766,7.437-8.505,11.26c-3.71,5.18-7.333,10.425-10.901,15.705c-1.779,2.635-2.851,5.608-3.514,8.723
			c-0.5,2.331-0.942,4.68-1.531,6.989c-1.003,3.929-0.197,7.558,1.787,10.948c0.783,1.337,1.994,2.367,3.666,2.593
			c5.473,0.741,10.908,0.804,16.322-0.575c3.99-1.013,8.025-1.851,12.035-2.783c4.398-1.022,8.646-2.496,12.84-4.164
			c5.014-1.996,10.081-3.862,15.118-5.805c0.839-0.323,1.63-0.771,2.46-1.119c1.123-0.467,2.263-0.891,3.395-1.337
			c0.717-0.283,1.439-0.551,2.145-0.861c0.644-0.284,1.258-0.639,1.901-0.923c2.523-1.119,5.03-2.281,7.588-3.316
			c2.956-1.196,5.935-2.349,8.95-3.386c3.174-1.091,6.196-2.491,9.15-4.054c3.127-1.653,6.169-3.431,8.979-5.617
			c1.252-0.975,2.805-1.562,4.209-2.348c3.756-2.098,5.582-5.457,5.943-9.603c0.174-1.999-0.32-3.956-1.41-5.729
			c-1.964-3.193-4.172-6.161-7.009-8.656c-1.344-1.183-2.417-2.672-3.762-3.854c-3.388-2.978-7.011-5.603-11.013-7.763
			c-2.204-1.188-4.501-1.84-6.834-2.54c-1.417-0.426-2.825-0.889-4.219-1.391c-3.859-1.391-7.875-1.941-11.936-2.256
			c-1.931-0.15-3.865-0.25-5.799-0.354C307.135,318.998,305.527,318.936,303.924,318.862z"/>
		<path opacity="0.7" fill-rule="evenodd" clip-rule="evenodd" fill="#E8821B" d="M575.254,530.582
			c-1.301-1.505-2.437-2.928-3.687-4.24c-2.01-2.108-3.954-4.314-6.183-6.17c-3.111-2.588-5.187-6.072-8.109-8.8
			c-2.6-2.426-5.174-4.88-7.754-7.326c-1.104-1.045-2.174-2.127-3.296-3.149c-2.25-2.052-4.562-4.038-6.781-6.122
			c-2.037-1.911-3.974-3.929-5.982-5.872c-2.155-2.086-4.537-3.875-7.384-4.885c-2.385-0.848-4.773-1.758-7.348-1.916
			c-0.317-0.019-0.647-0.107-0.948-0.046c-2.606,0.523-5.225,1.01-7.808,1.64c-2.15,0.523-4.341,1.025-6.359,1.895
			c-3.084,1.325-6.022,2.984-9.044,4.455c-4.054,1.973-8.13,3.895-12.19,5.853c-0.744,0.358-1.484,0.736-2.186,1.171
			c-2.719,1.685-5.705,2.769-8.647,3.958c-1.409,0.569-2.772,1.248-4.177,1.827c-0.869,0.359-1.785,0.601-2.666,0.932
			c-3.742,1.408-7.469,2.857-11.219,4.239c-4.779,1.761-9.396,3.828-13.527,6.863c-0.346,0.253-0.773,0.392-1.16,0.59
			c-2.402,1.233-4.574,2.746-5.816,5.237c-0.875,1.752-0.74,3.565-0.018,5.361c1.1,2.728,2.773,5.117,4.313,7.601
			c2.159,3.483,4.86,6.492,7.522,9.558c0.617,0.71,1.051,1.58,1.638,2.32c0.667,0.843,1.409,1.626,2.124,2.43
			c0.295,0.33,0.666,0.607,0.893,0.979c1.76,2.874,4.158,5.229,6.293,7.799c1.371,1.652,1.383,1.476,3.358,0.912
			c2.976-0.85,6.013-1.489,9.024-2.214c1.91-0.459,3.821-0.914,5.734-1.362c0.426-0.101,0.861-0.172,1.295-0.246
			c2.68-0.453,5.361-0.897,8.04-1.361c1.127-0.195,2.243-0.444,3.368-0.65c1.561-0.286,3.121-0.573,4.689-0.819
			c0.875-0.139,1.76-0.221,2.645-0.285c3.479-0.258,6.959-0.498,10.44-0.744c0.38-0.027,0.767-0.029,1.141-0.099
			c3.624-0.671,7.26-1.294,10.866-2.053c1.98-0.419,3.906-1.092,5.867-1.61c3.068-0.811,6.181-1.469,9.208-2.404
			c4.052-1.252,8.312-1.783,12.22-3.531c0.336-0.149,0.749-0.217,1.118-0.193c1.525,0.104,2.86-0.478,4.215-1.052
			c0.565-0.239,1.215-0.527,1.788-0.461c2.053,0.241,3.888-0.458,5.761-1.081c1.86-0.619,3.739-1.184,5.61-1.77
			c0.668-0.21,1.352-0.375,2.004-0.621c3.211-1.211,6.416-2.432,9.615-3.674C574.207,531.269,574.605,530.96,575.254,530.582z"/>
		<path opacity="0.7" fill-rule="evenodd" clip-rule="evenodd" fill="#E8821B" d="M880.174,461.159
			c2.276-2.15,5.396-3.167,7.771-5.423c1.861-1.771,3.883-3.451,6.48-4.267c2.223-0.699,3.006-2.814,3.98-4.682
			c0.232-0.447,0.461-0.959,0.838-1.259c4.195-3.361,7.656-7.277,9.533-12.411c0.703-1.925,1.348-3.872,2.047-5.796
			c0.452-1.249,1.006-2.465,1.42-3.725c1.245-3.785,1.654-7.728,1.695-11.662c0.037-3.523-0.312-7.059-0.671-10.571
			c-0.145-1.436-0.785-2.817-1.159-4.234c-0.461-1.737-0.795-3.511-1.328-5.226c-1.713-5.506-4.407-10.558-7.309-15.508
			c-0.734-1.253-1.374-2.587-2.262-3.723c-2.407-3.088-4.329-6.522-7.167-9.324c-2.016-1.99-3.979-3.964-6.29-5.639
			c-2.527-1.835-4.789-4.033-7.262-5.952c-1.52-1.181-3.189-2.179-4.842-3.175c-1.068-0.643-2.114-0.583-3.112,0.344
			c-1.709,1.583-3.474,3.033-4.771,5.083c-1.96,3.102-4.273,5.982-6.492,8.916c-1.143,1.51-2.08,3.062-2.592,4.929
			c-0.438,1.6-1.249,3.099-1.93,4.627c-0.738,1.664-1.186,3.377-1.414,5.202c-0.402,3.241-1.17,6.443-1.508,9.692
			c-0.341,3.259-0.393,6.552-0.484,9.832c-0.1,3.67-0.144,7.344-0.125,11.014c0.009,1.67,0.122,3.355,0.375,5.004
			c0.62,4.034,1.111,8.109,2.105,12.055c0.907,3.604,2.037,7.192,3.855,10.5c0.475,0.868,0.772,1.836,1.139,2.764
			c0.317,0.81,0.528,1.672,0.934,2.433c1.352,2.517,2.727,5.024,4.188,7.479c0.506,0.848,1.257,1.56,1.949,2.281
			c1.155,1.201,2.07,2.438,2.707,4.084c0.693,1.796,2.039,3.446,3.807,4.52c1.115,0.677,2.17,1.502,3.693,1.104
			C878.499,460.311,879.188,460.818,880.174,461.159z"/>
		<path fill-rule="evenodd" clip-rule="evenodd" d="M436.942,414.633c-0.505-0.172-1.007-0.359-1.492-0.576
			c-2.922-1.309-5.745-2.924-8.777-3.881c-5.78-1.826-11.34-4.191-16.966-6.398c-1.975-0.773-3.866-1.756-5.797-2.642
			c-3.166-1.451-6.38-2.809-9.488-4.376c-3.054-1.541-5.977-3.34-9.002-4.942c-3.689-1.954-7.435-3.804-11.14-5.729
			c-2.7-1.402-5.442-2.742-8.047-4.307c-3.96-2.377-8.036-4.526-12.117-6.674c-0.577-0.305-1.132-0.654-1.722-0.928
			c-4.297-1.993-8.676-3.827-12.571-6.581c-0.569-0.402-1.103-0.386-1.687-0.119c-1.19,0.544-2.376,1.099-3.574,1.624
			c-1.345,0.59-2.679,1.538-4.059,1.617c-1.346,0.078-2.37,0.664-3.526,1.057c-0.517,0.174-1.012,0.413-1.529,0.586
			c-1.964,0.659-3.938,1.281-5.69,2.447c-0.393,0.261-0.908,0.338-1.371,0.492c-0.566,0.189-1.15,0.338-1.703,0.562
			c-2.415,0.982-4.805,2.03-7.236,2.969c-2.742,1.061-5.521,2.027-8.283,3.041c-0.356,0.131-0.715,0.273-1.049,0.453
			c-4.109,2.211-8.537,3.608-12.971,4.943c-3.13,0.943-6.366,1.526-9.527,2.373c-3.272,0.876-6.566,1.593-9.947,1.844
			c-0.756,0.057-1.52,0.031-2.277-0.002c-1.742-0.077-3.5-0.377-5.22-0.229c-2.831,0.241-4.755-1.089-6.138-3.259
			c-1.592-2.496-2.039-5.34-1.944-8.29c0.118-3.694,1.38-7.159,2.128-10.724c0.298-1.414,0.91-2.818,1.645-4.073
			c1.426-2.438,2.996-4.795,4.582-7.134c2.17-3.199,4.375-6.376,6.63-9.516c1.905-2.653,3.867-5.267,5.871-7.846
			c1.866-2.402,3.806-4.748,5.745-7.094c0.882-1.067,1.793-2.081,0.779-3.55c-0.055-0.079-0.039-0.213-0.043-0.321
			c-0.047-1.299-0.17-2.601-0.121-3.896c0.104-2.665,0.227-5.332,0.473-7.987c0.321-3.478,0.677-6.958,1.191-10.411
			c0.464-3.107,0.362-6.188,0.174-9.299c-0.097-1.611,0.023-3.269,0.291-4.864c0.324-1.925,0.845-3.825,1.402-5.699
			c0.522-1.757,0.506-3.655,1.55-5.286c0.456-0.712,0.698-1.62,0.825-2.471c0.426-2.854,0.711-5.73,1.136-8.585
			c0.474-3.179,0.98-6.355,1.585-9.512c0.594-3.104,1.332-6.18,1.999-9.271c0.275-1.271,0.636-2.535,0.776-3.822
			c0.338-3.084,0.713-6.153,1.511-9.164c0.766-2.889,1.476-5.793,2.153-8.703c0.703-3.017,1.371-6.042,1.995-9.076
			c0.494-2.396,1.06-4.796,1.307-7.224c0.399-3.918,1.413-7.7,2.254-11.521c0.844-3.828,1.924-7.598,2.55-11.48
			c0.433-2.682,0.814-5.378,1.605-8.005c0.765-2.536,1.271-5.15,1.918-7.724c0.131-0.523,0.406-1.011,0.584-1.525
			c0.745-2.158,2.215-3.975,2.877-6.178c0.112-0.375,0.448-0.766,0.789-0.973c0.983-0.6,1.613-1.424,1.972-2.505
			c0.097-0.294,0.296-0.589,0.526-0.799c1.881-1.726,3.652-3.603,6.178-4.444c2.054-0.684,3.772-2.145,5.992-2.486
			c1.737-0.268,3.444-0.545,5.183-0.076c1.907,0.517,3.661,1.391,5.33,2.41c1.251,0.765,2.488,1.604,3.035,3.09
			c0.28,0.766,0.478,1.58,0.879,2.277c1.032,1.792,1.425,3.762,1.818,5.744c0.126,0.641,0.313,1.27,0.495,1.897
			c0.437,1.517,0.949,3.015,1.318,4.546c0.921,3.811,1.658,7.67,2.691,11.447c1.319,4.82,2.847,9.582,4.312,14.36
			c0.254,0.827,0.713,1.593,0.966,2.419c0.935,3.063,1.371,6.258,2.589,9.256c0.898,2.217,1.514,4.548,2.285,6.818
			c0.562,1.648,1.284,3.25,1.74,4.927c0.786,2.893,1.415,5.828,2.121,8.743c0.293,1.21,0.6,2.417,0.931,3.617
			c0.157,0.57,0.479,1.105,0.571,1.683c0.548,3.431,2.09,6.507,3.445,9.641c0.636,1.47,1.771,2.739,2.313,4.231
			c1.402,3.85,3.665,7.157,6.079,10.394c1.202,1.612,2.529,3.146,3.583,4.848c2.312,3.737,5.265,6.944,8.306,10.043
			c2.862,2.915,6.012,5.552,9.072,8.268c0.6,0.531,1.341,0.944,2.078,1.271c2.327,1.032,4.692,1.979,7.026,2.997
			c1.245,0.543,2.426,1.246,3.69,1.733c4.048,1.558,8.125,3.04,12.185,4.569c1.376,0.519,2.704,1.186,4.106,1.611
			c3.662,1.113,6.865,3.262,10.455,4.535c1.586,0.562,3.1,1.364,4.716,1.8c3.415,0.919,6.878,1.665,10.319,2.489
			c2.328,0.559,4.636,1.215,6.982,1.674c2.676,0.521,5.381,0.902,8.082,1.275c0.637,0.088,1.373,0.438,2.102-0.242
			c-0.578-0.578-1.063-1.169-1.65-1.632c-2.009-1.586-4.075-3.098-6.077-4.691c-2.386-1.899-4.718-3.866-7.089-5.784
			c-1.354-1.096-2.825-2.064-4.095-3.25c-2.897-2.704-5.704-5.508-8.55-8.269c-0.194-0.188-0.399-0.368-0.611-0.538
			c-3.104-2.491-6.253-4.932-9.308-7.482c-3.64-3.041-7.212-6.162-10.788-9.278c-1.929-1.683-3.783-3.45-5.709-5.137
			c-2.213-1.94-4.479-3.821-6.699-5.753c-2.059-1.789-4.08-3.629-5.608-5.908c-0.597-0.889-1.043-1.896-1.44-2.896
			c-0.7-1.758-0.572-3.643-0.745-5.486c-0.225-2.4,0.902-4.062,2.53-5.562c0.634-0.585,1.243-1.197,1.843-1.818
			c0.413-0.429,0.778-0.905,1.187-1.341c1.895-2.023,3.848-3.993,5.682-6.069c1.873-2.122,3.596-4.366,5.752-6.239
			c1.434-1.247,2.733-2.658,4.026-4.057c2.552-2.758,5.04-5.574,7.586-8.338c1.73-1.879,3.528-3.695,5.269-5.563
			c1.109-1.189,2.127-2.468,3.26-3.634c3.898-4.016,8.053-7.807,11.002-12.649c0.195-0.319,0.5-0.577,0.77-0.846
			c2.05-2.033,4.132-4.034,6.146-6.102c1.521-1.56,2.957-3.202,4.427-4.812c0.513-0.561,1.001-1.146,1.521-1.7
			c2.238-2.382,4.496-4.745,6.724-7.136c1.598-1.714,3.105-3.513,4.748-5.181c2.942-2.989,5.952-5.913,8.942-8.854
			c0.892-0.879,1.861-1.682,2.713-2.596c3.564-3.825,7.114-7.665,10.634-11.531c1.209-1.328,2.352-2.722,3.458-4.137
			c0.803-1.026,1.442-2.182,2.248-3.203c1.811-2.297,4.006-4.294,5.341-6.961c0.136-0.271,0.473-0.441,0.72-0.655
			c0.536-0.463,1.084-0.912,1.608-1.388c2.092-1.891,3.472-4.477,5.895-6.047c0.044-0.028,0.077-0.077,0.111-0.119
			c0.928-1.131,1.843-2.273,2.792-3.387c0.275-0.323,0.61-0.726,0.984-0.814c2.195-0.523,4.199-1.834,6.588-1.578
			c2.205,0.236,4.478,0.176,6.206,1.965c0.404,0.418,1.003,0.651,1.521,0.956c0.558,0.329,1.148,0.606,1.683,0.968
			c2.298,1.556,4.561,3.161,6.87,4.697c3.167,2.106,6.361,4.104,9.163,6.774c3.62,3.451,7.622,6.507,11.507,9.675
			c3.456,2.819,7.026,5.501,10.455,8.352c4.32,3.592,8.78,6.99,13.394,10.192c0.669,0.464,1.281,1.016,1.895,1.556
			c2.657,2.342,5.261,4.748,7.971,7.025c1.917,1.61,3.995,3.027,5.965,4.577c1.371,1.08,2.649,2.278,4.022,3.354
			c3.086,2.416,6.237,4.749,9.301,7.191c2.685,2.141,5.287,4.383,7.922,6.586c1.212,1.014,2.383,2.081,3.628,3.053
			c1.839,1.435,3.749,2.779,5.592,4.209c3.399,2.639,6.759,5.33,10.164,7.963c1.333,1.031,2.759,1.943,4.116,2.946
			c3.153,2.33,6.281,4.695,9.441,7.017c0.705,0.518,1.539,0.986,2.425,0.508c2.154-1.162,4.541-1.103,6.854-1.33
			c1.842-0.181,3.722-0.193,5.566-0.048c1.831,0.144,3.598-0.438,5.457-0.129c2.783,0.464,5.632,0.535,8.424,0.96
			c1.699,0.259,3.419,0.605,4.869,1.734c1.538,1.198,3.188,2.25,4.758,3.408c0.785,0.578,1.521,1.228,2.242,1.885
			c1.646,1.501,3.264,3.029,4.902,4.537c0.32,0.294,0.673,0.557,1.027,0.811c1.943,1.393,3.996,2.652,5.601,4.464
			c1.226,1.383,2.479,2.747,3.598,4.214c1.884,2.473,3.728,4.961,6.013,7.102c1.913,1.794,4.239,3.248,5.189,5.909
			c0.1,0.28,0.431,0.481,0.664,0.71c1.128,1.101,2.255,2.202,3.391,3.295c1.371,1.32,2.924,2.496,4.091,3.977
			c2.387,3.028,5.06,5.809,7.269,9.005c2.129,3.08,4.665,5.902,7.205,8.669c3.525,3.838,7.238,7.504,10.839,11.275
			c1.239,1.299,2.463,2.627,3.546,4.055c1.574,2.074,2.973,4.281,4.52,6.377c2.394,3.243,4.837,6.451,7.284,9.654
			c1.188,1.556,2.445,3.059,3.649,4.602c1.737,2.227,3.453,4.468,5.18,6.701c1.991,2.576,4.483,4.732,6.262,7.485
			c0.504,0.779,0.969,1.586,1.516,2.333c0.751,1.025,1.646,1.737,3.012,2.023c1.68,0.352,3.229,1.277,5.024,1.245
			c0.198-0.003,0.397,0.169,0.603,0.242c2.047,0.731,4.08,1.504,6.147,2.175c1.756,0.568,3.555,0.998,5.324,1.525
			c1.666,0.498,3.31,1.076,4.979,1.561c1.881,0.545,3.801,0.961,5.669,1.547c3.104,0.975,6.122,2.186,9.257,3.116
			c3.646,1.081,7.443,1.625,10.974,3.189c2.06,0.913,4.374,1.245,6.571,1.851c0.256,0.071,0.548,0.166,0.723,0.346
			c0.758,0.779,1.735,0.819,2.716,0.92c0.528,0.053,1.071,0.137,1.567,0.316c0.699,0.252,1.334,0.749,2.045,0.888
			c2.619,0.513,5.179,1.23,7.646,2.219c2.371,0.951,4.673,2.078,7.009,3.122c0.297,0.133,0.607,0.311,0.918,0.323
			c0.888,0.037,1.521,0.537,2.167,1.042c0.343,0.268,0.674,0.576,1.059,0.763c2.085,1.011,4.063,2.214,6.091,3.312
			c1.68,0.909,3.217,1.978,4.797,3.008c1.185,0.771,2.416,1.484,3.531,2.344c1.03,0.794,1.838,1.897,2.916,2.601
			c2.099,1.369,4.121,2.749,5.697,4.771c1.701,2.181,3.691,4.138,5.376,6.33c1.019,1.324,1.637,2.947,2.54,4.371
			c1.65,2.596,3.537,5.035,4.671,7.948c0.848,2.177,2.045,4.224,2.808,6.425c1.099,3.175,1.948,6.435,2.891,9.662
			c0.09,0.31,0.091,0.648,0.104,0.975c0.075,1.732,0.114,3.469,0.216,5.199c0.169,2.861,1.072,5.691,0.314,8.59
			c-0.273,1.041-0.425,2.115-0.728,3.145c-0.413,1.406-0.923,2.781-1.382,4.174c-0.32,0.972-0.583,1.963-0.948,2.916
			c-0.271,0.705-0.775,1.33-0.987,2.047c-0.799,2.706-2.457,4.843-4.358,6.83c-1.638,1.711-2.714,3.856-4.443,5.52
			c-0.876,0.842-1.649,1.725-2.825,2.117c-1.635,0.548-3.01,1.478-4.279,2.64c-1.121,1.027-2.368,1.918-3.564,2.861
			c-1.451,1.143-3.013,2.168-4.328,3.447c-1.231,1.197-2.417,2.349-4.104,2.862c-0.406,0.123-0.797,0.375-1.133,0.645
			c-1.686,1.359-3.629,2.184-5.66,2.863c-1.032,0.345-2.043,0.763-3.036,1.211c-1.982,0.893-3.947,1.824-5.915,2.748
			c-1.281,0.603-2.547,1.24-3.834,1.828c-1.58,0.721-3.124,1.588-4.777,2.066c-2.895,0.838-5.641,1.951-8.271,3.412
			c-2.246,1.247-4.59,2.271-7.132,2.793c-0.958,0.197-1.984,0.369-2.809,0.846c-1.664,0.965-3.419,1.611-5.237,2.205
			c-4.765,1.557-9.492,3.229-14.225,4.883c-1.128,0.393-2.21,0.912-3.328,1.332c-1.784,0.672-3.59,1.285-5.37,1.966
			c-1.728,0.66-3.556,1.172-5.122,2.11c-2.261,1.354-4.528,2.342-7.215,2.061c-0.213-0.022-0.436,0.012-0.651,0.043
			c-3.925,0.556-7.697,2.008-11.732,1.943c-1.024-0.017-2.062,0.148-3.077,0.322c-1.446,0.246-2.971,0.363-4.292,0.93
			c-1.557,0.667-3.077,0.574-4.647,0.5c-0.324-0.016-0.643-0.13-0.967-0.151c-4.176-0.278-8.379,0.203-12.542-0.46
			c-0.534-0.086-1.091-0.016-1.638-0.026c-3.327-0.067-6.654-0.134-9.98-0.21c-0.381-0.009-0.758-0.092-1.139-0.109
			c-1.249-0.061-2.498-0.114-3.748-0.154c-0.597-0.02-1.194-0.005-1.792-0.002c-0.87,0.006-1.74,0.032-2.61,0.019
			c-2.114-0.032-4.294,0.219-6.324-0.216c-1.859-0.398-3.676-0.375-5.496-0.344c-3.427,0.057-6.851,0.338-10.275,0.538
			c-0.762,0.045-1.521,0.205-2.281,0.201c-1.836-0.011-3.643,0.613-5.514,0.089c-0.754-0.213-1.627-0.009-2.445,0.024
			c-0.433,0.018-0.865,0.117-1.296,0.109c-2.939-0.056-5.879-0.128-8.818-0.199c-0.488-0.013-0.999,0.042-1.46-0.083
			c-1.782-0.483-3.551-0.335-5.355-0.133c-1.999,0.225-4.021,0.369-6.03,0.34c-1.615-0.024-3.226-0.363-4.839-0.555
			c-0.27-0.032-0.562-0.092-0.812-0.023c-1.726,0.469-3.336-0.234-4.986-0.477c-1.99-0.291-3.963-0.703-5.953-0.998
			c-0.579-0.086-1.308,0.273-1.766,0.037c-1.23-0.637-1.907-0.158-2.56,0.828c-0.294,0.446-0.811,0.74-1.137,1.17
			c-2.256,2.964-5.369,4.791-8.636,6.33c-5.47,2.574-10.961,5.107-16.532,7.463c-2.156,0.912-4.254,1.961-6.388,2.928
			c-1.735,0.785-3.455,1.616-5.233,2.287c-2.19,0.827-4.463,1.438-6.649,2.271c-2.954,1.125-5.853,2.396-8.791,3.564
			c-3.031,1.207-6.068,2.403-9.13,3.53c-1.785,0.657-3.623,1.167-5.436,1.747c-0.414,0.131-0.824,0.271-1.232,0.418
			c-1.946,0.694-3.873,1.445-5.84,2.072c-1.816,0.577-3.702,0.943-5.51,1.541c-4.496,1.49-8.974,3.037-13.443,4.604
			c-3.544,1.244-7.05,2.594-10.6,3.818c-3.501,1.209-7.035,2.322-10.556,3.473c-0.517,0.168-1.034,0.401-1.565,0.448
			c-2.83,0.249-5.403,1.782-8.31,1.646c-0.204-0.01-0.425,0.103-0.621,0.195c-3.342,1.568-6.997,2.055-10.507,3.047
			c-1.152,0.325-2.294,0.695-3.453,0.992c-1.475,0.38-2.98,0.645-4.44,1.07c-2.565,0.748-5.086,1.665-7.812,1.66
			c-0.434,0-0.885,0.034-1.298,0.155c-3.805,1.114-7.786,0.96-11.651,1.636c-0.212,0.037-0.447,0.064-0.65,0.015
			c-1.553-0.385-3.027,0.107-4.522,0.374c-1.288,0.23-2.573,0.476-3.862,0.705c-0.643,0.114-1.294,0.189-1.936,0.316
			c-2.346,0.466-4.684,0.979-7.035,1.414c-4.398,0.816-8.769,1.75-13.066,3c-0.675,0.195-1.322,0.492-1.979,0.754
			c-1.053,0.419-2.069,0.981-3.159,1.242c-2.058,0.49-4.157,0.798-6.235,1.201c-2.02,0.392-4.019,0.98-6.055,1.174
			c-3.575,0.34-6.883,1.652-10.316,2.502c-3.327,0.823-6.653,1.658-10.004,2.38c-2.23,0.481-4.504,0.76-6.753,1.156
			c-4.511,0.796-9.012,1.642-13.528,2.401c-1.824,0.308-3.697,0.335-5.512,0.682c-4.12,0.786-8.209,1.733-12.326,2.536
			c-4.925,0.96-9.857,1.886-14.803,2.737c-5.502,0.947-10.952,0.67-16.317-0.953c-2.917-0.883-5.514-2.236-7.606-4.545
			c-1.453-1.604-3.119-3.014-4.665-4.537c-0.34-0.335-0.69-0.743-0.83-1.184c-0.705-2.233-1.389-4.475-1.98-6.74
			c-0.247-0.94-0.206-1.952-0.367-2.92c-0.376-2.255-0.821-4.498-1.187-6.754c-0.287-1.773-0.466-3.564-0.748-5.34
			c-0.467-2.931-0.645-5.85,0.123-8.761c0.651-2.476,1.403-4.907,1.67-7.492c0.444-4.323,1.228-8.61,1.729-12.93
			c0.31-2.664,0.515-5.321,1.683-7.794c0.183-0.385,0.186-0.852,0.308-1.27c0.152-0.518,0.321-1.031,0.521-1.531
			c0.869-2.188,2.467-3.822,4.117-5.428c2.658-2.586,5.481-4.957,8.418-7.229c2.835-2.194,5.403-4.736,8.051-7.168
			c2.887-2.651,5.709-5.372,8.598-8.021c2.768-2.541,5.582-5.033,8.381-7.541c1.504-1.346,3.053-2.643,4.52-4.027
			c3.088-2.916,6.157-5.854,9.19-8.825c1.939-1.901,3.738-3.948,5.717-5.805c1.742-1.634,3.67-3.068,5.474-4.64
			c3.654-3.184,7.221-6.473,10.938-9.583c3.843-3.215,7.799-6.297,11.748-9.382c2.74-2.142,5.552-4.189,8.419-6.346
			C439.279,415.297,438.074,415.02,436.942,414.633z M565.536,149.683c-0.993-1.061-2.239-1.89-3.392-2.799
			c-2.631-2.076-5.263-4.151-7.915-6.2c-1.116-0.862-2.306-1.631-3.422-2.493c-0.86-0.665-1.647-1.425-2.489-2.116
			c-3.703-3.04-7.174-6.349-11.126-9.107c-1.992-1.391-3.842-3.031-5.91-4.323c-1.274-0.796-2.737-1.313-4.155-1.851
			c-1.556-0.59-3.157-1.058-4.887-1.628c-0.205,0.603-0.443,0.991-0.453,1.386c-0.082,2.982-0.683,5.937-0.337,8.945
			c0.628,5.474,0.599,10.98,0.716,16.479c0.061,2.829,0.511,5.648,0.632,8.479c0.147,3.481,0.1,6.972,0.21,10.456
			c0.067,2.121,0.254,4.239,0.423,6.354c0.14,1.736,0.423,3.464,0.483,5.202c0.16,4.543,1.036,8.996,1.568,13.492
			c0.25,2.111,0.338,4.244,0.459,6.369c0.139,2.443,0.277,4.889,0.333,7.334c0.036,1.631-0.132,3.266-0.104,4.897
			c0.062,3.757-0.373,7.557,0.521,11.251c1.019,4.215,1.018,8.543,1.672,12.793c0.364,2.369,0.864,4.719,1.199,7.092
			c0.388,2.754,0.646,5.525,0.985,8.287c0.279,2.271,0.552,4.545,0.904,6.807c0.502,3.223,1.503,6.32,2.497,9.414
			c0.299,0.929,0.678,1.853,1.174,2.688c0.278,0.47,0.814,0.89,1.33,1.1c3.13,1.278,6.332,2.21,9.755,2.448
			c4.459,0.311,8.9,0.871,13.35,1.324c0.271,0.027,0.545,0.112,0.812,0.092c3.951-0.297,7.817,0.639,11.738,0.8
			c1.902,0.078,3.791,0.44,5.69,0.634c3.417,0.349,6.837,0.666,10.256,1c1.302,0.127,2.599,0.31,3.902,0.392
			c4.518,0.286,9.035,0.646,13.559,0.779c7.356,0.218,14.718,0.271,22.077,0.409c3.32,0.062,6.641,0.168,9.961,0.249
			c1.471,0.036,2.941,0.042,4.412,0.095c4.295,0.152,8.568,0.875,12.885,0.474c0.543-0.051,1.09-0.049,1.632-0.106
			c2.716-0.283,5.427-0.641,8.153-0.085c0.42,0.085,0.871,0.022,1.308,0.017c1.534-0.023,1.833-0.416,1.528-1.881
			c-0.563-2.721-1.266-5.426-1.609-8.174c-0.471-3.758-1.561-7.354-2.505-10.988c-0.45-1.734-1.301-3.39-1.562-5.142
			c-0.407-2.719-1.608-5.103-2.803-7.464c-1.618-3.199-3.483-6.277-5.337-9.35c-1.393-2.309-3.075-4.448-3.918-7.061
			c-0.049-0.154-0.113-0.311-0.203-0.445c-1.91-2.898-1.48-5.917-0.428-8.947c0.29-0.835,0.202-1.404-0.559-1.965
			c-2.846-2.097-5.651-4.249-8.468-6.386c-1.866-1.415-3.681-2.901-5.599-4.243c-1.827-1.277-3.763-2.4-5.64-3.607
			c-3.899-2.508-7.647-5.219-11.142-8.271c-4.147-3.623-8.292-7.25-12.416-10.9c-4.079-3.612-8.094-7.299-12.213-10.865
			c-1.642-1.422-3.513-2.574-5.232-3.91c-2.191-1.703-4.316-3.49-6.505-5.197c-1.46-1.138-3.007-2.164-4.464-3.307
			c-0.721-0.565-1.297-1.311-1.987-1.92c-0.488-0.43-0.915-1.195-1.788-0.511c-0.15,0.118-0.646-0.011-0.846-0.183
			c-0.824-0.71-1.597-1.48-2.388-2.229c0.517,0.213,1.034,0.426,1.552,0.639c-0.391-0.549-0.668-1.458-1.512-0.592
			C568.274,152.488,566.886,151.123,565.536,149.683z M622.985,442.251c1.847,1.394,3.552,2.839,4.907,4.778
			c2.055,2.941,4.354,5.708,7.221,7.941c1.118,0.871,2.197,1.797,2.832,3.127c0.16,0.336,0.447,0.619,0.707,0.899
			c2.513,2.706,4.994,5.444,7.561,8.099c2.445,2.529,5.018,4.935,7.467,7.46c2.198,2.266,4.36,4.572,6.422,6.961
			c0.764,0.884,1.215,2.043,1.774,3.094c0.706,1.325,1.586,2.274,3.276,2.276c0.955,0,1.902,0.41,2.865,0.564
			c1.338,0.215,2.682,0.435,4.031,0.525c2.82,0.191,5.646,0.314,8.472,0.438c2.812,0.123,5.626,0.197,8.437,0.321
			c1.141,0.05,2.275,0.208,3.416,0.253c2.664,0.107,5.329,0.211,7.995,0.241c1.139,0.012,2.28-0.163,3.42-0.255
			c1.632-0.133,3.229-0.104,4.878,0.158c1.854,0.294,3.795,0.18,5.686,0.058c3.265-0.21,6.517-0.63,9.781-0.831
			c2-0.122,4.016-0.028,6.022,0.021c2.282,0.059,4.562,0.197,6.843,0.263c4.745,0.136,9.491,0.31,14.236,0.324
			c1.207,0.004,2.352,0.25,3.528,0.319c2.392,0.141,4.786,0.285,7.181,0.311c3.322,0.035,6.643,0.151,9.968-0.223
			c1.288-0.146,2.536-0.217,3.819-0.566c1.436-0.391,3.026-0.164,4.527-0.368c2.047-0.277,4.071-0.71,6.106-1.071
			c0.533-0.094,1.075-0.14,1.602-0.26c1.155-0.261,2.3-0.569,3.455-0.833c1.429-0.326,2.853-0.724,4.301-0.913
			c1.695-0.223,3.325-0.55,4.852-1.361c0.618-0.329,1.325-0.485,1.98-0.75c0.648-0.262,1.283-0.559,1.92-0.847
			c0.147-0.067,0.277-0.223,0.423-0.235c2.991-0.242,5.383-2.334,8.338-2.695c0.363-0.045,0.706-0.281,1.049-0.45
			c0.342-0.168,0.652-0.429,1.01-0.534c2.031-0.598,4.071-1.162,6.11-1.732c0.155-0.043,0.354,0.01,0.483-0.066
			c2.048-1.186,4.479-1.08,6.616-1.986c2.255-0.954,4.54-1.853,6.856-2.646c1.899-0.651,3.872-1.085,5.795-1.672
			c0.723-0.221,1.473-0.495,2.078-0.93c2.754-1.973,5.844-3.201,9.076-4.032c1.561-0.401,2.951-1.079,4.379-1.755
			c2.36-1.117,4.763-2.144,7.14-3.226c0.791-0.359,1.546-0.8,2.337-1.155c1.988-0.893,4-1.734,5.979-2.645
			c0.88-0.404,1.729-0.887,2.551-1.4c0.905-0.566,1.762-1.211,2.726-1.881c-1.043-0.865-2.062-1.584-2.922-2.457
			c-1.139-1.154-2.267-2.35-3.195-3.671c-1.75-2.489-3.419-5.042-5.004-7.64c-2.91-4.771-4.936-9.954-6.81-15.193
			c-0.474-1.324-0.784-2.721-1.029-4.109c-0.625-3.534-1.271-7.07-1.71-10.629c-0.266-2.151-0.176-4.348-0.223-6.523
			c-0.025-1.201-0.031-2.403,0.004-3.604c0.084-2.889,0.098-5.785,0.331-8.662c0.171-2.113,0.634-4.204,0.989-6.3
			c0.264-1.558,0.523-3.118,0.865-4.658c0.223-1.001,0.531-1.993,0.902-2.949c0.828-2.133,1.707-4.245,2.594-6.354
			c0.209-0.496,0.492-0.973,0.81-1.409c1.498-2.072,3.001-4.142,4.538-6.184c1.113-1.479,2.305-2.898,3.418-4.379
			c0.446-0.594,0.773-1.276,1.195-1.985c-1.504-1.014-2.839-2.04-4.531-2.63c-1.459-0.508-2.724-1.551-4.114-2.279
			c-1.25-0.656-2.51-1.338-3.842-1.777c-3.663-1.208-7.364-2.302-11.058-3.419c-0.518-0.157-1.079-0.165-1.609-0.288
			c-0.507-0.117-1.005-0.279-1.498-0.445c-1.378-0.465-2.753-0.937-4.126-1.412c-1.409-0.488-2.805-1.015-4.224-1.47
			c-1.965-0.63-3.94-1.231-5.924-1.802c-1.249-0.36-2.538-0.59-3.78-0.971c-2.446-0.753-4.866-1.592-7.312-2.349
			c-0.716-0.222-1.479-0.284-2.221-0.417c-0.107-0.02-0.232,0.006-0.322-0.041c-3.357-1.727-7.242-1.863-10.625-3.54
			c-0.861-0.427-1.868-0.571-2.818-0.81c-2.265-0.568-4.544-1.081-6.798-1.689c-0.661-0.178-1.231-0.684-1.89-0.893
			c-1.864-0.592-3.752-1.111-5.634-1.647c-0.204-0.059-0.437-0.094-0.644-0.061c-3.267,0.519-5.129-1.358-6.732-3.819
			c-0.637-0.977-1.525-1.788-2.305-2.671c-0.105-0.119-0.327-0.199-0.347-0.321c-0.329-2.071-2.306-2.906-3.342-4.453
			c-1.085-1.62-2.359-3.113-3.558-4.658c-0.634-0.817-1.28-1.625-1.922-2.436c-1.25-1.581-2.522-3.144-3.74-4.748
			c-0.715-0.943-1.305-1.981-2.019-2.926c-0.687-0.911-1.491-1.732-2.188-2.637c-1.095-1.42-2.211-2.831-3.196-4.326
			c-2.249-3.413-4.686-6.688-7.288-9.828c-1.662-2.006-3.551-3.825-5.337-5.729c-1.446-1.543-2.892-3.088-4.338-4.631
			c-1.228-1.31-2.495-2.584-3.675-3.936c-2.616-2.996-5.189-6.031-7.779-9.051c-0.07-0.082-0.154-0.16-0.205-0.254
			c-1.895-3.568-4.829-6.272-7.526-9.185c-0.861-0.931-1.81-1.698-2.764-2.506c-2.036-1.727-3.703-3.806-5.228-6.009
			c-0.668-0.966-1.566-1.773-2.369-2.645c-0.585-0.636-1.126-1.33-1.789-1.875c-2.727-2.245-4.457-5.316-6.718-7.938
			c-1.588-1.842-3.528-3.391-5.378-4.993c-1.76-1.527-3.626-2.93-5.406-4.435c-1.232-1.041-2.068-2.572-3.779-3.013
			c-0.452-1.091-1.648-1.338-2.379-2.09c-1.311-1.348-2.821-2.373-4.494-3.188c-0.289-0.142-0.596-0.298-0.908-0.336
			c-3.236-0.403-6.469-1.015-9.716-1.102c-2.911-0.077-5.848-0.562-8.779,0.115c-1.2,0.277-2.488,0.216-3.737,0.219
			c-1.243,0.002-2.354,0.4-3.449,0.912c-0.986,0.46-1.992,0.883-2.958,1.381c-0.404,0.209-0.729,0.57-1.036,0.818
			c0.191,0.87,1.86,0.793,0.89,2.082c-0.465-0.136-0.962-0.281-1.587-0.465c-0.936,1.981-1.396,4.024-0.554,6.128
			c0.664,1.659,1.448,3.286,2.347,4.831c2.026,3.482,4.18,6.89,6.231,10.356c0.967,1.634,1.883,3.306,2.701,5.018
			c0.536,1.12,0.897,2.333,1.264,3.526c1.055,3.439,2.196,6.858,3.067,10.345c0.738,2.955,1.05,6.014,1.727,8.986
			c0.589,2.585,0.934,5.255,2.19,7.656c0.175,0.333,0.316,0.7,0.384,1.069c0.832,4.617,1.5,9.258,1.34,13.963
			c-0.052,1.518-0.357,3.033-0.629,4.536c-0.719,3.979-1.186,7.981-1.478,12.017c-0.414,5.711-0.897,11.42-1.49,17.115
			c-0.259,2.49-0.853,4.947-1.312,7.416c-0.717,3.858-1.429,7.719-2.189,11.57c-0.231,1.172-0.567,2.33-0.946,3.465
			c-0.828,2.479-1.608,4.98-2.605,7.393c-1.205,2.914-2.853,5.541-5.879,6.957c-0.049,0.023-0.108,0.04-0.143,0.078
			c-1.829,2.056-4.415,2.425-6.869,3.088c-3.107,0.839-6.265,1.438-9.485,1.203c-2.657-0.193-5.307-0.586-7.935-1.031
			c-1.16-0.196-2.273-0.707-3.385-1.135c-2.034-0.78-4.009-1.746-6.086-2.374c-2.251-0.681-4.119-2.144-6.356-2.825
			c-0.597-0.182-1.098-0.685-1.638-1.048c-2.869-1.929-5.794-3.776-8.095-6.438c-0.628-0.728-1.516-1.23-2.279-1.842
			c-1.858-1.488-3.888-2.769-5.49-4.566c-0.252-0.281-0.583-0.492-0.875-0.738c-1.659-1.402-3.472-2.662-4.941-4.241
			c-2.067-2.222-4.509-3.848-7.093-5.337c-0.268-0.154-0.44-0.471-0.656-0.713c-1.905-2.146-3.817-4.287-5.71-6.445
			c-0.282-0.322-0.482-0.721-0.702-1.094c-0.109-0.188-0.122-0.47-0.273-0.588c-1.5-1.168-2.26-3.091-4.062-3.952
			c-0.329-0.157-0.666-0.399-0.876-0.69c-0.759-1.055-1.444-2.161-2.202-3.218c-0.279-0.39-0.656-0.722-1.029-1.032
			c-0.958-0.795-1.938-1.562-2.91-2.338c-0.084-0.066-0.181-0.141-0.281-0.16c-1.908-0.379-3.652-1.416-5.666-1.384
			c-1.091,0.017-2.189-0.107-3.273-0.021c-1.025,0.082-2.049,0.302-3.048,0.556c-2.218,0.566-4.403,1.271-6.637,1.77
			c-2.175,0.484-4.398,0.752-6.591,1.169c-1.545,0.294-3.065,0.712-4.61,1.008c-0.573,0.11-1.188-0.017-1.776,0.042
			c-2.387,0.234-4.768,0.547-7.158,0.732c-1.131,0.087-2.279-0.078-3.42-0.076c-1.357,0.002-2.716,0.109-4.072,0.082
			c-1.469-0.031-2.934-0.195-4.402-0.246c-2.453-0.084-4.91-0.082-7.361-0.197c-1.624-0.075-3.242-0.293-4.863-0.445
			c-0.163-0.015-0.328-0.041-0.49-0.03c-5.334,0.351-10.635-0.673-15.97-0.388c-0.803,0.043-1.617-0.244-2.431-0.279
			c-2.507-0.107-5.018-0.137-7.523-0.258c-1.248-0.059-2.491-0.235-3.732-0.39c-0.905-0.112-1.772-0.442-2.707,0.079
			c-0.31,0.173-0.912-0.128-1.361-0.271c-0.457-0.146-0.874-0.47-1.335-0.537c-4.69-0.688-9.391-1.311-14.079-2.016
			c-1.334-0.201-2.631-0.637-3.955-0.914c-2.4-0.505-4.81-0.966-7.212-1.46c-0.42-0.087-0.824-0.255-1.239-0.372
			c-1.729-0.494-3.481-0.92-5.184-1.492c-2.114-0.71-4.294-1.338-6.256-2.365c-3.39-1.774-6.931-3.15-10.487-4.508
			c-2.427-0.925-4.901-1.725-7.334-2.635c-2.544-0.951-5.101-1.883-7.587-2.974c-3.892-1.708-7.748-3.501-11.573-5.354
			c-0.909-0.44-1.675-1.218-2.438-1.916c-2.246-2.06-4.448-4.167-6.686-6.237c-3.283-3.039-6.188-6.42-8.948-9.928
			c-1.785-2.27-3.606-4.517-5.261-6.879c-1.494-2.134-2.848-4.374-4.142-6.637c-1.08-1.887-2.075-3.833-2.941-5.826
			c-1.121-2.577-2.055-5.236-3.108-7.845c-1.253-3.101-1.528-6.446-2.472-9.627c-0.603-2.032-0.866-4.163-1.409-6.216
			c-0.387-1.463-0.992-2.867-1.489-4.301c-0.944-2.722-1.884-5.445-2.818-8.17c-0.582-1.699-1.288-3.371-1.697-5.111
			c-1.135-4.838-2.915-9.467-4.451-14.174c-0.691-2.122-1.508-4.205-2.148-6.342c-0.484-1.615-0.768-3.289-1.158-4.933
			c-0.515-2.172-1.045-4.341-1.573-6.509c-0.025-0.104-0.129-0.196-0.133-0.297c-0.134-3.322-1.436-6.349-2.393-9.463
			c-0.511-1.662-0.977-3.338-1.519-4.989c-0.707-2.151-2.173-3.612-4.292-4.378c-1.146-0.414-2.314-0.797-3.503-1.06
			c-2.754-0.61-5.088,0.615-7.481,1.733c-2.212,1.033-4.073,2.505-5.759,4.196c-1.104,1.107-2.092,2.365-2.954,3.672
			c-0.925,1.401-1.639,2.94-2.449,4.415c-0.791,1.44-1.259,3.002-1.836,4.528c-0.973,2.571-1.271,5.282-2.04,7.888
			c-0.581,1.971-0.934,4.039-1.116,6.088c-0.284,3.182-1.344,6.174-1.979,9.268c-0.768,3.737-1.764,7.428-2.504,11.17
			c-0.697,3.527-1.161,7.102-1.786,10.645c-0.312,1.767-0.707,3.523-1.147,5.264c-1.683,6.658-3.336,13.328-4.256,20.142
			c-0.543,4.013-1.584,7.909-2.402,11.857c-0.508,2.454-0.809,4.953-1.356,7.397c-1.062,4.735-1.031,9.646-2.38,14.332
			c-0.555,1.926-1.042,3.871-1.541,5.812c-0.079,0.308-0.05,0.642-0.09,0.961c-0.042,0.32,0.003,0.733-0.179,0.941
			c-2.104,2.406-1.675,5.343-1.944,8.437c1.188-0.728,0.623-1.918,1.371-2.713c0.3,0.613,0.199,1.198,0.079,1.699
			c-1.126,4.697-1.172,9.518-1.672,14.286c-0.343,3.257-0.825,6.499-1.117,9.76c-0.175,1.95-0.108,3.922-0.134,5.885
			c-0.003,0.249,0.097,0.499,0.159,0.798c1.138-0.812,2.214-1.506,3.208-2.305c3.389-2.719,7.431-3.786,11.549-4.713
			c5.117-1.152,10.281-1.115,15.467-0.714c0.701,0.054,1.412-0.022,2.116,0.017c1.519,0.083,3.056,0.086,4.55,0.334
			c2.146,0.355,4.271,0.856,6.383,1.381c1.74,0.432,3.453,0.975,5.169,1.498c0.513,0.156,0.996,0.411,1.493,0.621
			c0.699,0.295,1.404,0.576,2.096,0.889c1.332,0.601,2.768,1.055,3.961,1.863c2.469,1.676,4.807,3.547,7.201,5.333
			c0.172,0.128,0.364,0.229,0.549,0.341c2.325,1.396,4.311,3.146,5.714,5.5c1.06,1.777,2.177,3.523,3.154,5.345
			c1.035,1.931,1.048,4.102,1.182,6.226c0.308,4.876-1.817,8.52-5.818,11.112c-2.605,1.688-5.308,3.227-7.961,4.842
			c-0.271,0.165-0.504,0.394-0.94,0.74c0.416,0.367,0.711,0.748,1.1,0.953c2.548,1.346,5.074,2.747,7.69,3.947
			c2.623,1.204,5.265,2.341,7.676,3.958c0.757,0.507,1.688,0.745,2.492,1.191c3.284,1.826,6.532,3.715,9.827,5.52
			c3.243,1.776,6.531,3.47,9.791,5.216c1.047,0.562,2.052,1.198,3.098,1.765c0.903,0.487,1.843,0.909,2.754,1.383
			c2.604,1.354,5.174,2.775,7.808,4.066c4,1.962,8.036,3.851,12.069,5.743c2.462,1.155,4.919,2.329,7.431,3.369
			c2.907,1.204,5.854,2.319,8.817,3.378c2.093,0.748,4.252,1.309,6.361,2.012c0.717,0.24,1.361,0.687,2.061,0.99
			c2.838,1.236,5.672,2.482,8.532,3.663c1.139,0.47,2.4,0.55,3.47,1.319c0.59,0.424,1.219-0.193,1.709-0.626
			c1.227-1.082,2.386-2.246,3.667-3.257c3.329-2.629,6.707-5.194,10.071-7.778c0.475-0.365,1.059-0.618,1.456-1.049
			c2.185-2.372,4.977-3.853,7.761-5.333c2.691-1.432,5.428-2.779,8.148-4.156c1.234-0.626,2.568-0.814,3.926-1.025
			c1.673-0.262,3.326-0.282,5.007-0.313c2.698-0.051,5.323,0.292,7.965,0.755c3.419,0.601,6.872,1.01,10.294,1.592
			c2.305,0.391,4.588,0.911,6.87,1.42c2.921,0.65,5.825,1.379,8.749,2.014c1.872,0.406,3.635,1.121,5.447,1.693
			c3.418,1.08,6.939,1.834,10.408,2.759c1.842,0.491,3.719,0.921,5.484,1.621c2.565,1.019,5.028,2.296,7.567,3.388
			c1.696,0.729,3.46,1.305,5.178,1.988c2.528,1.006,5.042,2.047,7.562,3.072c2.011,0.817,4.027,1.621,6.028,2.461
			c0.588,0.248,1.134,0.597,1.694,0.906c0.714,0.393,1.394,0.863,2.14,1.178c2.354,0.992,4.703,2.01,7.109,2.86
			c1.891,0.669,3.853,1.116,5.682,1.988c2.589,1.235,5.208,2.409,7.831,3.571c2.023,0.897,4.07,1.743,6.114,2.598
			c0.745,0.311,1.487,0.688,2.27,0.85c2.929,0.605,5.517,2.008,8.145,3.331c1.211,0.61,2.413,1.241,3.651,1.792
			c2.611,1.163,4.943,2.771,7.225,4.459c0.475,0.351,0.808,0.888,1.255,1.283c0.343,0.303,0.763,0.518,1.358,0.91
			C620.344,440.789,621.864,441.404,622.985,442.251z M455.547,549.824c-0.649-0.791-1.289-1.59-1.953-2.369
			c-2.221-2.604-4.149-5.441-6.54-7.922c-1.338-1.389-2.361-3.1-3.42-4.734c-1.327-2.05-2.534-4.178-3.817-6.259
			c-0.427-0.692-0.974-1.312-1.383-2.015c-0.91-1.558-1.092-3.083-0.617-4.968c0.76-3.012,2.609-4.909,5.004-6.558
			c1.211-0.834,2.383-1.605,3.805-2.136c1.547-0.575,2.865-1.751,4.309-2.624c0.644-0.39,1.327-0.734,2.029-1.004
			c2.335-0.9,4.707-1.707,7.023-2.65c1.308-0.532,2.573-1.088,3.971-1.431c1.501-0.368,2.883-1.228,4.312-1.881
			c0.395-0.181,0.754-0.489,1.164-0.579c2.963-0.655,5.62-2.07,8.335-3.329c2.17-1.007,4.263-2.179,6.416-3.224
			c2.787-1.352,5.675-2.514,8.381-4.009c2.857-1.58,6.059-2.458,8.731-4.411c0.572-0.418,1.395-0.519,2.119-0.699
			c1.629-0.406,3.256-0.833,4.906-1.136c2.194-0.403,4.404-0.731,6.618-1.015c0.632-0.08,1.341-0.014,1.94,0.195
			c2.362,0.82,4.752,1.598,7.022,2.633c2.14,0.977,3.882,2.585,5.555,4.242c2.634,2.607,5.158,5.357,8.009,7.705
			c1.556,1.281,2.724,2.899,4.318,4.117c1.599,1.223,3.043,2.647,4.54,4c0.727,0.656,1.427,1.344,2.123,2.033
			c1.2,1.184,2.302,2.418,3.288,3.822c1.237,1.76,2.882,3.251,4.447,4.758c2.39,2.302,4.872,4.506,7.294,6.775
			c0.791,0.74,1.474,1.599,2.29,2.309c0.319,0.279,0.921,0.507,1.299,0.405c2.671-0.721,5.337-1.472,7.964-2.337
			c1.863-0.613,3.658-1.431,5.491-2.133c0.451-0.173,0.936-0.257,1.407-0.375c0.581-0.145,1.231-0.16,1.736-0.439
			c2.893-1.605,6.236-1.866,9.248-3.186c1.692-0.742,3.669-0.951,5.421-1.723c0.496-0.218,0.999-0.416,1.49-0.643
			c0.791-0.367,1.555-0.802,2.365-1.115c2.891-1.12,5.764-2.301,8.704-3.271c3.422-1.129,6.723-2.527,10.001-4.002
			c1.238-0.557,2.572-0.9,3.81-1.459c1.335-0.602,2.587-1.389,3.917-2.003c0.781-0.36,1.693-0.444,2.467-0.817
			c2.701-1.301,5.425-2.535,8.316-3.367c0.415-0.12,0.83-0.301,1.193-0.535c3.251-2.113,6.829-3.607,10.232-5.43
			c2.391-1.28,4.369-2.979,5.824-5.31c0.568-0.909,1.462-1.608,2.121-2.469c0.878-1.146,0.948-1.82,0.061-2.956
			c-1.537-1.967-3.148-3.885-4.829-5.73c-2.011-2.211-4.154-4.299-6.187-6.49c-1.775-1.916-3.448-3.928-5.221-5.846
			c-1.18-1.277-2.48-2.443-3.684-3.699c-1.393-1.455-2.73-2.963-4.109-4.432c-1.222-1.303-2.362-2.71-3.727-3.846
			c-1.663-1.385-2.93-3.029-4.113-4.807c-0.624-0.938-1.453-1.761-2.287-2.531c-1.475-1.361-3.027-2.639-4.541-3.959
			c-1.434-1.249-2.928-2.44-3.902-4.129c-0.16-0.276-0.393-0.545-0.655-0.721c-2.339-1.571-4.549-3.334-7.343-4.157
			c-1.391-0.409-2.658-1.238-3.98-1.881c-2.682-1.306-5.367-2.574-8.299-3.286c-1.242-0.302-2.383-1.025-3.569-1.557
			c-1.629-0.729-3.298-1.383-4.88-2.201c-2.951-1.525-5.979-2.861-9.163-3.789c-3.517-1.024-6.815-2.565-10.133-4.067
			c-0.635-0.287-1.18-0.771-1.778-1.142c-0.463-0.287-0.922-0.6-1.422-0.803c-2.363-0.959-4.748-1.868-7.109-2.834
			c-0.685-0.28-1.298-0.727-1.973-1.032c-1.729-0.783-3.461-1.562-5.218-2.278c-0.903-0.371-1.871-0.582-2.792-0.911
			c-1.436-0.513-2.855-1.065-4.281-1.601c-1.067-0.4-2.138-0.793-3.199-1.208c-0.352-0.138-0.707-0.293-1.018-0.503
			c-1.112-0.754-2.319-1.078-3.665-1.236c-1.099-0.131-2.14-0.735-3.208-1.124c-0.305-0.111-0.62-0.306-0.921-0.289
			c-1.746,0.096-3.292-0.697-4.936-1.045c-2.499-0.528-4.864-1.414-7.216-2.409c-1.168-0.494-2.569-0.421-3.855-0.653
			c-0.564-0.103-1.132-0.271-1.656-0.505c-1.449-0.647-2.903-1.221-4.526-1.293c-0.802-0.037-1.595-0.257-2.392-0.391
			c-2.513-0.422-5.022-0.859-7.539-1.257c-1.232-0.194-2.475-0.337-3.716-0.457c-1.082-0.104-2.171-0.147-3.256-0.216
			c-0.27-0.017-0.579,0.059-0.804-0.047c-1.862-0.88-3.854-0.586-5.801-0.679c-0.599-0.028-1.199-0.05-1.795-0.107
			c-2.438-0.237-4.645,0.263-6.549,1.9c-0.396,0.341-0.946,0.514-1.439,0.734c-1.938,0.87-3.999,1.539-5.785,2.651
			c-1.331,0.829-2.656,1.646-4.06,2.338c-0.683,0.337-1.364,0.702-2.086,0.93c-2.071,0.652-3.804,1.9-5.544,3.119
			c-3.395,2.375-6.645,4.939-9.682,7.765c-1.476,1.372-2.92,2.777-4.383,4.163c-0.236,0.225-0.461,0.498-0.746,0.625
			c-2.828,1.253-5.174,3.217-7.592,5.078c-3.021,2.326-6.112,4.564-9.051,6.988c-5.469,4.51-10.887,9.082-16.256,13.709
			c-5.491,4.731-10.789,9.663-15.724,14.995c-2.548,2.752-5.497,5.134-8.282,7.663c-3.914,3.558-7.837,7.106-11.771,10.643
			c-3.405,3.061-6.887,6.041-10.231,9.166c-2.911,2.719-5.988,5.229-9.023,7.799c-2.152,1.822-4,4.012-5.926,6.092
			c-1.494,1.613-1.656,3.757-2.066,5.779c-0.452,2.237-0.877,4.48-1.26,6.73c-0.373,2.198-0.713,4.404-1.007,6.614
			c-0.345,2.595-0.618,5.198-0.937,7.796c-0.053,0.432-0.092,0.901-0.29,1.271c-0.607,1.139-0.929,2.174,0.234,3.212
			c0.216,0.192,0.092,0.823,0.045,1.244c-0.561,5.071-0.494,10.126,0.364,15.161c0.118,0.693,0.4,1.356,0.534,2.049
			c0.55,2.832,1.111,5.662,1.586,8.508c0.306,1.828,0.799,3.487,2.386,4.666c0.453,0.336,0.659,0.985,1.053,1.426
			c1.584,1.774,3.182,3.541,5.475,4.441c0.249,0.098,0.516,0.249,0.764,0.233c1.034-0.067,1.779,0.24,2.248,1.253
			c0.146,0.315,0.676,0.535,1.072,0.641c3.571,0.951,7.224,1.201,10.876,0.828c2.854-0.291,5.673-0.911,8.509-1.377
			c1.117-0.184,2.251-0.288,3.355-0.527c3.24-0.698,6.467-1.458,9.704-2.17c1.651-0.363,3.304-0.734,4.972-0.998
			c3.665-0.579,7.342-1.08,11.009-1.64c1.022-0.155,2.025-0.431,3.045-0.603c3.106-0.525,6.228-0.974,9.323-1.552
			c3.158-0.589,6.292-1.309,9.44-1.948c1.069-0.217,2.172-0.286,3.225-0.557c3.321-0.857,6.624-1.791,9.942-2.663
			c0.891-0.234,1.813-0.341,2.717-0.528c1.971-0.41,3.963-0.744,5.899-1.279c2.031-0.561,4.009-1.32,6.278-2.083
			C457.393,552.078,456.471,550.951,455.547,549.824z M406.783,245.197c1.286-0.238,2.556-0.562,3.84-0.807
			c1.604-0.304,3.207-0.697,4.826-0.818c4.244-0.315,8.496-0.527,12.748-0.722c0.97-0.044,1.948,0.185,2.926,0.235
			c2.121,0.111,4.23,0.205,6.361-0.09c1.61-0.223,3.27-0.125,4.906-0.115c2.346,0.016,4.692,0.053,7.037,0.135
			c1.416,0.051,2.828,0.216,4.244,0.309c0.815,0.053,1.635,0.107,2.45,0.086c3.982-0.109,7.963-0.271,11.946-0.363
			c5.184-0.121,10.354-0.429,15.503-1.047c2.107-0.254,4.208-0.584,6.318-0.811c1.135-0.12,2.285-0.09,3.428-0.134
			c2.399-0.093,4.798-0.261,7.196-0.265c2.289-0.005,4.578,0.236,6.867,0.218c1.574-0.013,3.162-0.188,4.714-0.462
			c3.146-0.557,6.311-0.406,9.473-0.431c0.722-0.007,1.069,0.39,1.195,1.084c0.376,2.064-0.904,3.379-2.944,3.169
			c-1.568-0.162-3.164-0.206-4.739-0.125c-5.669,0.289-11.308,0.863-16.933,1.686c-3.335,0.488-6.737,0.566-10.115,0.709
			c-4.144,0.176-8.308,0.035-12.435,0.378c-5.03,0.417-10.033-0.048-15.047-0.001c-2.621,0.024-5.241,0.153-7.861,0.212
			c-1.741,0.038-3.483,0.043-5.226,0.051c-3.494,0.017-6.986,0.055-10.48,0.03c-4.035-0.028-8.07-0.113-12.105-0.176
			c-4.597-0.072-9.139,0.58-13.697,1.021c-1.41,0.137-2.837,0.155-4.23,0.384c-1.33,0.218-2.625,0.639-4.199,1.037
			c0.577,0.656,0.976,1.229,1.486,1.674c3.661,3.184,7.345,6.341,11.021,9.507c3.266,2.811,6.521,5.633,9.801,8.428
			c1.699,1.449,3.435,2.855,5.162,4.271c3.25,2.666,6.253,5.559,9.017,8.754c3.53,4.081,7.315,7.947,11.076,11.822
			c2.009,2.07,4.116,4.063,6.33,5.91c2.503,2.09,5.134,4.032,7.783,5.936c2.693,1.938,5.487,3.734,8.218,5.621
			c1.289,0.893,2.787,0.928,4.234,1.035c2.449,0.182,4.91,0.203,7.366,0.285c5.075,0.168,10.149,0.329,15.224,0.499
			c1.737,0.058,3.475,0.103,5.209,0.208c1.521,0.093,3.037,0.311,4.56,0.387c2.507,0.127,5.016,0.215,7.525,0.262
			c2.776,0.053,5.556,0.1,8.331,0.038c2.342-0.052,4.682-0.255,7.021-0.403c1.089-0.069,2.175-0.212,3.265-0.244
			c2.912-0.085,5.689-0.904,8.508-1.505c1.066-0.228,2.133-0.456,3.195-0.703c2.6-0.604,5.193-1.241,7.8-1.815
			c1.111-0.246,2.25-0.515,3.376-0.514c2.223,0.003,4.461-0.102,6.621,0.744c1.334,0.523,1.888,0.096,1.825-1.33
			c-0.103-2.344-0.334-4.681-0.51-7.02c-0.078-1.034-0.123-2.072-0.237-3.102c-0.271-2.436-0.541-4.873-0.874-7.301
			c-0.296-2.155-0.704-4.295-1.011-6.449c-0.147-1.039,1.229-2.796,2.097-2.787c0.943,0.01,2.357,1.283,2.487,2.264
			c0.107,0.811,0.234,1.624,0.263,2.439c0.125,3.542,0.207,7.085,0.325,10.627c0.062,1.854,0.154,3.709,0.253,5.562
			c0.155,2.886,0.289,5.773,0.527,8.652c0.044,0.523,0.432,1.148,0.853,1.487c1.809,1.452,3.311,3.146,4.477,5.146
			c0.105,0.183,0.274,0.359,0.457,0.46c2.173,1.198,3.367,3.358,4.972,5.104c2.058,2.237,3.933,4.643,5.909,6.956
			c0.312,0.366,0.704,0.705,1.126,0.931c3.364,1.8,6.084,4.378,8.765,7.036c1.58,1.567,3.363,2.931,5.066,4.373
			c2.909,2.463,6.053,4.639,8.766,7.347c0.938,0.938,2.187,1.563,3.309,2.341c1.043-0.838,1.525-1.86,2.021-2.884
			c0.206-0.426,0.423-0.921,0.782-1.187c3.262-2.405,6.03-5.334,8.892-8.176c4.406-4.377,8.92-8.646,13.375-12.974
			c0.742-0.72,1.389-1.538,2.135-2.254c1.846-1.771,3.781-3.452,5.571-5.278c1.402-1.431,2.864-2.887,3.898-4.576
			c1.667-2.721,3.597-5.178,5.828-7.441c1.142-1.158,2.086-2.511,3.175-3.725c1.447-1.615,2.958-3.174,4.424-4.771
			c1.033-1.125,2.043-2.271,3.053-3.416c0.932-1.056,1.489-2.217,1.429-3.703c-0.11-2.724-0.082-5.452-0.129-8.178
			c-0.017-0.926-0.327-1.322-1.38-1.503c-1.77-0.304-3.551-0.548-5.334-0.749c-2.49-0.278-4.984-0.528-7.482-0.722
			c-1.193-0.093-2.399,0.009-3.598-0.035c-3.653-0.134-7.305-0.341-10.96-0.431c-2.116-0.053-4.237,0.062-6.356,0.103
			c-0.218,0.004-0.437,0.022-0.651,0.001c-4.356-0.434-8.701-0.119-13.053,0.127c-1.234,0.07-2.488-0.26-3.737-0.34
			c-1.791-0.115-3.587-0.172-5.381-0.249c-0.927-0.04-1.854-0.067-2.781-0.108c-3.047-0.134-6.117-0.076-9.134-0.454
			c-4.228-0.53-8.513-0.06-12.721-0.962c-1.567-0.336-3.26-0.071-4.895-0.127c-2.126-0.07-4.251-0.192-6.378-0.279
			c-1.253-0.052-2.509-0.064-3.764-0.119c-1.52-0.065-3.038-0.189-4.56-0.229c-2.18-0.059-4.363-0.015-6.542-0.11
			c-2.114-0.094-4.223-0.308-6.334-0.468c-0.964-0.073-1.928-0.142-2.893-0.215c-3.19-0.242-6.389-0.419-9.57-0.749
			c-2.734-0.285-5.028-1.478-6.979-3.499c-1.163-1.205-1.874-2.82-3.435-3.69c-0.363-0.202-0.351-0.996-0.635-1.439
			c-1.248-1.947-1.604-4.119-1.84-6.367c-0.116-1.115-0.616-2.188-0.914-3.287c-0.62-2.291-0.35-4.661-0.581-6.987
			c-0.07-0.704-0.152-1.406-0.223-2.11c-0.044-0.432-0.207-0.905-0.092-1.293c0.429-1.438,0.011-2.801-0.228-4.186
			c-0.582-3.379-1.023-6.79-1.788-10.127c-1.008-4.396-0.919-8.893-1.514-13.322c-0.174-1.291-0.153-2.622-0.088-3.928
			c0.11-2.199-0.296-4.321-0.643-6.475c-0.354-2.202-0.44-4.451-0.581-6.685c-0.324-5.168-0.62-10.337-1.55-15.444
			c-0.126-0.694-0.098-1.416-0.161-2.123c-0.322-3.527-0.65-7.055-0.977-10.582c-0.166-1.792-0.344-3.583-0.499-5.375
			c-0.355-4.074-0.695-8.149-1.054-12.223c-0.314-3.586-0.678-7.166-0.951-10.754c-0.087-1.135,0.09-2.287,0.076-3.43
			c-0.028-2.453-0.17-4.906-0.14-7.357c0.036-2.835,0.232-5.667,0.309-8.502c0.05-1.846,0.009-3.695,0.009-5.837
			c-0.465,0.407-0.761,0.601-0.973,0.862c-1.611,1.99-3.289,3.937-4.781,6.014c-1.204,1.675-2.286,3.46-3.221,5.298
			c-0.732,1.442-1.555,2.724-2.868,3.692c-2.062,1.52-4.116,3.051-6.125,4.639c-2.782,2.2-5.467,4.51-7.639,7.347
			c-0.959,1.253-1.812,2.6-2.872,3.759c-2.13,2.332-4.355,4.576-6.566,6.832c-1.98,2.022-4.14,3.893-5.944,6.058
			c-1.255,1.506-2.433,3.072-3.898,4.376c-1.544,1.373-3.205,2.617-4.733,4.008c-1.042,0.947-1.931,2.062-2.911,3.08
			c-0.794,0.825-1.654,1.588-2.431,2.43c-2.588,2.805-5.183,5.606-7.715,8.462c-1.733,1.956-3.336,4.028-5.055,5.997
			c-2.185,2.502-4.385,4.994-6.656,7.416c-3.283,3.502-6.619,6.956-9.968,10.395c-2.088,2.143-4.272,4.19-6.361,6.332
			c-3.845,3.939-7.726,7.848-11.444,11.903c-2.279,2.485-4.247,5.253-6.425,7.834c-0.978,1.157-2.122,2.173-3.2,3.244
			c-0.541,0.539-1.158,1.013-1.635,1.603c-0.345,0.424-0.514,0.99-0.776,1.521C403.65,245.266,405.184,245.494,406.783,245.197z
			 M559.926,525.447c-1.724-1.809-3.391-3.701-5.303-5.292c-2.668-2.22-4.448-5.208-6.955-7.548c-2.23-2.08-4.438-4.186-6.65-6.283
			c-0.946-0.896-1.864-1.824-2.827-2.701c-1.93-1.76-3.912-3.464-5.816-5.251c-1.747-1.64-3.408-3.37-5.131-5.036
			c-1.849-1.789-3.892-3.324-6.333-4.19c-2.046-0.727-4.094-1.507-6.302-1.643c-0.272-0.017-0.556-0.093-0.813-0.04
			c-2.236,0.449-4.481,0.866-6.697,1.406c-1.844,0.449-3.723,0.88-5.454,1.625c-2.645,1.137-5.165,2.56-7.757,3.821
			c-3.477,1.692-6.973,3.341-10.455,5.02c-0.639,0.308-1.273,0.632-1.875,1.005c-2.332,1.444-4.894,2.374-7.417,3.395
			c-1.208,0.488-2.378,1.07-3.582,1.567c-0.745,0.308-1.531,0.515-2.287,0.799c-3.209,1.208-6.405,2.45-9.622,3.636
			c-4.1,1.51-8.059,3.283-11.603,5.887c-0.296,0.217-0.663,0.336-0.995,0.506c-2.06,1.058-3.923,2.355-4.988,4.492
			c-0.75,1.503-0.635,3.058-0.015,4.598c0.942,2.34,2.378,4.39,3.699,6.52c1.852,2.987,4.169,5.568,6.452,8.197
			c0.529,0.609,0.901,1.355,1.404,1.99c0.572,0.723,1.209,1.395,1.822,2.084c0.252,0.283,0.571,0.521,0.766,0.84
			c1.509,2.465,3.566,4.485,5.396,6.689c1.177,1.417,1.187,1.266,2.881,0.782c2.553-0.729,5.157-1.277,7.74-1.898
			c1.639-0.395,3.277-0.784,4.918-1.169c0.366-0.086,0.739-0.147,1.111-0.211c2.298-0.389,4.599-0.77,6.896-1.168
			c0.967-0.167,1.924-0.381,2.889-0.558c1.339-0.245,2.678-0.491,4.022-0.703c0.75-0.118,1.51-0.188,2.268-0.244
			c2.984-0.221,5.97-0.427,8.955-0.639c0.326-0.023,0.658-0.024,0.979-0.084c3.108-0.575,6.227-1.11,9.319-1.761
			c1.699-0.359,3.351-0.937,5.032-1.381c2.632-0.695,5.302-1.26,7.898-2.062c3.476-1.074,7.129-1.529,10.48-3.028
			c0.288-0.129,0.643-0.187,0.959-0.166c1.309,0.089,2.454-0.41,3.615-0.902c0.485-0.205,1.042-0.452,1.533-0.396
			c1.761,0.207,3.335-0.393,4.941-0.927c1.596-0.531,3.207-1.016,4.812-1.519c0.572-0.18,1.158-0.321,1.719-0.532
			c2.753-1.038,5.503-2.086,8.246-3.151c0.387-0.149,0.729-0.414,1.285-0.738C561.973,527.793,560.998,526.573,559.926,525.447z
			 M291.334,325.047c-1.333,0.569-2.76,1.066-3.292,2.665c-0.058,0.176-0.288,0.315-0.468,0.427
			c-3.256,2.039-5.566,4.974-7.688,8.091c-0.244,0.358-0.512,0.706-0.799,1.032c-1.076,1.229-2.235,2.391-3.235,3.679
			c-2.442,3.142-4.879,6.292-7.196,9.526c-3.14,4.383-6.205,8.82-9.224,13.288c-1.506,2.229-2.412,4.745-2.974,7.38
			c-0.422,1.973-0.797,3.96-1.295,5.914c-0.849,3.324-0.167,6.395,1.512,9.263c0.663,1.132,1.688,2.003,3.102,2.194
			c4.631,0.627,9.23,0.68,13.811-0.486c3.376-0.857,6.79-1.566,10.184-2.355c3.721-0.865,7.314-2.111,10.863-3.523
			c4.242-1.688,8.529-3.268,12.791-4.911c0.71-0.273,1.379-0.652,2.081-0.946c0.95-0.396,1.915-0.754,2.873-1.132
			c0.606-0.239,1.218-0.466,1.813-0.729c0.545-0.24,1.064-0.54,1.609-0.781c2.135-0.946,4.256-1.93,6.42-2.806
			c2.501-1.012,5.021-1.987,7.573-2.864c2.685-0.923,5.242-2.108,7.741-3.43c2.646-1.399,5.22-2.903,7.597-4.753
			c1.06-0.825,2.373-1.322,3.562-1.986c3.178-1.774,4.723-4.617,5.028-8.125c0.147-1.691-0.271-3.347-1.193-4.848
			c-1.661-2.702-3.529-5.213-5.93-7.324c-1.137-1-2.045-2.26-3.183-3.26c-2.866-2.52-5.932-4.74-9.318-6.568
			c-1.864-1.006-3.808-1.557-5.781-2.148c-1.199-0.36-2.391-0.752-3.569-1.177c-3.266-1.177-6.664-1.643-10.099-1.909
			c-1.634-0.127-3.271-0.211-4.906-0.3c-1.357-0.073-2.717-0.126-4.074-0.188C300.702,322.176,295.908,323.094,291.334,325.047z
			 M887.273,446.273c1.517-1.443,3.164-2.812,5.279-3.477c1.812-0.569,2.449-2.293,3.244-3.814c0.189-0.364,0.375-0.781,0.682-1.025
			c3.418-2.738,6.238-5.93,7.768-10.112c0.573-1.567,1.099-3.153,1.667-4.722c0.369-1.018,0.819-2.008,1.157-3.034
			c1.015-3.083,1.348-6.296,1.382-9.501c0.03-2.871-0.255-5.752-0.547-8.613c-0.118-1.17-0.64-2.296-0.944-3.45
			c-0.375-1.415-0.648-2.86-1.083-4.257c-1.395-4.485-3.59-8.602-5.954-12.635c-0.599-1.021-1.119-2.107-1.842-3.033
			c-1.962-2.516-3.527-5.314-5.84-7.597c-1.642-1.622-3.242-3.229-5.124-4.595c-2.06-1.494-3.903-3.285-5.917-4.849
			c-1.238-0.962-2.599-1.774-3.945-2.587c-0.869-0.523-1.722-0.475-2.535,0.279c-1.393,1.291-2.83,2.473-3.887,4.142
			c-1.597,2.527-3.482,4.874-5.29,7.265c-0.931,1.23-1.694,2.494-2.111,4.016c-0.355,1.303-1.018,2.524-1.571,3.77
			c-0.603,1.355-0.967,2.752-1.152,4.238c-0.328,2.642-0.953,5.25-1.229,7.896c-0.277,2.655-0.32,5.338-0.395,8.011
			c-0.081,2.99-0.117,5.982-0.102,8.974c0.007,1.36,0.099,2.733,0.305,4.076c0.505,3.287,0.906,6.607,1.716,9.822
			c0.739,2.936,1.66,5.859,3.141,8.555c0.388,0.707,0.63,1.495,0.928,2.251c0.259,0.659,0.431,1.362,0.762,1.981
			c1.101,2.051,2.221,4.094,3.411,6.094c0.411,0.69,1.023,1.271,1.588,1.858c0.941,0.979,1.687,1.987,2.205,3.327
			c0.565,1.463,1.662,2.809,3.102,3.683c0.908,0.552,1.769,1.224,3.01,0.9c0.427-0.11,0.988,0.303,1.791,0.581
			C882.797,448.939,885.338,448.111,887.273,446.273z M623.549,357.654c1.771,0.701,3.52,1.494,5.341,2.027
			c2.43,0.711,4.924,1.198,7.384,1.805c4.462,1.098,8.762,0.086,13.027-1.057c2.926-0.783,5.455-2.345,7.639-4.445
			c0.273-0.263,0.565-0.547,0.726-0.879c1.272-2.639,2.684-5.229,3.713-7.961c0.799-2.122,1.146-4.42,1.628-6.654
			c0.852-3.937,1.723-7.871,2.445-11.831c0.381-2.085,0.463-4.225,0.683-6.34c0.073-0.703,0.098-1.419,0.255-2.104
			c0.162-0.715,0.233-1.364-0.118-2.058c-0.155-0.309-0.137-0.748-0.086-1.111c0.401-2.915,0.88-5.819,1.231-8.74
			c0.221-1.83,0.264-3.683,0.399-5.715c-1.177,0.269-1.717,1.015-2.307,1.667c-3.178,3.511-6.347,7.03-9.515,10.552
			c-0.219,0.242-0.404,0.513-0.609,0.768c-1.188,1.483-2.321,3.015-3.577,4.439c-2.555,2.897-5.167,5.746-7.772,8.598
			c-1.72,1.883-3.479,3.729-5.204,5.605c-1.218,1.324-2.439,2.648-3.602,4.021c-2.405,2.84-5.256,5.218-7.9,7.81
			c-3.011,2.949-6.307,5.676-8.803,9.554C620.35,356.351,621.942,357.019,623.549,357.654z M347.336,335.787
			c0.044,1.547,0.322,1.891,1.57,1.909C348.359,337.031,347.933,336.514,347.336,335.787z M350.415,339.725
			c-0.104,0.104-0.207,0.207-0.31,0.312c0.162,0.158,0.324,0.316,0.486,0.476c0.091-0.092,0.182-0.185,0.273-0.277
			C350.715,340.065,350.565,339.895,350.415,339.725z"/>
		<path fill-rule="evenodd" clip-rule="evenodd" fill="#FFFFFF" d="M348.906,337.696c-0.547-0.665-0.974-1.183-1.57-1.909
			C347.38,337.334,347.658,337.678,348.906,337.696z"/>
		<path fill-rule="evenodd" clip-rule="evenodd" fill="#FFFFFF" d="M569.86,153.566c0.517,0.213,1.034,0.426,1.552,0.639
			c-0.391-0.549-0.668-1.458-1.514-0.592C569.897,153.611,569.86,153.566,569.86,153.566z"/>
		<path fill-rule="evenodd" clip-rule="evenodd" fill="#FFFFFF" d="M350.865,340.235c-0.15-0.17-0.3-0.341-0.45-0.511
			c-0.104,0.104-0.207,0.207-0.31,0.312c0.162,0.158,0.324,0.316,0.486,0.476C350.683,340.421,350.773,340.328,350.865,340.235z"/>
		<path fill-rule="evenodd" clip-rule="evenodd" d="M662.065,228.998c0.096-0.812,0.22-1.624,0.282-2.439
			c0.117-1.506,1.006-2.592,2.174-3.285c1.568-0.931,3.176-1.801,5.146-1.874c3.019-0.112,6.045-0.018,8.883,0.881
			c2.916,0.923,5.802,2.151,7.956,4.534c0.218,0.241,0.491,0.434,0.737,0.649c1.064,0.935,2.223,1.784,3.174,2.822
			c2.61,2.849,5.153,5.76,7.688,8.677c3.287,3.783,6.547,7.59,9.808,11.397c2.092,2.442,4.157,4.907,6.247,7.353
			c0.495,0.58,1.096,1.076,1.545,1.688c1.898,2.583,3.686,5.252,5.65,7.782c2.837,3.654,5.782,7.225,8.702,10.813
			c2.369,2.914,4.763,5.808,7.157,8.701c2.352,2.841,4.682,5.702,7.089,8.497c2.41,2.8,4.81,5.62,7.388,8.262
			c2.439,2.502,4.987,4.911,7.507,7.335c1.553,1.494,3.318,2.947,4.272,5.068c0.617,1.373,1.613,2.572,2.424,3.859
			c0.668,1.057,0.768,1.846,0.065,2.359c-1.438,1.053-2.899,2.081-4.86,2.004c-3.049-0.119-6.108-0.27-9.15-0.125
			c-2.104,0.1-4.234,0.502-6.262,1.086c-1.919,0.554-3.719,1.519-5.568,2.31c-5.007,2.144-9.927,4.446-14.507,7.438
			c-1.636,1.067-3.455,1.85-5.141,2.846c-2.946,1.743-5.924,3.448-8.76,5.359c-3.111,2.097-6.132,4.339-9.091,6.648
			c-2.934,2.29-6.445,3.615-9.408,5.841c-0.332,0.25-0.806,0.334-1.228,0.435c-1.269,0.306-2.602,0.433-3.802,0.903
			c-1.748,0.685-3.155,0.039-4.572-0.785c-0.369-0.215-0.627-0.719-1.004-0.809c-1.548-0.371-2.414-1.615-3.526-2.553
			c-1.727-1.454-2.82-3.229-3.31-5.461c-0.644-2.942-0.753-5.852,0.154-8.734c0.681-2.157,0.907-4.375,1.104-6.604
			c0.106-1.195,0.088-2.403,0.229-3.593c0.546-4.603,1.144-9.2,1.697-13.802c0.222-1.841,0.392-3.688,0.565-5.535
			c0.153-1.621,0.355-3.244,0.396-4.869c0.046-1.797-0.109-3.597-0.102-5.395c0.007-1.74,0.204-3.483,0.149-5.219
			c-0.097-3.055-0.441-6.104-0.459-9.156c-0.018-3.291-0.376-6.523-1.044-9.731c-0.274-1.321-0.67-2.618-0.887-3.947
			c-0.305-1.864-0.492-3.748-0.734-5.623c-0.014-0.104-0.086-0.201-0.109-0.308c-0.145-0.674-0.302-1.346-0.418-2.025
			c-0.119-0.694-0.182-1.398-0.293-2.094c-0.179-1.131-0.446-2.251-0.551-3.388c-0.173-1.858-0.604-3.634-1.352-5.343
			c-0.35-0.797-0.762-1.596-0.935-2.438c-0.398-1.924-1.44-3.549-2.413-5.165c-2.188-3.64-4.604-7.141-6.827-10.761
			c-0.845-1.374-1.411-2.919-2.104-4.387C661.915,229.065,661.99,229.031,662.065,228.998z M671.627,238.179
			c-0.016,0.29,0.033,0.484-0.041,0.585c-0.64,0.859-0.377,1.611,0.193,2.383c1.986,2.689,3.574,5.579,4.514,8.815
			c0.362,1.251,0.898,2.453,1.373,3.67c0.741,1.896,0.664,3.937,1.06,5.895c0.776,3.847,1.456,7.714,2.122,11.582
			c0.38,2.203,0.784,4.415,0.947,6.641c0.428,5.816,0.838,11.639,1.046,17.466c0.167,4.679,0.122,9.368-0.474,14.036
			c-0.394,3.076-0.623,6.173-0.932,9.26c-0.259,2.602-0.505,5.205-0.793,7.803c-0.402,3.627-0.819,7.253-1.274,10.873
			c-0.095,0.748-0.363,1.479-0.594,2.204c-0.642,2.02-0.784,4.1-0.438,6.158c0.378,2.244,1.336,4.283,3.238,5.664
			c1.121,0.813,2.373,1.453,3.603,2.104c0.359,0.191,0.852,0.253,1.266,0.207c2.234-0.247,4.449-0.579,6.275-2.083
			c0.248-0.205,0.538-0.42,0.842-0.488c2.431-0.547,4.242-2.168,6.208-3.523c0.403-0.279,0.786-0.594,1.214-0.829
			c2.294-1.261,4.302-2.918,6.393-4.472c2.172-1.614,4.144-3.52,6.726-4.585c1.233-0.51,2.29-1.445,3.426-2.189
			c0.501-0.329,0.974-0.711,1.502-0.985c2.848-1.479,5.713-2.922,8.563-4.395c1.641-0.848,3.259-1.737,4.897-2.59
			c0.53-0.275,1.079-0.524,1.639-0.731c1.185-0.44,2.296-0.954,3.235-1.859c0.65-0.627,1.389-1.18,2.484-0.948
			c0.447,0.095,1.041-0.248,1.5-0.51c2.175-1.234,4.587-1.613,6.997-1.984c1.4-0.215,2.812-0.356,4.22-0.512
			c0.48-0.053,0.97-0.074,1.453-0.062c1.035,0.024,2.07,0.133,3.104,0.105c0.876-0.023,1.69,0.001,2.556,0.297
			c0.592,0.203,1.401,0.023,2.035-0.203c1.035-0.37,1.104-0.829,0.491-1.725c-1.046-1.527-2.031-3.098-3.13-4.586
			c-0.739-1.002-1.597-1.926-2.462-2.826c-3.359-3.492-6.787-6.921-10.098-10.459c-1.701-1.82-3.193-3.834-4.804-5.74
			c-3.438-4.069-6.921-8.102-10.33-12.193c-3.173-3.811-6.288-7.668-9.403-11.526c-1.945-2.41-3.854-4.851-5.756-7.295
			c-0.633-0.813-1.151-1.717-1.794-2.522c-1.184-1.482-2.414-2.93-3.636-4.383c-1.402-1.67-2.811-3.336-4.227-4.995
			c-3.36-3.935-6.694-7.892-10.103-11.784c-2.219-2.536-4.517-5.006-6.841-7.445c-1.682-1.766-3.479-3.422-5.2-5.15
			c-1.024-1.029-2.237-1.703-3.587-2.209c-0.857-0.322-1.652-0.81-2.491-1.186c-0.44-0.197-0.905-0.391-1.377-0.457
			c-1.239-0.177-2.49-0.262-3.731-0.422c-2.377-0.307-4.55,0.433-6.62,1.418c-2.095,0.996-2.248,3.596-1.388,5.1
			c1.611,2.818,3.41,5.529,5.194,8.385C670.929,238.641,671.229,238.442,671.627,238.179z"/>
		<path fill-rule="evenodd" clip-rule="evenodd" d="M285.648,291.342c-0.015-0.23-0.03-0.461-0.045-0.692
			c-0.066,0.001-0.133,0.002-0.2,0.003c-0.013,0.237-0.025,0.475-0.037,0.712C285.46,291.356,285.555,291.35,285.648,291.342z"/>
	</g>
</g>
</svg>
