<?xml version="1.0" encoding="utf-8"?>
<!-- Generator: Adobe Illustrator 16.0.4, SVG Export Plug-In . SVG Version: 6.00 Build 0)  -->
<!DOCTYPE svg PUBLIC "-//W3C//DTD SVG 1.1//EN" "http://www.w3.org/Graphics/SVG/1.1/DTD/svg11.dtd">
<svg version="1.1" id="Layer_1" xmlns="http://www.w3.org/2000/svg" xmlns:xlink="http://www.w3.org/1999/xlink" x="0px" y="0px"
	 width="1152px" height="648px" viewBox="0 0 1152 648" enable-background="new 0 0 1152 648" xml:space="preserve">
<g id="OyZfrr_1_">
	<g>
		<path opacity="0.7" fill-rule="evenodd" clip-rule="evenodd" fill="#428C45" d="M476.748,324.59
			c2.434,1.608,4.721,3.072,6.957,4.612c2.45,1.688,4.737,3.646,7.307,5.118c2.57,1.472,5.156,2.89,7.566,4.622
			c0.498,0.358,1.154,0.496,1.742,0.73c1.406,0.562,3.02,0.85,4.178,1.735c2.902,2.212,6.082,3.918,9.275,5.596
			c6.358,3.341,12.38,7.187,18.219,11.364c4.652,3.327,9.544,6.312,14.252,9.562c3.506,2.419,6.807,5.137,10.344,7.508
			c3.543,2.373,7.264,4.481,10.907,6.702c0.483,0.292,1.026,0.501,1.462,0.849c1.546,1.229,3.345,1.575,5.225,1.445
			c4.521-0.312,8.604-1.854,12.361-4.4c1.512-1.025,3.275-1.672,4.865-2.588c1.039-0.6,1.967-1.385,2.959-2.067
			c1.324-0.91,2.652-1.817,3.996-2.699c1.676-1.096,3.367-2.171,5.054-3.248c0.885-0.564,1.771-1.124,2.664-1.676
			c2.942-1.815,5.88-3.642,8.837-5.437c4.194-2.547,8.409-5.062,12.607-7.605c3.162-1.916,6.326-3.83,9.461-5.789
			c2.865-1.789,5.703-3.627,8.535-5.47c0.463-0.303,0.839-0.739,1.249-1.122c0.708-0.659,1.32-1.48,2.132-1.961
			c4.643-2.736,7.969-6.996,12.074-10.35c2.102-1.716,3.965-3.726,6.1-5.758c1.236,2.029,1.068,4.004,1.393,5.853
			c0.486,2.772,1.002,5.545,1.34,8.337c0.317,2.633,0.467,5.291,0.613,7.943c0.369,6.672,0.701,13.347,1.039,20.022
			c0.211,4.181,0.359,8.364,0.621,12.543c0.203,3.296,0.713,6.58,0.781,9.878c0.158,7.646,0.135,15.297,0.182,22.945
			c0.004,0.484,0.041,0.979-0.036,1.451c-0.181,1.104-1.021,1.602-1.919,0.975c-2.89-2.016-6.148-3.508-8.496-6.31
			c-1.166-1.391-2.732-2.447-4.113-3.664c-0.421-0.372-0.852-0.746-1.217-1.168c-1.145-1.322-2.033-3.04-3.447-3.903
			c-1.521-0.927-2.445-2.27-3.655-3.406c-0.467-0.438-1.05-0.752-1.517-1.189c-1.166-1.099-2.416-2.141-3.418-3.378
			c-1.867-2.312-3.657-4.642-6.002-6.553c-1.534-1.251-2.593-3.068-3.984-4.518c-2.613-2.722-5.289-5.386-7.989-8.024
			c-1.086-1.062-2.292-2.005-3.471-2.969c-0.854-0.698-2.235-0.772-3.141-0.069c-1.062,0.825-2.359,1.594-2.052,3.272
			c0.082,0.447,0.296,0.99,0.633,1.254c3.513,2.75,6.354,6.184,9.49,9.312c0.455,0.452,0.963,0.938,1.192,1.51
			c0.968,2.418,3.019,3.924,4.665,5.771c1.336,1.499,2.464,3.202,3.912,4.572c3.969,3.763,8.057,7.4,12.103,11.079
			c2.146,1.952,4.325,3.869,6.452,5.843c0.748,0.695,1.383,1.511,2.393,2.627c-1.089,0.33-1.782,0.633-2.506,0.738
			c-0.952,0.138-1.928,0.14-2.896,0.17c-4.54,0.136-8.816,1.824-13.272,2.33c-5.729,0.65-11.434,2.195-17.291,0.889
			c-1.041-0.233-2.209,0.137-3.321,0.176c-2.818,0.1-5.642,0.275-8.458,0.225c-3.951-0.072-7.883,0-11.836,0.229
			c-7.236,0.421-14.482,0.588-21.742,0.005c-2.83-0.229-5.718,0.357-8.584,0.43c-2.979,0.076-5.965-0.11-8.945-0.022
			c-5.07,0.149-10.136,0.437-15.204,0.64c-5.556,0.224-11.116,0.638-16.669,0.562c-5.082-0.068-10.134-0.127-15.217,0.24
			c-4.566,0.328-9.176,0.005-13.762,0.12c-2.151,0.054-4.292,0.479-6.439,0.714c-0.754,0.083-1.515,0.1-2.774,0.176
			c0.979-1.137,1.579-1.859,2.206-2.558c4.425-4.914,8.859-9.821,13.278-14.741c1.719-1.912,3.372-3.885,5.116-5.773
			c2.613-2.83,5.125-5.781,7.965-8.37c3.438-3.134,7.013-6.159,11.146-8.407c0.209-0.115,0.415-0.278,0.641-0.325
			c1.269-0.265,2.514-0.765,2.417-2.237c-0.099-1.531-0.208-3.027-1.864-4.176c-1.581-1.095-3.104-1.146-4.784-1.109
			c-0.231,0.005-0.543,0.015-0.683,0.155c-1.457,1.485-2.992,2.914-4.299,4.524c-1.25,1.541-2.078,3.44-3.403,4.9
			c-3.993,4.401-8.077,8.729-12.247,12.965c-2.792,2.835-5.885,5.376-8.67,8.221c-2.641,2.699-4.999,5.666-7.577,8.428
			c-2.028,2.172-3.329,4.949-5.817,6.745c-1.364,0.983-2.046,1.104-2.9-0.376c-0.746-1.299-1.51-2.796-1.58-4.239
			c-0.42-8.774-1.428-17.518-1.196-26.335c0.1-3.761-0.353-7.582-0.97-11.307c-0.848-5.126-0.708-10.279-0.986-15.42
			c-0.136-2.495-0.086-5.024-0.488-7.478c-0.756-4.622-0.089-9.184,0.181-13.768c0.05-0.875,0.112-1.754,0.093-2.628
			c-0.1-4.268-0.693-8.543,0.262-12.787C476.414,325.534,476.531,325.253,476.748,324.59z"/>
		<path opacity="0.7" fill-rule="evenodd" clip-rule="evenodd" fill="#428C45" d="M498.166,306.017
			c3.445-0.289,6.884-0.635,10.331-0.851c4.167-0.259,8.34-0.37,12.507-0.615c3.529-0.206,7.047-0.587,10.578-0.75
			c3.939-0.183,7.889-0.155,11.828-0.321c1.6-0.067,3.191-0.385,4.781-0.629c1.98-0.305,3.919-0.713,5.98-0.333
			c0.932,0.172,1.989-0.495,3.009-0.591c3.04-0.286,6.086-0.64,9.132-0.671c6.203-0.061,12.408,0.113,18.611,0.109
			c3.38-0.001,6.76-0.208,10.139-0.243c1.032-0.013,2.064,0.295,3.104,0.357c3.043,0.186,6.09,0.445,9.137,0.455
			c6.438,0.017,12.881-0.154,19.319-0.146c2.409,0.003,4.817,0.415,7.226,0.421c3.537,0.006,7.078-0.186,10.616-0.291
			c5.196-0.154,10.324,0.279,15.28,1.948c1.213,0.406,2.348,1.051,3.513,1.594c2.266,1.054,3.116,2.938,3.03,5.315
			c-0.147,4.047-0.98,7.824-4.241,10.653c-2.428,2.108-4.669,4.456-7.231,6.373c-4.32,3.232-8.674,6.472-13.308,9.21
			c-3.931,2.322-7.293,5.471-11.429,7.457c-2.023,0.973-4.056,1.96-5.96,3.142c-2.04,1.265-4.018,2.666-5.874,4.186
			c-3.959,3.238-8.383,5.685-12.869,8.078c-2.887,1.54-5.76,3.192-8.371,5.15c-4.704,3.527-9.599,6.72-14.743,9.55
			c-1.4,0.771-2.798,1.587-4.052,2.564c-1.707,1.329-3.41,1.33-5.184,0.35c-2.368-1.31-4.768-2.438-6.876-4.328
			c-2.776-2.487-6.155-4.302-9.273-6.408c-0.331-0.225-0.692-0.431-0.964-0.717c-4.51-4.752-10.282-7.687-15.902-10.758
			c-2.917-1.596-5.648-3.279-8.146-5.482c-1.598-1.413-3.625-2.345-5.467-3.48c-0.82-0.506-1.725-0.899-2.477-1.489
			c-4.03-3.165-9.006-4.618-13.258-7.385c-1.812-1.179-3.852-2.021-5.632-3.241c-2.714-1.86-5.287-3.922-7.927-5.889
			c-3.384-2.52-7.182-4.192-11.089-5.736c-3.03-1.2-5.911-2.768-8.188-5.273c-1.431-1.573-1.817-3.577-2.534-5.41
			c-0.642-1.648,0.398-3.033,2.101-3.45c2.183-0.536,4.353-1.203,6.571-1.495c4.699-0.618,9.427-1.03,14.143-1.526
			C498.127,305.618,498.147,305.817,498.166,306.017z"/>
		<path opacity="0.5" fill-rule="evenodd" clip-rule="evenodd" fill="#69387A" d="M135.844,253.052
			c0.186-4.068,0.45-8.135,0.538-12.207c0.104-4.85,0.054-9.701,0.075-14.552c0.002-0.55-0.048-1.112,0.054-1.645
			c1.161-6.058,1.309-12.271,3.343-18.223c0.875-2.562,1.814-5.142,2.627-7.744c0.674-2.146,1.707-4.188,2.655-6.243
			c0.946-2.05,2.079-4.02,2.971-6.093c2.022-4.705,4.968-8.833,7.86-13.007c1.064-1.535,1.936-3.203,2.942-4.779
			c3.668-5.747,8.114-10.906,12.268-16.286c2.24-2.903,4.471-5.813,6.768-8.671c0.855-1.064,1.681-2.095,2.996-2.837
			c1.421-0.801,2.352-2.418,3.621-3.536c3.871-3.41,7.789-6.768,11.713-10.115c3.494-2.979,7.646-4.871,11.75-6.771
			c9.51-4.407,18.902-9.019,28.113-14.025c3.965-2.154,8.234-3.789,12.466-5.392c2.093-0.793,4.415-0.977,6.631-1.441
			c1.912-0.401,3.834-1.194,5.728-1.128c3.044,0.104,5.713-1.23,8.6-1.631c0.688-0.094,1.378-0.322,2.009-0.615
			c2.968-1.371,6.093-1.943,9.34-2.01c0.621-0.014,1.256-0.084,1.86-0.234c7.088-1.764,14.276-1.686,21.448-0.926
			c4.334,0.461,8.666,1.219,12.901,2.246c2.339,0.566,4.604,1.396,7.034,1.637c0.751,0.073,1.529,0.424,2.186,0.826
			c3.402,2.085,7.104,3.542,10.695,5.233c3.454,1.627,6.71,3.67,10.099,5.442c4.839,2.527,9.606,5.241,14.624,7.355
			c3.014,1.271,5.521,3.196,8.265,4.808c2.76,1.621,5.521,3.265,8.119,5.126c2.634,1.884,5.068,4.045,7.588,6.091
			c2.828,2.296,5.286,5.021,8.498,6.895c1.425,0.832,2.442,2.36,3.644,3.571c2.143,2.161,4.25,4.357,6.434,6.477
			c3.178,3.083,6.56,5.97,9.585,9.192c5.179,5.521,10.242,11.156,15.161,16.908c1.967,2.3,3.424,5.038,5.108,7.581
			c0.259,0.391,0.463,0.821,0.745,1.195c4.316,5.699,6.803,12.452,10.642,18.455c2.404,3.756,5.285,7.477,6.129,12.057
			c0.829,4.504,1.425,9.05,2.09,13.582c0.259,1.767,0.394,3.554,0.641,5.323c0.836,5.979,1.531,11.962,0.646,17.997
			c-0.147,1-0.442,1.984-0.706,2.965c-1.354,5.055-2.022,10.306-4.24,15.111c-0.88,1.906-1.888,3.755-2.801,5.646
			c-0.843,1.751-1.578,3.558-2.463,5.288c-3.48,6.804-6.737,13.741-10.588,20.331c-3.622,6.201-7.381,12.355-11.884,18.014
			c-3.106,3.905-6.062,7.896-9.611,11.461c-3.068,3.083-5.546,6.747-8.372,10.08c-1.656,1.955-3.256,3.971-5.47,5.411
			c-1.555,1.011-2.85,2.413-4.373,3.479c-1.897,1.325-4.035,2.329-5.851,3.751c-4.197,3.289-8.815,5.938-13.37,8.631
			c-2.574,1.521-5.368,2.81-8.101,4.103c-3.874,1.833-7.923,3.298-11.91,4.886c-1.005,0.398-2.077,0.624-3.09,1.005
			c-7.146,2.687-14.402,5.045-21.761,7.062c-2.689,0.736-5.52,0.957-8.286,1.401c-0.85,0.138-1.741,0.126-2.553,0.38
			c-5.493,1.719-11.238,1.929-16.86,2.872c-0.604,0.103-1.264,0.062-1.868-0.061c-2.248-0.45-4.518-0.54-6.734-0.04
			c-5.542,1.253-11.192,1.067-16.8,1.463c-2.256,0.16-4.5,0.494-6.751,0.721c-0.354,0.036-0.725-0.053-1.082-0.12
			c-0.601-0.116-1.191-0.349-1.795-0.378c-2.948-0.153-5.905-0.185-8.849-0.406c-1.378-0.104-2.746-0.482-4.095-0.832
			c-2.713-0.701-5.384-1.581-8.117-2.184c-4.279-0.939-8.267-2.705-12.387-4.093c-0.887-0.297-1.83-0.435-2.755-0.604
			c-2.198-0.408-4.085-1.488-5.943-2.659c-0.507-0.321-1.098-0.521-1.671-0.724c-2.273-0.805-4.55-1.459-6.653-2.817
			c-2.297-1.481-4.983-2.362-7.487-3.527c-0.771-0.358-1.497-0.808-2.254-1.196c-3.828-1.967-7.455-4.243-10.801-6.96
			c-0.303-0.247-0.717-0.405-0.926-0.708c-1.027-1.5-2.188-2.612-4.238-2.26c-0.458,0.078-1.051-0.297-1.503-0.584
			c-5.026-3.192-9.848-6.636-13.961-11.007c-2.344-2.491-4.878-4.802-7.31-7.213c-0.609-0.604-1.209-1.235-1.708-1.928
			c-3.375-4.692-6.839-9.327-10.027-14.146c-1.581-2.393-2.629-5.14-3.941-7.714c-0.388-0.762-0.726-1.613-1.312-2.198
			c-1.937-1.932-3.04-4.338-4.146-6.762c-1.46-3.19-3.111-6.308-4.36-9.579c-1.442-3.779-2.578-7.678-3.771-11.549
			c-0.715-2.316-1.379-4.655-1.902-7.022c-1.531-6.925-1.931-13.95-1.672-21.022c0.02-0.549,0.049-1.098,0.073-1.646
			C135.959,253.057,135.901,253.055,135.844,253.052z M203.823,224.271c0.3,4.206,0.434,7.646,0.819,11.059
			c0.379,3.339,0.971,6.656,1.543,9.971c1.301,7.521,4.666,14.397,6.878,21.639c1.104,3.614,3.062,6.992,4.846,10.365
			c1.457,2.757,3.198,5.367,4.865,8.01c1.799,2.847,3.895,5.426,6.63,7.467c1.237,0.922,2.417,1.985,3.396,3.171
			c1.143,1.381,2.027,2.94,3.752,3.774c0.479,0.232,0.707,0.983,1.05,1.497c0.39,0.579,0.682,1.267,1.184,1.722
			c1.907,1.73,3.761,3.557,5.856,5.029c3.512,2.469,7.197,4.686,10.799,7.024c0.589,0.382,1.076,0.944,1.696,1.25
			c3.611,1.78,7.229,3.552,10.889,5.232c1.048,0.481,2.201,0.63,3.002,1.657c0.305,0.391,1.128,0.41,1.729,0.524
			c0.607,0.116,1.253,0.069,1.851,0.218c1.511,0.373,2.986,0.908,4.51,1.205c1.747,0.34,3.592,0.279,5.285,0.773
			c2.98,0.869,6.024,1.002,9.068,1.197c2.418,0.154,4.862-0.024,7.271,0.19c3.83,0.34,7.645,0.644,11.456-0.048
			c1.068-0.193,2.091-0.699,3.159-0.814c4.617-0.506,9.131-1.342,13.279-3.567c1.51-0.811,3.005-1.648,4.544-2.396
			c2.038-0.99,4.178-1.783,6.157-2.875c7.251-3.998,14.628-7.794,21.052-13.146c3.29-2.743,6.806-5.215,10.188-7.848
			c3.047-2.373,5.443-5.381,7.829-8.373c1.209-1.515,1.957-3.432,3.283-4.812c2.087-2.165,2.448-5.018,3.376-7.593
			c0.752-2.084,0.61-4.476,0.994-6.709c0.344-1.997,0.88-3.963,1.308-5.947c0.36-1.674,0.751-3.344,1.015-5.032
			c0.264-1.698,0.387-3.421,0.574-5.13c0.375-3.419,1.078-6.841,1.04-10.253c-0.044-3.644-1.444-7.218-0.912-10.944
			c-0.992-2.484-0.324-5.223-1.422-7.772c-1.162-2.698-1.626-5.687-2.55-8.5c-0.37-1.13-0.34-2.003,0.574-2.728
			c2.362-1.87,3.163-4.639,4.019-7.285c0.826-2.557-0.36-5.842-2.442-7.09c-1.522-0.913-2.691-2.385-4.545-2.797
			c-0.393-0.087-0.806-0.498-1.027-0.869c-1.523-2.542-2.991-5.115-4.489-7.672c-1.38-2.355-2.624-4.811-4.201-7.026
			c-1.854-2.604-3.653-5.444-6.109-7.379c-3.878-3.058-7.269-6.568-10.821-9.938c-0.333-0.313-0.758-0.536-1.149-0.783
			c-2.036-1.288-4.076-2.567-6.11-3.854c-3.212-2.031-6.399-4.103-9.644-6.084c-1.322-0.806-2.746-1.452-4.155-2.104
			c-2.682-1.241-5.372-2.47-8.09-3.632c-1.361-0.584-2.867-0.863-4.169-1.544c-2.762-1.444-5.805-1.673-8.76-2.229
			c-2.68-0.503-5.427-0.638-8.125-1.056c-4.761-0.735-9.514-0.727-14.273-0.066c-4.099,0.57-8.19,1.177-12.286,1.761
			c-3.551,0.506-7.104,0.998-10.654,1.507c-0.464,0.066-0.951,0.118-1.373,0.302c-2.286,0.988-4.557,2.005-6.824,3.032
			c-1.207,0.547-2.368,1.208-3.602,1.681c-3.444,1.324-6.744,2.878-9.618,5.253c-0.707,0.586-1.592,0.961-2.413,1.398
			c-1.362,0.728-2.771,1.371-4.095,2.159c-1.05,0.625-1.987,1.436-3.001,2.125c-0.901,0.611-1.96,1.039-2.739,1.771
			c-3.633,3.402-7.812,6.212-10.845,10.272c-2.146,2.873-4.448,5.637-6.793,8.351c-2.614,3.023-5.254,5.989-6.936,9.695
			c-0.327,0.72-1.298,1.328-2.104,1.604c-1.078,0.371-2.287,0.354-3.436,0.527c-2.114,0.319-3.735,1.47-5.128,3.028
			c-2.34,2.621-3.423,5.707-3.714,9.188c-0.222,2.645,0.679,4.597,2.93,5.91c1.074,0.626,2.208,1.168,3.36,1.64
			c1.856,0.761,1.947,0.726,1.894,2.663C204.132,218.489,203.938,221.755,203.823,224.271z"/>
		<path fill-rule="evenodd" clip-rule="evenodd" d="M316.794,575.53c-2.56-1.951-3.05-4.617-3.556-7.277
			c-0.027-0.145-0.041-0.321-0.129-0.418c-1.521-1.663-1.85-3.941-2.973-5.787c-1.566-2.573-2.923-5.203-3.699-8.129
			c-0.319-1.201-0.821-2.352-1.197-3.54c-0.268-0.845-0.693-1.294-1.666-1.464c-1.412-0.245-1.946-2.113-1.027-3.258
			c0.363-0.453,0.941-0.748,1.246-1.227c0.293-0.459,0.359-1.062,0.51-1.553c0.281-0.031,0.479-0.115,0.557-0.053
			c1.56,1.298,3.297,0.814,4.98,0.445c3.935-0.861,7.875-1.705,11.773-2.71c4.953-1.275,9.99-1.465,15.058-1.519
			c1.463-0.016,2.925-0.26,4.386-0.255c1.158,0.005,2.318,0.206,3.473,0.363c6.01,0.813,12,0.345,18.004-0.153
			c1.936-0.16,3.912,0.269,5.866,0.229c3.071-0.064,6.147-0.517,9.208-0.411c5.358,0.185,10.607-1.173,15.991-0.791
			c3.633,0.257,7.31-0.175,10.968-0.215c5.339-0.059,10.645-0.729,16.021-0.336c3.758,0.273,7.58-0.325,11.373-0.532
			c5.192-0.285,10.365-0.918,15.592-0.445c2.957,0.267,5.944,0.188,8.918,0.278c2.197,0.068,4.396,0.257,6.59,0.217
			c3.876-0.071,7.746-0.284,11.622-0.419c0.581-0.021,1.176,0.014,1.749,0.108c1.982,0.324,3.924,0.296,5.895-0.208
			c1.094-0.278,2.289-0.367,3.416-0.275c5.934,0.481,11.829-0.369,17.746-0.467c3.85-0.062,7.688-0.66,11.539-0.906
			c1.53-0.098,3.08,0.137,4.622,0.17c0.804,0.016,1.7,0.134,2.399-0.162c2.312-0.978,4.711-0.567,7.08-0.712
			c1.452-0.088,2.574,0.389,3.543,1.387c2.123,2.188,4.248,4.377,6.365,6.571c1.35,1.4,2.668,2.83,4.039,4.209
			c0.353,0.354,0.822,0.621,1.281,0.836c3.153,1.476,6.367,2.732,9.877,3.139c1.213,0.14,2.364,0.791,3.578,0.952
			c2.875,0.383,5.834,0.144,8.616,1.2c2.646-0.823,5.362,1.045,8.003-0.207c0.182-0.086,0.44-0.079,0.645-0.033
			c3.273,0.758,6.551,0.295,9.842,0.143c2.111-0.098,4.24,0.181,6.359,0.292c0.439,0.023,0.895,0.139,1.316,0.064
			c2.85-0.501,5.719-0.658,8.606-0.792c2.765-0.129,5.551-0.469,8.257-1.041c1.998-0.42,3.975-0.749,5.991-1.036
			c2.796-0.4,5.165-2.056,6.921-4.46c1.199-1.643,2.646-3.103,3.896-4.713c0.567-0.731,1.124-1.585,1.315-2.464
			c0.249-1.137,0.9-1.647,1.883-1.877c1.633-0.38,3.301-0.623,4.922-1.046c3.162-0.823,6.385-0.374,9.573-0.584
			c6.226-0.411,12.466-0.705,18.663-1.394c2.423-0.271,4.807-0.318,7.22-0.355c2.187-0.032,4.376-0.445,6.555-0.391
			c3.838,0.097,7.584-0.591,11.362-1.01c0.877-0.098,1.758-0.185,2.637-0.202c5.139-0.098,10.277-0.137,15.414-0.274
			c3.438-0.091,6.895-0.118,10.301-0.527c5.024-0.604,10.074-0.635,15.105-0.996c2.978-0.214,5.957-0.406,9.211-0.628
			c-0.314-2.94-0.615-5.84-0.936-8.736c-0.105-0.947-0.258-1.891-0.393-2.835c-0.213-1.504-0.508-1.89-2.001-2.219
			c-3.061-0.675-6.134-0.341-9.196,0.01c-1.452,0.166-2.891,0.616-4.336,0.622c-3.003,0.015-5.898,0.813-8.965,0.684
			c-4.062-0.173-8.156,0.561-12.244,0.783c-3,0.163-6.011,0.135-9.017,0.184c-0.44,0.008-0.909-0.136-1.317-0.028
			c-3.368,0.89-6.701-0.187-10.053-0.133c-1.833,0.03-3.668,0.036-5.502,0.027c-2.859-0.013-5.748-0.304-8.574-0.004
			c-3.393,0.362-6.689-0.182-10.033-0.29c-3.266-0.107-6.611-0.729-9.844,0.445c-0.259,0.096-0.604,0.178-0.84,0.088
			c-3.326-1.277-6.68-0.984-10.121-0.497c-1.846,0.261-3.789-0.247-5.691-0.301c-1.161-0.033-2.327,0.155-3.49,0.208
			c-1.227,0.057-2.453,0.074-3.681,0.102c-1.394,0.031-2.862-0.224-4.163,0.134c-3.658,1.007-7.309,0.538-10.94,0.187
			c-3.24-0.314-6.427-0.596-9.612,0.322c-0.448,0.129-0.986-0.094-1.481-0.088c-1.524,0.02-3.046,0.068-4.568,0.111
			c-0.353,0.01-0.799,0.193-1.04,0.041c-1.115-0.706-2.254-0.318-3.418-0.279c-4.461,0.148-8.925,0.128-13.383,0.303
			c-2.242,0.086-4.555-0.484-6.73,0.575c-0.273,0.133-0.705-0.01-1.05-0.085c-2.407-0.523-4.796-0.342-7.225-0.064
			c-1.868,0.213-3.787-0.066-5.68,0c-1.302,0.046-2.593,0.318-3.893,0.467c-0.728,0.084-1.506,0.315-2.181,0.149
			c-3.932-0.966-7.675-0.164-11.436,0.924c-0.949,0.274-2.043,0.194-3.052,0.089c-2.143-0.229-4.228-0.188-6.329,0.405
			c-0.783,0.223-1.708-0.1-2.566-0.081c-3.291,0.067-6.582,0.169-9.873,0.268c-0.363,0.012-0.723,0.125-1.084,0.136
			c-4.908,0.154-9.815,0.396-14.725,0.408c-2.85,0.007-5.699-0.4-8.555-0.545c-5.041-0.256-10.091-0.395-15.129-0.694
			c-3.652-0.217-7.291-0.705-10.943-0.895c-2.26-0.115-4.537,0.146-6.806,0.162c-3.37,0.021-6.742-0.065-10.112-0.02
			c-1.298,0.018-2.592,0.277-3.89,0.421c-0.651,0.071-1.339,0.294-1.95,0.167c-3.102-0.638-6.132,0.127-9.19,0.334
			c-0.942,0.062-1.895,0.005-2.84-0.036c-3.665-0.159-7.315-0.198-10.894,0.805c-0.345,0.097-0.741,0.206-1.072,0.131
			c-2.908-0.667-5.659,0.207-8.441,0.806c-0.5,0.107-1.061,0.362-1.503,0.235c-2.45-0.705-4.788,0.272-7.179,0.374
			c-0.875,0.037-1.746,0.154-2.621,0.204c-2.632,0.152-5.265,0.299-7.897,0.431c-1.307,0.066-2.615,0.1-3.923,0.139
			c-0.514,0.016-1.109-0.169-1.527,0.03c-2.599,1.239-5.389,0.335-8.047,0.796c-0.213,0.036-0.439,0.004-0.658-0.015
			c-3.211-0.281-6.42-0.589-9.632-0.841c-1.872-0.146-3.046-1.4-4.159-2.64c-2.14-2.389-3.106-5.29-3.933-8.392
			c-1.261-4.735-1.489-9.551-1.903-14.356c-0.244-2.834,0.099-5.716-0.104-8.555c-0.423-5.909-0.507-11.854-1.696-17.696
			c-0.233-1.144-0.226-2.337-0.315-3.509c-0.317-4.165-0.423-8.36-0.991-12.49c-0.701-5.089-0.832-10.221-1.445-15.301
			c-0.725-5.997-0.807-12.005-1.045-18.02c-0.238-6.011-0.866-12.005-1.105-18.015c-0.216-5.443-1.383-10.768-1.809-16.15
			c-0.374-4.731-2.101-9.129-2.494-13.806c-0.089-1.059-0.555-2.087-0.848-3.129c-0.24-0.851-0.83-0.933-1.558-0.696
			c-2.506,0.814-5.008,1.646-7.521,2.441c-1.247,0.394-2.5,0.793-3.775,1.069c-4.433,0.96-8.854,2-13.322,2.76
			c-4.982,0.848-10.018,1.396-15.019,2.133c-2.451,0.36-4.878,0.872-7.321,1.282c-0.639,0.106-1.299,0.111-1.95,0.123
			c-0.731,0.014-1.472-0.082-2.196-0.016c-2.842,0.261-5.672,0.646-8.518,0.834c-2.314,0.153-4.644,0.072-6.966,0.125
			c-3.661,0.084-7.335,0.417-10.981,0.229c-3.869-0.2-7.75-0.703-11.559-1.421c-2.831-0.534-5.545-1.671-8.336-2.449
			c-2.254-0.627-4.585-0.99-6.811-1.697c-5.367-1.705-10.623-3.715-15.717-6.133c-0.199-0.094-0.385-0.23-0.594-0.287
			c-3.999-1.092-7.271-3.73-11.086-5.213c-0.137-0.053-0.275-0.107-0.402-0.178c-2.611-1.451-5.255-2.848-7.816-4.382
			c-1.492-0.894-2.818-2.062-4.277-3.019c-3.43-2.246-6.94-4.371-10.331-6.673c-3.75-2.546-7.504-5.111-10.513-8.578
			c-0.287-0.332-0.601-0.671-0.97-0.897c-1.831-1.121-3.106-2.752-4.476-4.376c-4.97-5.9-9.266-12.281-13.598-18.634
			c-1.348-1.976-2.018-4.419-3.389-6.374c-2.015-2.874-3.854-5.738-4.971-9.133c-0.93-2.817-2.574-5.391-3.782-8.125
			c-3.189-7.22-4.608-14.946-6.146-22.612c-0.569-2.832-0.313-5.828-0.464-8.748c-0.172-3.374-0.412-6.745-0.56-10.121
			c-0.221-5.038-0.433-10.078-0.547-15.12c-0.03-1.378,0.288-2.767,0.468-4.147c0.209-1.6,0.455-3.195,0.661-4.797
			c0.401-3.129,0.819-6.258,1.167-9.394c0.531-4.771,2.027-9.302,3.514-13.812c1.165-3.531,2.738-6.932,4.206-10.359
			c1.038-2.424,2.118-4.838,3.333-7.176c1.242-2.392,2.613-4.721,4.033-7.012c2.31-3.728,4.938-7.278,6.982-11.141
			c1.408-2.656,3.46-4.682,5.296-6.92c3.476-4.235,6.84-8.549,10.122-12.938c1.695-2.268,3.992-4.076,5.891-6.204
			c3.616-4.056,7.894-7.373,12.05-10.81c2.128-1.76,4.627-3.073,6.962-4.583c0.183-0.117,0.451-0.142,0.582-0.293
			c2.377-2.751,6.104-2.859,8.999-4.595c0.858-0.516,1.867-0.772,2.778-1.207c3.832-1.829,7.689-3.608,11.467-5.543
			c3.714-1.901,7.295-4.061,11.021-5.935c2.994-1.506,6.013-3.118,9.208-4.028c4.638-1.32,9.451-2.012,14.173-3.051
			c1.786-0.393,3.529-0.984,5.281-1.52c1.812-0.553,3.582-1.275,5.424-1.688c1.703-0.384,3.546-0.224,5.209-0.709
			c5.146-1.503,10.509-0.804,15.703-1.73c0.853-0.151,1.761-0.066,2.637-0.005c4.014,0.279,8.025,0.596,12.037,0.882
			c0.434,0.032,0.881,0.003,1.309-0.071c2.663-0.461,5.24,0.146,7.83,0.6c0.574,0.102,1.124,0.355,1.7,0.447
			c1.888,0.304,3.61,0.945,5.338,1.82c3.509,1.778,7.245,3.111,10.729,4.934c3.873,2.027,7.941,3.7,11.509,6.338
			c1.554,1.149,3.503,1.781,5.302,2.583c4.746,2.118,9.469,4.267,13.82,7.159c2.064,1.372,4.278,2.523,6.336,3.904
			c2.97,1.991,6.174,3.675,8.664,6.324c0.05,0.053,0.101,0.123,0.164,0.145c2.762,0.91,4.181,3.312,5.973,5.315
			c0.577,0.646,1.273,1.239,2.022,1.673c2.956,1.711,5.384,3.96,7.56,6.594c1.61,1.948,3.594,3.585,5.381,5.39
			c1.648,1.665,3.242,3.384,4.888,5.051c4.928,4.993,9.885,9.957,14.792,14.97c0.762,0.779,1.311,1.763,1.969,2.645
			c1.402,1.879,2.825,3.742,4.209,5.634c0.519,0.709,1.042,1.44,1.407,2.231c1.202,2.613,2.585,5.102,4.554,7.229
			c0.242,0.263,0.465,0.588,0.574,0.925c1.424,4.377,4.191,8.023,6.494,11.916c2.384,4.026,4.734,8.049,5.825,12.666
			c0.111,0.472,0.39,0.903,0.624,1.43c4.016-0.812,7.961-0.641,11.913-0.501c1.755,0.061,3.524-0.227,5.277-0.14
			c3.001,0.147,5.996,0.442,8.991,0.718c5.263,0.482,10.527,0.588,15.816,0.477c4.895-0.104,9.797,0.231,14.695,0.347
			c2.935,0.067,5.872,0.096,8.807,0.108c3.081,0.015,6.162,0.003,9.242-0.028c1.094-0.01,2.188-0.102,3.279-0.166
			c0.218-0.012,0.441-0.119,0.646-0.086c6.188,0.984,12.414,0.773,18.641,0.664c2.422-0.043,4.848,0.052,7.271,0.046
			c3.483-0.009,6.967-0.08,10.451-0.075c3.453,0.006,6.906,0.081,10.359,0.104c0.507,0.004,1.014-0.158,1.523-0.173
			c1.758-0.052,3.553-0.31,5.268-0.053c3.277,0.49,6.546,0.725,9.855,0.733c3.146,0.009,6.29,0.203,9.438,0.299
			c4.984,0.15,9.969,0.272,14.953,0.433c4.914,0.159,9.826,0.389,14.74,0.508c2.325,0.058,4.654-0.079,6.98-0.11
			c2.783-0.037,5.563-0.078,8.345-0.076c3.228,0.003,6.456,0,9.681,0.1c1.753,0.053,3.498,0.428,5.25,0.457
			c6.312,0.104,12.623,0.122,18.935,0.177c0.515,0.004,1.029,0.022,1.541,0.068c4.179,0.368,8.347,0.485,12.544,0.104
			c2.084-0.19,4.216,0.136,6.324,0.243c3.725,0.188,7.447,0.418,11.173,0.569c1.903,0.078,3.812,0,5.719,0.034
			c3.595,0.062,7.192,0.089,10.784,0.271c1.375,0.069,2.73,0.524,4.096,0.8c2.756,0.554,5.506,0.876,8.301,0.201
			c0.846-0.204,1.75-0.213,2.629-0.227c3.594-0.059,7.188-0.094,10.781-0.117c3.23-0.021,6.394,0.394,9.588,0.973
			c4.594,0.833,8.49,3.014,12.363,5.359c0.34,0.207,0.613,0.637,0.765,1.023c0.481,1.217,1.021,2.435,1.306,3.705
			c1.234,5.495,2.873,10.927,3.109,16.596c0.096,2.326-0.196,4.668-0.287,7.004c-0.021,0.583,0.031,1.172,0.09,1.753
			c0.486,4.749,0.609,9.509,0.311,14.271c-0.232,3.734-0.625,7.459-0.804,11.196c-0.147,3.072-0.093,6.154-0.108,9.233
			c-0.047,8.804-0.07,17.608-0.141,26.413c-0.01,1.316-0.312,2.632-0.317,3.948c-0.018,4.843,0.044,9.685,0.051,14.526
			c0.001,1.395,0.063,2.812-0.153,4.18c-0.562,3.515-0.253,7.034-0.324,10.553c-0.047,2.303,0.201,4.498,0.672,6.735
			c0.269,1.28,0.796,1.779,2.002,1.772c1.6-0.01,3.199,0.027,4.797-0.018c5.926-0.166,11.834-0.674,17.782-0.365
			c6.67,0.345,13.352,0.49,20.031,0.574c5.355,0.069,10.713-0.099,16.069-0.131c3.602-0.022,6.428,1.517,8.643,4.327
			c1.937,2.46,3.291,5.203,3.895,8.251c0.381,1.932,0.422,3.932,0.598,5.903c0.287,3.21,0.611,6.419,0.823,9.635
			c0.155,2.333,0.156,4.677,0.225,7.015c0.093,3.216,0.192,6.432,0.274,9.647c0.047,1.836-0.058,3.685,0.119,5.508
			c0.299,3.062,0.88,6.099,1.135,9.162c0.323,3.869,0.295,7.77,0.689,11.628c0.312,3.047,0.025,6.151,0.974,9.154
			c0.41,1.301,0.278,2.764,0.528,4.129c0.881,4.828,1.899,9.635,2.713,14.475c0.62,3.68,1.281,7.389,1.418,11.103
			c0.131,3.544,1.012,6.922,1.461,10.383c0.933,7.19,0.794,14.234,1.179,21.517c0.149,2.816,1.009,5.592,1.491,8.396
			c0.187,1.084-0.023,2.292,0.373,3.271c1.662,4.112,1.271,8.503,1.921,12.745c0.644,4.201,1.349,8.393,1.886,12.606
			c0.378,2.974,0.494,5.979,0.771,8.966c0.363,3.937,0.194,7.893,0.83,11.834c0.494,3.074-0.709,6.26-0.576,9.395
			c0.066,1.539,0.186,3.076,0.287,4.613c0.095,1.439,0.587,2.99,0.209,4.291c-0.646,2.213-1.683,4.357-2.855,6.355
			c-0.719,1.223-1.898,2.248-3.056,3.119c-0.84,0.635-1.949,1.096-2.993,1.24c-2.239,0.311-2.514,0.369-4.773,0.527
			c-0.294,0.02-0.666-0.083-0.869,0.059c-2.043,1.438-3.217,0.018-5.315,0.321c-2.176,0.317-4.369,0.585-6.563,0.682
			c-6.154,0.274-12.314,0.37-18.465,0.698c-3.275,0.176-6.533,0.696-9.801,1.041c-0.648,0.068-1.346,0.189-1.953,0.03
			c-1.471-0.39-2.858-0.388-4.318,0.114c-0.639,0.221-1.441,0.016-2.163-0.06c-2.337-0.243-4.671-0.605-6.971,0.248
			c-0.337,0.126-0.741,0.274-1.063,0.198c-3.332-0.781-6.535,0.14-9.787,0.609c-2.17,0.312-4.379,0.332-6.572,0.477
			c-1.09,0.071-2.181,0.14-3.271,0.19c-2.191,0.1-4.379,0.208-6.57,0.274c-3.372,0.101-6.746,0.244-10.119,0.233
			c-3.307-0.011-6.637-0.228-9.588-1.907c-1.305-0.742-2.449-1.822-3.521-2.894c-0.875-0.875-1.615-1.917-2.254-2.979
			c-0.396-0.657-0.718-1.506-0.684-2.25c0.197-4.148-0.644-8.189-1.167-12.26c-0.28-2.187-0.917-2.543-3.151-2.171
			c-3.177,0.527-6.361,1.014-9.527,1.593c-3.295,0.6-6.589,0.308-9.877,0.079c-3.508-0.245-7.001-0.709-10.512-0.896
			c-2.027-0.108-4.076,0.146-6.115,0.222c-0.496,0.019-0.995-0.039-1.492-0.027c-2.11,0.049-4.221,0.103-6.329,0.175
			c-0.856,0.029-1.709,0.128-2.565,0.172c-1.824,0.091-3.648,0.155-5.473,0.249c-1.23,0.063-2.465,0.264-3.689,0.216
			c-2.414-0.091-4.832-0.586-7.197,0.351c-0.254,0.101-0.586,0.083-0.867,0.035c-3.422-0.581-6.864-0.176-10.295-0.223
			c-1.994-0.027-3.972-0.047-5.828,0.852c-0.248,0.121-0.588,0.205-0.842,0.137c-2.214-0.602-4.365,0.092-6.546,0.241
			c-1.675,0.115-3.366-0.018-5.05,0.01c-1.677,0.027-3.369-0.034-4.941,0.778c-0.346,0.178-0.951,0.279-1.23,0.099
			c-1.981-1.294-4.109-0.771-6.221-0.649c-1.975,0.113-3.957,0.083-5.928,0.22c-1.817,0.126-3.623,0.411-5.438,0.582
			c-0.49,0.046-1.11,0.1-1.477-0.143c-1.889-1.253-4.016-1.177-6.121-1.271c-1.461-0.065-2.92-0.176-4.381-0.211
			c-1.833-0.045-3.666-0.03-5.5-0.046c-0.441-0.004-0.889,0.023-1.322-0.042c-5.615-0.843-11.258-0.003-16.875-0.274
			c-2.026-0.099-3.924,0.476-5.878,0.605c-3.8,0.252-7.62,0.188-11.433,0.27c-1.902,0.041-3.804,0.111-5.705,0.175
			c-0.586,0.02-1.175,0.102-1.76,0.075c-3.811-0.176-7.617-0.462-11.431-0.535c-3.443-0.067-6.894,0.045-10.339,0.164
			c-3.15,0.109-6.309,0.587-9.439,0.422c-2.19-0.115-4.351-0.356-6.551-0.107c-1.549,0.176-3.061,0.375-4.375,1.311
			c-0.785,0.557-1.506,0.619-2.426,0.059c-0.702-0.426-1.66-0.463-2.518-0.59c-1.8-0.268-3.604-0.491-5.41-0.712
			c-0.578-0.071-1.166-0.125-1.746-0.108c-1.242,0.034-2.481,0.119-3.723,0.18c-0.145,0.008-0.297-0.031-0.439-0.007
			c-5.268,0.92-10.674-0.343-15.927,1.04c-1.104,0.291-2.333,0.184-3.5,0.142c-2.216-0.079-4.376,0.169-6.558,0.589
			c-1.406,0.27-2.919-0.073-4.369,0.044c-1.355,0.11-2.691,0.479-4.041,0.707c-0.426,0.071-0.879,0.129-1.299,0.062
			c-3.77-0.594-7.425,0.325-11.133,0.709c-4.293,0.443-8.623,0.678-12.938,0.715c-4.187,0.037-8.36-0.021-12.504,0.7
			c-0.86,0.15-1.755,0.283-2.615,0.209c-5.586-0.479-11.129-0.066-16.668,0.637c-4.203,0.534-8.446,0.836-12.612,1.576
			c-3.456,0.613-6.853-0.122-10.27,0.089c-3.147,0.195-6.295,0.372-9.444,0.525c-3.659,0.177-7.318,0.37-10.979,0.447
			c-1.159,0.025-2.321-0.415-3.488-0.443c-2.711-0.064-5.426,0.011-8.142-0.009c-3.151-0.022-6.305-0.05-9.455-0.144
			c-3.738-0.108-7.474-0.29-11.212-0.438c-0.292-0.011-0.602,0.054-0.879-0.015c-3.279-0.806-6.567-0.1-9.841-0.156
			c-4.138-0.071-8.355,0.061-12.44-1.03c-0.537-0.144-1.142-0.052-1.715-0.037c-0.509,0.015-1.034,0.172-1.523,0.092
			c-1.389-0.226-1.824-1.208-1.041-2.405c0.3-0.459,0.819-0.785,1.272-1.128c0.349-0.262,0.753-0.446,1.126-0.676
			C316.064,576.068,316.236,575.93,316.794,575.53z M736.758,486.27c0.116-0.845,0.319-1.56,0.299-2.271
			c-0.141-5.137-0.312-10.272-0.512-15.408c-0.035-0.947-0.266-1.885-0.367-2.83c-0.26-2.407-0.489-4.816-0.746-7.224
			c-0.07-0.651-0.189-1.298-0.297-1.945c-0.429-2.599-0.988-5.184-1.264-7.799c-0.361-3.425-0.435-6.881-0.755-10.312
			c-0.237-2.55-0.677-5.079-1.012-7.621c-0.247-1.878-0.297-3.803-0.734-5.635c-1.307-5.457-2.021-11.026-1.839-16.574
			c0.225-6.843-0.768-13.637-0.389-20.453c0.24-4.368-0.934-8.676,0.07-13.127c0.606-2.693,1.428-5.345,2.771-7.521
			c1.473-2.383,3.638-4.43,7.263-4.253c3.847,0.188,7.739-0.525,11.608-0.879c1.602-0.146,1.73-0.335,1.812-1.879
			c0.05-0.951,0.127-1.899,0.205-2.849c0.322-3.88,0.831-7.755,0.927-11.642c0.096-3.88-0.215-7.77-0.355-11.655
			c-0.18-4.977-0.363-9.951-0.555-14.928c-0.065-1.684-0.197-3.367-0.235-5.051c-0.109-5.066-0.071-10.139-0.319-15.197
			c-0.168-3.432-0.847-6.836-1.068-10.267c-0.183-2.853,0.083-5.733-0.057-8.591c-0.196-4.029-0.543-8.053-0.902-12.071
			c-0.318-3.535-1.119-6.931-3.328-9.841c-1.374-1.809-3.252-3.488-5.3-3.614c-2.301-0.142-4.174-1.085-6.237-1.667
			c-0.562-0.158-1.137-0.281-1.715-0.375c-2.848-0.462-5.678-0.018-8.516,0.042c-3.553,0.075-7.143,0.712-10.715,0.04
			c-1.583-0.298-3.192-0.51-4.799-0.607c-4.181-0.257-8.369-0.379-12.549-0.647c-3.869-0.247-7.734,0.159-11.627-0.452
			c-5.42-0.852-10.908-1.424-16.388-1.717c-4.964-0.264-9.958-0.04-14.935,0.06c-2.996,0.061-5.986,0.44-8.979,0.421
			c-4.68-0.029-9.357-0.27-14.037-0.434c-1.1-0.038-2.197-0.146-3.297-0.193c-3.73-0.162-7.463-0.305-11.193-0.471
			c-2.926-0.131-5.85-0.329-8.777-0.404c-1.085-0.028-2.176,0.278-3.268,0.308c-3.37,0.09-6.743,0.208-10.111,0.147
			c-4.399-0.078-8.798-0.298-13.194-0.493c-2.56-0.113-5.122-0.473-7.673-0.386c-1.707,0.059-3.322,0.691-5.037-0.304
			c-0.732-0.427-1.867-0.173-2.82-0.201c-0.513-0.015-1.041,0.114-1.537,0.031c-4.057-0.676-8.133-0.903-12.244-0.766
			c-4.249,0.141-8.508-0.534-12.757,0.24c-1.718,0.313-3.491,0.552-5.228,0.489c-4.691-0.172-9.332,0.543-13.998,0.76
			c-5.897,0.271-11.795,0.435-17.694,0.649c-3.954,0.144-7.911,0.47-11.841,0.93c-3.34,0.391-6.643,1.095-9.964,1.649
			c-1.44,0.24-2.877,0.576-4.327,0.66c-3.771,0.221-7.546,0.325-11.513,0.483c0.021,2.12-1.6,2.398-3.309,2.502
			c-0.805,0.05-1.622,0.05-2.421-0.043c-1.575-0.184-3.14-0.446-4.737-0.681c-0.46-0.621-0.931-1.259-1.366-1.848
			c-0.972,0.089-1.819,0.166-2.887,0.265c-0.344,0.925-0.822,1.917-1.08,2.964c-0.596,2.423-1.066,4.876-1.623,7.309
			c-0.198,0.854-0.401,1.732-0.772,2.519c-1.81,3.839-3.703,7.638-5.519,11.476c-3.84,8.119-7.881,16.121-12.547,23.815
			c-3.229,5.321-6.327,10.711-10.264,15.554c-3.049,3.75-6.134,7.471-9.221,11.189c-2.014,2.424-4.173,4.732-6.061,7.246
			c-3.205,4.272-7.15,7.773-11.458,10.795c-2.826,1.984-4.411,4.267-4.508,7.729c-0.129,4.696-0.448,9.387-0.658,14.081
			c-0.047,1.026-0.031,2.062,0.052,3.085c0.465,5.649,0.312,11.29-0.115,16.933c-0.104,1.382-0.064,2.777-0.055,4.166
			c0.013,2.121,0.063,4.241,0.088,6.363c0.014,1.249-0.062,2.501,0.022,3.744c0.171,2.485,0.732,4.985,0.575,7.444
			c-0.255,4.006,0.473,7.905,0.723,11.854c0.324,5.123,0.726,10.241,1.017,15.366c0.269,4.754,0.432,9.515,0.65,14.272
			c0.112,2.417,0.119,4.85,0.398,7.25c0.491,4.21,1.123,8.403,1.76,12.594c0.352,2.313,0.771,4.621,1.28,6.904
			c0.379,1.704,0.975,3.359,1.432,5.049c0.492,1.812,1.286,3.365,2.92,4.467c0.757,0.51,1.372,1.291,1.909,2.051
			c0.769,1.088,1.759,1.838,3.047,1.951c2.749,0.238,5.524,0.651,8.22-0.416c0.239-0.096,0.619-0.1,0.828,0.027
			c0.984,0.603,1.975,0.388,2.981,0.132c2.954-0.75,5.915-0.79,8.93-0.308c1.285,0.205,2.632,0.016,3.95,0.013
			c4.975-0.011,9.953-0.573,14.921,0.137c0.434,0.062,0.894,0.103,1.317,0.028c4.719-0.817,9.504,0.092,14.267-0.768
			c3.195-0.575,6.584-0.186,9.878-0.059c6.094,0.235,12.146,0.042,18.197-0.824c3.547-0.508,7.145-0.737,10.729-0.906
			c6.66-0.315,13.322-0.599,19.988-0.691c3.93-0.054,7.791-0.843,11.742-0.707c4.679,0.16,9.368,0.008,14.053-0.054
			c3.147-0.04,6.295-0.15,9.441-0.237c0.951-0.026,1.904-0.121,2.855-0.105c2.49,0.04,5.006,0.384,7.465,0.141
			c5.562-0.554,11.137-0.505,16.66-0.094c6.084,0.454,12.152,0.359,18.227,0.383c7.41,0.028,14.805,0.312,22.18,1.055
			c0.655,0.066,1.318,0.062,1.979,0.075c3.225,0.064,6.454,0.061,9.676,0.211c1.811,0.085,3.607,0.589,5.416,0.608
			c3.947,0.045,7.899-0.23,11.844-0.133c4.887,0.122,9.767,0.513,14.65,0.735c1.528,0.071,3.066-0.098,4.594-0.031
			c4.684,0.2,9.361,0.548,14.047,0.673c3.442,0.09,6.892-0.129,10.337-0.118c3.433,0.011,6.875,0.333,10.296,0.166
			c6.129-0.297,12.246-0.859,18.368-1.306c1.085-0.08,2.175-0.125,3.262-0.205c3.06-0.225,5.963-1.448,9.114-1.28
			C733.797,487.208,735.236,486.592,736.758,486.27z M145.867,252.185c0.054,0.003,0.107,0.005,0.16,0.007
			c-0.023,0.514-0.051,1.027-0.069,1.542c-0.242,6.629,0.132,13.214,1.567,19.705c0.49,2.219,1.113,4.411,1.783,6.582
			c1.118,3.629,2.183,7.283,3.535,10.825c1.171,3.066,2.719,5.988,4.087,8.979c1.037,2.271,2.071,4.527,3.887,6.338
			c0.55,0.548,0.867,1.346,1.23,2.061c1.23,2.412,2.212,4.987,3.694,7.23c2.988,4.517,6.235,8.861,9.398,13.26
			c0.468,0.649,1.03,1.24,1.602,1.807c2.279,2.26,4.654,4.426,6.852,6.761c3.855,4.098,8.374,7.325,13.086,10.317
			c0.424,0.27,0.979,0.62,1.408,0.548c1.922-0.331,3.01,0.712,3.973,2.117c0.196,0.284,0.584,0.433,0.868,0.664
			c3.136,2.547,6.536,4.681,10.124,6.524c0.709,0.363,1.391,0.785,2.112,1.121c2.348,1.092,4.865,1.917,7.019,3.306
			c1.972,1.273,4.105,1.887,6.236,2.641c0.537,0.19,1.091,0.378,1.566,0.679c1.741,1.098,3.51,2.11,5.57,2.492
			c0.867,0.16,1.751,0.289,2.582,0.567c3.862,1.301,7.6,2.955,11.611,3.836c2.562,0.564,5.065,1.39,7.608,2.047
			c1.264,0.327,2.546,0.683,3.838,0.78c2.759,0.207,5.53,0.236,8.294,0.38c0.565,0.028,1.119,0.246,1.683,0.354
			c0.335,0.063,0.683,0.146,1.014,0.112c2.11-0.212,4.214-0.525,6.328-0.675c5.256-0.371,10.553-0.197,15.747-1.371
			c2.078-0.469,4.205-0.385,6.312,0.037c0.566,0.114,1.185,0.152,1.751,0.057c5.27-0.884,10.655-1.081,15.804-2.691
			c0.761-0.238,1.597-0.228,2.393-0.356c2.594-0.417,5.246-0.624,7.768-1.313c6.896-1.891,13.699-4.101,20.396-6.619
			c0.949-0.357,1.954-0.568,2.896-0.942c3.737-1.488,7.532-2.861,11.164-4.579c2.561-1.212,5.18-2.419,7.593-3.846
			c4.27-2.523,8.598-5.007,12.532-8.09c1.701-1.333,3.705-2.273,5.483-3.516c1.429-0.999,2.643-2.313,4.1-3.261
			c2.075-1.351,3.574-3.239,5.127-5.072c2.648-3.124,4.971-6.559,7.848-9.448c3.327-3.342,6.097-7.082,9.009-10.743
			c4.221-5.303,7.744-11.071,11.139-16.884c3.609-6.178,6.662-12.68,9.925-19.058c0.829-1.622,1.519-3.315,2.309-4.956
			c0.855-1.773,1.8-3.506,2.625-5.293c2.079-4.505,2.705-9.427,3.975-14.165c0.247-0.919,0.523-1.841,0.662-2.778
			c0.829-5.657,0.177-11.266-0.606-16.869c-0.231-1.659-0.357-3.334-0.601-4.99c-0.623-4.248-1.182-8.509-1.959-12.73
			c-0.791-4.293-3.491-7.78-5.744-11.302c-3.599-5.626-5.93-11.956-9.976-17.298c-0.264-0.351-0.455-0.754-0.698-1.121
			c-1.579-2.383-2.944-4.949-4.788-7.105c-4.61-5.392-9.356-10.674-14.211-15.849c-2.836-3.021-6.006-5.727-8.984-8.616
			c-2.047-1.986-4.022-4.045-6.03-6.07c-1.126-1.136-2.08-2.568-3.415-3.348c-3.011-1.756-5.314-4.311-7.966-6.463
			c-2.361-1.917-4.644-3.943-7.112-5.709c-2.435-1.744-5.023-3.285-7.61-4.805c-2.571-1.511-4.922-3.314-7.747-4.506
			c-4.703-1.982-9.172-4.526-13.707-6.896c-3.177-1.661-6.229-3.576-9.466-5.101c-3.367-1.586-6.836-2.951-10.025-4.906
			c-0.615-0.377-1.345-0.705-2.049-0.773c-2.277-0.227-4.4-1.004-6.593-1.535c-3.97-0.962-8.03-1.673-12.093-2.104
			c-6.723-0.713-13.461-0.786-20.104,0.867c-0.566,0.142-1.161,0.207-1.744,0.22c-3.043,0.062-5.973,0.599-8.754,1.884
			c-0.592,0.274-1.238,0.489-1.883,0.577c-2.706,0.375-5.208,1.625-8.061,1.528c-1.775-0.062-3.577,0.682-5.369,1.058
			c-2.077,0.436-4.254,0.607-6.215,1.351c-3.967,1.503-7.969,3.034-11.685,5.054c-8.634,4.693-17.438,9.016-26.352,13.146
			c-3.847,1.781-7.739,3.555-11.014,6.348c-3.679,3.138-7.351,6.285-10.979,9.481c-1.189,1.048-2.062,2.563-3.394,3.314
			c-1.233,0.695-2.007,1.661-2.809,2.659c-2.153,2.678-4.244,5.406-6.344,8.127c-3.893,5.043-8.061,9.879-11.499,15.266
			c-0.943,1.478-1.76,3.041-2.758,4.48c-2.711,3.912-5.472,7.781-7.367,12.191c-0.836,1.943-1.897,3.789-2.785,5.711
			c-0.889,1.926-1.857,3.84-2.488,5.852c-0.762,2.439-1.643,4.857-2.463,7.259c-1.906,5.578-2.045,11.402-3.133,17.081
			c-0.096,0.499-0.049,1.026-0.051,1.541c-0.02,4.547,0.026,9.095-0.07,13.641C146.289,244.56,146.041,248.371,145.867,252.185z
			 M634.594,540.343c-0.775,0.154-1.051,0.199-1.32,0.266c-1.345,0.326-1.846,1.581-2.709,2.445
			c-1.811,1.811-3.684,3.533-5.012,5.795c-0.917,1.561-2.102,2.994-3.343,4.322c-0.663,0.71-1.696,1.511-2.564,1.514
			c-2.283,0.008-4.478,0.493-6.712,0.732c-3.918,0.417-7.85,0.674-11.775,1.007c-0.289,0.024-0.611,0.056-0.854,0.194
			c-1.684,0.971-3.592,0.596-5.36,0.729c-2.751,0.204-5.546-0.197-8.323-0.258c-2.623-0.057-5.25-0.034-7.872,0.025
			c-0.717,0.016-1.454,0.213-2.135,0.457c-1.287,0.46-2.547,0.367-3.872,0.187c-1.785-0.243-3.568-1.034-5.414-0.212
			c-0.209,0.092-0.572-0.039-0.812-0.164c-1.963-1.016-4.053-1.115-6.195-0.938c-1.287,0.106-2.613,0.348-3.862,0.151
			c-1.261-0.201-2.497-0.773-3.659-1.354c-1.275-0.638-2.52-1.114-3.988-0.988c-0.703,0.06-1.508-0.018-2.135-0.312
			c-2.234-1.049-4.412-2.219-6.612-3.342c-0.324-0.165-0.673-0.49-0.976-0.453c-1.585,0.192-1.932-0.922-2.414-2.035
			c-0.311-0.718-0.793-1.392-1.316-1.981c-0.575-0.647-1.303-1.159-1.934-1.762c-1.738-1.662-3.462-3.341-5.069-4.896
			c-1.06,0.131-1.923,0.342-2.78,0.315c-0.996-0.031-1.984-0.283-2.98-0.419c-3.254-0.444-6.492,0.323-9.793-0.029
			c-2.793-0.299-5.693,0.275-8.533,0.591c-1.613,0.179-3.195,0.625-4.797,0.917c-0.263,0.047-0.559-0.077-0.837-0.132
			c-0.626-0.123-1.259-0.396-1.873-0.357c-4.383,0.276-8.763,0.564-13.157,0.333c-0.436-0.022-0.877,0.105-1.315,0.126
			c-2.188,0.108-4.376,0.269-6.565,0.289c-2.633,0.022-5.271-0.177-7.858,0.534c-0.479,0.133-1.034,0.157-1.521,0.062
			c-4.863-0.962-9.742-0.979-14.648-0.397c-0.687,0.081-1.417-0.168-2.122-0.294c-3.34-0.593-6.701-0.765-10.08-0.478
			c-1.235,0.105-2.46,0.375-3.696,0.436c-3.652,0.18-7.322,0.134-10.881,1.184c-0.409,0.121-0.879,0.092-1.314,0.061
			c-7.834-0.573-15.664-0.422-23.492,0.14c-0.876,0.063-1.76,0.015-2.639,0.032c-3.144,0.062-6.292,0.037-9.428,0.221
			c-2.484,0.146-4.948,0.612-7.431,0.82c-2.618,0.22-5.245,0.378-7.873,0.426c-3.665,0.065-7.333,0.004-10.998-0.004
			c-1.613-0.003-3.241-0.144-4.838,0.018c-4.681,0.473-9.373,0.516-14.035,0.083c-4.193-0.39-8.351-0.057-12.523,0.035
			c-3.451,0.076-6.845,0.459-10.216,1.34c-2.754,0.719-5.638,0.931-8.456,1.408c-0.522,0.088-1.011,0.366-1.497,0.551
			c0.345,1.214,0.477,2.262,0.927,3.147c1.383,2.721,2.892,5.379,4.339,8.067c0.133,0.247,0.17,0.545,0.266,0.815
			c0.382,1.092,0.668,2.229,1.173,3.262c1.458,2.994,3.638,5.563,4.707,8.838c0.59,1.803,2.035,3.208,4.478,3.643
			c3.57,0.634,7.133,0.795,10.715,1.062c6.283,0.467,12.588,0.366,18.88,0.815c4.87,0.35,9.767,0.854,14.702,0.242
			c3.106-0.384,6.287-0.145,9.434-0.223c2.046-0.051,4.09-0.258,6.133-0.233c3.146,0.038,6.288,0.223,9.432,0.329
			c0.436,0.014,0.92,0.04,1.306-0.121c1.907-0.798,3.905-0.67,5.874-0.564c2.873,0.155,5.627-0.517,8.41-1
			c2.666-0.463,5.289-0.872,8.053-0.827c6.35,0.104,12.71-0.2,19.063-0.387c2.995-0.088,5.988-0.407,8.981-0.399
			c3.363,0.009,6.721,0.325,10.053-0.437c2.159-0.493,4.286-1.148,6.576-0.902c1.196,0.129,2.462,0.032,3.643-0.216
			c3.215-0.678,6.398-1.497,9.6-2.24c0.27-0.062,0.572,0.038,0.857,0.042c4.543,0.067,9.084,0.222,13.623,0.163
			c2.849-0.034,5.688-0.487,8.539-0.578c4.66-0.149,9.325-0.148,13.988-0.23c1.019-0.019,2.035-0.18,3.055-0.171
			c2.265,0.02,4.532,0.213,6.793,0.137c2.689-0.091,5.367-0.414,8.07-0.233c1.902,0.126,3.813,0.167,5.721,0.167
			c3.147,0,6.296-0.092,9.445-0.087c1.171,0.002,2.342,0.23,3.514,0.25c3.508,0.057,7.016,0.071,10.523,0.083
			c1.534,0.004,3.068-0.055,4.601-0.054c1.891,0.001,3.781,0.044,5.671,0.048c0.434,0.001,0.867-0.118,1.303-0.131
			c2.692-0.083,5.392-0.06,8.073-0.267c1.239-0.096,2.396-0.359,3.667,0.024c0.781,0.236,1.73-0.05,2.6-0.145
			c0.421-0.046,0.89-0.374,1.237-0.264c1.704,0.543,3.341,0.013,5.003-0.163c0.802-0.086,1.609-0.163,2.412-0.159
			c2.162,0.007,4.324,0.097,6.486,0.082c1.682-0.013,3.367-0.259,5.043-0.187c5.453,0.235,10.893,0.807,16.366,0.512
			c3.792-0.205,7.593-0.283,11.388-0.454c2.196-0.099,4.398-0.454,6.582-0.367c3.951,0.158,7.926-0.506,11.854,0.343
			c0.208,0.046,0.438-0.008,0.656-0.003c2.844,0.059,5.686,0.114,8.529,0.181c0.66,0.016,1.32,0.093,1.98,0.094
			c3.51,0.002,7.021-0.018,10.531-0.018c0.881-0.001,1.764,0.094,2.642,0.05c5.327-0.269,10.65-0.642,15.979-0.827
			c4.092-0.143,8.191-0.044,12.285-0.087c1.678-0.019,3.357-0.169,5.035-0.185c3.215-0.03,6.435,0.074,9.647-0.025
			c4.021-0.124,8.077,0.38,12.062-0.617c0.553-0.138,1.172-0.053,1.757-0.012c1.593,0.109,3.069-0.176,4.061-0.972
			c1.589,0.141,2.876,0.348,4.161,0.343c1.311-0.006,2.068-0.684,2.086-2.02c0.021-1.822-0.033-3.679-0.361-5.465
			c-1.365-7.431-2.691-14.861-3.225-22.41c-0.142-2.006-0.536-3.465-3.6-3.305c-3.512,0.184-7.025,0.353-10.539,0.539
			c-2.27,0.121-4.54,0.26-6.811,0.396c-2.849,0.172-5.695,0.356-8.545,0.525c-1.608,0.096-3.254-0.01-4.817,0.307
			c-1.74,0.352-3.388,0.488-5.18,0.27c-1.853-0.228-3.778,0.238-5.669,0.221c-5.591-0.051-11.152,0.156-16.633,1.396
			c-0.42,0.095-0.874,0.037-1.313,0.047c-1.308,0.025-2.63-0.066-3.918,0.102c-1.814,0.236-3.587,0.71-5.442,0.2
			c-0.612-0.169-1.318-0.077-1.971-0.013c-4.217,0.426-8.424,0.962-12.647,1.285c-2.476,0.188-4.979,0.037-7.47,0.066
			c-1.404,0.016-2.691,0.074-3.572,1.598c-0.801,1.384-2.239,1.605-3.83,1.051c-2.149-0.749-2.46-0.578-3.527,1.544
			c-0.42,0.836-1.039,1.572-1.567,2.354c-0.1-0.068-0.199-0.137-0.298-0.206C634.049,543.383,634.289,542.048,634.594,540.343z
			 M736.387,491.036c-3.445,0.438-6.771,0.939-10.117,1.267c-6.28,0.614-12.567,1.153-18.855,1.666
			c-1.449,0.117-2.918-0.053-4.375,0.007c-1.457,0.059-2.907,0.288-4.365,0.353c-1.221,0.056-2.455,0.065-3.668-0.06
			c-1.144-0.116-2.268-0.629-3.398-0.625c-2.713,0.01-5.424,0.212-8.136,0.355c-2.341,0.125-4.679,0.289-7.021,0.405
			c-0.354,0.019-0.736-0.071-1.068-0.203c-2.393-0.947-4.818-1.079-7.328-0.507c-0.764,0.175-1.598,0.072-2.396,0.038
			c-1.246-0.054-2.486-0.201-3.73-0.231c-3.809-0.093-7.619-0.144-11.428-0.223c-3.443-0.07-6.891-0.112-10.334-0.247
			c-3.732-0.146-7.46-0.392-11.191-0.574c-1.024-0.05-2.051-0.048-3.076-0.036c-2.054,0.024-4.168,0.404-6.146,0.044
			c-4.735-0.861-9.494-0.948-14.268-1.011c-1.529-0.021-3.147,0.31-4.57-0.081c-2.929-0.806-5.828-0.011-8.738-0.251
			c-3.197-0.266-6.43-0.109-9.645-0.203c-2.117-0.062-4.232-0.387-6.344-0.338c-3.726,0.086-7.449,0.567-11.169,0.512
			c-3.88-0.058-7.747-0.283-11.61,0.269c-0.719,0.103-1.462,0.037-2.193,0.021c-2.335-0.05-4.671-0.121-7.008-0.168
			c-1.169-0.023-2.377,0.177-3.502-0.052c-4.649-0.943-9.193-0.146-13.756,0.599c-0.551,0.091-1.13,0.075-1.689,0.022
			c-1.376-0.128-2.759-0.498-4.119-0.422c-2.855,0.156-5.699,0.523-8.545,0.832c-1.383,0.15-2.779,0.603-4.137,0.497
			c-2.418-0.188-4.789-0.261-7.217,0.021c-3.262,0.378-6.558,0.55-9.841,0.606c-4.329,0.074-8.517,1.281-12.909,1.139
			c-4.66-0.15-9.324,0.522-14.039,0.187c-3.557-0.255-7.168,0.229-10.755,0.379c-1.097,0.046-2.194,0.062-3.289,0.118
			c-1.829,0.095-3.655,0.299-5.484,0.303c-4.174,0.005-8.357-0.276-12.521-0.08c-4.375,0.207-8.744,0.236-13.119,0.269
			c-1.228,0.01-2.457-0.022-3.684,0.009c-2.592,0.066-5.055,0.769-7.521,1.493c-0.89,0.261-1.875,0.353-2.804,0.296
			c-1.452-0.087-2.888-0.436-4.341-0.542c-1.518-0.112-2.854-0.562-4.036-1.523c-0.626-0.508-1.372-0.887-1.931-1.456
			c-1.772-1.808-3.49-3.669-5.201-5.535c-0.176-0.191-0.169-0.555-0.237-0.84c-0.77-3.194-1.475-6.406-2.326-9.579
			c-0.778-2.903-1.354-5.814-1.442-8.835c-0.059-1.974-0.387-3.939-0.574-5.91c-0.249-2.618-0.553-5.233-0.699-7.857
			c-0.18-3.223-0.049-6.471-0.366-9.677c-0.448-4.52-0.597-9.048-0.876-13.573c-0.311-5.046-0.749-10.084-1.119-15.126
			c-0.329-4.453-0.642-8.907-0.957-13.362c-0.025-0.364-0.016-0.733-0.012-1.101c0.037-3.521,0.075-7.043,0.117-10.564
			c0.027-2.271,0.037-4.542,0.1-6.812c0.076-2.782,0.316-5.565,0.272-8.345c-0.053-3.375-0.524-6.751-0.454-10.118
			c0.086-4.168,0.545-8.328,0.829-12.492c0.038-0.554-0.009-1.114-0.021-1.949c-1.651,0.981-3.181,1.695-4.483,2.702
			c-3.805,2.937-8.043,5.073-12.423,6.949c-4.513,1.933-9.075,3.759-13.608,5.647c-1.515,0.632-1.58,0.79-1.295,2.289
			c0.301,1.586,0.592,3.172,0.905,4.755c0.595,3.011,1.301,6.004,1.776,9.034c0.466,2.957,0.748,5.945,1.032,8.928
			c0.711,7.451,1.453,14.899,2.03,22.361c0.282,3.647,0.214,7.323,0.321,10.984c0.081,2.788,0.061,5.585,0.313,8.357
			c0.366,4.014,1.034,7.997,1.398,12.01c0.543,5.974,0.925,11.962,1.396,17.943c0.144,1.828,0.305,3.659,0.553,5.475
			c0.466,3.407,1.156,6.791,1.471,10.209c0.481,5.253,0.729,10.526,1.066,15.793c0.022,0.361-0.049,0.729-0.055,1.093
			c-0.023,1.378-0.155,2.768-0.025,4.131c0.164,1.745,0.562,3.465,0.821,5.201c0.47,3.134,1.317,6.121,3.02,8.841
			c0.851,1.359,1.677,2.612,3.583,2.307c0.258-0.041,0.549,0.193,0.834,0.238c2.795,0.431,5.586,1.119,8.393,1.2
			c3.287,0.095,6.589-0.355,9.885-0.55c4.153-0.245,8.311-0.426,12.461-0.721c3.352-0.238,6.695-0.604,10.043-0.914
			c5.029-0.467,10.051-1.082,15.091-1.365c5.904-0.334,11.826-0.328,17.735-0.57c3.576-0.146,7.142-0.62,10.716-0.693
			c4.299-0.088,8.605,0.025,12.905,0.177c6.381,0.223,12.76,0.533,19.139,0.853c3.373,0.167,6.764,0.268,10.107,0.691
			c5.051,0.64,10.076,0.58,15.127,0.151c3.203-0.273,6.415-0.472,9.629-0.587c1.434-0.052,2.889,0.335,4.318,0.258
			c4.385-0.236,8.762-0.609,13.144-0.912c3.433-0.238,6.866-0.479,10.302-0.673c3.135-0.176,6.273-0.333,9.414-0.417
			c3.004-0.08,6.011-0.044,9.016-0.083c3.801-0.048,7.602-0.129,11.402-0.177c3.802-0.05,7.607,0.027,11.401-0.158
			c1.642-0.081,3.192-0.85,4.942-0.711c2.84,0.225,5.699,0.17,8.55,0.263c0.946,0.032,1.89,0.168,2.836,0.237
			c2.269,0.166,4.544,0.511,6.806,0.443c5.251-0.157,10.48-0.87,15.748-0.678c0.219,0.007,0.439-0.023,0.658-0.029
			c3.057-0.078,6.113-0.193,9.169-0.221c1.837-0.016,3.673,0.098,5.509,0.165c1.77,0.065,3.54-0.747,5.309,0.017
			c0.057,0.025,0.143-0.019,0.217-0.021c1.898-0.059,3.799-0.186,5.697-0.16c3.432,0.046,6.861,0.162,10.292,0.286
			c5.706,0.207,11.411,0.46,17.118,0.651c1.378,0.045,2.76-0.082,4.143-0.117c1.388-0.037,2.777-0.067,4.166-0.084
			c3.941-0.047,7.882,0.398,11.83-0.127c2.538-0.338,5.107-0.565,7.666-0.582c4.931-0.034,9.805-0.428,14.685-1.188
			c3.304-0.514,6.653-1.186,10.058-0.677c0.623,0.093,1.28-0.053,2.227-0.105c-0.234-5.984-0.897-11.784-1.418-17.591
			C737.02,492.224,736.662,491.709,736.387,491.036z M739.615,450.52c1.125,2.477,1.072,5.14,1.153,7.709
			c0.149,4.614,0.083,9.222,0.787,13.814c0.362,2.365,0.537,4.813,0.356,7.191c-0.143,1.865,0.078,3.649,0.293,5.454
			c0.115,0.996,0.713,1.956,0.734,2.94c0.072,3.362-0.004,6.729-0.05,10.094c-0.011,0.729-0.356,1.516-0.175,2.173
			c0.738,2.685,0.26,5.401,0.42,8.096c0.062,1.071,0.281,2.228,0.779,3.155c0.586,1.09,0.562,2.012,0.244,3.135
			c-0.288,1.019-0.453,2.137-0.36,3.184c0.227,2.55,0.64,5.083,0.966,7.624c0.131,1.017-0.003,2.14,0.391,3.035
			c0.682,1.541,0.651,3.071,0.672,4.685c0.074,6.036,1.102,11.979,1.979,17.933c0.589,3.989,1.256,7.965,1.868,11.949
			c1.101,7.153,1.444,14.421,3.71,21.4c0.592,1.823,1.404,3.287,2.646,4.592c0.419,0.44,1.063,0.841,1.648,0.918
			c2.467,0.323,4.947,0.66,7.432,0.727c3.43,0.09,6.867,0.004,10.298-0.123c3.948-0.146,7.894-0.395,11.835-0.658
			c0.832-0.056,1.639-0.518,2.467-0.552c3.789-0.159,7.568-0.073,11.364-0.607c3.31-0.466,6.72-0.217,10.086-0.284
			c2.123-0.042,4.247-0.064,6.37-0.134c1.896-0.062,3.791-0.159,5.683-0.275c4.147-0.253,8.368,0.339,12.418-1.086
			c0.388-0.137,0.858-0.046,1.29-0.043c2.549,0.02,5.114,0.526,7.613-0.544c0.764-0.326,1.779-0.525,2.535-0.3
			c1.289,0.385,2.463,0.085,3.694-0.031c2.813-0.269,4.633-0.488,7.45-0.715c0.364-0.029,0.74,0.069,1.1,0.021
			c0.872-0.118,1.822-0.104,2.584-0.47c1.749-0.839,1.9-1.418,2.445-3.592c0.548-2.181,1.021-4.452,1.016-6.684
			c-0.015-4.883,0.559-9.764,0.461-14.65c-0.133-6.674-0.383-13.332-1.825-19.874c-0.679-3.077-0.95-6.193-1.286-9.312
			c-0.363-3.355-0.861-6.695-1.349-10.035c-0.378-2.604,1.329-5.233,0.72-7.786c-1.215-5.091-1.389-10.31-2.149-15.454
			c-0.427-2.891-0.86-5.783-1.337-8.666c-0.407-2.462-1.019-4.896-1.294-7.371c-0.429-3.852-0.521-7.742-0.989-11.588
			c-0.494-4.063-1.238-8.098-1.92-12.137c-0.734-4.34-1.492-8.676-2.296-13.004c-0.845-4.55-1.346-9.155-1.308-13.756
			c0.033-4.144-0.561-8.197-1.023-12.267c-0.725-6.353-1.312-12.699-1.159-19.101c0.06-2.418,0.146-4.841,0.095-7.258
			c-0.026-1.148-0.42-2.282-0.521-3.434c-0.308-3.576-0.481-7.164-0.856-10.732c-0.167-1.572-0.618-3.131-1.09-4.647
			c-0.227-0.731-0.78-1.371-1.226-2.025c-1.062-1.557-1.723-3.559-3.576-4.323c-1.669-0.688-3.503-1.23-5.29-1.326
			c-4.241-0.229-8.5-0.182-12.75-0.196c-3.516-0.014-7.021,0.214-10.548-0.219c-2.457-0.301-4.981-0.025-7.476-0.044
			c-1.541-0.01-3.08-0.076-4.618-0.145c-0.952-0.042-1.905-0.22-2.853-0.189c-4.473,0.147-8.94,0.367-13.414,0.52
			c-4.025,0.137-8.056,0.178-12.082,0.338c-3.732,0.148-7.465,0.4-11.196,0.61c-0.437,0.025-0.892,0.011-1.304,0.134
			c-2.635,0.785-5.287,0.995-7.996,0.417c-0.493-0.106-1.027-0.073-1.537-0.031c-2.336,0.194-4.668,0.424-7.004,0.622
			c-1.447,0.123-2.918,0.061-4.038,1.312c-0.292,0.325-0.94,0.401-1.439,0.454c-1.257,0.136-2.069,0.996-2.499,1.949
			c-1.393,3.091-2.588,6.26-1.887,9.785c0.155,0.784,0.143,1.609,0.143,2.415c0.004,3.084-0.068,6.168-0.021,9.249
			c0.093,6.146,0.166,12.295,0.412,18.436c0.117,2.918,0.568,5.825,0.943,8.727c0.366,2.834,0.848,5.651,1.236,8.481
			c0.218,1.592,0.306,3.201,0.531,4.791c0.286,2.021,0.645,4.034,0.993,6.047c0.097,0.562,0.097,1.263,0.433,1.646
			c1.547,1.768,1.247,3.704,0.721,5.697C740.753,447.952,740.753,447.952,739.615,450.52z M450.933,246.336
			c0.696,0.097,1.199,0.239,1.696,0.224c3.812-0.118,7.622-0.273,11.434-0.404c4.323-0.148,8.648-0.259,12.969-0.434
			c2.805-0.113,5.566-0.626,8.423-0.376c2.235,0.194,4.532-0.218,6.792-0.46c2.22-0.235,4.412-0.634,6.668-0.584
			c1.451,0.03,2.906-0.37,4.361-0.391c3.951-0.052,7.907,0.1,11.854-0.027c4.1-0.131,8.189-0.498,12.283-0.755
			c4.322-0.271,8.644-0.541,12.965-0.804c2.191-0.133,4.383-0.302,6.576-0.36c2.479-0.065,4.977,0.15,7.438-0.069
			c4.8-0.428,9.613,0.608,14.42-0.389c1.973-0.408,4.094-0.09,6.145-0.154c3.664-0.115,7.391,0.116,10.973-0.496
			c5.459-0.935,10.827,0.346,16.25,0.054c2.514-0.134,5.09,0.196,7.662,0.138c4.686-0.106,9.386-0.014,14.071,0.201
			c5.854,0.271,11.699,0.734,17.547,1.146c2.629,0.186,5.251,0.488,7.882,0.664c1.529,0.104,3.072,0.004,4.604,0.096
			c2.414,0.144,4.823,0.374,7.235,0.562c3.498,0.272,6.998,0.544,10.498,0.8c0.508,0.037,1.022-0.035,1.535-0.033
			c0.654,0.002,1.318-0.035,1.963,0.056c1.881,0.267,3.758,0.578,5.633,0.892c1.519,0.254,3.027,0.568,4.55,0.791
			c0.854,0.126,1.729,0.113,2.593,0.178c0.577,0.044,1.154,0.107,1.73,0.177c1.598,0.193,3.191,0.458,4.795,0.579
			c2.391,0.18,4.8,0.159,7.182,0.404c3.807,0.393,7.603,0.587,11.402,0.065c4.395-0.603,8.795-0.229,13.174,0.043
			c3.426,0.214,6.836,0.816,10.232,1.374c2.166,0.357,4.275,1.054,6.441,1.402c1.749,0.281,3.143,1.131,4.551,2.088
			c1.84,1.25,2.803,3.182,3.914,4.967c1.115,1.789,2.073,3.676,2.176,5.896c0.066,1.458,0.429,2.9,0.6,4.357
			c0.436,3.703,0.949,7.401,1.222,11.117c0.242,3.284-0.152,6.648,0.39,9.867c0.506,2.988,0.595,5.955,0.768,8.943
			c0.117,2.047,0.315,4.089,0.498,6.132c0.096,1.081,0.342,2.161,0.333,3.24c-0.024,2.79-0.259,5.58-0.216,8.366
			c0.096,6.169,0.324,12.335,0.474,18.502c0.122,5.062-0.036,10.128,0.587,15.184c0.505,4.104,0.668,8.248,0.991,12.505
			c0.869,0.151,1.575,0.39,2.281,0.382c3.152-0.035,6.304-0.115,9.454-0.232c1.693-0.062,2.073-0.693,2.052-2.407
			c-0.05-4.097-0.015-8.193,0.044-12.29c0.023-1.541,0.291-3.078,0.301-4.619c0.039-5.273,0.006-10.547,0.018-15.82
			c0.002-0.877,0.102-1.755,0.135-2.633c0.208-5.727,0.569-11.451,0.566-17.176c-0.003-4.668-0.66-9.314-0.195-14.015
			c0.329-3.347,0.144-6.741,0.201-10.114c0.037-2.121-0.236-4.316,0.221-6.347c0.787-3.5,0.752-7.044,0.516-10.494
			c-0.3-4.413-0.516-8.79-0.227-13.201c0.071-1.083,0.005-2.196-0.151-3.272c-0.46-3.178-0.934-6.355-1.526-9.511
			c-0.35-1.858-0.916-3.679-1.43-5.505c-0.115-0.411-0.409-0.774-0.637-1.15c-1.322-2.195-3.149-3.411-5.821-3.001
			c-0.107,0.016-0.243-0.143-0.465-0.281c-0.09-0.632-0.189-1.34-0.321-2.27c-1.49-0.448-2.996-1.132-4.561-1.321
			c-2.688-0.324-5.429-0.596-8.117-0.427c-4.16,0.264-8.338-0.59-12.475,0.287c-0.209,0.046-0.44,0.003-0.66-0.017
			c-4.014-0.346-8.023-0.825-12.045-1.009c-5.332-0.243-10.674-0.253-16.012-0.372c-0.438-0.01-0.91,0.002-1.303-0.156
			c-1.698-0.692-3.447-0.552-5.211-0.457c-1.824,0.1-3.655,0.326-5.456-0.322c-0.603-0.217-1.308-0.212-1.965-0.204
			c-3.722,0.05-7.443,0.148-11.165,0.191c-0.951,0.011-1.906-0.092-2.855-0.187c-4.609-0.461-9.215-0.683-13.84-0.138
			c-1.304,0.155-2.639,0.106-3.957,0.081c-2.127-0.042-4.256-0.08-6.375-0.234c-1.674-0.122-3.332-0.439-5-0.623
			c-1.008-0.11-2.028-0.214-3.037-0.172c-2.339,0.096-4.683,0.472-7.011,0.38c-2.711-0.106-5.383-0.388-8.101,0.134
			c-1.412,0.271-2.922,0.054-4.388,0.025c-2.708-0.051-5.415-0.115-8.122-0.193c-0.952-0.028-1.905-0.092-2.854-0.18
			c-1.096-0.102-2.188-0.267-3.283-0.371c-5.036-0.479-10.118,0.848-15.143-0.368c-0.482-0.117-1.025,0.034-1.538,0.02
			c-4.841-0.136-9.684-0.284-14.525-0.42c-4.1-0.114-8.198-0.236-12.3-0.308c-0.943-0.016-1.916,0.344-2.832,0.216
			c-3.505-0.495-6.99-0.36-10.49-0.006c-1.087,0.11-2.195-0.002-3.295-0.006c-2.411-0.009-4.822-0.026-7.234-0.017
			c-1.098,0.005-2.197,0.109-3.295,0.087c-2.41-0.047-4.819-0.169-7.23-0.223c-4.387-0.097-8.773-0.169-13.162-0.248
			c-4.107-0.075-8.215-0.185-12.324-0.204c-2.785-0.014-5.619,0.457-8.348,0.09c-6.24-0.84-12.456,0.212-18.678-0.148
			c-2.264-0.131-4.553,0.172-6.816,0.037c-4.166-0.249-8.314-0.758-12.479-1.002c-3.664-0.214-7.342-0.214-11.013-0.311
			c-2.123-0.057-4.053,0.639-5.865,1.631c-0.422,0.23-0.807,0.897-0.847,1.393c-0.337,4.26-0.246,8.487,1.068,12.627
			c0.346,1.091,0.37,2.298,0.446,3.458C450.688,241.207,450.797,243.753,450.933,246.336z M458.143,251.993
			c1.733,1.456,3.822,1.504,4.605,0.21C461.258,252.135,459.803,252.068,458.143,251.993z"/>
		<path fill-rule="evenodd" clip-rule="evenodd" d="M136.137,547.173c-0.71,0.689-1.296,1.259-2.045,1.986
			c-0.731-0.849-1.32-1.534-1.885-2.189C133.344,545.273,133.865,545.282,136.137,547.173z"/>
		<path fill-rule="evenodd" clip-rule="evenodd" d="M664.145,320.403c-0.684,3.771,0.15,8.269,1.077,12.72
			c0.812,3.896,1.034,7.831,1.348,11.771c0.351,4.388,0.8,8.769,1.095,13.16c0.23,3.441,0.244,6.897,0.441,10.342
			c0.229,3.958,0.578,7.91,0.828,11.867c0.205,3.224,0.27,6.458,0.521,9.677c0.292,3.722-0.34,7.49,0.648,11.177
			c0.51,1.905,1.002,3.826,1.308,5.771c0.249,1.584,0.255,3.155-0.839,4.618c-0.846,1.133-1.643,2.309-1.934,3.865
			c-0.174,0.925-1.406,1.812-2.744,1.741c-1.121-0.062-2.117,0.018-3.006,0.95c-0.416,0.437-1.453,0.714-2.01,0.514
			c-2.434-0.879-4.938-0.447-7.402-0.649c-1.97-0.161-3.943-0.435-5.912-0.414c-1.746,0.019-3.483,0.446-5.232,0.566
			c-5.707,0.394-11.414,0.859-17.129,1.046c-4.607,0.15-9.226-0.139-13.838-0.083c-2.628,0.03-5.248,0.401-7.877,0.544
			c-1.68,0.092-3.367,0.026-5.05,0.068c-1.819,0.045-3.638,0.152-5.457,0.199c-3.294,0.081-6.591,0.095-9.884,0.214
			c-4.461,0.161-8.918,0.423-13.378,0.582c-1.61,0.058-3.235-0.173-4.841-0.076c-7.102,0.428-14.212,0.614-21.316,0.383
			c-5.307-0.172-10.516,0.711-15.776,0.965c-4.743,0.228-9.449,0.958-14.237,0.688c-3.115-0.175-6.267,0.258-9.402,0.424
			c-2.928,0.156-5.852,0.39-8.781,0.453c-1.611,0.035-3.16-0.075-4.695,0.713c-0.929,0.478-2.039,0.68-2.918-0.572
			c-0.455-0.646-1.451-0.916-2.209-1.341c-1.358-0.761-2.127-1.772-2.299-3.452c-0.213-2.088-0.819-4.14-1.305-6.195
			c-0.805-3.398-0.492-6.848-0.512-10.281c-0.027-4.538,0.096-9.08-0.07-13.611c-0.127-3.5-0.615-6.987-0.914-10.482
			c-0.312-3.657-0.754-7.312-0.846-10.977c-0.159-6.299-0.057-12.604-0.133-18.905c-0.042-3.646-0.173-7.291-0.366-10.932
			c-0.069-1.302-0.522-2.577-0.655-3.88c-0.184-1.807-0.16-3.636-0.355-5.441c-0.205-1.898-0.746-3.707-1.687-5.407
			c-1.552-2.807-0.81-6.821,1.54-8.992c0.367-0.338,0.656-0.776,0.919-1.206c1.3-2.126,3.315-3.458,5.296-4.832
			c0.733-0.51,1.504-0.712,2.176,0.042c0.865,0.971,1.988,0.789,2.854,0.373c2.679-1.283,5.532-1.135,8.351-1.293
			c4.312-0.242,8.646-0.771,12.935-0.531c4.516,0.253,8.934-0.438,13.347-0.844c4.098-0.378,8.195-0.172,12.254-0.613
			c2.555-0.278,5.09-0.277,7.605-0.106c3.487,0.235,6.865-0.094,10.255-0.853c1.335-0.298,2.747-0.253,4.124-0.371
			c0.941-0.08,1.883-0.186,2.824-0.253c3.062-0.22,6.121-0.503,9.187-0.614c2.409-0.088,4.827,0.091,7.238,0.062
			c3.144-0.039,6.285-0.224,9.429-0.235c2.421-0.008,4.844,0.184,7.267,0.23c1.976,0.037,3.964,0.115,5.927-0.044
			c2.625-0.214,5.223-0.739,7.848-0.944c2.102-0.164,4.246-0.246,6.334-0.02c5.863,0.633,11.713,0.516,17.595,0.333
			c5.714-0.178,11.45-0.111,17.111,1.092c1.38,0.292,2.884,0.048,4.327-0.016c1.27-0.056,2.186,0.621,3.102,1.334
			c0.57,0.442,1.066,1.012,1.688,1.35c2.456,1.334,4.422,3.183,5.728,5.626c0.488,0.912,0.678,2.068,0.717,3.123
			C664.438,316.2,664.26,317.893,664.145,320.403z M485.521,327.974c-0.197,0.604-0.305,0.859-0.363,1.126
			c-0.869,3.861-0.329,7.752-0.238,11.635c0.018,0.795-0.038,1.595-0.084,2.391c-0.245,4.171-0.852,8.321-0.164,12.526
			c0.366,2.232,0.32,4.533,0.443,6.804c0.254,4.678,0.127,9.366,0.898,14.03c0.561,3.389,0.973,6.865,0.882,10.287
			c-0.211,8.022,0.706,15.978,1.089,23.961c0.063,1.313,0.758,2.676,1.438,3.857c0.777,1.346,1.397,1.236,2.639,0.342
			c2.264-1.634,3.447-4.161,5.293-6.138c2.346-2.513,4.492-5.212,6.895-7.667c2.533-2.589,5.348-4.9,7.889-7.48
			c3.794-3.854,7.51-7.791,11.143-11.796c1.205-1.328,1.959-3.057,3.096-4.458c1.189-1.466,2.586-2.766,3.912-4.117
			c0.127-0.128,0.41-0.137,0.621-0.142c1.529-0.032,2.914,0.014,4.353,1.01c1.507,1.045,1.606,2.406,1.696,3.8
			c0.088,1.34-1.045,1.794-2.199,2.035c-0.205,0.043-0.393,0.191-0.583,0.296c-3.761,2.046-7.014,4.798-10.142,7.649
			c-2.584,2.355-4.869,5.041-7.247,7.615c-1.587,1.719-3.091,3.514-4.654,5.253c-4.021,4.477-8.056,8.941-12.081,13.413
			c-0.57,0.635-1.116,1.292-2.008,2.327c1.146-0.069,1.838-0.085,2.524-0.16c1.954-0.213,3.901-0.601,5.858-0.649
			c4.173-0.105,8.367,0.189,12.521-0.109c4.625-0.334,9.222-0.281,13.846-0.219c5.052,0.068,10.111-0.309,15.166-0.512
			c4.611-0.185,9.221-0.446,13.834-0.582c2.711-0.08,5.428,0.09,8.139,0.021c2.607-0.065,5.235-0.6,7.811-0.392
			c6.604,0.531,13.198,0.379,19.781-0.004c3.597-0.209,7.174-0.274,10.77-0.209c2.562,0.047,5.131-0.113,7.695-0.204
			c1.012-0.036,2.074-0.372,3.021-0.16c5.33,1.188,10.52-0.217,15.732-0.809c4.055-0.46,7.945-1.996,12.076-2.12
			c0.881-0.027,1.769-0.029,2.635-0.154c0.658-0.096,1.289-0.371,2.279-0.672c-0.918-1.016-1.496-1.758-2.176-2.39
			c-1.936-1.796-3.918-3.54-5.871-5.316c-3.682-3.348-7.4-6.657-11.012-10.08c-1.317-1.247-2.344-2.797-3.559-4.16
			c-1.499-1.682-3.365-3.052-4.245-5.252c-0.209-0.521-0.671-0.962-1.085-1.373c-2.854-2.847-5.438-5.971-8.635-8.474
			c-0.307-0.239-0.501-0.733-0.575-1.141c-0.28-1.527,0.899-2.227,1.866-2.978c0.823-0.64,2.081-0.572,2.857,0.063
			c1.072,0.877,2.17,1.735,3.158,2.701c2.457,2.4,4.891,4.824,7.269,7.301c1.267,1.318,2.229,2.972,3.626,4.11
			c2.133,1.739,3.762,3.858,5.461,5.962c0.911,1.126,2.048,2.074,3.109,3.073c0.425,0.398,0.955,0.685,1.38,1.083
			c1.101,1.034,1.942,2.256,3.325,3.099c1.287,0.785,2.096,2.349,3.137,3.552c0.333,0.384,0.725,0.724,1.107,1.062
			c1.256,1.107,2.682,2.068,3.742,3.334c2.137,2.549,5.102,3.906,7.73,5.74c0.817,0.57,1.581,0.117,1.746-0.887
			c0.07-0.43,0.036-0.879,0.033-1.32c-0.043-6.959-0.021-13.92-0.166-20.877c-0.062-3-0.525-5.988-0.711-8.987
			c-0.238-3.802-0.373-7.608-0.564-11.412c-0.308-6.074-0.609-12.147-0.945-18.218c-0.134-2.413-0.27-4.831-0.559-7.228
			c-0.307-2.54-0.776-5.062-1.219-7.585c-0.295-1.682-0.143-3.479-1.267-5.325c-1.942,1.85-3.638,3.678-5.55,5.239
			c-3.736,3.051-6.762,6.927-10.986,9.417c-0.738,0.437-1.295,1.184-1.939,1.784c-0.373,0.348-0.715,0.745-1.137,1.021
			c-2.576,1.677-5.158,3.349-7.766,4.977c-2.852,1.782-5.73,3.524-8.607,5.268c-3.82,2.314-7.655,4.603-11.472,6.919
			c-2.69,1.634-5.362,3.295-8.04,4.947c-0.812,0.502-1.619,1.011-2.424,1.524c-1.535,0.98-3.073,1.958-4.598,2.955
			c-1.223,0.803-2.432,1.628-3.637,2.456c-0.902,0.621-1.747,1.336-2.691,1.881c-1.447,0.834-3.052,1.422-4.428,2.354
			c-3.419,2.317-7.133,3.72-11.246,4.004c-1.711,0.118-3.348-0.197-4.754-1.314c-0.396-0.316-0.891-0.507-1.33-0.772
			c-3.315-2.021-6.701-3.938-9.925-6.099c-3.218-2.157-6.221-4.63-9.411-6.831c-4.283-2.957-8.734-5.673-12.967-8.7
			c-5.312-3.801-10.791-7.3-16.576-10.34c-2.905-1.526-5.799-3.078-8.439-5.091c-1.054-0.807-2.521-1.068-3.802-1.579
			c-0.534-0.213-1.132-0.339-1.585-0.665c-2.192-1.576-4.545-2.866-6.884-4.205c-2.338-1.34-4.419-3.12-6.647-4.656
			C489.816,330.77,487.735,329.438,485.521,327.974z M505.009,311.075c-0.018-0.182-0.036-0.362-0.054-0.543
			c-4.291,0.451-8.592,0.826-12.868,1.389c-2.019,0.266-3.993,0.872-5.979,1.36c-1.549,0.379-2.495,1.64-1.911,3.139
			c0.652,1.668,1.004,3.491,2.306,4.923c2.071,2.28,4.692,3.706,7.449,4.798c3.555,1.405,7.011,2.927,10.089,5.22
			c2.402,1.789,4.744,3.665,7.213,5.357c1.62,1.11,3.475,1.877,5.124,2.949c3.868,2.518,8.396,3.839,12.062,6.719
			c0.685,0.537,1.507,0.895,2.254,1.355c1.676,1.033,3.521,1.881,4.974,3.166c2.273,2.005,4.758,3.537,7.412,4.988
			c5.113,2.795,10.365,5.465,14.469,9.788c0.247,0.261,0.576,0.448,0.877,0.652c2.837,1.917,5.911,3.567,8.438,5.831
			c1.918,1.719,4.102,2.746,6.256,3.938c1.614,0.893,3.164,0.892,4.717-0.317c1.141-0.89,2.412-1.633,3.687-2.334
			c4.681-2.575,9.134-5.479,13.414-8.688c2.376-1.782,4.989-3.285,7.616-4.687c4.082-2.178,8.107-4.403,11.709-7.35
			c1.689-1.383,3.488-2.657,5.345-3.809c1.732-1.075,3.582-1.974,5.423-2.858c3.763-1.807,6.822-4.672,10.398-6.785
			c4.216-2.491,8.177-5.438,12.107-8.379c2.332-1.744,4.371-3.881,6.58-5.799c2.967-2.574,3.725-6.011,3.858-9.693
			c0.079-2.163-0.695-3.877-2.757-4.836c-1.061-0.494-2.092-1.08-3.195-1.45c-4.51-1.519-9.176-1.913-13.903-1.772
			c-3.22,0.096-6.44,0.271-9.659,0.265c-2.191-0.005-4.383-0.38-6.574-0.383c-5.858-0.008-11.72,0.147-17.578,0.132
			c-2.772-0.008-5.544-0.244-8.313-0.413c-0.944-0.058-1.884-0.337-2.823-0.325c-3.074,0.031-6.149,0.22-9.225,0.221
			c-5.644,0.004-11.289-0.154-16.934-0.1c-2.771,0.028-5.543,0.351-8.309,0.61c-0.928,0.087-1.891,0.694-2.737,0.538
			c-1.876-0.346-3.64,0.025-5.442,0.303c-1.445,0.223-2.895,0.511-4.35,0.572c-3.585,0.151-7.178,0.126-10.762,0.292
			c-3.213,0.148-6.413,0.495-9.625,0.683c-3.791,0.223-7.588,0.324-11.379,0.56C511.271,310.497,508.143,310.812,505.009,311.075z"
			/>
		<path fill-rule="evenodd" clip-rule="evenodd" d="M649.1,446.266c-0.174,0.185-0.287,0.305-0.401,0.426
			c-0.114-0.163-0.261-0.313-0.331-0.495c-0.023-0.062,0.18-0.293,0.203-0.283C648.732,445.99,648.877,446.109,649.1,446.266z"/>
		<path fill-rule="evenodd" clip-rule="evenodd" d="M209.586,225.207c0.107-2.358,0.289-5.419,0.371-8.483
			c0.05-1.816-0.035-1.783-1.775-2.496c-1.08-0.442-2.143-0.95-3.149-1.537c-2.11-1.231-2.954-3.062-2.746-5.54
			c0.272-3.263,1.288-6.155,3.481-8.612c1.305-1.461,2.824-2.539,4.807-2.839c1.076-0.163,2.209-0.146,3.22-0.494
			c0.755-0.259,1.665-0.829,1.972-1.504c1.576-3.474,4.051-6.254,6.501-9.088c2.198-2.544,4.356-5.134,6.367-7.827
			c2.843-3.806,6.76-6.439,10.165-9.629c0.73-0.687,1.723-1.087,2.567-1.66c0.95-0.646,1.829-1.406,2.813-1.992
			c1.241-0.738,2.562-1.342,3.838-2.023c0.77-0.41,1.6-0.762,2.262-1.311c2.694-2.227,5.787-3.683,9.016-4.924
			c1.156-0.443,2.244-1.063,3.376-1.576c2.125-0.962,4.254-1.915,6.396-2.842c0.396-0.172,0.853-0.221,1.287-0.282
			c3.328-0.478,6.658-0.938,9.986-1.413c3.839-0.547,7.675-1.116,11.517-1.65c4.461-0.618,8.916-0.627,13.379,0.062
			c2.529,0.392,5.104,0.518,7.615,0.989c2.771,0.521,5.623,0.735,8.211,2.089c1.221,0.639,2.632,0.9,3.908,1.447
			c2.547,1.09,5.069,2.241,7.583,3.404c1.32,0.611,2.655,1.218,3.895,1.973c3.041,1.857,6.028,3.799,9.039,5.703
			c1.907,1.206,3.819,2.405,5.728,3.612c0.367,0.231,0.766,0.44,1.077,0.734c3.33,3.158,6.509,6.449,10.144,9.314
			c2.302,1.813,3.988,4.477,5.727,6.917c1.479,2.076,2.645,4.378,3.938,6.586c1.404,2.396,2.78,4.809,4.208,7.191
			c0.208,0.348,0.595,0.732,0.963,0.814c1.737,0.386,2.833,1.766,4.261,2.621c1.951,1.17,3.063,4.249,2.289,6.646
			c-0.802,2.481-1.553,5.076-3.767,6.829c-0.857,0.679-0.886,1.497-0.538,2.557c0.865,2.637,1.301,5.438,2.39,7.967
			c1.029,2.391,0.402,4.957,1.333,7.285c-0.499,3.493,0.813,6.844,0.854,10.259c0.036,3.198-0.623,6.406-0.975,9.61
			c-0.176,1.603-0.291,3.217-0.538,4.809c-0.247,1.583-0.613,3.148-0.951,4.717c-0.401,1.86-0.903,3.703-1.226,5.575
			c-0.36,2.093-0.228,4.335-0.932,6.288c-0.87,2.414-1.209,5.088-3.165,7.117c-1.243,1.293-1.944,3.09-3.077,4.51
			c-2.236,2.805-4.482,5.624-7.339,7.849c-3.17,2.468-6.465,4.784-9.549,7.355c-6.021,5.018-12.936,8.575-19.732,12.323
			c-1.855,1.023-3.861,1.766-5.771,2.694c-1.442,0.7-2.844,1.485-4.259,2.245c-3.889,2.087-8.119,2.87-12.447,3.344
			c-1.002,0.108-1.96,0.582-2.961,0.764c-3.573,0.648-7.148,0.363-10.738,0.045c-2.259-0.201-4.55-0.034-6.816-0.179
			c-2.853-0.183-5.706-0.308-8.5-1.122c-1.587-0.463-3.316-0.406-4.954-0.725c-1.428-0.278-2.811-0.78-4.227-1.13
			c-0.561-0.139-1.165-0.096-1.734-0.204c-0.564-0.107-1.336-0.125-1.621-0.491c-0.751-0.963-1.832-1.103-2.814-1.554
			c-3.43-1.575-6.821-3.235-10.206-4.904c-0.581-0.287-1.038-0.814-1.59-1.172c-3.376-2.192-6.831-4.271-10.122-6.584
			c-1.965-1.381-3.702-3.092-5.489-4.714c-0.471-0.427-0.744-1.071-1.109-1.614c-0.321-0.481-0.536-1.186-0.984-1.403
			c-1.616-0.781-2.446-2.243-3.517-3.538c-0.918-1.111-2.024-2.107-3.184-2.972c-2.564-1.913-4.528-4.331-6.215-6.999
			c-1.562-2.477-3.194-4.924-4.561-7.508c-1.671-3.162-3.507-6.328-4.542-9.716c-2.073-6.787-5.228-13.233-6.446-20.282
			c-0.537-3.107-1.092-6.217-1.446-9.347C209.992,232.374,209.867,229.149,209.586,225.207z M215.451,222.724
			c0.006,0,0.012,0,0.017,0c-0.087,1.901-0.37,3.818-0.216,5.7c0.261,3.21,0.771,6.401,1.228,9.594
			c0.195,1.372,0.573,2.719,0.771,4.092c0.42,2.913,0.86,5.806,2.322,8.435c0.234,0.423,0.293,0.981,0.308,1.48
			c0.048,1.645,0.315,3.193,1.38,4.539c0.304,0.384,0.523,0.898,0.609,1.385c0.423,2.418,1.358,4.604,2.616,6.712
			c1.12,1.877,1.85,3.991,3.021,5.83c1.646,2.586,2.541,5.629,4.783,7.848c1.456,1.442,2.92,2.878,4.344,4.353
			c2.078,2.152,4.146,4.315,6.174,6.515c2.098,2.271,5.266,3.177,7.172,5.681c0.082,0.108,0.241,0.168,0.375,0.225
			c1.817,0.762,3.643,1.502,5.452,2.283c1.542,0.665,3.077,1.354,4.596,2.072c1.108,0.523,2.088,1.223,3.452,1.24
			c0.862,0.01,1.765,0.613,2.564,1.093c2.131,1.276,3.641,3.421,6.256,4.079c2.673,0.671,5.272,1.654,7.881,2.568
			c2.053,0.72,4.225,0.906,6.281,1.779c1.612,0.683,3.478,1.715,5.476,0.672c0.31-0.162,1.099,0.076,1.333,0.383
			c0.87,1.145,2.141,1.275,3.347,1.406c1.658,0.178,3.341,0.107,5.01,0.186c2.099,0.1,4.261-0.031,6.272,0.449
			c1.854,0.442,3.634,0.318,5.449,0.274c2.702-0.066,5.472,0.086,8.019-0.945c5.472-2.215,10.91-4.519,15.833-7.852
			c0.665-0.45,1.377-0.841,2.09-1.212c3.177-1.665,6.379-3.284,9.537-4.981c1.152-0.619,2.234-1.378,3.305-2.134
			c2.384-1.679,4.701-3.455,7.123-5.075c1.357-0.907,2.414-2.073,3.503-3.244c0.642-0.691,1.546-1.158,2.115-1.895
			c1.161-1.501,2.196-3.1,3.245-4.684c2.749-4.153,4.59-8.638,5.046-13.652c0.114-1.258,1.223-2.323,0.822-3.723
			c-0.021-0.071,0.167-0.289,0.265-0.294c1.184-0.058,1.104-1.125,1.249-1.788c0.45-2.059,0.702-4.16,1.06-6.24
			c0.147-0.86,0.356-1.71,0.55-2.562c0.502-2.208,1.196-4.382,0.622-6.71c-0.293-1.192-0.495-2.438-0.512-3.664
			c-0.039-2.857,0.074-5.716,0.089-8.574c0.003-0.579-0.033-1.204-0.246-1.729c-0.81-1.998-1.218-4.055-1.226-6.209
			c-0.002-0.503-0.123-1.025-0.293-1.502c-0.68-1.926-1.469-3.815-2.084-5.76c-0.56-1.761-0.537-1.842-2.402-1.803
			c-0.732,0.016-1.465,0.09-2.188,0.195c-1.308,0.191-2.608,0.625-3.907,0.606c-3.99-0.055-7.937,0.798-11.959,0.324
			c-2.082-0.245-4.235,0.147-6.357,0.169c-1.605,0.018-3.211-0.113-4.818-0.146c-2.421-0.048-4.845-0.046-7.265-0.105
			c-3.742-0.092-7.484-0.269-11.227-0.311c-1.962-0.021-3.927,0.194-5.891,0.253c-3.437,0.104-6.873,0.156-10.31,0.253
			c-1.905,0.054-3.81,0.175-5.716,0.22c-1.679,0.039-3.359-0.017-5.038,0.023c-2.555,0.062-5.123,0.381-7.66,0.21
			c-3.361-0.228-6.69-0.849-10.078-0.287c-0.626,0.103-1.309-0.103-1.962-0.194c-0.87-0.123-1.732-0.334-2.606-0.404
			c-4.156-0.335-8.352,0.389-12.492-0.454c-0.139-0.028-0.292,0.014-0.438,0.021c-4.786,0.219-9.504-0.332-14.2-1.195
			c-0.779-0.145-1.6-0.082-2.4-0.113c-0.879-0.034-1.758-0.045-2.636-0.104c-3.495-0.228-6.987-0.54-10.485-0.673
			c-1.375-0.052-2.769,0.46-4.145,0.419c-3.125-0.094-6.246-0.372-9.369-0.573c-1.789-0.115-2.43,0.37-2.585,2.159
			C215.551,219.341,215.528,221.034,215.451,222.724z M369.36,197.965c-1.39-2.532-2.555-4.624-3.691-6.731
			c-0.799-1.479-1.369-3.126-2.383-4.434c-2.094-2.702-4.249-5.401-6.697-7.774c-1.874-1.814-4.006-3.353-5.814-5.294
			c-1.417-1.521-3.272-2.643-4.976-3.885c-2.067-1.511-4.096-3.103-6.292-4.402c-3.105-1.838-5.891-4.366-9.688-4.851
			c-0.27-0.035-0.557-0.207-0.771-0.39c-1.988-1.697-4.384-2.65-6.769-3.562c-1.757-0.672-3.629-1.044-5.453-1.536
			c-0.557-0.15-1.136-0.219-1.686-0.386c-2.44-0.741-4.848-1.616-7.32-2.22c-1.76-0.431-3.601-0.627-5.415-0.716
			c-3.572-0.176-7.19-0.575-10.72-0.206c-5.011,0.524-9.959,1.656-14.933,2.533c-1.513,0.268-3.033,0.51-4.531,0.848
			c-2.983,0.674-6.079,1.053-8.516,3.215c-0.36,0.319-0.917,0.487-1.409,0.576c-3.352,0.603-5.962,2.701-8.764,4.379
			c-2.129,1.272-3.969,3.081-6.182,4.147c-3.229,1.558-5.972,3.726-8.62,6.022c-2.036,1.765-3.87,3.773-5.686,5.773
			c-1.571,1.734-3.001,3.598-4.474,5.42c-1.242,1.536-2.293,3.271-3.722,4.602c-1.888,1.757-3.136,3.843-4.125,6.146
			c-0.707,1.646-0.428,2.132,1.337,2.201c2.783,0.109,5.571,0.113,8.354,0.234c9.172,0.401,18.341,0.876,27.515,1.24
			c4.396,0.174,8.815,0.429,13.192,0.147c3.387-0.217,6.739-0.222,10.109-0.068c1.172,0.054,2.34,0.181,3.511,0.249
			c3.358,0.197,6.722,0.342,10.077,0.585c4.307,0.312,8.605,0.702,12.908,1.052c0.431,0.035,0.875,0.082,1.297,0.017
			c2.73-0.42,5.455,0.801,8.183,0.026c0.061-0.018,0.14,0.045,0.212,0.048c1.602,0.062,3.205,0.203,4.805,0.157
			c2.411-0.07,4.816-0.33,7.229-0.403c3.26-0.099,6.522-0.104,9.783-0.131c0.726-0.007,1.459,0.009,2.171,0.123
			c1.081,0.173,2.027,0.071,2.756-0.855c0.067-0.086,0.27-0.067,0.409-0.099c0.37,0.323,0.739,0.646,1.134,0.988
			c0.64-0.402,1.192-0.75,1.714-1.079c2.08,0.914,3.988,0.857,5.886-0.427c0.535-0.362,1.396-0.418,2.083-0.354
			c2.437,0.227,4.826,0.128,7.182-0.582c1.275-0.384,2.536-0.549,3.89-0.189C367.186,198.315,368.027,198.058,369.36,197.965z
			 M210.976,200.772c-0.35,0.678-0.666,1.279-0.972,1.887c-0.281,0.561-0.414,1.436-0.854,1.631
			c-1.22,0.545-1.231,1.484-1.282,2.537c-0.066,1.395,0.822,1.947,1.919,2.334c0.962,0.339,1.93,0.672,2.912,0.936
			c3.027,0.814,6.113,0.618,9.203,0.555c5.703-0.116,11.399,0.375,17.113,0.104c2.515-0.119,5.067,0.354,7.591,0.66
			c2.249,0.273,4.47,0.835,6.724,1.006c5.688,0.428,11.385,0.798,17.086,1.027c7.176,0.287,14.36,0.375,21.539,0.619
			c3.802,0.13,7.572-0.096,11.342-0.552c0.405-0.048,0.843,0.112,1.258,0.208c0.483,0.112,0.965,0.395,1.437,0.375
			c4.75-0.197,9.497-0.525,14.249-0.646c4.463-0.115,8.931-0.062,13.394-0.009c2.644,0.031,5.282,0.262,7.927,0.304
			c3.148,0.051,6.303-0.037,9.453-0.004c2.859,0.029,5.717,0.164,8.508-0.675c0.41-0.123,0.856-0.224,1.278-0.202
			c4.384,0.215,8.682-0.22,12.876-1.561c0.558-0.179,1.134-0.312,1.711-0.407c1.947-0.321,2.17-0.525,2.373-2.477
			c0.067-0.655,0.232-1.384,0.031-1.966c-0.295-0.851-0.707-2.052-1.377-2.311c-2.094-0.81-4.232-1.695-6.593-1.428
			c-3.13,0.355-6.264,0.656-9.391,1.021c-1.669,0.194-3.328,0.475-4.991,0.713c-2.605,0.373-5.205,0.996-7.817,1.059
			c-4.019,0.095-8.045-0.198-12.067-0.32c-1.833-0.056-3.67-0.197-5.498-0.115c-2.702,0.121-5.396,0.553-8.098,0.587
			c-3.72,0.05-7.443-0.144-11.166-0.243c-0.436-0.012-0.872-0.086-1.309-0.135c-2.234-0.249-4.469-0.533-6.707-0.739
			c-1.965-0.181-3.934-0.307-5.904-0.399c-2.116-0.1-4.235-0.139-6.354-0.189c-0.793-0.019-1.589,0.031-2.381,0.005
			c-4.177-0.141-8.354-0.372-12.532-0.426c-4.619-0.06-9.244,0.155-13.86,0.033c-5.651-0.149-11.296-0.532-16.944-0.798
			c-2.928-0.139-5.854-0.314-8.784-0.344c-3.49-0.033-7.027-0.413-10.398,0.97c-0.229,0.095-0.559-0.062-0.843-0.098
			c-1.645-0.207-3.302-0.654-4.93-0.565C216.769,202.9,213.92,202.305,210.976,200.772z"/>
		<path fill-rule="evenodd" clip-rule="evenodd" d="M835.706,543.953c-3.142,0.183-6.29,0.296-9.425,0.563
			c-4.304,0.366-8.602,0.82-12.896,1.296c-2.546,0.28-5.08,0.69-7.622,1.007c-0.938,0.117-1.888,0.151-2.833,0.188
			c-0.732,0.028-1.479-0.075-2.201,0.018c-3.775,0.486-7.542,1.033-11.315,1.53c-3.765,0.496-7.538,0.93-11.301,1.453
			c-1.218,0.17-2.395,0.63-3.612,0.789c-1.217,0.16-2.506,0.338-3.685,0.106c-2.916-0.574-5.714-1.271-7.868-3.792
			c-1.371-1.603-2.138-3.198-2.494-5.184c-0.414-2.302-1.193-4.55-1.463-6.862c-0.525-4.501-2.146-8.849-1.832-13.472
			c0.057-0.839-0.308-1.729-0.58-2.562c-1.352-4.139-1.942-8.398-2.25-12.729c-0.165-2.33-0.741-4.63-0.959-6.959
			c-0.299-3.201-0.596-6.417-0.6-9.627c-0.009-4.698,0.498-9.408,0.312-14.094c-0.19-4.822-0.965-9.621-1.439-14.436
			c-0.113-1.159-0.115-2.339-0.062-3.506c0.077-1.75,0.286-3.495,0.365-5.246c0.061-1.314,0.006-2.637,0.002-3.955
			c-0.002-0.588,0.141-1.222-0.031-1.756c-1.074-3.358-0.303-6.831-0.689-10.238c-0.379-3.347-0.275-6.746-0.581-10.104
			c-0.245-2.695-0.634-5.398-1.236-8.034c-0.835-3.647-1.409-7.323-1.864-11.03c-0.242-1.962-0.662-3.903-0.918-5.864
			c-0.195-1.519-0.271-3.054-0.381-4.583c-0.126-1.747-0.32-3.494-0.318-5.242c0.002-1.373-0.051-2.881,0.471-4.091
			c0.832-1.927,2.017-3.733,3.275-5.426c0.439-0.59,1.512-0.827,2.34-0.986c2.148-0.412,4.34-0.596,6.477-1.048
			c2.335-0.492,4.631-0.683,6.955-0.039c0.209,0.059,0.438,0.072,0.657,0.064c4.685-0.145,9.425,0.092,14.038-0.564
			c4.043-0.575,8.139-0.621,12.158-1.475c2.261-0.479,4.67-0.286,7.013-0.345c3.937-0.097,7.876-0.268,11.809-0.194
			c4.243,0.079,8.481,0.429,12.724,0.609c2.043,0.087,4.092,0.059,6.139,0.077c1.785,0.017,3.041,0.743,4.329,2.117
			c1.901,2.028,3.333,4.243,4.405,6.745c1.191,2.78,1.961,5.661,1.979,8.712c0.022,3.886,0.102,7.771,0.077,11.657
			c-0.02,2.713-0.355,5.436-0.215,8.136c0.188,3.585,0.775,7.146,1.061,10.727c0.619,7.753,1.087,15.496,0.109,23.278
			c-0.576,4.593-0.229,9.192,1.004,13.72c0.533,1.959,0.681,4.04,0.846,6.079c0.377,4.605,0.657,9.219,0.975,13.83
			c0.04,0.584,0.146,1.178,0.09,1.754c-0.28,2.74,0.115,5.412,0.682,8.076c0.121,0.568,0.197,1.152,0.215,1.733
			c0.098,3.214,0.033,6.44,0.282,9.642c0.485,6.214,1.238,12.406,1.688,18.622c0.231,3.205,0.563,6.552-0.102,9.628
			c-0.566,2.618-0.579,5.502-2.399,7.893c-1.853,2.434-3.825,4.172-7.09,3.737c-0.725-0.097-1.465-0.077-2.198-0.11
			C835.717,544.11,835.711,544.032,835.706,543.953z M836.57,472.897c-0.152-3.597,0.398-6.995-0.697-10.291
			c-0.252-0.758-0.463-1.537-0.609-2.322c-0.826-4.433-0.416-8.926-0.606-13.39c-0.146-3.435-0.002-6.88-0.136-10.315
			c-0.15-3.878-0.494-7.748-0.703-11.624c-0.09-1.682-0.024-3.372-0.086-5.056c-0.039-1.072-0.139-2.146-0.288-3.209
			c-0.132-0.934-0.44-1.846-0.542-2.781c-0.109-1.018-0.044-2.051-0.094-3.075c-0.186-3.801-0.928-7.581-0.433-11.409
			c0.056-0.433,0.032-0.883-0.009-1.319c-0.289-3.128-0.58-6.257-0.895-9.382c-0.104-1.02-0.225-2.045-0.441-3.046
			c-0.215-0.998-0.743-1.753-1.922-1.775c-2.412-0.047-4.83-0.226-7.236-0.128c-2.191,0.089-4.352,0.5-6.561,0.005
			c-0.98-0.22-2.049-0.069-3.075-0.062c-1.829,0.016-3.664,0.154-5.485,0.051c-2.707-0.152-5.4-0.566-8.109-0.69
			c-2.559-0.118-5.131-0.051-7.695,0.017c-2.559,0.068-5.119,0.178-7.67,0.375c-3.658,0.282-7.305,0.71-10.963,0.976
			c-1.668,0.121-3.354,0-5.03-0.012c-2.472-0.019-4.687,1.06-7.026,1.588c-2.336,0.527-3.542,1.997-4.237,3.995
			c-1.022,2.93-1.472,5.982-1.4,9.101c0.015,0.657,0.002,1.315-0.038,1.97c-0.121,1.974-0.436,3.952-0.355,5.916
			c0.12,2.853,0.516,5.693,0.799,8.539c0.492,4.96,0.951,9.922,1.492,14.874c0.334,3.034-0.085,6.167,1.174,9.089
			c0.103,0.236-0.059,0.578-0.053,0.869c0.02,0.952,0.129,1.907,0.078,2.855c-0.082,1.523,0.824,2.775,1.07,4.173
			c0.889,5.054,1.55,10.146,2.43,15.201c0.703,4.022,0.428,8.044,0.295,12.071c-0.025,0.796-0.154,1.618-0.41,2.369
			c-0.541,1.603-0.541,3.209-0.037,4.77c0.961,2.972,0.867,6.081,1.172,9.117c0.528,5.242,0.592,10.53,0.91,15.796
			c0.123,2.045,0.455,4.075,0.608,6.119c0.108,1.46-0.028,2.942,0.124,4.396c0.672,6.42,1.439,12.829,2.109,19.248
			c0.242,2.326,0.57,4.355,2.362,6.312c1.565,1.711,3.032,2.259,5.089,2.16c0.875-0.042,1.838-0.225,2.613,0.061
			c1.201,0.444,2.297,0.264,3.449,0.031c2.154-0.438,4.305-0.904,6.471-1.285c2.957-0.521,5.928-1.38,8.891-1.375
			c8.994,0.015,17.781-1.848,26.689-2.547c0.363-0.028,0.717-0.153,1.08-0.204c1.732-0.244,3.461-0.643,5.199-0.684
			c3.282-0.078,6.57,0.017,9.854,0.108c2.131,0.061,3.764-1.194,3.953-3.219c0.544-5.846,0.114-11.689-0.108-17.527
			c-0.074-1.961-0.67-3.914-0.627-5.861c0.116-5.175-0.654-10.231-1.678-15.263c-0.67-3.296-1.709-6.525-2.23-9.84
			C836.232,482.495,835.82,477.584,836.57,472.897z"/>
		<path fill-rule="evenodd" clip-rule="evenodd" d="M810.593,561.498c1.431-0.141,3.007,0.393,4.396,1.445
			c0.614,0.465,1.38,0.82,1.442,1.81c0.024,0.383,0.399,0.76,0.657,1.106c2.428,3.26,2.35,7.056-0.25,10.063
			c-0.773,0.895-1.656,1.59-2.897,1.858c-1.279,0.274-2.493,0.844-3.759,1.202c-1.967,0.554-3.938,0.425-5.736-0.523
			c-2.279-1.203-4.307-2.698-5.564-5.108c-0.747-1.434-0.861-2.854-0.334-4.235c0.811-2.126,2.133-3.971,4.002-5.326
			C805.433,561.7,806.594,561.386,810.593,561.498z M811.588,567.589c-0.229-0.277-0.303-0.462-0.416-0.491
			c-2.418-0.624-6.214,1.462-6.922,3.839c-0.109,0.363-0.074,0.979,0.158,1.199c1.415,1.328,3.078,2.319,5.061,2.283
			c1.787-0.032,2.662-1.262,2.98-3.723c0.025-0.189-0.123-0.402-0.172-0.55c-0.646-0.173-1.231-0.33-2.041-0.547
			C810.771,568.803,811.155,568.231,811.588,567.589z"/>
		<path fill-rule="evenodd" clip-rule="evenodd" d="M263.698,269.558c0.599-0.814,1.283-1.746,1.998-2.719
			c1.196,0.453,2.435,0.851,3.602,1.398c0.556,0.263,1.091,0.736,1.437,1.248c2.114,3.139,4.775,5.734,7.809,7.956
			c1.941,1.422,3.708,3.089,6.029,3.976c3.467,1.323,6.757,3.1,10.548,3.528c1.778,0.202,3.483,1.098,5.261,1.259
			c3.631,0.329,7.256,0.885,10.949,0.151c2.195-0.437,4.562,0.131,6.694-0.937c3.743,0.66,6.257-1.955,9.185-3.458
			c0.518-0.266,0.933-0.755,1.465-0.97c3.192-1.283,5.643-3.651,8.343-5.65c0.405-0.299,0.757-0.679,1.099-1.052
			c1.227-1.343,2.413-2.723,3.665-4.041c0.686-0.721,2.541-0.723,3.506-0.099c1.269,0.822,1.721,1.64,1.233,2.908
			c-0.379,0.982-0.936,2-1.686,2.715c-1.684,1.604-3.516,3.056-5.331,4.516c-1.077,0.867-2.163,1.771-3.374,2.416
			c-3.352,1.787-5.91,4.766-9.609,6.057c-5.777,2.015-11.591,3.568-17.795,3.096c-1.224-0.093-2.486,0.045-3.707,0.233
			c-2.304,0.357-4.532-0.191-6.763-0.515c-2.237-0.325-4.44-0.912-6.64-1.459c-0.973-0.242-1.904-0.654-2.844-1.015
			c-0.617-0.235-1.194-0.623-1.828-0.756c-4.349-0.902-8.045-2.991-11.328-5.938c-1.575-1.414-3.381-2.577-4.916-4.027
			c-1.791-1.693-3.473-3.516-5.061-5.401C264.874,272.068,264.435,270.886,263.698,269.558z"/>
		<path fill-rule="evenodd" clip-rule="evenodd" d="M337.354,236.42c0.618,0.289,1.214,0.651,1.859,0.854
			c1.919,0.601,3.658,1.548,5.118,2.895c2.047,1.888,2.229,4.04,0.731,5.583c-1.136,1.169-2.232,1.319-3.448,0.262
			c-0.487-0.423-0.833-1.011-1.233-1.529c-1.715-2.223-4.844-3.131-7.479-2.115c-1.229,0.475-2.387,1.136-3.63,1.558
			c-1.302,0.439-2.649,0.827-4.007,0.993c-1.484,0.184-2.531-1.426-1.702-2.63c1.562-2.269,2.778-4.84,5.173-6.443
			c2.126-1.425,4.324-2.747,6.377-4.269c2.859-2.119,6.162-3.324,9.416-4.513c2.899-1.059,5.962-1.148,8.771,0.809
			c0.953,0.663,1.546,1.262,1.336,2.464c-0.236,1.359-1.274,2.679-2.402,2.816c-1.177,0.141-2.334,0.066-3.334-0.743
			c-1.273-1.032-2.685-1.049-4.133-0.415c-2.032,0.893-4.064,1.785-6.075,2.723c-0.518,0.241-0.954,0.655-1.428,0.99
			C337.294,235.945,337.323,236.183,337.354,236.42z"/>
		<path fill-rule="evenodd" clip-rule="evenodd" d="M266.986,230.07c0.928,0.169,1.906,0.206,2.771,0.537
			c1.205,0.459,2.323,1.138,3.479,1.723c0.355,2.28,1.804,4.349,1.21,6.822c-0.863,3.585-2.221,5.537-6.494,5.997
			c-2.222,0.24-4.346,0.266-6.424-0.783c-2.429-1.225-3.592-3.219-3.629-5.807c-0.023-1.583,0.344-3.177,0.578-4.758
			c0.156-1.047,0.879-1.735,1.79-2.074C262.429,230.926,264.516,229.73,266.986,230.07z"/>
	</g>
</g>
</svg>
