<?xml version="1.0" encoding="utf-8"?>
<!-- Generator: Adobe Illustrator 16.0.4, SVG Export Plug-In . SVG Version: 6.00 Build 0)  -->
<!DOCTYPE svg PUBLIC "-//W3C//DTD SVG 1.1//EN" "http://www.w3.org/Graphics/SVG/1.1/DTD/svg11.dtd">
<svg version="1.1" id="Layer_1" xmlns="http://www.w3.org/2000/svg" xmlns:xlink="http://www.w3.org/1999/xlink" x="0px" y="0px"
	 width="1152px" height="648px" viewBox="0 0 1152 648" enable-background="new 0 0 1152 648" xml:space="preserve">
<path opacity="0.7" fill-rule="evenodd" clip-rule="evenodd" fill="#F9CA11" d="M469.743,98.904
	c0.274,1.351,0.601,2.601,0.774,3.869c0.399,2.938,0.566,5.912,1.123,8.818c0.6,3.131,1.546,6.197,2.32,9.295
	c0.209,0.844,0.561,1.723,0.473,2.549c-0.203,1.94,0.537,3.695,0.845,5.537c0.429,2.572,0.746,5.172,0.911,7.768
	c0.055,0.872-0.442,1.805-0.799,2.668c-0.244,0.59-0.68,1.109-1.119,1.803c-2.521,0.298-5.152,0.581-7.832,0.284
	c-0.892-0.101-1.846-0.102-2.709,0.097c-2.586,0.602-5.15,0.597-7.744,0.149c-0.666-0.113-1.395-0.206-2.037-0.064
	c-1.762,0.387-3.486,0.929-5.244,1.355c-0.577,0.14-1.201,0.148-1.805,0.15c-3.911,0.011-7.822,0.021-11.731-0.007
	c-1.835-0.012-3.675-0.071-5.507-0.176c-2.206-0.129-4.407-0.414-6.619-0.457c-1.02-0.018-2.053,0.362-3.073,0.582
	c-1.187,0.254-2.354,0.662-3.55,0.767c-1.609,0.143-2.953,0.689-4.101,1.737c-1.552,1.418-3.078,2.848-4.017,4.743
	c-0.262,0.532-0.765,0.955-1.158,1.429c-0.176-0.038-0.354-0.073-0.531-0.113c-0.21-0.877-0.598-1.753-0.598-2.631
	c-0.006-6.614-1.31-13.124-1.617-19.713c-0.271-5.81-0.567-11.62-0.995-17.419c-0.19-2.555-0.386-5.019,0.474-7.549
	c0.684-2.019,2.033-3.042,4.032-3.288c2.353-0.293,4.739-0.316,7.11-0.461c1.362-0.085,2.723-0.178,4.084-0.267
	c3.897-0.259,7.718-1.186,11.664-1.075c4.828,0.138,9.66,0.201,14.492,0.163c2.904-0.02,5.815-0.503,8.709-0.405
	c4.506,0.153,9-1.018,13.506-0.077C468.108,99.1,468.812,98.938,469.743,98.904z"/>
<g id="_x31_u69xM_1_">
	<g>
		<path opacity="0.7" fill-rule="evenodd" clip-rule="evenodd" fill="#E8821B" d="M284.06,323.174
			c-3.321,0.058-6.344,0.093-9.367,0.171c-2.496,0.062-4.992,0.223-7.488,0.236c-0.967,0.004-1.932-0.35-2.902-0.407
			c-1.649-0.101-3.305-0.15-4.955-0.12c-1.812,0.038-3.651,0.033-5.429,0.336c-1.916,0.326-3.772,0.984-5.933,1.573
			c-1.842-1.545-4.277-1.848-6.971-1.622c-2.541,0.214-5.119-0.024-7.682-0.037c-4.686-0.027-9.372,0.056-14.052-0.078
			c-3.249-0.092-6.486-0.509-9.733-0.703c-1.271-0.077-2.553,0.034-3.828,0.1c-1.686,0.083-1.932-0.074-2.15-1.818
			c-0.497-3.963-0.904-7.941-1.449-11.898c-0.506-3.664-1.173-7.308-1.71-10.969c-0.106-0.735-0.064-1.54,0.128-2.254
			c0.111-0.414,0.608-0.922,1.016-1.021c1.02-0.242,2.089-0.356,3.141-0.376c2.425-0.047,4.851-0.007,7.276,0
			c0.377,0,0.792-0.095,1.125,0.028c1.644,0.606,3.292,0.228,4.958,0.175c3.484-0.111,6.973-0.051,10.461-0.07
			c1.665-0.009,3.329-0.067,4.996-0.058c2.274,0.014,4.549,0.029,6.822,0.118c4.857,0.19,9.71,0.535,14.566,0.606
			c2.712,0.04,5.429-0.462,8.147-0.491c2.099-0.025,4.201,0.277,6.3,0.479c2.104,0.201,4.201,0.458,6.301,0.688
			c0.151,0.017,0.306,0,0.457,0.005c4.275,0.146,5.816,1.648,6.085,5.87c0.226,3.546,0.499,7.088,0.735,10.633
			c0.121,1.813,0.149,3.635,0.332,5.441C283.433,319.434,283.754,321.141,284.06,323.174z"/>
		<path opacity="0.7" fill-rule="evenodd" clip-rule="evenodd" fill="#E8821B" d="M204.247,325.947
			c10.084-0.438,19.795-0.085,29.502,0.332c2.871,0.122,5.741,0.329,8.609,0.511c1.715,0.109,3.076,0.645,3.568,2.564
			c0.786,3.073,1.75,6.102,2.5,9.184c0.201,0.823,0.037,1.81-0.207,2.65c-0.506,1.754-0.756,1.9-2.556,1.969
			c-3.255,0.122-6.513,0.133-9.765,0.332c-4.149,0.25-8.289,0.65-12.438,0.966c-1.051,0.081-2.116,0.175-3.166,0.11
			c-3.48-0.215-6.958-0.448-10.428-0.77c-2.527-0.234-3.879-1.913-4.539-4.192c-0.271-0.938-0.335-1.943-0.443-2.925
			c-0.295-2.715-0.596-5.431-0.822-8.152C203.997,327.731,204.171,326.916,204.247,325.947z"/>
		<path opacity="0.7" fill-rule="evenodd" clip-rule="evenodd" fill="#E8821B" d="M251.866,343.915
			c0.735-4.159,0.411-8.275,0.164-12.387c-0.023-0.374-0.225-0.741-0.221-1.111c0.027-3.188-0.158-3.511,3.033-3.58
			c2.867-0.064,5.695-0.242,8.574,0.127c2.283,0.294,4.641-0.002,6.965-0.007c3.937-0.009,7.871,0.006,11.805,0.017
			c0.92,0.003,1.424,0.638,1.578,1.395c0.798,3.82,1.643,7.654,0.91,11.586c-0.094,0.51-0.566,1.133-1.029,1.354
			c-1.223,0.578-2.504,1.143-3.82,1.383c-1.854,0.336-3.761,0.376-5.646,0.541c-0.451,0.039-0.958-0.045-1.352,0.129
			c-2.705,1.188-5.6,1.276-8.461,1.369c-2.646,0.086-5.301-0.078-7.945-0.23C254.934,344.413,253.458,344.125,251.866,343.915z"/>
		<path opacity="0.5" fill-rule="evenodd" clip-rule="evenodd" fill="#3799B3" d="M698.411,319.479
			c-2.012,0.169-2.67,1.837-3.039,3.155c-1.061,3.792-3.381,6.775-5.605,9.854c-1.198,1.658-2.372,3.336-3.555,5.005
			c-0.213,0.301-0.368,0.65-0.623,0.907c-2.221,2.239-3.512,2.909-5.189-0.544c-1.081-2.224-1.389-4.604-2.02-6.924
			c-1.838-6.753-2.308-13.722-3.293-20.609c-0.332-2.317-0.84-4.609-1.201-6.922c-0.178-1.138-0.197-2.299-0.326-3.921
			c1.238,0.612,2.113,1.042,2.984,1.475c0.919,0.455,1.813,0.971,2.758,1.359c4.77,1.961,8.027,6.081,12.396,8.619
			c1.515,0.88,2.913,1.955,4.38,2.917c1.953,1.282,4,2.439,5.859,3.846c1.389,1.05,2.52,2.433,3.813,3.618
			c0.644,0.59,1.323,1.234,2.107,1.556c2.142,0.88,3.819,2.391,5.612,3.763c4.691,3.581,9.371,3.354,13.668-0.666
			c2.129-1.994,3.988-4.277,6.039-6.358c1.795-1.823,3.756-3.487,5.522-5.335c2.381-2.485,4.608-5.115,6.974-7.609
			c2.056-2.168,4.215-4.236,6.676-6.691c0.537,1.999,1.076,3.555,1.352,5.156c0.312,1.796,0.36,3.637,0.565,5.452
			c0.275,2.472,0.499,4.955,0.911,7.406c1.004,5.99,2.105,11.966,3.164,17.948c0.286,1.62,0.173,3.187-0.68,4.977
			c-1.568-1.17-3.195-2.066-4.404-3.354c-2.347-2.496-4.497-5.185-6.661-7.848c-2.173-2.676-4.246-5.43-6.401-8.122
			c-0.588-0.735-1.364-0.824-2.127-0.199c-0.711,0.583-0.975,1.292-0.437,2.122c0.638,0.982,1.277,1.97,1.98,2.908
			c2.631,3.508,5.307,6.982,7.93,10.498c1.326,1.777,2.751,3.422,4.689,4.576c0.475,0.283,0.823,0.775,1.487,1.42
			c-1.176,0.221-2.062,0.533-2.945,0.522c-2.939-0.034-5.832,0.418-8.746,0.645c-4.454,0.343-8.936,0.392-13.408,0.461
			c-2.197,0.034-4.4-0.249-6.598-0.242c-5.354,0.014-10.706,0.113-16.061,0.178c-1.98,0.023-3.968,0.14-5.946,0.049
			c-3.724-0.172-7.479,0.166-11.165-0.664c-0.539-0.12-1.067-0.295-1.703-0.474c1.768-2.575,3.422-4.967,5.054-7.372
			c1.399-2.064,2.639-4.182,3.452-6.592c0.814-2.406,2.025-4.685,3.158-6.97C699.334,321.394,699.271,320.518,698.411,319.479z"/>
		<path opacity="0.5" fill-rule="evenodd" clip-rule="evenodd" fill="#3799B3" d="M674.057,294.976
			c2.542-2.6,5.479-3.529,8.826-3.684c8.149-0.373,16.276,0.254,24.402,0.568c6.445,0.25,12.871,0.961,19.308,1.434
			c1.092,0.08,2.197,0.004,3.297-0.024c5.365-0.136,10.713,0.056,16.022,0.917c0.144,0.023,0.292,0.037,0.435,0.068
			c2.298,0.538,2.74,1.043,3.047,3.314c-2.463,2.958-4.766,5.891-7.253,8.659c-2.737,3.047-5.64,5.948-8.483,8.901
			c-2.17,2.26-4.307,4.555-6.561,6.727c-1.152,1.109-2.492,2.037-3.811,2.956c-2.416,1.69-4.799,0.634-7.117-0.288
			c-0.797-0.317-1.562-0.863-2.168-1.477c-0.955-0.966-1.988-1.655-3.311-2.037c-0.736-0.213-1.4-0.783-2.01-1.291
			c-2.234-1.857-4.361-3.854-6.668-5.612c-2.322-1.769-4.844-3.274-7.223-4.969c-2.859-2.036-5.639-4.182-8.494-6.222
			c-2.243-1.598-4.475-3.194-7.143-4.121C677.159,298.104,675.274,297.065,674.057,294.976z"/>
		<path opacity="0.7" fill-rule="evenodd" clip-rule="evenodd" fill="#428C45" d="M533.964,527.517
			c-0.402-4.863-0.807-9.727-1.206-14.591c-0.074-0.915-0.176-1.831-0.178-2.746c-0.004-2.405,1.742-4.746,4.013-4.761
			c4.633-0.031,9.322-0.845,13.898,0.214c5.494,1.271,11.075,0.919,16.612,1.232c4.243,0.24,8.522-0.165,12.788-0.273
			c0.686-0.019,1.38-0.034,2.062,0.033c2.983,0.298,3.183,0.092,3.448,3.008c0.266,2.953,2.876,5.49,5.775,6.118
			c0.596,0.13,1.242,0.136,1.79,0.374c0.901,0.388,1.793,0.823,1.822,2.08c0.027,1.134,0.187,2.27,0.349,3.396
			c0.207,1.423,0.33,2.884,0.751,4.247c0.931,3.006,0.673,6.084,0.542,9.108c-0.074,1.663-1.189,3.13-3.127,3.498
			c-0.6,0.114-1.193,0.309-1.797,0.331c-4.113,0.149-8.227,0.29-12.346,0.376c-2.977,0.063-5.957,0.134-8.931,0.028
			c-4.323-0.154-8.642-0.482-12.962-0.69c-1.141-0.057-2.288,0.103-3.432,0.076c-2.82-0.064-5.644-0.264-8.467-0.245
			c-1.815,0.012-3.632,0.311-5.446,0.49c-0.685,0.066-1.362,0.194-2.046,0.231c-1.66,0.089-2.943-0.654-3.281-2.256
			c-0.503-2.37-0.744-4.796-1.03-7.207c-0.077-0.668,0.089-1.364,0.143-2.049C533.795,527.534,533.88,527.523,533.964,527.517z"/>
		<path opacity="0.7" fill-rule="evenodd" clip-rule="evenodd" fill="#428C45" d="M591.723,512.127
			c-0.909-0.344-2.099-0.442-2.669-1.088c-0.983-1.109-2-2.492-2.221-3.883c-0.234-1.485,0.372-3.204,1.631-4.302
			c1.213-1.06,2.684-0.899,4.101-0.274c0.347,0.154,0.702,0.308,1.025,0.505c3.147,1.94,3.941,3.645,1.692,7.399
			C594.446,511.88,593.316,512.313,591.723,512.127z"/>
		<path fill-rule="evenodd" clip-rule="evenodd" d="M438.339,508.108c0.598-5.644,0.143-11.277-0.164-16.909
			c-0.121-2.209-0.484-4.403-0.686-6.608c-0.098-1.068-0.074-2.148-0.111-3.222c-0.018-0.497,0.014-1.005-0.082-1.486
			c-0.266-1.333-0.059-1.833,1.185-2.34c3.179-1.295,6.435-2.264,9.896-2.461c3.922-0.224,7.838-0.523,11.76-0.763
			c3.656-0.223,7.313-0.436,10.973-0.602c1.898-0.086,3.803-0.015,5.701-0.104c2.211-0.104,4.416-0.334,6.627-0.449
			c2.021-0.105,4.047-0.133,6.071-0.189c0.315-0.008,0.642,0.067,0.947,0.013c2.468-0.452,4.917-0.034,7.38,0.041
			c3.092,0.093,6.193-0.137,9.289-0.278c5.568-0.256,11.138-0.498,16.7-0.848c3.602-0.225,7.192-0.629,10.786-0.951
			c0.695-0.062,1.389-0.168,2.084-0.166c4.629,0.01,9.26,0.081,13.89,0.051c1.38-0.008,2.757-0.28,4.138-0.424
			c0.439-0.046,0.887-0.13,1.32-0.091c5.771,0.53,11.523,0.029,17.277-0.313c4.947-0.297,9.869-0.045,14.807,0.265
			c5.046,0.316,10.086,0.655,15.176,0.087c3.305-0.369,6.701,0.058,10.055,0.151c1.632,0.046,3.268,0.085,4.892,0.228
			c3.446,0.301,7.772,2.312,8.911,5.383c1.178,3.174,1.197,6.574,0.924,9.958c-0.193,2.388-0.281,4.785-0.352,7.181
			c-0.032,1.069,0.174,2.146,0.135,3.215c-0.168,4.569,0.262,9.093,0.973,13.598c0.768,4.875-0.471,9.751,0.278,14.629
			c0.134,0.876,0.193,1.766,0.272,2.649c0.385,4.286,0.733,8.575,1.16,12.858c0.359,3.589,0.759,7.175,1.234,10.749
			c0.242,1.815,0.668,3.609,1.059,5.403c0.567,2.593,1.342,5.152,1.736,7.77c0.708,4.697,1.321,9.416,1.738,14.146
			c0.328,3.716,0.242,7.465,0.447,11.191c0.192,3.478,0.524,6.945,0.805,10.418c0.035,0.44,0.047,0.917,0.225,1.306
			c0.8,1.743,0.188,3.383-0.404,4.968c-0.943,2.535-3.146,3.365-5.577,3.625c-4.407,0.469-8.812,0.725-13.271,0.542
			c-6.328-0.259-12.68-0.339-19.004-0.071c-2.922,0.125-5.776-0.369-8.691-0.223c-2.824,0.141-5.684,0.707-8.517,0.411
			c-1.755-0.183-3.492-0.541-5.226-0.886c-2.931-0.583-5.857-0.645-8.837-0.356c-1.929,0.186-3.896-0.058-5.847-0.056
			c-1.059,0.002-2.121,0.107-3.18,0.186c-0.502,0.038-1,0.126-1.5,0.185c-1.956,0.229-3.896,0.528-5.869,0.679
			c-2.45,0.188-4.883,0.596-7.359,0.471c-0.189-0.011-0.388-0.042-0.569-0.002c-3.401,0.739-6.798-0.048-10.195-0.019
			c-1.199,0.01-2.447-0.086-3.589,0.202c-4.247,1.074-8.535,0.072-12.85-0.248c-0.438-0.032-1.04,0.045-1.279-0.203
			c-2.312,0.375-2.312,0.375-3.514,0.777c-2.686,0.898-5.492-0.114-8.262-0.079c-2.221,0.028-4.414,0.063-6.627,0.374
			c-2.233,0.312-4.513,0.296-6.773,0.396c-1.831,0.081-3.662,0.17-5.494,0.17c-3.219,0-6.459-0.308-9.646-0.01
			c-1.873,0.175-3.695-0.191-5.549,0.051c-1.592,0.208-3.22,0.141-4.83,0.195c-0.064,0.002-0.133,0.005-0.188,0.029
			c-2.307,0.999-4.711,0.277-7.063,0.342c-2.33,0.062-4.687-0.119-7.004-0.413c-1.814-0.23-3.635-0.653-5.361-1.255
			c-1.553-0.541-2.13-2.121-2.645-3.53c-1.197-3.28-1.906-6.689-2.187-10.171c-0.319-3.977-0.56-7.959-0.826-11.938
			c-0.128-1.895-0.058-3.824-0.395-5.68c-0.591-3.238-0.021-6.454-0.104-9.678c-0.11-4.305-0.135-8.611-0.191-12.916
			c-0.043-3.297-0.038-6.594-0.129-9.889c-0.037-1.449-0.323-2.892-0.378-4.34c-0.132-3.476-0.238-6.954-0.272-10.432
			c-0.029-2.85,0.136-5.703,0.072-8.552c-0.053-2.271-0.432-4.535-0.471-6.807C438.142,514.066,438.282,511.087,438.339,508.108z
			 M622.108,481.964c0.307-0.569,3.087-1.342,2.988-1.979c-0.236-1.538-2.635-3.167-3.443-4.465
			c-0.725-1.169-1.859-2.242-3.449-2.48c-2.098-0.313-4.215-0.238-6.33-0.632c-2.268-0.422-4.66-0.221-6.997-0.181
			c-2.784,0.049-5.565,0.272-8.351,0.314c-1.891,0.028-3.785-0.142-5.679-0.189c-1.009-0.026-2.023,0.081-3.028,0.022
			c-3.098-0.184-6.188-0.449-9.285-0.61c-0.939-0.05-1.893,0.14-2.838,0.228c-0.63,0.059-1.258,0.169-1.889,0.195
			c-3.471,0.141-6.943,0.294-10.416,0.383c-3.666,0.096-7.332,0.114-11,0.183c-1.584,0.028-3.167,0.108-4.75,0.141
			c-1.39,0.028-2.779,0.011-4.168,0.033c-3.295,0.05-6.621-0.157-9.874,0.235c-4.155,0.5-8.321,0.869-12.484,0.889
			c-4.679,0.022-9.296,1.058-13.981,0.656c-0.188-0.016-0.38,0.039-0.568,0.049c-2.779,0.151-5.557,0.396-8.335,0.429
			c-3.988,0.046-7.978-0.066-11.964-0.1c-0.634-0.005-1.289-0.051-1.898,0.083c-4.066,0.895-8.211,0.531-12.313,0.782
			c-5.812,0.356-11.634,0.525-17.452,0.778c-0.186,0.008-0.371,0.068-0.559,0.104c-1.428,0.262-2.852,0.538-4.281,0.782
			c-1.932,0.331-3.887,0.55-5.797,0.978c-2.75,0.616-3.699,1.939-3.534,4.742c0.192,3.225,0.483,6.442,0.653,9.668
			c0.172,3.279,0.609,6.535,0.234,9.856c-0.375,3.333-0.449,6.712-0.453,10.07c-0.005,3.032,0.416,6.066,0.381,9.096
			c-0.093,7.98,0.351,15.938,0.691,23.904c0.297,6.957,0.26,13.931,0.336,20.897c0.037,3.421-0.011,6.842-0.008,10.263
			c0,0.759,0.015,1.521,0.076,2.276c0.189,2.338,0.572,4.671,0.577,7.005c0.009,4.272,0.466,8.481,1.233,12.671
			c0.183,0.984,0.352,1.975,0.586,2.947c0.191,0.793,0.532,1.551,0.691,2.348c0.217,1.079,0.696,1.935,1.777,2.252
			c2.127,0.627,4.023,1.923,6.449,1.704c2.496-0.224,4.994,0.854,7.537,0.226c0.17-0.042,0.372,0.069,0.562,0.074
			c2.216,0.063,4.434,0.143,6.65,0.173c2.528,0.033,5.056,0.021,7.583,0.024c0.503,0.001,1.015,0.029,1.509-0.048
			c4.66-0.72,9.316-0.778,14.002-0.155c1.406,0.188,2.877-0.117,4.317-0.201c0.44-0.025,0.881-0.096,1.321-0.091
			c2.278,0.023,4.559,0.165,6.83,0.071c2.322-0.096,4.693,0.222,6.953-0.631c0.578-0.218,1.179-0.476,1.782-0.514
			c3.96-0.246,7.919,0.487,11.884,0.379c3.011-0.082,6.019-0.047,9.043,0.118c4.401,0.241,8.85,0.221,13.256-0.478
			c1.297-0.206,2.676,0.114,3.979-0.071c4.649-0.661,9.314-0.974,14.006-1.034c1.58-0.02,3.162-0.239,4.736-0.188
			c2.852,0.094,5.697,0.318,8.546,0.499c1.007,0.063,2.106-0.078,2.997,0.284c3.229,1.315,6.619,0.723,10.021,0.826
			c4.359,0.129,8.729-0.05,13.095-0.082c3.101-0.021,6.202-0.059,9.302-0.016c2.028,0.027,4.056,0.291,6.08,0.258
			c2.963-0.051,5.922-0.406,8.881-0.382c2.504,0.021,3.987-1.213,5.062-3.247c0.175-0.332,0.241-0.869,0.503-0.986
			c1.174-0.522,0.988-1.501,0.934-2.434c-0.152-2.591-0.371-5.179-0.485-7.77c-0.167-3.796-0.222-7.598-0.411-11.391
			c-0.121-2.402-0.34-4.805-0.627-7.193c-0.429-3.582-0.827-7.176-1.475-10.722c-0.796-4.346-2.379-8.513-2.781-12.968
			c-0.594-6.619-1.656-13.203-2.057-19.831c-0.281-4.64-1.285-9.146-1.762-13.74c-0.386-3.713,0.76-7.379,0.41-11.094
			c-0.385-4.093-0.453-8.218-0.614-12.331c-0.114-2.91-0.099-5.828-0.263-8.735C624.913,483.999,622.462,483.127,622.108,481.964z"
			/>
		<path fill-rule="evenodd" clip-rule="evenodd" d="M306.983,363.839c0.03,1.914,0.172,4.258,0.082,6.593
			c-0.172,4.433-0.512,8.857-0.712,13.288c-0.233,5.198,0.111,10.373,0.664,15.545c0.217,2.016,0.476,3.993,1.124,5.914
			c0.101,0.293,0.1,0.623,0.125,0.938c0.215,2.772,0.439,5.543,0.629,8.316c0.076,1.136,0.046,2.277,0.1,3.414
			c0.131,2.762,0.303,5.523,0.406,8.286c0.018,0.483-0.104,1.046-0.354,1.452c-1.792,2.907-3.959,5.373-7.467,6.277
			c-3.488,0.898-6.927,2.014-10.445,2.759c-2.336,0.495-4.777,0.479-7.168,0.741c-1.44,0.159-2.867,0.506-4.311,0.596
			c-1.504,0.093-3.023-0.062-4.535-0.038c-2.146,0.033-4.292,0.119-6.438,0.204c-4.682,0.185-9.363,0.372-14.043,0.581
			c-3.606,0.16-7.204,0.227-10.785,0.94c-2.764,0.552-5.629,0.618-8.455,0.828c-0.67,0.05-1.366-0.302-2.045-0.28
			c-2.148,0.063-4.295,0.214-6.441,0.338c-0.568,0.033-1.152,0.21-1.698,0.123c-2.733-0.438-5.423,0.009-8.141,0.194
			c-3.147,0.216-6.321,0.082-9.481,0.089c-2.77,0.006-5.541,0.061-8.309-0.02c-2.684-0.078-5.384,0.613-8.057-0.461
			c-1.621-0.651-2.943-1.455-3.561-3.127c-0.501-1.351-0.965-2.668-0.959-4.201c0.006-1.665-0.548-3.328-0.82-4.998
			c-0.826-5.054-1.701-10.11-1.467-15.258c0.103-2.275,0.5-4.535,0.695-6.809c0.307-3.59,0.312-7.182,0.002-10.778
			c-0.137-1.568,0.016-3.16-0.057-4.735c-0.189-4.109-0.459-8.216-0.643-12.325c-0.23-5.114-0.448-10.229-0.596-15.347
			c-0.195-6.846-0.993-13.617-2.141-20.365c-0.463-2.736-0.515-5.542-0.783-8.313c-0.494-5.101-1.045-10.195-1.498-15.3
			c-0.248-2.766-0.373-5.545-0.5-8.321c-0.129-2.778-0.251-5.562-0.267-8.343c-0.02-3.354,0.083-6.707,0.122-10.062
			c0.082-7.286,0.153-14.571,0.238-21.857c0.052-4.488,0.158-8.978,0.169-13.465c0.012-4.997-0.052-9.994-0.102-14.99
			c-0.006-0.632-0.159-1.259-0.198-1.891c-0.111-1.828-0.396-3.674-0.248-5.484c0.203-2.479,0.051-4.919-0.098-7.382
			c-0.188-3.128,1.493-5.409,3.747-7.316c0.327-0.275,0.95-0.298,1.43-0.278c2.396,0.101,4.794,0.416,7.183,0.341
			c1.955-0.062,3.934,0.08,5.887-0.475c1.19-0.34,2.5-0.26,3.758-0.357c3.473-0.271,6.941-0.693,10.417-0.758
			c3.218-0.06,6.414-0.947,9.651-0.27c0.368,0.076,0.758,0.082,1.137,0.073c4.492-0.104,8.986-0.251,13.479-0.321
			c3.799-0.059,7.606-0.189,11.396,0.001c3.536,0.177,7.044,0.89,10.58,1.082c3.408,0.187,6.836,0.012,10.255-0.012
			c2.082-0.014,4.166-0.053,6.248-0.056c2.535-0.006,5.073-0.058,7.604,0.055c1.173,0.054,2.355,0.364,3.493,0.702
			c4.66,1.383,7.589,4.788,9.91,8.793c1.102,1.898,1.258,4.097,1.357,6.253c0.149,3.284,0.29,6.555,0.809,9.82
			c0.445,2.803,0.564,5.675,0.606,8.52c0.076,5.067,0.129,10.143-0.091,15.203c-0.129,2.947,0.135,5.82,0.559,8.701
			c0.32,2.188,0.768,4.355,1.115,6.539c0.31,1.934,0.555,3.878,0.834,5.816c0.387,2.687,0.809,5.368,1.164,8.059
			c0.33,2.509,0.602,5.025,0.885,7.539c0.226,2.012,0.284,4.054,0.676,6.031c0.778,3.931,1.289,7.87,1.15,11.885
			c-0.035,1.027,0.156,1.986,0.862,2.838c0.274,0.332,0.403,0.977,0.293,1.398c-0.558,2.123,0.177,4.153,0.406,6.199
			c0.621,5.535,1.517,11.033,1.516,16.634c0.001,3.225,0.372,6.448,0.474,9.675C307.352,360.743,307.124,362.073,306.983,363.839z
			 M181.37,292.521c-0.162,2.048-0.539,4.454-0.504,6.853c0.066,4.43,0.369,8.854,0.581,13.281c0.095,1.963,0.149,3.928,0.321,5.883
			c0.406,4.602,0.855,9.2,1.316,13.797c0.44,4.407,0.91,8.812,1.377,13.217c0.34,3.211,0.796,6.413,1.019,9.632
			c0.322,4.676,0.483,9.363,0.708,14.047c0.154,3.229,0.301,6.458,0.447,9.687c0.229,5.063,0.463,10.126,0.678,15.189
			c0.111,2.596,0.324,5.197,0.243,7.787c-0.136,4.301-0.551,8.593-0.698,12.894c-0.111,3.245,0.381,6.466,1.25,9.586
			c0.75,2.688,1.146,5.351,1.27,8.164c0.141,3.257,0.877,4.948,4.321,5.005c3.279,0.053,6.565,0.221,9.837,0.074
			c1.619-0.074,3.145,0.042,4.682,0.454c0.354,0.095,0.724,0.181,1.088,0.186c3.344,0.048,6.639-0.601,10.006-0.503
			c4.162,0.121,8.336-0.289,12.506-0.352c4.557-0.068,9.082-0.455,13.615-0.877c3.717-0.347,7.453-0.494,11.186-0.668
			c3.596-0.168,7.195-0.257,10.795-0.385c0.25-0.01,0.499-0.072,0.75-0.091c2.263-0.165,4.522-0.399,6.787-0.469
			c2.145-0.066,4.308,0.204,6.441,0.038c4.279-0.334,8.58-0.639,12.654-2.223c0.516-0.201,1.119-0.158,1.674-0.275
			c0.807-0.169,1.623-0.317,1.893-1.313c0.211-0.774,0.857-0.736,1.525-0.795c1.114-0.098,2.242-0.271,3.309-0.589
			c0.561-0.169,1.283-0.619,1.453-1.109c0.494-1.423,0.768-2.924,1.078-4.404c0.125-0.599,0.129-1.223,0.184-1.836
			c0.197-2.145,0.644-4.301,0.537-6.431c-0.258-5.243-0.646-10.489-1.213-15.708c-0.649-5.99-0.734-11.973-0.408-17.977
			c0.172-3.162,0.328-6.326,0.422-9.49c0.066-2.212-0.031-4.429,0.033-6.641c0.053-1.836,0.369-3.672,0.343-5.504
			c-0.06-4.174-0.179-8.351-0.429-12.518c-0.182-3.026-0.717-6.032-0.902-9.059c-0.19-3.118-0.912-6.126-1.449-9.18
			c-0.514-2.923-0.731-5.898-1.021-8.856c-0.16-1.632-0.115-3.286-0.317-4.911c-0.318-2.575-0.835-5.126-1.136-7.701
			c-0.25-2.139-0.2-4.314-0.475-6.447c-0.52-4.017-1.177-8.015-1.774-12.02c-0.524-3.506-1.095-7.006-1.55-10.521
			c-0.414-3.197-0.896-6.406-0.994-9.62c-0.138-4.619,0.071-9.249,0.086-13.874c0.014-4.175-0.026-8.341-0.734-12.486
			c-0.401-2.361-0.41-4.788-0.696-7.174c-0.247-2.064-0.476-4.154-0.999-6.157c-0.677-2.585-2.841-4.116-4.713-5.806
			c-0.744-0.672-1.512-1.394-2.401-1.812c-3.231-1.521-6.708-1.816-10.196-1.447c-1.272,0.135-2.496,0.237-3.758,0.08
			c-0.563-0.07-1.14-0.08-1.708-0.062c-3.729,0.109-7.46,0.25-11.188,0.348c-1.006,0.026-2.021-0.003-3.021-0.105
			c-3.578-0.363-7.146-0.854-10.731-1.133c-3.399-0.266-6.816-0.342-10.226-0.464c-0.885-0.032-1.816-0.081-2.65,0.147
			c-1.654,0.451-3.252,0.246-4.902,0.066c-1.236-0.136-2.51,0.06-3.766,0.109c-1.129,0.043-2.257,0.119-3.386,0.123
			c-1.958,0.008-3.927-0.16-5.874-0.016c-3.406,0.251-6.797,0.715-10.199,1.026c-2.014,0.183-4.051,0.133-6.055,0.379
			c-3.565,0.438-7.109,1.04-10.668,1.54c-3.036,0.428-5.144,2.604-5.402,5.643c-0.127,1.518-0.303,3.033-0.388,4.553
			c-0.088,1.582-0.298,3.194-0.098,4.747c0.705,5.487,0.672,10.993,0.612,16.499c-0.05,4.622-0.297,9.243-0.355,13.865
			c-0.043,3.414,0.102,6.832,0.113,10.249c0.007,1.712-0.124,3.424-0.141,5.136C181.354,286.582,181.372,289.367,181.37,292.521z"/>
		<path fill-rule="evenodd" clip-rule="evenodd" d="M604.883,370.348c0.523,0.13-0.194,0.2,0.081,0.268
			c0.096-0.102,0.26-0.196,0.254-0.277c-0.182-2.196-0.23-4.418-0.609-6.581c-0.824-4.729-1.854-9.421-2.732-14.141
			c-0.646-3.476-1.178-6.973-1.788-10.454c-0.118-0.672-0.366-1.319-0.657-2.331c-0.18,0.761-0.275-0.839-0.379-0.404
			c-0.078-0.082-0.188-0.141-0.19-0.203c-0.181-4.739-0.448-7.479-0.496-12.22c-0.048-4.814,0.016-9.636,0.229-14.446
			c0.168-3.797,0.568-7.576,0.235-11.387c-0.362-4.167-0.646-8.342-0.968-12.513c-0.489-6.31-1.188-12.606-1.133-18.953
			c0.031-3.6-0.311-7.207-0.166-10.799c0.17-4.237,0.656-8.45,2.673-12.337c0.63-1.215,0.819-2.652,1.263-3.97
			c0.608-1.81,1.381-3.457,3.144-4.546c3.64-2.249,7.642-2.885,11.8-2.984c1.646-0.039,3.299-0.17,4.939-0.084
			c4.104,0.217,8.202,0.56,12.306,0.797c1.513,0.088,3.038-0.021,4.556,0.035c3.798,0.14,7.594,0.387,11.393,0.475
			c4.115,0.096,8.233,0.021,12.348,0.096c2.408,0.045,4.811,0.28,7.219,0.352c3.8,0.112,7.602,0.131,11.4,0.244
			c2.973,0.088,5.94,0.285,8.914,0.389c3.85,0.133,7.701,0.224,11.552,0.327c2.712,0.071,5.446,0.391,8.13,0.15
			c6.388-0.571,12.783-0.399,19.169-0.356c8.935,0.061,17.87,0.449,26.803,0.707c3.989,0.116,7.984,0.155,11.964,0.418
			c3.085,0.205,6.148,0.709,9.224,1.065c1.066,0.124,2.149,0.146,3.204,0.33c0.78,0.138,1.532,0.451,2.289,0.71
			c2.818,0.959,4.804,2.98,6.586,5.236c1.418,1.795,1.851,3.996,2.389,6.141c0.307,1.224,0.449,2.495,0.83,3.692
			c2.035,6.385,2.283,12.936,2.021,19.56c-0.102,2.528,0.069,5.067,0.138,7.6c0.064,2.404,0.137,4.809,0.244,7.211
			c0.031,0.689,0.119,1.396,0.313,2.057c0.964,3.257,1.142,6.594,1.127,9.959c-0.019,4.116-0.081,8.233-0.013,12.35
			c0.037,2.27,0.379,4.534,0.447,6.805c0.053,1.705-0.159,3.418-0.17,5.127c-0.023,3.868-0.203,7.75,0.07,11.599
			c0.267,3.777,1.039,7.516,1.544,11.278c0.522,3.894,1.106,7.775,0.763,11.739c-0.27,3.093-0.398,6.203-0.461,9.308
			c-0.032,1.569,0.252,3.145,0.34,4.72c0.174,3.025,0.553,6.078-0.775,8.967c-0.258,0.561-0.575,1.204-1.055,1.532
			c-1.832,1.25-3.723,2.405-6.039,2.588c-2.582,0.204-5.156,0.503-7.738,0.724c-0.754,0.063-1.525,0.058-2.281-0.012
			c-4.051-0.372-8.085-0.531-12.137,0.139c-1.076,0.179-2.237-0.236-3.364-0.263c-3.105-0.072-6.212-0.084-9.317-0.118
			c-0.191-0.002-0.381,0.007-0.57-0.003c-5.635-0.289-11.267-0.666-16.904-0.839c-3.671-0.112-7.351,0.034-11.025,0.138
			c-4.238,0.121-8.476,0.294-12.71,0.501c-2.076,0.103-4.144,0.364-6.218,0.502c-1.642,0.109-3.29,0.218-4.934,0.192
			c-4.372-0.066-8.74-0.219-13.111-0.31c-2.017-0.042-4.035,0.006-6.053-0.039c-0.406-0.009-0.918-0.146-1.193-0.414
			c-0.707-0.696-1.545-0.753-2.447-0.813c-1.645-0.108-3.281-0.332-4.924-0.46c-4.226-0.328-8.451-0.684-12.684-0.928
			c-3.085-0.179-6.18-0.264-9.271-0.265c-2.336,0-4.673,0.299-7.007,0.284c-2.338-0.016-4.675-0.273-7.013-0.387
			c-1.45-0.071-2.91-0.004-4.355-0.116c-3.469-0.27-6.935-0.593-10.397-0.928c-2.31-0.224-4.565-0.743-6.801-1.361
			c-0.419-0.115-0.886-0.16-1.319-0.119c-2.623,0.248-4.576-1.02-6.316-2.762c-0.215-0.215-0.391-0.52-0.471-0.812
			c-0.275-1.021-0.928-1.617-1.738-2.316C605.694,373.411,605.978,371.907,604.883,370.348z M718.376,382.884
			c0.682,0.21,1.418,0.636,2.146,0.624c1.83-0.027,3.652-0.286,5.482-0.391c2.712-0.155,5.427-0.36,8.141-0.358
			c3.094,0.001,6.188,0.204,9.281,0.323c0.252,0.01,0.503,0.059,0.757,0.076c3.733,0.251,7.465,0.54,11.201,0.737
			c4.665,0.245,9.313-0.203,13.969-0.443c3-0.155,6.035-0.575,9.004,0.407c0.45,0.149,0.996,0.02,1.497,0.002
			c2.713-0.099,5.322-1.11,8.067-0.938c0.315,0.02,0.636-0.004,0.95-0.038c2.631-0.291,4.836-1.987,5.265-4.439
			c0.323-1.854,0.274-3.783,0.276-5.68c0.001-1.636-0.277-3.276-0.229-4.91c0.129-4.434,0.413-8.863,0.532-13.298
			c0.037-1.44-0.205-2.896-0.404-4.333c-0.408-2.946-0.941-5.875-1.295-8.827c-0.407-3.381-0.862-6.773-0.955-10.17
			c-0.119-4.36,0.148-8.73,0.157-13.096c0.005-2.338-0.257-4.675-0.271-7.013c-0.023-3.736,0.096-7.471,0.084-11.206
			c-0.004-1.452-0.123-2.913-0.321-4.351c-0.511-3.689-1.102-7.367-1.64-11.052c-0.068-0.479-0.017-0.979-0.006-1.468
			c0.02-1.009,0.091-2.019,0.062-3.025c-0.083-2.962-0.266-5.922-0.289-8.883c-0.015-1.953,0.336-3.915,0.238-5.858
			c-0.139-2.761-0.335-5.551-0.883-8.253c-0.664-3.279-1.71-6.482-2.609-9.715c-0.744-2.675-2.562-4.594-4.609-6.311
			c-0.52-0.435-1.205-0.715-1.858-0.935c-2.718-0.915-5.558-1.319-8.39-1.428c-4.554-0.174-9.094-0.546-13.669-0.484
			c-4.356,0.058-8.722-0.603-13.088-0.889c-2.591-0.171-5.188-0.249-7.785-0.331c-2.911-0.09-5.824-0.172-8.736-0.194
			c-4.371-0.034-8.743-0.062-13.114,0.001c-3.35,0.047-6.699,0.382-10.047,0.336c-5.889-0.08-11.775-0.354-17.662-0.546
			c-1.773-0.058-3.547-0.101-5.32-0.169c-2.525-0.099-5.051-0.229-7.576-0.318c-2.717-0.096-5.436-0.18-8.154-0.231
			c-2.576-0.051-5.154-0.096-7.73-0.062c-1.627,0.021-3.235,0.536-4.888-0.074c-0.607-0.223-1.38,0.011-2.075,0.008
			c-1.074-0.006-2.147-0.026-3.223-0.055c-1.894-0.053-3.803-0.29-5.68-0.134c-3.057,0.255-6.074-0.055-9.104-0.251
			c-0.988-0.065-2.009-0.441-2.884,0.412c-0.13,0.125-0.522,0.119-0.712,0.019c-2.074-1.102-4.337-0.763-6.537-0.891
			c-2.078-0.121-4.162-0.388-6.234-0.312c-2.65,0.096-5.306,0.37-7.932,0.752c-2.377,0.345-4.531,1.146-5.545,3.701
			c-0.721,1.813-1.562,3.59-2.479,5.316c-1.588,2.992-2.17,6.284-2.356,9.537c-0.288,4.987-0.181,10.01-0.003,15.009
			c0.198,5.507,0.665,11.005,1.02,16.506c0.072,1.138,0.154,2.273,0.245,3.408c0.345,4.285,0.913,8.568,0.988,12.858
			c0.089,5.062-0.322,10.132-0.376,15.199c-0.039,3.732-0.551,7.464,0.006,11.204c0.587,3.943,1.006,7.913,1.629,11.851
			c0.711,4.498,1.505,8.985,2.381,13.455c0.715,3.654,1.593,7.279,2.424,10.911c0.297,1.294,0.686,2.565,1.001,3.856
			c0.45,1.841,0.784,3.716,1.332,5.525c0.362,1.2,0.894,2.429,2.205,2.953c0.937,0.375,1.899,0.734,2.886,0.933
			c3.095,0.625,6.205,1.176,9.311,1.745c4.054,0.743,8.105,1.489,12.264,0.933c0.555-0.073,1.135,0.063,1.705,0.094
			c2.849,0.148,5.697,0.416,8.545,0.411c3.915-0.007,7.834-0.389,11.742-0.296c3.539,0.083,7.074,0.545,10.602,0.917
			c6.109,0.643,12.245,0.687,18.373,0.914c1.506,0.056,3.013,0.478,4.504,0.412c1.912-0.086,3.768,0.158,5.654,0.315
			c2.828,0.237,5.68,0.213,8.523,0.29c0.248,0.007,0.5-0.088,0.751-0.093c2.845-0.055,5.692-0.102,8.538-0.151
			C716.359,382.923,717.273,382.903,718.376,382.884z"/>
		<path fill-rule="evenodd" clip-rule="evenodd" d="M691.884,389.435c2.324,0.045,6.051,0.148,9.779,0.184
			c3.654,0.035,7.307-0.015,10.959,0.001c2.98,0.013,4.934,1.416,6.079,4.201c0.837,2.035,1.864,3.952,3.021,5.854
			c2.023,3.327,4.314,6.551,5.439,10.385c0.344,1.178,1.246,2.181,1.739,3.33c0.637,1.484,1.362,3.006,1.565,4.574
			c0.102,0.776-0.715,1.873-1.405,2.509c-1.529,1.409-3.479,2.052-5.545,2.16c-1.704,0.089-3.419,0.068-5.126-0.001
			c-4.236-0.172-8.471-0.42-12.708-0.599c-3.979-0.169-7.96-0.335-11.94-0.413c-2.277-0.045-4.558,0.148-6.836,0.125
			c-3.41-0.034-6.824-0.09-10.229-0.283c-2.717-0.155-5.424-0.524-8.134-0.807c-3.013-0.314-5.161-2.481-5.597-5.488
			c-0.536-3.717,0.512-7.123,1.738-10.558c1.518-4.248,4.148-7.8,6.832-11.304c0.975-1.273,2.435-2.184,3.707-3.218
			c0.215-0.173,0.607-0.123,0.914-0.187C680.886,388.923,685.675,388.892,691.884,389.435z M709.979,419.933
			c-0.002,0.16,0,0.32-0.001,0.48c4.304,0.031,8.606,0.07,12.911,0.082c0.559,0.002,1.151-0.052,1.673-0.238
			c2.897-1.038,3.511-1.765,2.022-4.736c-1.757-3.506-3.609-6.964-5.453-10.425c-1.518-2.844-3.021-5.698-4.654-8.478
			c-1.082-1.841-2.686-3.324-4.711-3.959c-1.523-0.479-3.232-0.43-4.864-0.482c-4.177-0.135-8.354-0.184-12.532-0.29
			c-3.283-0.082-6.563-0.242-9.846-0.284c-1.77-0.024-3.547,0.056-5.309,0.219c-1.243,0.115-2.59,0.137-3.576,1.065
			c-0.963,0.906-1.866,1.886-2.719,2.898c-0.809,0.96-1.396,2.132-2.295,2.985c-2.214,2.104-3.244,4.868-3.956,7.628
			c-0.478,1.849-0.915,3.769-1.202,5.688c-0.092,0.62-0.062,1.259-0.08,1.889c-0.058,2.059,1.004,3.286,2.889,3.932
			c3.365,1.151,6.838,1.809,10.377,1.983c2.396,0.117,4.807-0.075,7.209-0.064c4.307,0.02,8.613,0.105,12.919,0.129
			C702.514,419.973,706.246,419.942,709.979,419.933z"/>
		<path fill-rule="evenodd" clip-rule="evenodd" d="M423.636,297.806c1.639-2.298,3.893-3.803,4.562-6.479
			c0.373-1.493,1.344-2.068,2.617-1.816c0.723-0.696,1.246-1.35,1.912-1.791c0.516-0.342,1.27-0.458,1.707,0.197
			c0.346,0.516,0.16,1.024-0.258,1.544c-2.214,2.751-4.375,5.549-6.57,8.315c-0.391,0.492-0.868,0.913-1.291,1.38
			c-0.449,0.495-0.881,1.005-1.197,1.367c0.725,1.018,1.297,1.808,1.852,2.608c0.105,0.153,0.174,0.342,0.222,0.523
			c0.274,1.041,0.036,2.002-0.599,2.187c-0.868,0.254-1.443-0.31-1.932-0.891c-0.322-0.382-0.502-0.879-0.778-1.303
			c-0.269-0.413-0.581-0.798-0.94-1.282c-0.93,0.587-1.764,1.11-2.695,1.697c-0.452-0.379-0.867-0.726-1.375-1.149
			c0.525-0.703,1-1.29,1.422-1.911c0.742-1.104,0.707-1.819-0.329-2.634c-0.776-0.61-1.14-1.399-1.626-2.203
			c-0.977-1.612-2.232-3.066-3.457-4.515c-0.815-0.963-1.656-1.994-2.701-2.656c-1.563-0.988-2.197-2.538-3.018-4.01
			c-0.062-0.109-0.135-0.223-0.16-0.343c-0.119-0.562-0.268-1.128,0.415-1.486c0.569-0.3,0.968-0.048,1.335,0.351
			c1.113,1.211,2.148,2.505,3.348,3.623c3.152,2.934,5.699,6.393,8.544,9.593C422.889,296.997,423.142,297.268,423.636,297.806z"/>
		<path fill-rule="evenodd" clip-rule="evenodd" d="M334.288,536.926c1.098-0.53,1.828-0.007,2.559,0.19
			c1.767,0.48,3.497,1.093,5.273,1.527c2.639,0.646,5.301,1.201,7.959,1.758c1.486,0.311,1.801,0.783,1.293,2.217
			c-0.123,0.347-0.353,0.657-0.643,1.184c-3.327-0.431-6.689-0.768-10.012-1.338c-1.658-0.285-3.285-0.897-4.845-1.557
			c-1.013-0.43-1.954-1.151-2.051-2.689c0.677-0.137,1.321-0.268,2.127-0.431C335.399,537.501,334.956,537.272,334.288,536.926z"/>
		<path fill-rule="evenodd" clip-rule="evenodd" d="M388.647,264.849c0.986,0.488,1.853,0.766,2.537,1.283
			c2.215,1.674,4.349,3.455,6.545,5.156c0.999,0.775,2.029,1.47,2.651,2.648c0.281,0.531,0.858,0.91,1.322,1.337
			c0.829,0.766,1.781,1.411,1.681,2.785c-0.025,0.336,0.506,0.683,0.676,1.07c0.16,0.364,0.373,0.91,0.217,1.157
			c-0.182,0.289-0.737,0.452-1.135,0.46c-0.322,0.007-0.703-0.237-0.969-0.472c-1.412-1.243-2.82-2.493-4.18-3.793
			c-0.851-0.814-1.611-1.66-2.182-2.781c-0.536-1.055-1.682-1.854-2.676-2.613c-1.7-1.301-3.479-2.5-5.249-3.706
			c-0.556-0.378-0.876-0.854-0.507-1.411C387.692,265.496,388.253,265.185,388.647,264.849z"/>
		<path fill-rule="evenodd" clip-rule="evenodd" d="M323.241,533.663c-1.785,0.912-3.391,0.435-4.959,0.047
			c-2.867-0.707-5.756-1.373-8.545-2.323c-1.879-0.64-3.632-1.684-5.379-2.655c-0.801-0.445-0.821-1.281-0.283-2.164
			c0.555-0.911,1.123-1.161,2.058-0.775c1.284,0.531,2.514,1.193,3.81,1.685c3.358,1.276,6.715,2.568,10.127,3.688
			C321.472,531.626,322.375,532.475,323.241,533.663z"/>
		<path fill-rule="evenodd" clip-rule="evenodd" d="M458.349,377.656c-1.086-0.11-2.611-1.816-3.019-3.099
			c-1.046-3.294-1.177-6.863-2.989-9.929c-0.188-0.319-0.301-0.71-0.348-1.08c-0.115-0.888,0.651-2.089,1.438-2.228
			c0.957-0.169,1.349,0.604,1.701,1.242c0.361,0.657,0.547,1.412,0.808,2.125c0.108,0.294,0.13,0.682,0.335,0.871
			c1.754,1.626,2,3.88,2.568,6.001c0.375,1.405,0.785,2.802,1.116,4.218C460.312,377.274,459.827,377.805,458.349,377.656z"/>
		<path fill-rule="evenodd" clip-rule="evenodd" d="M538.78,459.665c-0.217-0.147-0.787-0.372-1.121-0.788
			c-1.302-1.619-2.524-3.302-3.785-4.955c-1.069-1.405-2.074-2.87-3.25-4.18c-1.02-1.138-1.145-2.623-1.812-3.888
			c-0.305-0.577-0.08-1.293,0.613-1.602c0.646-0.287,1.04,0.098,1.39,0.631c0.858,1.317,1.915,2.42,3.13,3.463
			c1.16,0.999,1.859,2.526,2.813,3.78c0.729,0.956,1.474,1.916,2.331,2.752c0.948,0.928,1.555,1.92,1.638,3.283
			C540.799,459.36,540.306,459.921,538.78,459.665z"/>
		<path fill-rule="evenodd" clip-rule="evenodd" d="M377.76,543.923c-1.029,2.629-1.355,2.84-3.552,2.767
			c-1.008-0.034-2.023,0.094-3.027,0.032c-2.383-0.146-4.76-0.363-6.83-0.527c-0.791-0.571-1.327-1.075-1.957-1.385
			c-1.079-0.532-0.973-1.504-1.206-2.673c0.771-0.015,1.425-0.091,2.067-0.031c2.825,0.262,5.646,0.595,8.475,0.833
			c1.245,0.104,2.516-0.055,3.752,0.098C376.231,543.129,376.938,543.59,377.76,543.923z"/>
		<path fill-rule="evenodd" clip-rule="evenodd" d="M527.218,440.837c-1.586-0.381-2.452-1.494-3.314-2.825
			c-2.568-3.963-4.486-8.205-5.879-12.695c-0.186-0.601-0.201-1.402,0.047-1.956c0.416-0.922,1.375-0.934,1.9-0.039
			c0.734,1.246,1.336,2.57,1.969,3.876c1.373,2.831,2.678,5.697,4.111,8.497c0.85,1.655,1.546,3.285,1.112,5.188L527.218,440.837z"
			/>
		<path fill-rule="evenodd" clip-rule="evenodd" d="M429.833,311.001c2.539-0.253,2.502-0.232,3.748,1.917
			c1.362,2.353,2.844,4.637,4.194,6.995c1.187,2.069,2.266,4.199,3.386,6.306c0.089,0.166,0.179,0.348,0.203,0.53
			c0.089,0.678,0.861,1.438-0.174,1.998c-0.559,0.303-1.834-0.122-2.279-0.869c-0.937-1.573-1.867-3.161-2.643-4.817
			c-1.588-3.397-3.481-6.591-5.923-9.446C429.71,312.87,429.087,312.141,429.833,311.001z"/>
		<path fill-rule="evenodd" clip-rule="evenodd" d="M463.855,459.074c-2.273-0.666-2.542-1.729-2.236-3.993
			c0.472-3.496,1.39-6.928,1.236-10.508c-0.052-1.182,0.155-2.376,0.248-3.564c0.014-0.189,0.017-0.387,0.073-0.564
			c0.221-0.662,0.426-1.43,1.314-1.363c0.787,0.059,1.276,0.658,1.312,1.405c0.084,1.702,0.198,3.424,0.043,5.114
			c-0.359,3.904-0.854,7.795-1.341,11.688C464.432,457.875,464.099,458.429,463.855,459.074z"/>
		<path fill-rule="evenodd" clip-rule="evenodd" d="M433.23,535.536c1.234,1.602,1.294,2.298-0.134,3.201
			c-1.418,0.899-3.024,1.521-4.591,2.162c-1.691,0.69-3.412,1.328-5.157,1.864c-1.67,0.514-3.386,0.891-5.092,1.28
			c-0.797,0.182-1.357-0.179-1.563-0.992c-0.207-0.818,0.15-1.421,0.96-1.807c2.426-1.156,4.954-1.947,7.568-2.609
			c2.357-0.596,4.57-1.75,6.848-2.655C432.468,535.823,432.87,535.675,433.23,535.536z"/>
		<path fill-rule="evenodd" clip-rule="evenodd" d="M322.558,248.879c0.99,0.126,1.756,0.167,2.488,0.341
			c0.312,0.074,0.721,0.38,0.793,0.656c0.066,0.26-0.17,0.754-0.42,0.906c-0.57,0.352-1.211,0.707-1.857,0.794
			c-2.374,0.319-4.768,0.492-7.145,0.796c-1.496,0.191-2.966,0.654-4.463,0.746c-1.688,0.102-3.396-0.02-5.086-0.161
			c-0.621-0.052-1.258-0.479-1.162-1.257c0.092-0.76,0.738-0.947,1.412-0.993c3.641-0.249,7.206-0.935,10.775-1.675
			C319.468,248.707,321.153,248.911,322.558,248.879z"/>
		<path fill-rule="evenodd" clip-rule="evenodd" d="M517.772,416.186c-0.12,0.337-0.154,0.786-0.396,1.019
			c-0.38,0.366-0.921,0.832-1.357,0.798c-0.429-0.034-1.017-0.562-1.185-1.006c-1.031-2.714-1.966-5.465-2.93-8.205
			c-0.691-1.959-1.365-3.923-2.072-5.876c-0.287-0.793-0.195-1.489,0.364-2.116c0.609-0.684,1.386-0.622,1.875,0.149
			c0.1,0.16,0.165,0.344,0.233,0.521c1.769,4.519,3.541,9.036,5.293,13.562C517.729,415.373,517.714,415.774,517.772,416.186z"/>
		<path fill-rule="evenodd" clip-rule="evenodd" d="M380.144,260.188c-1.156,0.893-2.17,0.778-3.399,0.215
			c-2.269-1.042-4.657-1.816-6.968-2.77c-1.326-0.547-2.574-1.281-3.898-1.833c-0.926-0.386-1.938-0.558-2.88-0.909
			c-1.331-0.496-1.619-1.035-1.259-2.1c0.311-0.917,1.139-1.223,2.328-0.73c1.679,0.691,3.3,1.525,4.988,2.189
			c3.339,1.312,6.703,2.558,9.801,4.408C379.442,259.01,380.192,259.159,380.144,260.188z"/>
		<path fill-rule="evenodd" clip-rule="evenodd" d="M294.911,519.573c-1.136,1.986-1.113,1.839-2.904,1.564
			c-1.656-0.256-2.923-1.137-4.262-1.962c-1.721-1.061-3.427-2.147-5.176-3.158c-0.883-0.511-1.469-1.093-1.54-2.191
			c-0.042-0.646-0.382-1.274-0.675-2.178c1.129,0.36,2.194,0.568,3.138,1.026c2.95,1.432,5.894,2.887,8.753,4.486
			C293.247,517.722,294.001,518.729,294.911,519.573z"/>
		<path fill-rule="evenodd" clip-rule="evenodd" d="M451.632,266.544c-1.284,1.918-2.398,3.836-3.762,5.555
			c-1.846,2.324-3.877,4.502-5.84,6.732c-0.903,1.027-1.164,1.051-2.72,0.311c0.538-1.528,1.304-2.955,2.376-4.173
			c0.848-0.963,1.428-1.938,1.828-3.212c0.391-1.236,1.479-2.308,2.42-3.299c0.816-0.86,1.83-1.544,2.806-2.236
			C449.581,265.626,450.475,265.533,451.632,266.544z"/>
		<path fill-rule="evenodd" clip-rule="evenodd" d="M285.7,193.711c0.334-0.64,0.552-1.227,0.91-1.706
			c1.584-2.116,3.123-4.276,4.851-6.271c1.098-1.267,2.476-2.298,3.772-3.381c0.321-0.268,0.803-0.381,1.23-0.469
			c0.682-0.141,1.217,0.195,1.126,0.881c-0.109,0.844-0.236,1.849-0.749,2.445c-2.129,2.482-4.402,4.841-6.635,7.236
			c-0.299,0.32-0.679,0.563-0.983,0.881C288.28,194.305,287.226,194.518,285.7,193.711z"/>
		<path fill-rule="evenodd" clip-rule="evenodd" d="M451.285,352.197c-0.232,0.24-0.538,0.794-0.793,0.772
			c-0.648-0.059-1.356-0.256-1.878-0.627c-0.343-0.244-0.482-0.873-0.574-1.355c-0.736-3.825-2.33-7.317-4.066-10.764
			c-0.48-0.952-0.942-1.937-1.227-2.958c-0.119-0.433,0.089-1.204,0.424-1.459c0.582-0.443,1.057-0.012,1.547,0.538
			c2.625,2.949,3.604,6.7,5.09,10.199c0.467,1.1,0.771,2.271,1.088,3.427C451.079,350.637,451.14,351.336,451.285,352.197z"/>
		<path fill-rule="evenodd" clip-rule="evenodd" d="M464.283,403.552c-0.032,0.632-0.399,0.916-0.996,0.872
			c-0.985-0.073-1.674-0.561-1.878-1.565c-0.367-1.795-0.832-3.58-1.023-5.395c-0.27-2.542-0.93-4.958-1.805-7.34
			c-0.217-0.588-0.451-1.209-0.465-1.819c-0.01-0.424,0.272-1.15,0.553-1.219c0.454-0.112,1.197,0.043,1.49,0.375
			c0.606,0.689,1.205,1.511,1.443,2.378c1.188,4.315,2.299,8.654,2.613,13.147C464.229,403.175,464.261,403.363,464.283,403.552z"/>
		<path fill-rule="evenodd" clip-rule="evenodd" d="M596.627,159.604c-1.801-0.142-3.04-0.997-4.101-1.91
			c-2.627-2.261-5.105-4.696-7.643-7.062c-0.186-0.172-0.408-0.316-0.557-0.516c-0.436-0.582-0.775-1.251-0.242-1.9
			c0.521-0.638,1.133-0.258,1.703,0.061c3.846,2.142,7.129,4.98,10.107,8.189C596.669,157.298,596.882,158.296,596.627,159.604z"/>
		<path fill-rule="evenodd" clip-rule="evenodd" d="M464.923,431.13c-1.107-1.876-1.471-3.765-1.654-5.741
			c-0.309-3.343-0.738-6.673-1.113-10.009c-0.035-0.314-0.074-0.635-0.045-0.947c0.066-0.701,0.122-1.436,1.05-1.564
			c0.825-0.115,1.632,0.42,1.825,1.316c0.211,0.988,0.393,1.993,0.465,3c0.285,3.914,0.531,7.831,0.768,11.748
			C466.272,429.85,466.101,430.7,464.923,431.13z"/>
		<path fill-rule="evenodd" clip-rule="evenodd" d="M246.263,462.726c-0.041,0.961-0.506,1.533-1.283,1.791
			c-0.656,0.217-1.328-0.307-1.547-1.311c-0.823-3.809-1.603-7.629-2.373-11.449c-0.171-0.848-0.049-1.59,0.818-2.121
			c1.365-0.837,2.514-0.383,2.712,1.199c0.236,1.879,0.379,3.769,0.632,5.645c0.236,1.748,0.562,3.484,0.852,5.227
			C246.136,462.077,246.211,462.448,246.263,462.726z"/>
		<path fill-rule="evenodd" clip-rule="evenodd" d="M325.615,390.001c0.44-0.469,0.846-1.031,1.372-1.441
			c2.466-1.924,4.951-3.822,7.459-5.69c0.999-0.746,2.094-1.362,3.105-2.093c0.566-0.408,1.057-0.358,1.541,0.047
			c0.533,0.444,0.27,0.969-0.048,1.341c-1.015,1.193-1.995,2.372-2.651,3.84c-0.276,0.623-1.048,1.088-1.686,1.474
			c-1.934,1.171-3.921,2.258-5.873,3.398C327.403,391.712,326.864,391.6,325.615,390.001z"/>
		<path fill-rule="evenodd" clip-rule="evenodd" d="M508.96,392.003c-0.537-4.174-1.131-8.232-0.992-12.361
			c0.046-1.389-0.019-2.779-0.021-4.17c-0.001-0.689-0.135-1.487,0.861-1.622c0.743-0.1,1.289,0.622,1.31,1.714
			c0.011,0.633-0.01,1.272-0.078,1.902c-0.085,0.789,0.082,1.436,0.542,2.128c0.389,0.583,0.541,1.385,0.605,2.107
			c0.161,1.756,0.256,3.522,0.289,5.287c0.023,1.264-0.016,2.54-0.177,3.792C511.155,391.878,510.69,392.081,508.96,392.003z"/>
		<path fill-rule="evenodd" clip-rule="evenodd" d="M365.873,358.598c0.042-0.298-0.022-0.683,0.141-0.88
			c0.925-1.121,1.734-2.445,2.897-3.239c3.049-2.082,5.725-4.571,8.402-7.073c1.043-0.974,1.486-0.985,2.25-0.27
			c0.58,0.544,0.654,1.106,0.072,1.628c-2.438,2.187-4.391,4.882-7.158,6.726c-1.412,0.939-2.748,1.996-4.091,3.036
			C367.577,359.153,366.796,359.153,365.873,358.598z"/>
		<path fill-rule="evenodd" clip-rule="evenodd" d="M531.78,303.417c-1.131-0.114-1.525-1.159-0.941-2.139
			c0.74-1.242,1.565-2.436,2.388-3.628c1.208-1.754,2.376-3.544,3.696-5.212c0.93-1.174,2.059-2.197,3.162-3.221
			c0.205-0.189,0.812-0.207,1.046-0.042c0.306,0.216,0.649,0.751,0.578,1.053c-0.185,0.776-0.47,1.585-0.928,2.229
			c-1.389,1.946-2.885,3.816-4.325,5.727c-1.058,1.401-2.047,2.857-3.164,4.209C532.88,302.891,532.184,303.153,531.78,303.417z"/>
		<path fill-rule="evenodd" clip-rule="evenodd" d="M386.145,339.071c0.159-0.362,0.263-0.785,0.501-1.113
			c1.93-2.648,4.334-4.855,6.707-7.088c0.959-0.902,1.901-1.844,2.975-2.589c0.636-0.44,1.501-0.67,2.287-0.743
			c0.826-0.076,1.096,0.507,0.713,1.266c-0.142,0.279-0.316,0.56-0.533,0.783c-1.616,1.666-2.939,3.589-4.924,4.938
			c-1.391,0.945-2.496,2.309-3.725,3.49c-0.363,0.35-0.684,0.749-1.069,1.072C387.927,340.055,387.804,340.047,386.145,339.071z"/>
		<path fill-rule="evenodd" clip-rule="evenodd" d="M516.697,116.55c3.828,0.743,7.544,1.465,11.261,2.188
			c0.062,0.013,0.125,0.025,0.183,0.052c0.833,0.364,1.964,0.412,2.009,1.673c0.023,0.627-1.279,1.487-2.365,1.59
			c-0.433,0.042-0.891,0-1.312-0.103c-2.996-0.731-5.99-1.466-8.971-2.255c-0.719-0.19-1.453-0.491-2.045-0.926
			c-0.389-0.285-0.815-0.987-0.709-1.349c0.111-0.374,0.834-0.591,1.317-0.817C516.273,116.506,516.555,116.56,516.697,116.55z"/>
		<path fill-rule="evenodd" clip-rule="evenodd" d="M512.954,346.651c-0.168-0.789-0.414-1.367-0.393-1.938
			c0.098-2.714,0.311-5.405,1.301-7.994c0.717-1.874,1.248-3.818,1.85-5.736c0.218-0.695,0.446-1.365,1.37-1.263
			c0.794,0.087,1.306,0.785,1.206,1.854c-0.081,0.872-0.281,1.75-0.56,2.581c-0.679,2.029-1.532,3.984-1.636,6.19
			c-0.057,1.241-0.545,2.461-0.817,3.694C515.028,345.159,514.382,345.938,512.954,346.651z"/>
		<path fill-rule="evenodd" clip-rule="evenodd" d="M352.269,251.424c-1.186,0.919-2.268,1.077-3.544,0.819
			c-1.103-0.221-2.271-0.09-3.409-0.148c-2.271-0.117-4.542-0.266-6.814-0.383c-0.566-0.03-1.138,0.041-1.701,0.005
			c-0.56-0.035-1.18-0.021-1.648-0.266c-0.358-0.188-0.804-0.852-0.706-1.12c0.156-0.43,0.729-1.006,1.127-1.007
			c4.599-0.009,9.198,0.071,13.799,0.146c0.972,0.016,1.913,0.213,2.56,1.03C352.11,250.727,352.145,251.068,352.269,251.424z"/>
		<path fill-rule="evenodd" clip-rule="evenodd" d="M491.4,115.832c2.725-2.712,10.462-2.817,16.31-0.276
			c0.206,1.082-0.562,1.291-1.338,1.332c-3.912,0.211-7.826,0.402-11.74,0.545C493.366,117.479,492.042,117.458,491.4,115.832z"/>
		<path fill-rule="evenodd" clip-rule="evenodd" d="M627.954,195.026c-0.273-0.23-0.537-0.354-0.645-0.561
			c-1.137-2.159-2.975-3.731-4.547-5.527c-1.535-1.758-3.02-3.561-4.496-5.369c-0.354-0.434-0.71-0.938-0.831-1.466
			c-0.097-0.418,0.039-1.028,0.312-1.343c0.166-0.19,0.884-0.12,1.194,0.081c0.735,0.475,1.461,1.021,2.036,1.675
			c1.606,1.828,3.087,3.77,4.714,5.582c1.229,1.373,2.403,2.762,3.115,4.48C629.306,193.787,629.255,193.916,627.954,195.026z"/>
		<path fill-rule="evenodd" clip-rule="evenodd" d="M454.356,259.396c-0.523-2.887,0.662-5.014,2.048-7.093
			c1.255-1.881,2.522-3.759,3.673-5.703c0.4-0.678,0.498-1.545,0.675-2.339c0.156-0.701,0.47-1.197,1.249-1.161
			c0.822,0.036,0.988,0.608,1.021,1.317c0.057,1.221-0.186,2.283-0.831,3.391c-1.712,2.936-3.241,5.979-4.841,8.979
			c-0.09,0.167-0.238,0.338-0.244,0.511C457.066,259.075,455.735,259.112,454.356,259.396z"/>
		<path fill-rule="evenodd" clip-rule="evenodd" d="M519.418,322.049c0.169-0.552,0.271-1.2,0.556-1.755
			c1.924-3.766,3.558-7.696,6.247-11.031c0.679-0.841,1.096-1,1.698-0.508c0.65,0.53,0.403,1.076,0.087,1.682
			c-0.907,1.732-1.775,3.485-2.649,5.235c-0.732,1.461-1.477,2.918-2.159,4.402c-0.233,0.506-0.298,1.089-0.439,1.638
			c-0.124,0.48-0.16,1.006-0.387,1.432c-0.491,0.926-1.427,1.439-1.96,1.075C519.704,323.735,519.317,323.019,519.418,322.049z"/>
		<path fill-rule="evenodd" clip-rule="evenodd" d="M272.452,505.149c-0.933,0.098-1.875,0.198-3.012,0.316
			c-1.763-1.833-3.701-3.804-5.58-5.826c-0.9-0.968-1.638-2.088-2.55-3.041c-0.713-0.746-0.718-1.587-0.603-2.464
			c0.121-0.936,0.863-1.239,1.651-0.722c0.208,0.138,0.37,0.344,0.548,0.523c1.939,1.969,3.912,3.909,5.805,5.924
			c0.811,0.865,1.479,1.872,2.166,2.846C271.454,503.523,271.964,504.388,272.452,505.149z"/>
		<path fill-rule="evenodd" clip-rule="evenodd" d="M346.645,376.083c-0.726-0.075-1.115-0.74-0.401-1.623
			c0.99-1.223,2.082-2.392,3.285-3.403c2.359-1.987,4.812-3.867,7.262-5.746c0.375-0.287,0.935-0.325,1.399-0.505
			c0.588-0.229,1.333-0.662,1.631,0.136c0.157,0.42-0.206,1.243-0.593,1.618c-1.488,1.449-3.068,2.808-4.641,4.171
			c-1.668,1.445-3.375,2.845-5.041,4.293C348.812,375.663,348.085,376.251,346.645,376.083z"/>
		<path fill-rule="evenodd" clip-rule="evenodd" d="M477.616,197.536c-0.25,3.152-0.477,6.306-0.772,9.454
			c-0.049,0.521-0.292,1.121-0.649,1.485c-0.285,0.29-0.922,0.443-1.32,0.341c-0.268-0.068-0.542-0.688-0.551-1.068
			c-0.028-1.264,0.105-2.53,0.097-3.796c-0.02-2.649-0.09-5.299-0.145-7.949c-0.005-0.252-0.055-0.503-0.071-0.756
			c-0.098-1.365,0.186-2.057,0.912-2.238c0.627-0.157,2.177,0.734,2.383,1.541c0.248,0.967,0.288,1.983,0.42,2.979
			C477.815,197.53,477.716,197.532,477.616,197.536z"/>
		<path fill-rule="evenodd" clip-rule="evenodd" d="M249.175,472.946c1.021,1.398,2.146,2.735,3.043,4.209
			c1.6,2.629,3.013,5.369,4.607,8c0.602,0.992,0.236,1.839-0.056,2.693c-0.218,0.641-1.304,0.627-1.943-0.064
			c-0.55-0.596-0.995-1.307-1.396-2.018c-1.332-2.367-2.621-4.756-3.926-7.137c-0.122-0.221-0.344-0.456-0.329-0.672
			c0.057-0.865,0.329-1.737,0.249-2.582c-0.071-0.738-0.508-1.442-0.783-2.163C248.819,473.124,248.997,473.034,249.175,472.946z"/>
		<path fill-rule="evenodd" clip-rule="evenodd" d="M323.595,158.919c-0.42-0.277-1.028-0.465-1.149-0.818
			c-0.112-0.335,0.161-0.992,0.478-1.252c1.648-1.355,3.328-2.681,5.07-3.914c1.48-1.05,3.031-2.01,4.608-2.909
			c0.64-0.364,1.421-0.493,2.152-0.679c0.825-0.21,1.37,0.201,1.595,0.956c0.211,0.704-0.361,0.937-0.858,1.259
			c-1.898,1.233-3.759,2.525-5.641,3.785c-1.517,1.014-3.026,2.039-4.577,3C324.813,158.631,324.228,158.71,323.595,158.919z"/>
		<path fill-rule="evenodd" clip-rule="evenodd" d="M558.507,133.016c0.648-0.024,1.273-0.198,1.797-0.036
			c0.895,0.275,1.732,0.743,2.58,1.158c3.049,1.494,6.084,3.016,9.143,4.491c1.008,0.487,1.459,1.394,1.797,2.323
			c0.149,0.412-0.149,0.986-0.276,1.652c-2.093-1.086-3.933-2.014-5.747-2.988c-2.555-1.373-5.104-2.759-7.627-4.189
			C559.358,134.964,558.628,134.347,558.507,133.016z"/>
		<path fill-rule="evenodd" clip-rule="evenodd" d="M393.049,546.432c-0.569-0.016-1.138-0.021-1.706-0.05
			c-0.979-0.049-1.457-0.648-1.631-1.546c-0.16-0.833,0.181-1.361,1.025-1.493c0.621-0.097,1.266-0.246,1.877-0.178
			c2.989,0.336,5.896-0.32,8.832-0.643c0.561-0.062,1.213-0.231,1.673-0.022c0.491,0.224,0.979,0.778,1.152,1.295
			c0.214,0.634-0.124,1.239-0.873,1.438c-0.608,0.162-1.231,0.476-1.827,0.438c-2.104-0.135-4.055,0.61-6.082,0.887
			c-0.791,0.107-1.623-0.102-2.438-0.166C393.051,546.405,393.05,546.419,393.049,546.432z"/>
		<path fill-rule="evenodd" clip-rule="evenodd" d="M685.478,460.609c0.008-0.05,0.01-0.442,0.126-0.795
			c0.921-2.839,1.849-5.673,2.809-8.497c0.221-0.649,0.541-1.27,0.865-1.876c0.394-0.733,1.079-0.875,1.789-0.623
			c0.848,0.302,0.898,0.992,0.567,1.71c-0.652,1.413-0.842,2.867-0.621,4.41c0.056,0.389-0.105,0.892-0.336,1.225
			c-1.086,1.569-1.965,3.225-2.404,5.097c-0.026,0.122-0.09,0.235-0.141,0.352c-0.445,1.038-1.152,1.466-2.026,1.228
			C685.432,462.655,685.313,462.315,685.478,460.609z"/>
		<path fill-rule="evenodd" clip-rule="evenodd" d="M547.18,285.011c-1.12-0.115-1.583-0.739-1.292-1.505
			c0.198-0.519,0.504-1.034,0.881-1.444c1.408-1.533,2.865-3.023,4.309-4.526c0.695-0.725,1.348-1.507,2.122-2.137
			c0.718-0.586,1.53-1.111,2.383-1.467c0.94-0.393,1.884,0.353,1.667,1.327c-0.154,0.694-0.557,1.444-1.072,1.928
			c-2.617,2.454-5.301,4.836-7.983,7.22C547.844,284.719,547.375,284.897,547.18,285.011z"/>
		<path fill-rule="evenodd" clip-rule="evenodd" d="M306.021,174.409c-0.592-0.938-0.664-1.732,0.178-2.445
			c2.546-2.157,4.772-4.703,7.731-6.354c0.714-0.398,1.427-0.848,2.197-1.076c0.364-0.108,0.979,0.129,1.281,0.419
			c0.432,0.414,0.499,1.03-0.005,1.521c-0.403,0.393-0.842,0.748-1.271,1.115c-2.196,1.887-4.49,3.673-6.55,5.698
			C308.519,174.335,307.552,174.897,306.021,174.409z"/>
		<path fill-rule="evenodd" clip-rule="evenodd" d="M508.944,360.285c0.537-2.587,1.059-5.179,1.623-7.759
			c0.185-0.848,0.326-1.959,1.468-1.89c1.27,0.076,1.003,1.316,1.042,2.107c0.04,0.857-0.25,1.727-0.371,2.595
			c-0.391,2.809-0.759,5.621-1.167,8.426c-0.079,0.552-0.25,1.103-0.464,1.616c-0.309,0.739-0.931,1.017-1.702,0.868
			c-0.909-0.175-0.991-0.975-0.93-1.63c0.131-1.442,0.418-2.869,0.642-4.304C509.038,360.307,508.991,360.296,508.944,360.285z"/>
		<path fill-rule="evenodd" clip-rule="evenodd" d="M404.372,320.139c0.191-0.634,0.223-1.37,0.594-1.837
			c1.443-1.815,2.98-3.558,4.509-5.303c1.329-1.516,2.7-2.994,4.044-4.494c0.292-0.328,0.488-0.797,0.845-0.999
			c0.323-0.184,0.878-0.243,1.19-0.083c0.299,0.153,0.635,0.71,0.568,1c-0.162,0.711-0.4,1.499-0.867,2.027
			c-1.732,1.956-3.602,3.789-5.35,5.733c-0.754,0.839-1.374,1.806-1.988,2.758C406.938,320.458,406.603,320.612,404.372,320.139z"/>
		<path fill-rule="evenodd" clip-rule="evenodd" d="M642.459,215.244c-1.278-0.531-1.595-1.666-2.194-2.609
			c-1.42-2.237-2.979-4.387-4.396-6.625c-0.736-1.163-1.361-2.414-1.883-3.687c-0.169-0.41-0.026-1.205,0.283-1.499
			c0.529-0.501,1.029,0.019,1.396,0.481c1.209,1.521,2.656,2.832,3.469,4.696c0.566,1.303,1.67,2.362,2.363,3.625
			c0.655,1.198,1.142,2.5,1.598,3.793C643.376,214.216,643.288,214.246,642.459,215.244z"/>
		<path fill-rule="evenodd" clip-rule="evenodd" d="M355.614,140.794c-0.206,1.158-0.709,1.9-1.727,2.403
			c-2.088,1.034-4.067,2.301-6.197,3.234c-0.976,0.429-2.198,0.382-3.309,0.373c-0.386-0.003-1.035-0.508-1.082-0.848
			c-0.062-0.465,0.268-1.037,0.562-1.476c0.193-0.287,0.601-0.458,0.942-0.611c1.606-0.72,3.222-1.421,4.838-2.117
			c0.808-0.348,1.622-0.688,2.444-0.999C353.255,140.311,354.438,139.854,355.614,140.794z"/>
		<path fill-rule="evenodd" clip-rule="evenodd" d="M273.202,212.933c-0.133-1.428,0.051-2.568,0.777-3.717
			c1.078-1.705,1.87-3.588,2.94-5.299c0.584-0.933,1.418-1.75,2.272-2.456c0.504-0.416,1.408-0.714,1.873-0.021
			c0.263,0.394,0.162,1.249-0.092,1.729c-0.967,1.836-2.084,3.592-3.101,5.402c-0.368,0.656-0.686,1.357-0.899,2.076
			c-0.605,2.03-0.867,2.264-3.031,2.341C273.759,212.994,273.571,212.962,273.202,212.933z"/>
		<path fill-rule="evenodd" clip-rule="evenodd" d="M466,234.903c-0.002-0.35-0.085-0.735,0.008-1.071
			c0.487-1.748,0.94-3.512,1.559-5.216c0.835-2.3,1.78-4.562,2.741-6.814c0.262-0.613,0.694-1.184,1.16-1.67
			c0.201-0.212,0.756-0.312,1.012-0.184c0.252,0.124,0.477,0.611,0.455,0.921c-0.042,0.62-0.207,1.248-0.418,1.839
			c-0.445,1.244-0.941,2.472-1.443,3.694c-0.381,0.929-0.646,1.817-0.661,2.887c-0.019,1.055-0.733,2.099-1.155,3.142
			c-0.166,0.408-0.387,0.794-0.559,1.199C468.089,235.077,467.945,235.151,466,234.903z"/>
		<path fill-rule="evenodd" clip-rule="evenodd" d="M649.49,525.432c-0.44,0.747-0.761,1.512-1.274,2.116
			c-1.053,1.234-2.081,2.541-3.346,3.528c-1.873,1.461-3.923,2.702-5.947,3.955c-0.328,0.203-1.228,0.127-1.326-0.078
			c-0.203-0.423-0.242-1.157,0.006-1.516c0.57-0.815,1.311-1.529,2.059-2.198c2.508-2.241,5.563-3.811,7.817-6.381
			c0.254-0.289,0.888-0.369,1.323-0.326C649.032,524.556,649.216,525.054,649.49,525.432z"/>
		<path fill-rule="evenodd" clip-rule="evenodd" d="M652.019,519.845c0.5-0.906,0.871-1.921,1.525-2.7
			c1.971-2.344,4.072-4.575,6.07-6.896c0.641-0.745,1.105-1.638,1.674-2.447c0.398-0.566,0.928-0.896,1.615-0.505
			c0.662,0.38,0.463,1.004,0.24,1.513c-0.352,0.803-0.701,1.644-1.232,2.326c-2.078,2.668-4.216,5.289-6.36,7.903
			c-0.354,0.431-0.829,0.774-1.29,1.1C653.534,520.651,653.469,520.626,652.019,519.845z"/>
		<path fill-rule="evenodd" clip-rule="evenodd" d="M574.521,261.352c-0.454,0.537-0.682,0.91-1.002,1.17
			c-2.447,1.989-4.904,3.966-7.379,5.919c-0.689,0.547-1.42,1.057-2.186,1.486c-0.574,0.32-1.271,0.382-1.716-0.232
			c-0.437-0.603-0.208-1.192,0.284-1.701c2.816-2.918,5.893-5.501,9.531-7.351c0.375-0.192,0.883-0.41,1.23-0.302
			C573.716,260.476,574.044,260.94,574.521,261.352z"/>
		<path fill-rule="evenodd" clip-rule="evenodd" d="M603.48,163.843c0.303,0.213,0.82,0.47,1.2,0.86
			c1.977,2.021,3.92,4.071,5.868,6.12c0.769,0.81,1.536,1.624,2.267,2.47c0.514,0.596,0.611,1.217-0.056,1.824
			c-0.628,0.571-1.183,0.308-1.675-0.135c-1.029-0.922-2.062-1.847-3.011-2.847c-1.678-1.765-3.314-3.568-4.921-5.398
			c-0.404-0.458-0.729-1.043-0.909-1.626C602.04,164.455,602.633,163.806,603.48,163.843z"/>
		<path fill-rule="evenodd" clip-rule="evenodd" d="M538.713,123.26c1.1,0.317,1.964,0.521,2.796,0.814
			c2.43,0.86,4.848,1.755,7.268,2.645c0.297,0.108,0.602,0.224,0.857,0.401c0.678,0.469,0.748,1.174,0.506,1.862
			c-0.246,0.692-0.812,0.92-1.54,0.706c-1.03-0.303-2.094-0.514-3.091-0.896c-2.178-0.838-4.324-1.751-6.474-2.655
			c-0.345-0.146-0.719-0.347-0.937-0.632c-0.318-0.419-0.821-1.097-0.68-1.375C537.643,123.69,538.336,123.489,538.713,123.26z"/>
		<path fill-rule="evenodd" clip-rule="evenodd" d="M578.634,258.715c-0.457-0.311-1.126-0.533-1.176-0.853
			c-0.073-0.468,0.244-1.034,0.506-1.496c0.139-0.242,0.514-0.347,0.777-0.52c2.738-1.804,5.668-3.238,8.67-4.533
			c0.059-0.025,0.113-0.061,0.172-0.082c0.918-0.33,2.311-0.017,2.602,0.584c0.307,0.633-0.131,1.64-1.305,2.005
			c-2.714,0.845-4.902,2.569-7.314,3.929C580.712,258.229,579.673,258.385,578.634,258.715z"/>
		<path fill-rule="evenodd" clip-rule="evenodd" d="M677.207,481.759c0.206-0.787,0.292-1.472,0.559-2.073
			c1.173-2.648,2.388-5.277,3.611-7.901c0.37-0.792,0.791-1.564,1.241-2.314c0.312-0.519,0.777-0.828,1.438-0.606
			c0.713,0.239,0.684,0.774,0.619,1.383c-0.193,1.834-0.578,3.53-1.713,5.115c-1.048,1.467-1.666,3.239-2.488,4.87
			C679.651,481.857,679.263,482.06,677.207,481.759z"/>
		<path fill-rule="evenodd" clip-rule="evenodd" d="M666.64,501.157c0.107-0.749,0.035-1.343,0.275-1.757
			c1.705-2.931,3.474-5.827,5.223-8.734c0.357-0.593,0.646-1.25,1.104-1.749c0.283-0.309,0.86-0.562,1.252-0.502
			c0.583,0.092,0.676,0.649,0.52,1.215c-0.445,1.619-0.838,3.174-2.027,4.558c-1.464,1.701-2.496,3.77-3.76,5.649
			C668.587,500.788,668.544,500.758,666.64,501.157z"/>
		<path fill-rule="evenodd" clip-rule="evenodd" d="M690.818,441.777c-0.06-0.448-0.167-0.748-0.128-1.029
			c0.338-2.435,0.729-4.861,1.046-7.299c0.12-0.931,0.095-1.881,0.122-2.823c0.008-0.31-0.139-0.672-0.022-0.922
			c0.296-0.639,0.287-1.593,1.317-1.613c1.015-0.021,0.906,0.875,1.127,1.48c0.732,2.002,0.195,3.991-0.087,5.979
			c-0.133,0.934-0.378,1.859-0.417,2.794C693.685,440.585,693.414,440.97,690.818,441.777z"/>
		<path fill-rule="evenodd" clip-rule="evenodd" d="M647.229,232.34c-0.398-0.644-0.84-1.095-0.981-1.625
			c-0.717-2.678-1.369-5.372-2.011-8.067c-0.13-0.548-0.273-1.173-0.125-1.68c0.134-0.459,0.595-0.986,1.03-1.134
			c0.278-0.096,0.806,0.404,1.158,0.712c0.163,0.142,0.218,0.455,0.245,0.7c0.276,2.535,1.098,4.905,2.115,7.227
			C649.133,229.549,648.747,230.629,647.229,232.34z"/>
		<path fill-rule="evenodd" clip-rule="evenodd" d="M527.164,440.883c1.2,0.267,1.55,1.114,1.636,2.428
			c-1.273-0.533-1.349-1.553-1.582-2.474L527.164,440.883z"/>
		<path fill-rule="evenodd" clip-rule="evenodd" d="M340.171,375.864c-0.031-0.893-0.05-1.401-0.071-2.016
			C341.419,374.664,341.421,374.672,340.171,375.864z"/>
		<path fill-rule="evenodd" clip-rule="evenodd" d="M473.392,596.339c-0.708-0.773-1.332-1.352-1.826-2.025
			c-0.516-0.701-1-1.457-1.338-2.256c-1.055-2.488-1.145-5.165-1.344-7.806c-0.217-2.902-0.299-5.813-0.521-8.715
			c-0.115-1.514-0.523-3.01-0.589-4.523c-0.128-2.973-0.024-5.956-0.171-8.926c-0.2-4.044-0.558-8.079-0.82-12.12
			c-0.145-2.214-0.203-4.432-0.354-6.645c-0.285-4.231-0.613-8.46-0.921-12.69c-0.192-2.654-0.354-5.312-0.584-7.964
			c-0.158-1.824-0.419-3.641-0.618-5.463c-0.248-2.262-0.553-4.521-0.703-6.791c-0.203-3.095-0.314-6.196-0.403-9.297
			c-0.069-2.401-0.234-4.824-0.009-7.205c0.274-2.908,2.033-5.004,4.625-6.258c2.525-1.222,5.281-1.563,8.062-1.864
			c5.211-0.564,10.402-1.323,15.604-1.987c1.064-0.136,2.139-0.279,3.211-0.304c1.756-0.04,3.516,0.029,5.273,0.027
			c2.004-0.003,4.049,0.214,5.997-0.124c1.956-0.339,3.886-0.274,5.827-0.335c2.406-0.076,4.82,0.009,7.219-0.154
			c3.787-0.26,7.576-0.575,11.344-1.039c3.844-0.474,7.674-0.74,11.54-0.373c0.941,0.09,1.919,0.122,2.848-0.02
			c4.093-0.628,8.218-0.375,12.325-0.488c3.021-0.082,6.051,0.266,9.08,0.339c1.773,0.043,3.549-0.072,5.324-0.129
			c5.378-0.169,10.766-0.186,16.128-0.564c4.515-0.321,9.048,0.417,13.528-0.346c1.589-0.271,3.036-0.027,4.571,0.297
			c1.729,0.366,2.88,1.514,4.19,2.478c0.1,0.073,0.209,0.177,0.244,0.287c0.774,2.466,2.814,4.319,3.206,7.017
			c0.232,1.59,1.029,3.098,1.565,4.646c0.145,0.416,0.357,0.837,0.38,1.263c0.147,2.842,0.237,5.688,0.376,8.531
			c0.14,2.906,0.222,5.819,0.492,8.715c0.464,4.927,0.387,9.85,0.201,14.785c-0.088,2.335,0.111,4.681,0.186,7.021
			c0.008,0.253,0.09,0.508,0.071,0.756c-0.383,4.959,0.87,9.831,0.733,14.797c-0.079,2.949,0.56,5.916,0.874,8.874
			c0.394,3.71,0.646,7.442,1.216,11.124c0.555,3.584,0.658,7.172,0.699,10.776c0.029,2.519,0.097,5.038,0.089,7.556
			c-0.003,1.355-0.271,2.738-1.171,3.75c-1.429,1.604-3.273,2.475-5.5,2.458c-2.646-0.019-5.297-0.004-7.942,0.071
			c-2.72,0.078-5.434,0.259-8.15,0.372c-3.581,0.148-7.171,0.168-10.741,0.433c-5.164,0.383-10.348,0.717-15.457,1.498
			c-3.078,0.471-6.1,0.361-9.15,0.354c-4.695-0.013-9.39-0.092-14.083-0.092c-1.263,0-2.524,0.225-3.788,0.274
			c-0.547,0.021-1.374,0.06-1.605-0.254c-0.93-1.259-2.24-1.044-3.45-1.067c-2.964-0.059-5.93-0.012-8.896-0.008
			c-0.38,0.001-0.781,0.076-1.137-0.018c-2.231-0.593-4.484-0.35-6.739-0.277c-1.07,0.034-2.15-0.205-3.221-0.175
			c-2.522,0.074-5.044,0.226-7.563,0.364c-2.51,0.139-5.018,0.372-7.529,0.432c-3.162,0.077-6.334,0.163-9.486-0.018
			c-3.547-0.202-7.039,0.193-10.555,0.442c-1.412,0.1-2.855-0.181-4.279-0.34c-1.064-0.117-2.117-0.364-3.182-0.47
			c-0.898-0.087-1.885,0.314-2.586-0.653C473.919,596.169,473.43,596.334,473.392,596.339z M615.175,572.358
			c0.123-0.08,0.248-0.158,0.373-0.238c0.055-0.889,0.119-1.777,0.158-2.668c0.021-0.505-0.015-1.016,0.001-1.521
			c0.112-3.492,0.044-6.974-0.483-10.439c-0.236-1.557-0.405-3.129-0.501-4.699c-0.243-3.975-0.237-7.949-0.672-11.93
			c-0.593-5.417-0.594-10.89-0.224-16.353c0.148-2.2,0.016-4.427-0.098-6.636c-0.238-4.615-0.561-9.226-0.822-13.84
			c-0.131-2.33-0.189-4.665-0.32-6.995c-0.027-0.498-0.168-1.009-0.352-1.477c-1.303-3.294-2.559-6.607-3.975-9.852
			c-0.863-1.976-2.536-2.936-4.728-2.909c-2.392,0.028-4.783,0.076-7.176,0.067c-1.706-0.005-3.412-0.147-5.118-0.126
			c-3.855,0.05-7.711,0.146-11.565,0.256c-2.021,0.059-4.041,0.166-6.06,0.291c-1.705,0.107-3.406,0.386-5.107,0.38
			c-1.891-0.005-3.779-0.319-5.672-0.371c-2.979-0.081-5.961-0.114-8.939-0.056c-3.287,0.065-6.573,0.301-9.862,0.383
			c-3.673,0.091-7.394-0.262-11.009,0.221c-4.512,0.604-9.062,0.517-13.571,1.3c-3.583,0.621-7.319,0.351-10.987,0.512
			c-2.791,0.12-5.523,0.575-8.25,1.243s-5.536,1.044-8.328,1.4c-1.801,0.231-3.637,0.207-5.457,0.275
			c-1.129,0.043-2.262,0.083-3.392,0.055c-1.006-0.026-2.011-0.22-3.016-0.212c-2.347,0.019-4.698,0.247-7.036,0.143
			c-2.441-0.109-4.193,1.063-5.91,2.524c-1.094,0.932-1.682,2.059-1.645,3.479c0.047,1.771,0.17,3.541,0.227,5.312
			c0.17,5.192,0.107,10.396,0.916,15.557c0.235,1.496,0.166,3.039,0.32,4.552c0.256,2.517,0.629,5.023,0.858,7.542
			c0.184,2.016,0.188,4.047,0.336,6.067c0.449,6.189,0.921,12.377,1.401,18.563c0.098,1.26,0.363,2.515,0.383,3.773
			c0.061,3.74,0.037,7.479,0.051,11.221c0.001,0.38-0.005,0.766,0.06,1.138c0.798,4.557,1.385,9.13,1.509,13.768
			c0.055,2.018,0.426,4.035,0.77,6.033c0.417,2.435,1.537,3.344,3.957,3.861c1.533,0.327,3,0.962,4.494,1.468
			c0.357,0.121,0.689,0.346,1.053,0.41c1.609,0.287,3.225,0.549,4.842,0.783c0.623,0.092,1.26,0.117,1.891,0.121
			c2.397,0.011,4.796,0.021,7.193-0.007c4.688-0.056,9.375-0.104,14.062-0.229c1.761-0.047,3.514-0.39,5.275-0.44
			c2.648-0.077,5.305-0.007,7.955-0.017c2.088-0.007,4.179-0.117,6.263-0.046c4.616,0.158,9.231,0.359,13.843,0.622
			c3.343,0.191,6.676,0.568,10.02,0.757c3.406,0.191,6.834,0.477,10.232,0.318c4.28-0.201,8.541-0.824,12.812-1.239
			c2.38-0.232,4.764-0.453,7.148-0.608c2.397-0.156,4.799-0.229,7.197-0.335c2.326-0.102,4.651-0.195,6.976-0.305
			c0.44-0.021,0.881-0.088,1.319-0.155c1.871-0.288,3.746-0.846,5.61-0.815c2.433,0.041,4.598-0.456,6.737-1.572
			c1.981-1.033,3.387-2.611,4.741-4.285c0.15-0.186,0.243-0.444,0.287-0.683c0.564-3.11,1.23-6.188,0.568-9.407
			C616.446,574.856,616.477,573.391,615.175,572.358z"/>
		<path fill-rule="evenodd" clip-rule="evenodd" d="M453.108,547.735c-2.138,0.316-3.195-1.396-4.32-2.874
			c-1.105-1.451-0.875-3.087-0.271-4.692c0.111-0.296,0.291-0.572,0.364-0.875c0.664-2.756,2.907-3.838,5.209-4.704
			c1.426-0.537,2.797,0.083,3.681,1.304c1.437,1.987,2.356,4.139,1.895,6.722C459.012,546.267,456.958,547.973,453.108,547.735z
			 M456.356,542.684c-0.307-1.546-0.47-2.996-0.9-4.36c-0.432-1.363-1.412-1.604-2.468-0.698c-1.118,0.961-1.909,2.168-2.278,3.629
			c-0.412,1.638,0.746,2.195,1.859,2.841c1.08,0.627,2.016,0.74,2.77,0.059C455.774,543.761,456.03,543.17,456.356,542.684z"/>
		<path fill-rule="evenodd" clip-rule="evenodd" d="M287.907,283.412c-0.094,2.765-0.261,5.235-0.234,7.704
			c0.017,1.505,0.345,3.005,0.508,4.51c0.258,2.384,0.514,4.767,0.736,7.153c0.105,1.132,0.046,2.282,0.211,3.403
			c0.34,2.31,0.851,4.598,1.161,6.912c0.353,2.633,0.556,5.286,0.837,7.93c0.309,2.896,0.642,5.791,0.943,8.688
			c0.604,5.791,1.203,11.582,1.787,17.374c0.361,3.59,0.711,7.181,1.032,10.772c0.078,0.88-0.004,1.773,0.048,2.657
			c0.302,5.183,0.564,10.366,0.952,15.542c0.52,6.947,0.885,13.9,0.886,20.868c0,2.707-0.372,5.321-2.104,7.54
			c-1.449,1.855-3.315,3.043-5.647,3.515c-3.92,0.793-7.91,0.833-11.87,1.192c-0.44,0.039-0.919,0.077-1.327-0.051
			c-2.375-0.739-4.783-0.33-7.184-0.302c-3.482,0.04-6.967,0.039-10.45,0.048c-2.027,0.005-4.067,0.139-6.079-0.04
			c-3.34-0.296-6.654-0.896-9.996-1.188c-4.805-0.422-9.611-0.252-14.423,0.137c-2.248,0.181-4.536,0.057-6.793-0.112
			c-1.819-0.136-3.603-0.623-5.44-0.035c-0.578,0.186-1.262,0.024-1.893,0.068c-1.32,0.089-2.664,0.085-3.955,0.341
			c-3.796,0.754-6.828-0.725-8.826-3.997c-1.732-2.84-1.816-5.999-2.272-9.089c-0.388-2.619-0.529-5.274-0.772-7.914
			c-0.168-1.816-0.434-3.634-0.006-5.452c0.057-0.243,0.098-0.511,0.061-0.754c-0.512-3.343-0.108-6.705-0.236-10.053
			c-0.16-4.168-0.525-8.327-0.752-12.493c-0.104-1.898-0.082-3.803-0.137-5.704c-0.041-1.517-0.135-3.032-0.166-4.55
			c-0.046-2.215-0.006-4.433-0.09-6.646c-0.128-3.349-0.199-6.709-0.541-10.038c-0.328-3.192-1.002-6.348-1.461-9.529
			c-0.236-1.627-0.32-3.276-0.509-4.911c-0.157-1.374-0.364-2.742-0.549-4.114c-0.311-2.306-0.675-4.606-0.915-6.92
			c-0.321-3.08-0.376-6.195-0.852-9.246c-0.823-5.285-0.665-10.573-0.628-15.883c0.024-3.461-0.487-6.924-0.744-10.387
			c-0.229-3.091-0.442-6.184-0.655-9.276c-0.162-2.383-0.357-4.765-0.451-7.15c-0.059-1.567,0.03-3.14,0.07-4.711
			c0.12-4.687,0.223-9.372,0.386-14.056c0.063-1.851,0.97-3.398,2.122-4.781c0.834-1.004,2.062-1.19,3.275-1.271
			c2.085-0.139,4.173-0.229,6.26-0.331c1.195-0.059,2.367-0.049,3.518-0.611c0.479-0.235,1.583-0.051,1.861,0.335
			c0.59,0.818,1.277,0.666,2.006,0.661c3.792-0.029,7.583-0.085,11.373-0.091c2.785-0.005,5.568,0.005,8.35,0.093
			c1.771,0.056,3.535,0.297,5.307,0.393c2.643,0.141,5.293,0.386,7.932,0.299c4.111-0.137,8.212-0.681,12.322-0.74
			c3.986-0.057,7.979,0.27,11.965,0.451c1.014,0.046,2.021,0.238,3.034,0.265c2.591,0.068,4.915,1.026,7.226,2.055
			c2.078,0.924,3.379,2.729,4.406,4.548c1.482,2.621,2.796,5.355,3.695,8.291c1.049,3.422,1.602,6.866,1.623,10.432
			c0.007,1.131,0.209,2.269,0.411,3.388c1.275,7.067,1.8,14.187,1.565,21.365C287.776,281.175,287.88,282.439,287.907,283.412z
			 M248.415,405.493c-0.007,0.139-0.014,0.279-0.02,0.417c2.973,0.114,5.945,0.312,8.919,0.32c4.368,0.014,8.737-0.137,13.106-0.159
			c2.596-0.014,5.201,0.241,7.787,0.096c3.154-0.179,6.308-0.545,9.432-1.023c3.609-0.553,5.913-3.121,6.039-6.118
			c0.168-3.986,0.182-7.985,0.086-11.974c-0.064-2.585-0.499-5.158-0.662-7.744c-0.203-3.216-0.232-6.443-0.449-9.658
			c-0.4-5.997-0.852-11.993-1.341-17.984c-0.37-4.535-0.8-9.067-1.261-13.595c-0.463-4.533-0.955-9.064-1.514-13.587
			c-0.566-4.584-1.229-9.155-1.855-13.732c-0.221-1.629-0.548-3.248-0.67-4.883c-0.23-3.094-0.033-6.253-0.584-9.28
			c-0.727-3.981-0.524-7.935-0.59-11.916c-0.082-5.054,0.491-10.123-0.326-15.161c-0.08-0.494,0.023-1.013-0.011-1.517
			c-0.118-1.763-0.068-3.567-0.438-5.278c-0.671-3.107-1.068-6.227-1.248-9.396c-0.098-1.693-0.388-3.4-0.808-5.046
			c-0.882-3.448-2.277-6.671-4.064-9.786c-1.378-2.401-3.145-3.984-5.701-4.887c-2.407-0.851-4.858-1.268-7.402-1.524
			c-5.634-0.566-11.231-0.737-16.854,0.065c-1.869,0.267-3.783,0.398-5.668,0.326c-4.493-0.172-8.977-0.562-13.469-0.752
			c-4.055-0.174-8.113-0.21-12.171-0.283c-0.759-0.013-1.518,0.103-2.276,0.131c-3.029,0.118-6.059,0.323-9.086,0.311
			c-3.883-0.018-7.726,0.164-11.441,1.389c-0.468,0.154-1.085,0.592-1.182,1.004c-0.414,1.782-0.814,3.593-0.928,5.411
			c-0.154,2.392-0.042,4.801-0.024,7.202c0.003,0.437-0.062,1.004,0.175,1.284c0.759,0.907,0.77,1.984,0.929,3.042
			c0.208,1.378,0.259,2.809,0.679,4.119c0.654,2.043,0.418,4.073-0.01,6.018c-0.967,4.373-0.424,8.703-0.042,13.052
			c0.076,0.868,0.444,1.725,0.431,2.583c-0.057,3.608-0.254,7.215-0.303,10.823c-0.021,1.572,0.182,3.15,0.301,4.724
			c0.085,1.133,0.219,2.262,0.295,3.395c0.138,2.015,0.146,4.044,0.393,6.043c0.52,4.203,1.177,8.389,1.744,12.585
			c0.688,5.081,1.39,10.16,1.994,15.251c0.358,3.015,0.632,6.045,0.781,9.077c0.25,5.062,0.349,10.13,0.555,15.193
			c0.093,2.276,0.366,4.548,0.426,6.826c0.146,5.638,0.197,11.276,0.334,16.914c0.027,1.063,0.178,2.148,0.444,3.178
			c0.598,2.306,0.667,4.595,0.363,6.958c-0.207,1.613-0.134,3.281-0.011,4.911c0.146,1.95,0.604,3.882,0.684,5.832
			c0.049,1.204,0.342,2.253,0.975,3.197c1.434,2.139,3.11,3.63,6.072,3.275c3.766-0.45,7.576-0.683,11.381-0.122
			c0.615,0.091,1.264-0.03,1.896-0.054c3.548-0.133,7.1-0.448,10.643-0.356C238.054,404.763,243.232,405.19,248.415,405.493z"/>
		<path fill-rule="evenodd" clip-rule="evenodd" d="M248.845,431.162c-3.323,0.3-6.393-2.539-7.467-5.403
			c-0.234-0.626-0.381-1.402-0.232-2.031c0.449-1.908,1.1-3.707,2.748-5.039c1.924-1.556,4.166-2.327,6.455-3.045
			c0.209-0.066,0.49,0.014,0.712,0.094c1.187,0.428,2.431,0.759,3.533,1.35c1.845,0.986,2.97,2.692,3.155,4.705
			c0.152,1.654,0.034,3.47-0.514,5.02c-1.035,2.927-3.577,4.102-6.5,4.482C250.12,431.374,249.476,431.212,248.845,431.162z
			 M254.976,422.072c-0.759-0.194-1.416-0.194-1.818-0.515c-0.388-0.307-0.473-0.969-0.759-1.434
			c-0.417-0.676-1.016-1.043-1.856-1.134c-2.109-0.229-3.836,0.466-5.293,1.958c-0.848,0.869-1.309,2.983-0.781,4.041
			c1.752,3.515,5.84,4.709,9.332,2.637c0.993-0.59,1.532-1.545,1.523-2.688C255.313,424.009,255.106,423.083,254.976,422.072z"/>
		<path fill-rule="evenodd" clip-rule="evenodd" d="M636.918,248.042c5.083,0.631,9.679,0.727,14.307,0.222
			c2.509-0.273,5.06-0.229,7.592-0.223c4.056,0.011,8.108,0.12,12.163,0.168c5.196,0.061,10.394,0.06,15.588,0.173
			c1.705,0.039,3.424,0.253,5.102,0.568c3.246,0.611,6.443,0.086,9.656-0.199c0.378-0.033,0.75-0.157,1.127-0.169
			c6.839-0.229,13.67-0.917,20.519-0.544c4.556,0.249,9.099,0.701,13.653,1.019c3.035,0.211,6.08,0.324,9.117,0.521
			c5.698,0.37,11.399,0.71,17.088,1.194c1.617,0.138,3.26,0.562,4.776,1.148c2.263,0.874,3.409,2.945,4.559,4.93
			c0.507,0.873,0.992,1.77,1.379,2.7c0.649,1.572,0.977,3.184,1.125,4.928c0.278,3.309,0.192,6.667,1.501,9.893
			c1.166,2.874,1.24,6.039,1.158,9.145c-0.08,3.061,0.463,6.047,0.992,9.038c0.625,3.547,1.27,7.091,1.83,10.648
			c0.553,3.501,1.111,7.006,1.482,10.529c0.387,3.646,0.654,7.311,0.779,10.975c0.142,4.117,0.281,8.256,0.022,12.36
			c-0.249,3.951,0.765,7.845,0.32,11.75c-0.399,3.511-1.675,6.751-4.591,9.019c-0.821,0.641-1.875,1.034-2.878,1.379
			c-1.373,0.472-2.79,0.82-4.205,1.154c-0.47,0.111-0.988,0.026-1.483,0.015c-1.387-0.035-2.773-0.106-4.16-0.112
			c-1.644-0.009-3.289,0.004-4.932,0.066c-1.258,0.047-2.512,0.263-3.769,0.268c-5.304,0.023-10.608-0.006-15.913-0.013
			c-0.314,0-0.633,0.014-0.945,0.05c-2.247,0.251-4.537,0.898-6.729,0.658c-2.249-0.246-4.306,0.596-6.484,0.428
			c-2.194-0.169-4.398-0.212-6.598-0.307c-0.379-0.017-0.791-0.114-1.134-0.004c-2.281,0.729-4.475,0.106-6.716-0.277
			c-1.991-0.342-4.027-0.431-6.046-0.603c-2.448-0.208-4.898-0.513-7.351-0.546c-3.922-0.054-7.846,0.083-11.769,0.137
			c-0.442,0.006-0.884,0.003-1.326-0.02c-1.14-0.059-2.28-0.206-3.418-0.186c-4.554,0.078-9.106,0.235-13.659,0.305
			c-2.15,0.032-4.307-0.146-6.455-0.093c-2.465,0.062-4.922,0.29-7.385,0.41c-0.881,0.044-1.766-0.026-2.65-0.026
			c-0.822,0-1.652-0.044-2.465,0.051c-2.758,0.324-5.52,0.642-8.261,1.078c-1.677,0.267-3.3,0.883-4.979,1.099
			c-2.309,0.296-4.667,0.53-6.828-0.752c-0.103-0.062-0.245-0.068-0.37-0.079c-1.96-0.161-3.926-0.301-5.354-1.933
			c-1.874-0.202-2.909-1.7-4.202-2.772c-2.791-2.311-3.904-5.456-4.323-8.943c-0.165-1.381-0.522-2.738-0.724-4.115
			c-0.422-2.879-0.954-5.752-1.15-8.648c-0.236-3.469-0.139-6.96-0.242-10.439c-0.087-2.846,0.093-5.759-0.464-8.517
			c-1.296-6.415-0.806-12.878-1.021-19.321c-0.166-5.006-0.169-10.018-0.357-15.021c-0.152-4.046-0.523-8.084-0.701-12.129
			c-0.145-3.286-0.248-6.582-0.178-9.868c0.053-2.441,1.248-4.603,2.084-6.857c1.079-2.904,3.205-4.102,6.068-4.362
			c2.33-0.211,4.666-0.354,7-0.529c0.314-0.023,0.644-0.01,0.941-0.096C630.202,247.326,633.802,247.736,636.918,248.042z
			 M631.738,358.216c0.001,0.086,0.003,0.17,0.005,0.255c3.1-0.074,6.198-0.166,9.297-0.215c5.379-0.083,10.76-0.126,16.139-0.214
			c1.773-0.029,3.545-0.193,5.318-0.207c4.498-0.034,8.998,0.011,13.498-0.037c1.77-0.02,3.538-0.178,5.305-0.312
			c3.011-0.225,6.019-0.486,9.028-0.716c0.312-0.025,0.63,0.062,0.945,0.087c3.157,0.257,6.31,0.604,9.472,0.741
			c3.104,0.134,6.215,0.096,9.323,0.055c2.212-0.029,4.422-0.271,6.634-0.267c1.771,0.003,3.548,0.196,5.314,0.37
			c5.566,0.544,11.143,0.396,16.717,0.268c5.512-0.127,11.02-0.383,16.531-0.508c3.609-0.081,7.223-0.028,10.834-0.038
			c1.867-0.006,3.742,0.075,5.602-0.053c3.09-0.212,5.729-1.097,7.012-4.408c1.374-3.544,1.569-7.146,1.214-10.845
			c-0.056-0.566-0.171-1.133-0.163-1.698c0.058-4.118,0.102-8.238,0.223-12.355c0.138-4.702-0.304-9.369-0.834-14.024
			c-0.394-3.451-0.984-6.879-1.529-10.312c-0.515-3.249-1.02-6.502-1.648-9.729c-0.873-4.497-1.336-9.02-1.395-13.602
			c-0.019-1.431-0.247-2.935-0.748-4.268c-1.242-3.313-1.72-6.763-1.867-10.229c-0.119-2.842-0.615-5.5-1.857-8.052
			c-1.607-3.295-4.055-5.168-7.852-5.285c-3.221-0.1-6.436-0.447-9.648-0.731c-1.451-0.128-2.887-0.446-4.338-0.541
			c-8.982-0.587-17.965-1.17-26.951-1.681c-6.402-0.365-12.775,0.512-19.17,0.592c-0.125,0.002-0.25,0.046-0.377,0.055
			c-2.844,0.186-5.699,0.629-8.526,0.492c-3.981-0.193-7.929-0.796-11.946-0.684c-4.178,0.117-8.365-0.114-12.549-0.16
			c-4.306-0.047-8.612-0.074-12.918-0.064c-1.325,0.002-2.648,0.172-3.974,0.237c-2.019,0.1-4.044,0.299-6.058,0.23
			c-2.775-0.095-5.541-0.407-8.312-0.608c-0.373-0.028-0.757,0.023-1.132,0.072c-2.882,0.377-5.755,0.767-8.678,0.781
			c-2.718,0.013-5.44,0.226-8.15,0.455c-2.515,0.215-4.312,1.396-5.271,3.901c-1.203,3.139-1.762,6.336-1.51,9.67
			c0.279,3.663,0.701,7.318,0.901,10.985c0.239,4.362,0.331,8.734,0.444,13.104c0.038,1.456-0.111,2.918-0.065,4.374
			c0.081,2.532,0.279,5.061,0.372,7.593c0.162,4.426-0.008,8.854,0.72,13.265c0.397,2.422,0.315,4.923,0.434,7.389
			c0.138,2.841,0.468,5.691,0.335,8.521c-0.189,3.967,0.552,7.826,0.953,11.723c0.237,2.318,0.732,4.619,1.229,6.902
			c0.404,1.854,0.908,3.7,2.393,5.07c0.883,0.814,1.642,1.813,2.637,2.447c1.201,0.768,2.545,1.445,3.919,1.779
			C628.536,358.155,630.161,358.091,631.738,358.216z"/>
		<path fill-rule="evenodd" clip-rule="evenodd" d="M698.562,365.687c1.904,0.051,3.685,0.297,4.324,2.534
			c0.08,0.278,0.371,0.503,0.582,0.739c0.869,0.973,1.234,2,0.593,3.276c-0.448,0.893-0.672,1.903-1.155,2.771
			c-0.594,1.067-1.617,1.579-2.849,1.598c-2.269,0.035-4.25-0.841-5.835-2.341c-0.652-0.618-0.819-1.801-1.078-2.762
			c-0.143-0.529-0.046-1.134-0.007-1.701c0.206-2.969,1.083-3.822,4.479-4.184C697.926,365.585,698.246,365.661,698.562,365.687z
			 M696.511,368.732c-0.22,0.505-0.406,0.836-0.509,1.191c-0.461,1.617,0.399,2.939,2.062,3.058
			c0.865,0.061,1.752-0.014,2.614-0.137c0.886-0.127,1.333-1.13,0.793-1.872c-0.295-0.405-0.869-0.625-1.348-0.872
			c-0.372-0.192-1.056-0.205-1.146-0.457C698.514,368.33,697.524,368.754,696.511,368.732z"/>
		<path fill-rule="evenodd" clip-rule="evenodd" d="M669.687,401.56c-0.108,0.227-0.217,0.451-0.325,0.676
			c-0.071-0.033-0.141-0.066-0.212-0.101c0.108-0.225,0.215-0.45,0.323-0.676C669.544,401.493,669.615,401.527,669.687,401.56z"/>
		<path fill-rule="evenodd" clip-rule="evenodd" d="M472.005,124.052c0.015-5.906-0.372-11.734-2.303-17.41
			c-0.973-2.856-3.219-4.174-5.652-4.838c-2.774-0.759-5.758-0.822-8.66-1.023c-3.091-0.213-6.197-0.172-9.291-0.355
			c-3.607-0.216-7.207-0.555-10.811-0.84c0-0.004,0.001-0.008,0.001-0.012c-1.519-0.12-3.036-0.235-4.554-0.362
			c-1.514-0.127-3.027-0.355-4.544-0.38c-2.402-0.038-4.812,0.169-7.21,0.064c-2.596-0.113-5.158-0.035-7.727,0.364
			c-2.645,0.411-4.993,2.529-5.133,4.868c-0.074,1.262-0.021,2.539,0.067,3.802c0.327,4.668,0.695,9.332,1.043,13.997
			c0.095,1.262,0.243,2.523,0.245,3.784c0.007,4.055-0.146,8.111-0.042,12.163c0.117,4.535,0.776,8.949,3.636,12.754
			c0.646,0.861,1.219,1.029,2.219,0.908c2.454-0.295,4.023-2.046,5.793-3.406c1.846-1.422,3.512-3.082,5.217-4.679
			c1.307-1.224,2.713-1.997,4.6-1.737c1.117,0.153,2.271,0.026,3.404,0.095c2.964,0.179,5.926,0.389,8.889,0.601
			c0.82,0.06,1.637,0.157,2.453,0.256c2.771,0.336,5.531,0.781,8.309,0.997c3.599,0.278,7.23,0.21,10.812,0.613
			c2.396,0.271,4.449-0.253,6.565-1.222c1.561-0.714,2.201-1.897,2.279-3.424c0.193-3.795,0.299-7.596,0.409-11.395
			C472.061,126.843,472.003,125.447,472.005,124.052z M468.188,139.53c-0.174,1.515-0.237,1.529-1.708,1.716
			c-3.044,0.384-6.079,0.367-9.135,0.053c-2.915-0.299-5.852-0.384-8.776-0.59c-1.059-0.075-2.107-0.253-3.166-0.332
			c-1.875-0.143-3.752-0.253-5.629-0.363c-3.933-0.229-7.867-0.546-11.806-0.625c-1.47-0.03-2.905,0.116-4.276,1.345
			c-1.473,1.316-2.691,3.01-4.711,3.816c-1.053,0.42-1.713,1.776-2.615,2.641c-0.652,0.623-1.416,1.131-2.454,1.947
			c-0.789-1.652-1.472-2.834-1.933-4.096c-0.879-2.405-1.697-4.85-1.742-7.451c-0.032-1.942-0.084-3.895,0.045-5.83
			c0.355-5.28-0.307-10.518-0.559-15.772c-0.141-2.942-0.438-5.877-0.654-8.817c-0.035-0.498-0.053-1.008-0.004-1.503
			c0.234-2.398,1.346-3.441,3.762-3.573c5.275-0.292,10.502,0.157,15.725,0.893c2.535,0.355,5.127,0.281,7.689,0.441
			c1.625,0.101,3.248,0.243,4.867,0.414c3.233,0.342,6.463,0.725,9.697,1.072c1.809,0.195,3.62,0.371,5.432,0.528
			c0.811,0.071,1.675,0.259,2.432,0.067c1.539-0.383,2.973,0.142,4.439,0.285c1.516,0.146,2.748,0.904,3.219,2.49
			c0.371,1.252,0.713,2.516,1.02,3.786c0.336,1.397,0.626,2.806,0.92,4.214c0.127,0.608,0.287,1.226,0.305,1.841
			c0.092,3.637,0.105,7.274,0.223,10.908C468.91,132.556,468.585,136.046,468.188,139.53z"/>
		<path fill-rule="evenodd" clip-rule="evenodd" d="M583.474,538.696c-1.682,0.163-3.363,0.342-5.046,0.486
			c-1.067,0.093-2.14,0.198-3.21,0.188c-4.174-0.04-8.35-0.116-12.524-0.201c-0.563-0.012-1.126-0.143-1.687-0.225
			c-0.688-0.101-1.376-0.307-2.062-0.299c-4.236,0.042-8.472,0.119-12.706,0.212c-0.994,0.021-1.996,0.087-2.978,0.234
			c-1.794,0.271-3.319-0.629-4.95-1.056c-0.4-0.104-0.854-0.348-1.09-0.668c-1.107-1.498-1.882-3.158-1.998-5.049
			c-0.227-3.725-0.494-7.45-0.604-11.18c-0.093-3.099-0.111-6.21,0.082-9.302c0.115-1.854,1.114-3.489,2.424-4.828
			c0.419-0.429,1.055-0.744,1.646-0.887c1.596-0.384,3.21-0.746,4.839-0.922c0.977-0.104,1.992,0.173,2.992,0.25
			c3.654,0.277,7.336,0.357,10.958,0.868c3.244,0.459,6.438,0.248,9.664,0.119c1.769-0.072,3.544,0.021,5.315,0.007
			c2.141-0.02,4.314-0.327,6.412-0.048c2.234,0.299,3.649-0.349,5.243-1.951c2.292-2.303,6.417-1.973,8.697,0.383
			c0.922,0.952,2.183,1.638,2.445,3.254c0.369,2.269-0.467,4.092-1.552,5.906c-0.291,0.485-0.617,0.955-0.979,1.389
			c-0.506,0.607-0.449,1.169-0.244,1.922c0.347,1.268,0.49,2.604,0.605,3.92c0.287,3.337,0.601,6.675,0.733,10.02
			c0.114,2.875-1.162,5.128-3.603,6.701c-1.441,0.929-3.047,1.182-4.713,1.164c-0.695-0.008-1.391-0.103-2.086-0.158
			C583.492,538.864,583.483,538.78,583.474,538.696z M539.206,526.389c-0.07,0.006-0.141,0.015-0.212,0.021
			c-0.045,0.567-0.183,1.146-0.118,1.699c0.237,2,0.438,4.013,0.854,5.979c0.28,1.328,1.345,1.944,2.722,1.871
			c0.567-0.031,1.13-0.137,1.697-0.192c1.505-0.148,3.012-0.396,4.518-0.406c2.342-0.016,4.684,0.149,7.023,0.203
			c0.948,0.021,1.9-0.11,2.846-0.063c3.584,0.173,7.166,0.445,10.752,0.573c2.467,0.087,4.939,0.029,7.408-0.023
			c3.416-0.071,6.828-0.188,10.24-0.312c0.5-0.019,0.993-0.18,1.49-0.274c1.607-0.306,2.532-1.521,2.594-2.901
			c0.109-2.509,0.322-5.062-0.449-7.556c-0.35-1.131-0.451-2.342-0.623-3.522c-0.135-0.935-0.267-1.877-0.289-2.817
			c-0.024-1.043-0.764-1.403-1.512-1.726c-0.454-0.197-0.99-0.202-1.484-0.31c-2.405-0.521-4.57-2.626-4.791-5.075
			c-0.22-2.419-0.386-2.248-2.86-2.495c-0.565-0.056-1.142-0.043-1.71-0.027c-3.538,0.09-7.088,0.426-10.607,0.227
			c-4.593-0.26-9.223,0.031-13.779-1.022c-3.796-0.878-7.686-0.203-11.529-0.177c-1.883,0.012-3.331,1.953-3.328,3.948
			c0.002,0.76,0.086,1.52,0.147,2.278C538.536,518.32,538.872,522.354,539.206,526.389z M588.907,514.228
			c1.322,0.155,2.26-0.205,2.953-1.362c1.865-3.114,1.207-4.528-1.404-6.138c-0.268-0.164-0.562-0.291-0.851-0.419
			c-1.175-0.519-2.396-0.651-3.401,0.228c-1.044,0.91-1.547,2.336-1.353,3.568c0.183,1.153,1.026,2.301,1.842,3.221
			C587.166,513.86,588.153,513.942,588.907,514.228z"/>
		<path fill-rule="evenodd" clip-rule="evenodd" d="M260.402,343.802c-4.159-0.217-8.319-0.448-12.479-0.635
			c-0.815-0.036-1.688-0.045-2.451,0.197c-2.38,0.754-4.755,0.387-7.152,0.239c-1.89-0.116-3.816-0.215-5.684,0.018
			c-4.13,0.515-8.22,0.229-12.332-0.107c-2.325-0.189-4.672-0.104-7.005-0.175c-1.722-0.051-2.997-0.93-3.843-2.366
			c-1.102-1.866-1.814-3.815-1.803-6.087c0.01-2.136-0.629-4.27-0.677-6.41c-0.089-4.055-1.14-8.02-0.907-12.112
			c0.109-1.925-0.379-3.884-0.586-5.827c-0.382-3.576-1.048-7.132-0.7-10.761c0.06-0.615-0.143-1.252-0.161-1.881
			c-0.052-1.822,0.984-2.608,2.729-2.113c0.298,0.083,0.616,0.16,0.919,0.144c1.705-0.097,3.408-0.32,5.109-0.318
			c3.213,0.003,6.424,0.138,9.636,0.201c0.503,0.01,1.009-0.049,1.509-0.115c0.941-0.123,1.908-0.495,2.813-0.378
			c5.419,0.701,10.868,0.125,16.295,0.515c3.601,0.259,7.22,0.301,10.831,0.321c1.504,0.01,3.02-0.229,4.514-0.463
			c3.561-0.559,7.086-0.009,10.623,0.243c1.645,0.117,3.289,0.25,4.936,0.309c0.985,0.037,1.732,0.399,2.117,1.3
			c0.566,1.334,1.35,2.655,1.547,4.052c0.649,4.62,1.504,9.218,1.479,13.927c-0.012,2.39,0.471,4.779,0.691,7.174
			c0.405,4.409,0.785,8.819,1.162,13.231c0.031,0.369,0.08,0.819-0.09,1.11c-1.199,2.073-2.656,3.898-5.163,4.44
			c-3.708,0.801-7.41,1.643-11.146,2.297c-1.538,0.269-3.152,0.098-4.732,0.127C260.402,343.866,260.403,343.835,260.402,343.802z
			 M277.175,322.587c-0.255-1.696-0.523-3.121-0.67-4.559c-0.152-1.508-0.176-3.027-0.277-4.541
			c-0.197-2.958-0.425-5.914-0.613-8.873c-0.224-3.522-1.51-4.777-5.078-4.898c-0.126-0.004-0.255,0.01-0.381-0.004
			c-1.752-0.191-3.503-0.406-5.258-0.574c-1.752-0.168-3.507-0.421-5.258-0.4c-2.269,0.025-4.536,0.443-6.799,0.41
			c-4.053-0.06-8.103-0.347-12.156-0.506c-1.896-0.074-3.795-0.087-5.693-0.099c-1.391-0.008-2.779,0.041-4.169,0.048
			c-2.911,0.017-5.822-0.034-8.729,0.059c-1.391,0.044-2.766,0.36-4.138-0.146c-0.278-0.103-0.624-0.023-0.938-0.023
			c-2.024-0.006-4.049-0.039-6.072,0c-0.878,0.017-1.77,0.111-2.621,0.313c-0.34,0.082-0.754,0.506-0.848,0.852
			c-0.16,0.596-0.195,1.268-0.106,1.881c0.448,3.056,1.005,6.096,1.427,9.153c0.455,3.303,0.795,6.622,1.209,9.93
			c0.184,1.455,0.389,1.587,1.795,1.518c1.064-0.055,2.134-0.147,3.195-0.083c2.709,0.162,5.411,0.51,8.122,0.587
			c3.905,0.111,7.816,0.042,11.726,0.064c2.139,0.011,4.29,0.21,6.411,0.031c2.247-0.188,4.28,0.064,5.817,1.354
			c1.802-0.491,3.352-1.041,4.95-1.312c1.483-0.253,3.018-0.249,4.53-0.28c1.378-0.025,2.759,0.016,4.135,0.1
			c0.811,0.048,1.615,0.344,2.422,0.34c2.083-0.011,4.167-0.146,6.25-0.197C271.881,322.665,274.403,322.636,277.175,322.587z
			 M210.571,324.901c-0.063,0.809-0.209,1.489-0.153,2.152c0.188,2.271,0.44,4.538,0.687,6.804c0.09,0.818,0.143,1.657,0.369,2.44
			c0.552,1.902,1.68,3.303,3.788,3.498c2.896,0.269,5.798,0.464,8.702,0.643c0.876,0.054,1.766-0.024,2.643-0.092
			c3.461-0.264,6.916-0.598,10.379-0.807c2.713-0.166,5.433-0.175,8.148-0.276c1.502-0.058,1.71-0.18,2.133-1.644
			c0.203-0.701,0.34-1.524,0.173-2.212c-0.626-2.571-1.431-5.099-2.087-7.663c-0.41-1.603-1.547-2.049-2.978-2.141
			c-2.394-0.151-4.788-0.324-7.185-0.426C227.09,324.831,218.986,324.536,210.571,324.901z M250.31,339.896
			c1.328,0.176,2.56,0.416,3.801,0.487c2.207,0.128,4.423,0.265,6.63,0.192c2.388-0.077,4.804-0.151,7.062-1.143
			c0.328-0.145,0.751-0.074,1.128-0.107c1.573-0.138,3.165-0.171,4.712-0.451c1.099-0.2,2.168-0.672,3.188-1.154
			c0.387-0.184,0.781-0.704,0.859-1.129c0.611-3.281-0.094-6.48-0.76-9.669c-0.129-0.632-0.549-1.161-1.316-1.164
			c-3.283-0.009-6.566-0.021-9.852-0.014c-1.939,0.004-3.906,0.251-5.812,0.006c-2.402-0.308-4.762-0.16-7.154-0.106
			c-2.664,0.059-2.509,0.327-2.531,2.988c-0.004,0.309,0.164,0.615,0.184,0.927C250.652,332.99,250.923,336.425,250.31,339.896z"/>
		<path fill-rule="evenodd" clip-rule="evenodd" d="M695.325,343.661c-2.613-0.446-5.232-0.872-7.84-1.352
			c-0.773-0.143-1.424-0.525-1.622-1.41c-0.05-0.229-0.223-0.477-0.411-0.62c-2.915-2.231-3.702-5.702-4.781-8.853
			c-1.217-3.559-2.281-7.266-1.938-11.148c0.306-3.459-0.526-6.807-0.946-10.196c-0.396-3.193-0.74-6.394-1.039-9.596
			c-0.076-0.808,0.065-1.646,0.172-2.461c0.289-2.245,1.553-3.552,3.692-4.18c4.503-1.322,9.077-1.577,13.736-1.284
			c4.679,0.295,9.369,0.395,14.052,0.629c2.153,0.106,4.298,0.354,6.449,0.494c2.278,0.146,4.557,0.269,6.839,0.352
			c4.297,0.159,8.597,0.258,12.894,0.429c2.463,0.098,4.926,0.263,7.385,0.45c1.006,0.076,2.021,0.218,2.996,0.463
			c2.739,0.688,4.21,2.713,5.078,5.201c1.177,3.37,1.742,6.877,1.911,10.44c0.204,4.319,1.128,8.513,2.02,12.726
			c0.879,4.148,1.503,8.351,2.222,12.531c0.064,0.37-0.004,0.761,0.021,1.14c0.127,1.946-1.119,3.528-2.942,4.123
			c-2.738,0.895-5.501,1.396-8.373,1.478c-4.997,0.138-9.991,0.388-14.989,0.528c-1.834,0.052-3.674-0.075-5.51-0.117
			c-4.248-0.096-8.494-0.256-12.742-0.26c-2.396-0.003-4.791,0.304-7.189,0.372c-2.211,0.064-4.424,0.01-6.636-0.025
			c-0.823-0.013-1.644-0.121-2.464-0.186C695.354,343.439,695.341,343.55,695.325,343.661z M700.806,319.4
			c0.742,0.897,0.798,1.654,0.345,2.57c-0.979,1.975-2.024,3.942-2.728,6.021c-0.703,2.082-1.773,3.911-2.982,5.694
			c-1.41,2.078-2.839,4.144-4.365,6.368c0.549,0.154,1.005,0.305,1.471,0.409c3.184,0.717,6.428,0.425,9.645,0.573
			c1.709,0.079,3.426-0.021,5.137-0.042c4.625-0.056,9.248-0.142,13.873-0.153c1.898-0.006,3.801,0.238,5.699,0.209
			c3.863-0.06,7.734-0.103,11.582-0.398c2.518-0.195,5.016-0.586,7.555-0.557c0.764,0.01,1.529-0.261,2.545-0.451
			c-0.574-0.557-0.875-0.982-1.285-1.227c-1.674-0.997-2.905-2.418-4.051-3.953c-2.266-3.036-4.577-6.038-6.85-9.068
			c-0.607-0.811-1.16-1.663-1.711-2.512c-0.465-0.717-0.237-1.33,0.377-1.833c0.659-0.54,1.33-0.464,1.838,0.172
			c1.861,2.325,3.652,4.704,5.529,7.016c1.869,2.301,3.727,4.623,5.754,6.779c1.044,1.111,2.45,1.886,3.805,2.896
			c0.736-1.546,0.834-2.899,0.587-4.299c-0.915-5.168-1.866-10.329-2.733-15.504c-0.356-2.117-0.549-4.263-0.787-6.397
			c-0.177-1.568-0.219-3.158-0.488-4.71c-0.237-1.383-0.703-2.727-1.168-4.454c-2.125,2.121-3.99,3.908-5.766,5.78
			c-2.044,2.155-3.968,4.427-6.024,6.573c-1.526,1.596-3.22,3.033-4.771,4.608c-1.771,1.798-3.377,3.77-5.217,5.492
			c-3.711,3.473-7.754,3.669-11.807,0.575c-1.549-1.185-2.998-2.489-4.848-3.25c-0.678-0.277-1.265-0.834-1.82-1.344
			c-1.117-1.023-2.095-2.219-3.294-3.125c-1.606-1.215-3.374-2.215-5.062-3.322c-1.268-0.831-2.476-1.76-3.783-2.52
			c-3.773-2.192-6.588-5.752-10.707-7.445c-0.816-0.336-1.589-0.781-2.383-1.175c-0.753-0.373-1.508-0.744-2.578-1.273
			c0.111,1.401,0.129,2.404,0.282,3.387c0.312,1.998,0.751,3.978,1.037,5.979c0.852,5.95,1.257,11.97,2.845,17.803
			c0.545,2.004,0.811,4.06,1.744,5.98c1.449,2.983,2.564,2.404,4.482,0.47c0.221-0.222,0.355-0.523,0.539-0.783
			c1.021-1.441,2.035-2.891,3.07-4.323c1.922-2.659,3.926-5.236,4.842-8.512C698.5,320.987,699.068,319.547,700.806,319.4z
			 M679.769,298.234c1.052,1.806,2.68,2.702,4.402,3.3c2.305,0.801,4.232,2.18,6.17,3.561c2.467,1.762,4.867,3.615,7.338,5.374
			c2.055,1.464,4.232,2.765,6.238,4.292c1.993,1.519,3.83,3.244,5.76,4.848c0.527,0.439,1.101,0.932,1.736,1.115
			c1.143,0.33,2.035,0.926,2.859,1.76c0.523,0.53,1.185,1.002,1.873,1.275c2.003,0.797,4.061,1.709,6.148,0.249
			c1.139-0.794,2.296-1.595,3.291-2.553c1.947-1.877,3.793-3.859,5.667-5.811c2.456-2.552,4.964-5.058,7.328-7.689
			c2.148-2.392,4.138-4.925,6.265-7.479c-0.264-1.963-0.646-2.398-2.631-2.863c-0.124-0.027-0.252-0.039-0.376-0.06
			c-4.586-0.744-9.205-0.909-13.841-0.792c-0.949,0.024-1.904,0.091-2.848,0.021c-5.56-0.408-11.11-1.022-16.678-1.238
			c-7.02-0.271-14.039-0.813-21.079-0.491C684.502,295.186,681.965,295.989,679.769,298.234z"/>
		<path fill-rule="evenodd" clip-rule="evenodd" d="M748.172,296.022c0.245-0.062,0.401-0.104,0.56-0.144
			c-0.045,0.108-0.091,0.218-0.137,0.327C748.489,296.159,748.382,296.113,748.172,296.022z"/>
	</g>
</g>
<path fill-rule="evenodd" clip-rule="evenodd" d="M487.242,167.238c-0.018-1.009-0.108-2.033,0.021-3.026
	c0.49-3.795,0.389-7.584,0.113-11.385c-0.293-4.035-1.116-8.039-0.725-12.117c0.029-0.309-0.057-0.631-0.102-0.944
	c-0.27-1.937-0.604-3.865-0.803-5.81c-0.246-2.386-0.375-4.783-0.562-7.176c-0.203-2.584-0.414-5.169-0.625-7.753
	c-0.19-2.329-0.332-4.665-0.598-6.986c-0.301-2.646-1.119-5.3-0.986-7.913c0.193-3.805-0.815-7.417-1.129-11.129
	c-0.312-3.701-1.139-7.369-1.903-11.018c-0.45-2.15-1.187-4.243-1.862-6.34c-0.168-0.518-0.557-0.99-0.925-1.414
	c-2.556-2.945-6.088-4.451-9.384-6.301c-0.26-0.145-0.613-0.12-0.924-0.175c-2.232-0.396-4.463-0.804-6.697-1.185
	c-0.682-0.115-1.109-0.42-1.416-1.081c-0.479-1.031-0.955-2.12-1.687-2.966c-1.981-2.293-3.177-5.09-5.101-7.453
	c-2.457-3.016-4.338-6.498-6.479-9.771c-0.205-0.314-0.498-0.57-0.74-0.861c-0.48-0.576-0.914-1.2-1.441-1.73
	c-2.1-2.115-4.141-4.344-7.482-4.324c-1.193,0.006-2.388-0.016-3.58-0.049c-1.519-0.042-3.043-0.049-4.557-0.176
	c-2.396-0.201-4.78-0.574-7.179-0.717c-2.518-0.15-5.045-0.131-7.568-0.152c-0.886-0.008-1.774,0.047-2.657,0.131
	c-2.34,0.223-4.341,1.756-6.741,1.771c-0.107,0.001-0.247,0.098-0.315,0.19c-1.048,1.416-2.712,2.214-3.541,3.916
	c-0.791,1.623-1.972,3.058-3.665,3.966c-2.188,1.175-4.322,2.436-5.376,4.881c-0.095,0.219-0.342,0.369-0.497,0.568
	c-1.234,1.592-2.653,5.043-3.299,7.05c-0.322,1.004-1.036,1.877-1.422,2.868c-0.455,1.165-1.196,3.443-2.38,3.304
	c-3.956-0.468-7.919-0.876-11.92-0.723c-1.904,0.073-3.786,0.064-5.427,1.24c-2.106,1.506-3.896,3.19-4.241,5.985
	c-0.154,1.246-0.678,0.443-0.942,1.682c-0.208,0.979-0.365,1.986-0.392,2.984c-0.041,1.645,0.072,1.292,0.068,2.938
	c-0.01,3.801-0.153,7.604-0.052,11.4c0.123,4.551,0.442,9.096,0.681,13.643c0.242,4.68,0.485,9.359,0.732,14.037
	c0.104,1.959,0.264,3.916,0.319,5.876c0.093,3.231,0.132,6.466,0.177,9.698c0.074,5.118,0.839,10.193,0.73,15.334
	c-0.085,3.975,0.326,7.967,0.646,11.942c0.166,2.077,0.61,4.131,0.925,6.196c0.455,3.006,0.84,6.022,1.385,9.012
	c0.419,2.302,1.006,4.551,2.303,6.597c0.773,1.219,2.061,1.636,3.014,2.534c1.045,0.982,2.277,1.561,3.701,1.785
	c3.131,0.49,6.246,1.121,9.39,1.497c2.124,0.255,4.289,0.226,6.435,0.219c1.388-0.004,1.537,0.094,2.029,1.39
	c0.943,2.484,2.03,4.873,4.158,6.662c0.951,0.802,2.145,1.801,2.361,2.885c0.354,1.758,1.537,2.86,2.352,4.241
	c0.48,0.813,1.268,1.466,1.661,2.311c1.814,3.886,5.027,6.585,7.94,9.539c0.272,0.276,0.789,0.454,1.186,0.443
	c3.595-0.099,7.189-0.229,10.783-0.394c3.145-0.143,6.289-0.529,9.424-0.451c2.222,0.056,4.396,0.034,6.605-0.227
	c2.189-0.26,4.416-0.359,6.619-0.291c1.848,0.059,3.641-0.076,5.47-0.313c1.708-0.22,2.968-1.082,4.091-2.177
	c1.461-1.422,2.423-3.184,3.186-5.101c0.697-1.751,1.686-3.392,2.597-5.052c1.42-2.589,2.983-5.102,4.294-7.743
	c1.032-2.078,1.771-4.3,2.645-6.465c1.438-0.155,2.867-0.101,4.166-0.489c3.393-1.013,6.934-1.329,10.314-2.485
	c2.396-0.819,3.877-2.219,4.435-4.469c0.452-1.818,0.474-3.76,0.546-5.65c0.068-1.832-0.033-3.671-0.074-5.505
	C487.324,169.391,487.261,168.315,487.242,167.238z M403.919,42.264c2.6-1.72,5.383-3.023,8.658-2.664
	c1.885,0.206,3.761,0.136,5.664,0.027c2.306-0.131,4.674,0.161,6.959,0.576c2.002,0.363,3.994,0.354,5.994,0.467
	c1.764,0.101,3.57-0.038,5.279,0.315c1.098,0.227,2.166,1.021,3.039,1.796c1.173,1.042,2.146,2.31,3.203,3.48
	c-0.082,0.161-0.168,0.321-0.25,0.481c-1.939-0.016-3.877-0.026-5.814-0.046c-3.987-0.041-7.959-0.196-11.935-0.627
	c-3.645-0.396-7.349-0.224-11.001-0.57c-3.734-0.355-7.449-0.452-11.184-0.198c-0.171,0.011-0.352-0.104-0.578-0.176
	C402.022,43.749,402.979,42.886,403.919,42.264z M402.325,47.661c4.573-0.417,9.078-0.101,13.609,0.197
	c1.891,0.124,3.784,0.18,5.676,0.277c1.07,0.057,2.139,0.15,3.209,0.207c3.033,0.158,6.068,0.298,9.104,0.465
	c1.069,0.059,2.139,0.155,3.206,0.266c1.432,0.146,2.859,0.334,4.291,0.48c2.595,0.268,4.05,2.039,5.629,4.112
	c-2.753,0.624-5.27,1.161-7.842,1.085c-3.859-0.115-7.715-0.374-11.57-0.584c-2.774-0.15-5.578-0.119-8.314-0.533
	c-3.799-0.574-7.542-0.066-11.312,0.064c-1.323,0.045-2.659-0.051-3.981-0.157c-2.714-0.22-5.424-0.487-8.135-0.749
	c-0.178-0.017-0.345-0.144-0.758-0.326C396.966,49.792,398.911,47.972,402.325,47.661z M424.384,56.067
	c1.445,0.09,2.901-0.019,4.346,0.062c1.115,0.062,2.219,0.335,3.334,0.417c1.504,0.111,3.016,0.146,4.523,0.181
	c1.259,0.03,2.519,0.031,3.776,0.008c0.497-0.01,1.02-0.038,1.485-0.194c2.455-0.82,4.83-0.166,7.051,0.684
	c1.062,0.406,1.824,1.683,2.626,2.646c1.049,1.257,2.024,2.578,2.986,3.903c0.384,0.527,0.653,1.138,0.976,1.711
	c-0.119,0.165-0.237,0.331-0.357,0.497c-4.925-0.133-9.85-0.289-14.775-0.394c-3.479-0.075-6.957-0.046-10.435-0.133
	c-2.022-0.05-4.044-0.216-6.064-0.365c-5.055-0.375-10.104-0.836-15.163-1.133c-3.469-0.203-6.956-0.112-10.428-0.296
	c-3.391-0.178-6.818,1.781-10.288,0.541c0.174-0.724,0.153-1.508,0.521-1.999c1.062-1.415,1.855-4.947,3.585-5.966
	c1.702-1.001,3.191-1.092,4.989-0.941c2.952,0.248,5.933,0.463,8.884,0.319c2.828-0.136,5.686,0.261,8.494-0.401
	c0.538-0.127,1.187-0.178,1.689,0.002 M453.763,211.503c-1.904,1.799-4.244,2.215-6.822,2.188c-3.16-0.031-6.32,0.274-9.482,0.401
	c-1.133,0.046-2.27-0.043-3.402-0.004c-4.87,0.169-9.746,0.283-14.608,0.594c-1.561,0.101-3.103,0.394-4.69,0.344
	c-1.133-0.035-2.005-0.175-2.826-1.122c-1.189-1.369-2.664-2.485-3.941-3.783c-0.543-0.552-0.896-1.292-1.51-2.206
	c0.988-0.098,1.596-0.199,2.207-0.213c3.085-0.073,6.171-0.193,9.255-0.165c3.212,0.029,6.403-0.722,9.642-0.128
	c0.952,0.173,2-0.266,3.008-0.291c2.525-0.063,5.055-0.036,7.582-0.08c0.749-0.013,1.498-0.147,2.248-0.219
	c1.132-0.107,2.262-0.216,3.395-0.304c0.312-0.024,0.672,0.126,0.939,0.019c2.166-0.864,4.345-0.241,6.529-0.16
	c1.941,0.071,3.892-0.092,6.086-0.158C456.517,208.449,455.267,210.081,453.763,211.503z M461.271,198.7
	c-0.73,1.244-1.383,2.563-2.295,3.662c-0.869,1.049-2.214,1.459-3.572,1.498c-2.215,0.062-4.433-0.01-6.646,0.046
	c-0.939,0.024-1.876,0.221-2.812,0.353c-4.07,0.574-8.134,0.982-12.272,0.852c-4.99-0.158-9.994,0.021-14.989,0.104
	c-3.153,0.053-6.308,0.352-9.453,0.257c-2.831-0.087-5.354-1.007-6.515-4.014c-0.38-0.984-0.907-1.91-1.432-2.996
	c2.01-0.623,4.017-0.584,6.004-0.578c2.089,0.006,4.178,0.201,6.266,0.205c3.414,0.009,6.875,0.271,10.23-0.195
	c4.533-0.628,8.97,0.09,13.445,0.214c5.691,0.158,11.379,0.51,17.07,0.61c2.312,0.041,4.679-0.056,7.215-1.378
	C461.384,198.118,461.412,198.459,461.271,198.7z M462.05,194.72c-1.268,0.74-2.796,1.148-4.26,1.413
	c-3.573,0.645-7.197,0.272-10.797,0.229c-4.744-0.058-9.488-0.233-14.232-0.376c-0.95-0.028-1.9-0.199-2.848-0.185
	c-2.522,0.039-5.043,0.166-7.566,0.218c-1.835,0.037-3.67,0.005-5.506,0.014c-3.539,0.018-7.078,0.076-10.618,0.051
	c-2.021-0.015-4.044-0.119-6.06-0.271c-0.602-0.045-1.354-0.223-1.738-0.626c-1.387-1.453-2.406-3.178-3.393-5.074
	c0.535-0.185,0.881-0.409,1.221-0.404c4.242,0.053,8.484,0.085,12.723,0.242c2.338,0.088,4.665,0.524,7.002,0.574
	c2.203,0.045,4.413-0.191,6.617-0.341c1.258-0.086,2.51-0.354,3.766-0.353c3.989,0.007,7.979,0.187,11.967,0.133
	c2.773-0.038,5.539-0.4,8.312-0.527c3.664-0.169,7.333-0.217,10.997-0.382c1.64-0.073,3.271-0.351,4.91-0.448
	c0.792-0.047,1.595,0.107,2.665,0.192C464.612,191.183,464.179,193.478,462.05,194.72z M472.937,185.026l-96.638,1.094
	c-5.428-2.085-9.243-7.294-9.535-13.915l-3.68-88.481c-0.292-6.62,4.839-15.225,11.46-15.517l86.623,1.271
	c6.621-0.292,12.092,4.026,15.825,11.329l6.606,86.633C486.875,181.623,479.558,184.734,472.937,185.026z"/>
</svg>
