<?xml version="1.0" encoding="utf-8"?>
<!-- Generator: Adobe Illustrator 16.0.4, SVG Export Plug-In . SVG Version: 6.00 Build 0)  -->
<!DOCTYPE svg PUBLIC "-//W3C//DTD SVG 1.1//EN" "http://www.w3.org/Graphics/SVG/1.1/DTD/svg11.dtd">
<svg version="1.1" id="Layer_1" xmlns="http://www.w3.org/2000/svg" xmlns:xlink="http://www.w3.org/1999/xlink" x="0px" y="0px"
	 width="1152px" height="648px" viewBox="0 0 1152 648" enable-background="new 0 0 1152 648" xml:space="preserve">
<g id="QDPXEL_1_">
	<g>
		<path opacity="0.7" fill-rule="evenodd" clip-rule="evenodd" fill="#F9CA11" d="M322.03,599.234
			c-3.144-4.049-6.299-8.089-9.426-12.148c-2.732-3.549-5.44-7.115-8.141-10.688c-0.594-0.783-1.071-1.659-1.674-2.437
			c-0.501-0.646-1.021-1.339-1.686-1.78c-1.649-1.099-2.896-0.447-3.105,1.558c-0.145,1.381,0.213,2.563,1.219,3.643
			c3.17,3.406,6.195,6.936,8.652,10.917c0.469,0.76,1.285,1.297,1.824,2.023c3.1,4.18,6.165,8.386,9.477,12.906
			c-1.413,0.512-2.374,1.086-3.379,1.181c-2.478,0.233-4.976,0.277-7.467,0.34c-2.409,0.062-4.847-0.168-7.223,0.132
			c-3.297,0.418-6.669-0.595-9.902,0.612c-0.146,0.054-0.338,0.028-0.496-0.011c-4.561-1.088-9.126-0.094-13.688-0.001
			c-2.479,0.052-4.953,0.429-7.431,0.667c-0.413,0.04-0.854,0.262-1.228,0.173c-3.738-0.89-7.416,0.349-11.141,0.316
			c-2.947-0.024-5.895,0.799-8.857,1.126c-1.646,0.184-3.321,0.153-4.984,0.167c-1.572,0.012-3.148-0.112-4.721-0.056
			c-3.981,0.143-7.963,0.319-11.941,0.555c-1.381,0.081-2.625-0.099-4.07-1.104c1.089-1.058,2.104-1.97,3.033-2.958
			c2.944-3.14,5.881-6.286,8.774-9.473c1.896-2.086,3.714-4.242,5.558-6.377c0.922-1.07,1.739-2.242,2.744-3.226
			c1.52-1.485,3.158-2.845,5.229-4.686c0-1.013,0-2.708,0-4.278c-0.957-0.713-1.639-0.38-2.21,0.138
			c-1.658,1.503-3.328,3.002-4.896,4.595c-2.795,2.844-5.545,5.731-8.264,8.646c-1.638,1.756-3.189,3.589-4.765,5.402
			c-1.958,2.256-3.88,4.545-5.869,6.772c-0.386,0.432-1.015,0.644-1.917,1.19c-0.196-4.047-0.455-7.6-0.523-11.157
			c-0.087-4.575,0.012-9.151-0.033-13.728c-0.022-2.064-0.318-4.129-0.279-6.19c0.055-2.735,0.226-5.479,0.509-8.203
			c0.288-2.747,0.095-5.419-0.263-8.157c-0.359-2.764-0.08-5.607-0.08-8.763c0.564,0.514,0.971,0.838,1.32,1.213
			c0.396,0.425,0.676,0.979,1.121,1.332c5.815,4.583,10.674,10.231,16.488,14.803c2.455,1.933,5.071,3.68,7.73,5.325
			c1.277,0.789,2.391,1.682,3.541,2.637c3.581,2.975,6.993,6.115,10.349,9.34c1.062,1.018,2.439,1.697,3.634,2.585
			c1.25,0.93,2.396,2.011,3.699,2.853c0.727,0.471,1.664,0.752,2.535,0.844c4.697,0.486,8.654-1.07,11.916-4.473
			c1.93-2.01,4.031-3.866,5.834-5.979c1.912-2.244,3.562-4.713,5.337-7.077c0.448-0.595,0.938-1.159,1.4-1.744
			c0.663-0.836,1.314-1.68,1.978-2.515c0.622-0.78,1.236-1.566,1.884-2.325c1.824-2.142,3.688-4.251,5.489-6.412
			c2.65-3.177,5.275-6.376,7.881-9.591c1.46-1.804,2.85-3.667,4.295-5.485c0.285-0.358,0.673-0.635,1.213-1.135
			c0.354,0.987,0.766,1.723,0.867,2.5c0.425,3.205,0.815,6.42,1.105,9.641c0.498,5.546,1.132,11.065,2.196,16.536
			c0.476,2.44,0.956,4.905,1.118,7.379c0.382,5.808,0.863,11.622-0.064,17.44c-0.155,0.98,0.29,2.052,0.406,3.087
			c0.051,0.462-0.032,0.939-0.053,1.409C322.418,599.118,322.225,599.177,322.03,599.234z"/>
		<path opacity="0.7" fill-rule="evenodd" clip-rule="evenodd" fill="#F9CA11" d="M311.978,540.412
			c-0.348,0.583-0.61,1.173-1.002,1.656c-2.775,3.422-5.596,6.806-8.357,10.239c-1.246,1.549-2.352,3.212-3.588,4.768
			c-0.979,1.232-2.102,2.35-3.092,3.573c-3.812,4.712-7.546,9.486-11.411,14.153c-2.269,2.738-4.489,5.552-7.624,7.437
			c-1.771,1.065-3.52,1.462-5.412,0.41c-2.893-1.609-6.114-2.663-8.508-5.101c-0.406-0.413-0.927-0.754-1.213-1.233
			c-1.711-2.864-4.604-4.468-6.914-6.687c-1.918-1.842-4.145-2.935-6.381-4.195c-2.003-1.131-3.749-2.743-5.525-4.241
			c-3.664-3.091-7.336-6.181-10.887-9.396c-2.679-2.425-5.188-5.043-7.746-7.598c-0.27-0.27-0.377-0.702-0.756-1.444
			c1.409-0.182,2.588-0.38,3.774-0.477c2.905-0.237,5.817-0.367,8.716-0.657c1.558-0.156,3.096-0.53,4.637-0.842
			c4.125-0.835,8.288-0.293,12.433-0.363c4.233-0.074,8.47-0.068,12.705,0.003c4.721,0.083,9.439,0.274,14.16,0.424
			c2.492,0.078,4.987,0.149,7.478,0.255c3.053,0.131,6.111,0.478,9.155,0.383c2.127-0.066,4.255-0.647,6.353-1.119
			C305.091,539.881,309.928,539.799,311.978,540.412z"/>
		<path opacity="0.7" fill-rule="evenodd" clip-rule="evenodd" fill="#F9CA11" d="M701.397,420.485
			c0.26,1.656,0.58,3.192,0.727,4.743c0.335,3.593,0.402,7.218,0.92,10.781c0.559,3.835,1.517,7.609,2.278,11.415
			c0.206,1.036,0.573,2.121,0.437,3.124c-0.317,2.352,0.462,4.521,0.737,6.774c0.386,3.15,0.64,6.326,0.72,9.494
			c0.027,1.064-0.588,2.176-1.035,3.21c-0.308,0.707-0.831,1.319-1.367,2.146c-2.92,0.248-5.967,0.474-9.042-0.009
			c-1.022-0.16-2.124-0.208-3.126-0.003c-3.008,0.614-5.965,0.494-8.936-0.166c-0.762-0.168-1.601-0.313-2.345-0.171
			c-2.048,0.392-4.062,0.974-6.104,1.411c-0.672,0.146-1.392,0.128-2.088,0.103c-4.51-0.163-9.018-0.325-13.524-0.535
			c-2.116-0.097-4.233-0.253-6.341-0.464c-2.539-0.254-5.065-0.699-7.611-0.852c-1.175-0.069-2.383,0.347-3.57,0.568
			c-1.377,0.256-2.74,0.7-4.125,0.773c-1.86,0.102-3.434,0.706-4.801,1.93c-1.849,1.657-3.67,3.327-4.832,5.592
			c-0.325,0.635-0.924,1.129-1.396,1.687c-0.203-0.054-0.406-0.105-0.609-0.16c-0.204-1.077-0.613-2.161-0.576-3.23
			c0.275-8.048-0.95-16.029-1.023-24.062c-0.064-7.082-0.158-14.166-0.406-21.242c-0.109-3.117-0.228-6.123,0.869-9.164
			c0.875-2.427,2.474-3.612,4.789-3.822c2.725-0.248,5.479-0.169,8.219-0.239c1.573-0.04,3.146-0.093,4.719-0.141
			c4.504-0.138,8.949-1.094,13.494-0.782c5.56,0.382,11.129,0.679,16.701,0.852c3.347,0.104,6.725-0.354,10.057-0.103
			c5.189,0.39,10.422-0.835,15.576,0.515C699.506,420.649,700.322,420.485,701.397,420.485z"/>
		<path opacity="0.7" fill-rule="evenodd" clip-rule="evenodd" fill="#F9CA11" d="M517.79,115.99
			c0.088,1.676,0.266,3.265,0.242,4.851c-0.081,5.385-0.309,10.77-0.332,16.154c-0.025,5.729,0.062,11.46,0.221,17.188
			c0.064,2.408-0.295,4.668-1.191,6.898c-0.58,1.441-1.544,2.211-3.04,2.193c-1.161-0.015-2.323-0.205-3.479-0.364
			c-1.828-0.251-3.646-0.614-5.481-0.805c-4.12-0.427-7.947-2.044-11.963-2.872c-2.909-0.601-5.616-2.169-8.722-1.834
			c-4.197-1.715-8.9-1.388-13.076-3.393c-1.547-0.742-3.584-0.477-5.4-0.636c-0.5-0.044-1.01,0.037-1.515,0.06
			c-3.222,0.147-5.413-1.687-5.717-4.949c-0.248-2.677-0.267-5.375-0.501-8.054c-0.597-6.87-0.995-13.772-1.973-20.59
			c-0.885-6.171-1.703-12.315-1.629-18.557c0.006-0.584,0.063-1.169,0.114-2.059c0.813-0.055,1.671-0.337,2.374-0.119
			c2.971,0.915,5.909,1.945,8.838,2.998c3.856,1.388,7.646,2.988,11.55,4.224c6.239,1.975,12.526,3.812,18.84,5.534
			c3.396,0.927,6.874,1.581,10.347,2.198c3.134,0.558,6.308,0.88,9.459,1.344C516.401,115.498,517.024,115.764,517.79,115.99z"/>
		<path opacity="0.5" fill-rule="evenodd" clip-rule="evenodd" fill="#3799B3" d="M365.538,295.37
			c2.924-3.632,5.791-7.236,8.706-10.804c2.457-3.009,5.007-5.94,7.437-8.972c1.53-1.911,2.869-3.974,4.369-5.909
			c1.925-2.482,3.954-4.882,5.885-7.358c2.354-3.021,4.596-6.13,6.996-9.111c1.234-1.529,2.669-2.86,3.742-4.565
			c1.509-2.395,3.377-4.559,5.046-6.855c2.146-2.95,4.872-5.19,8.06-6.939c3.434-1.886,6.6-4.154,9.242-7.079
			c0.615-0.68,1.102-1.476,1.63-2.231c1.218-1.746,1.704-3.85,3.813-5.18c1.621-1.023,2.479-3.236,3.732-4.877
			c0.697-0.911,1.493-1.75,2.271-2.597c2.479-2.705,4.946-5.424,7.469-8.088c1.817-1.92,4.046-3.061,6.607-3.872
			c3.862-1.223,7.556-2.799,10.757-5.549c2.212-1.899,5.292-2.334,8.211-2.7c0.15-0.02,0.322,0.069,0.459,0.029
			c5.24-1.575,9.831,0.517,14.346,2.682c2.06,0.99,3.841,2.547,5.879,3.594c4.346,2.229,7.504,6.08,11.758,8.425
			c0.572,0.315,0.938,1,1.404,1.51c0.566,0.62,1.061,1.337,1.72,1.834c3.345,2.523,5.937,5.704,8.286,9.128
			c0.909,1.323,1.974,2.551,3.063,3.734c2.024,2.197,4.14,4.311,6.173,6.502c0.668,0.722,1.267,1.532,1.772,2.377
			c1.531,2.568,2.831,5.29,4.54,7.729c1.625,2.316,3.725,4.292,5.473,6.528c1.602,2.049,3.008,4.252,4.508,6.379
			c0.927,1.315,1.889,2.605,2.795,3.932c1.17,1.706,2.27,3.46,3.459,5.151c0.838,1.191,1.672,2.414,2.689,3.44
			c1.498,1.515,2.48,3.294,3.282,5.221c0.321,0.776,0.61,1.604,1.11,2.261c1.946,2.562,3.974,5.063,5.965,7.594
			c0.38,0.481,0.771,0.962,1.092,1.481c2.266,3.652,4.473,7.344,6.79,10.961c0.915,1.43,0.899,3.059,1.382,4.563
			c1.004,3.134,0.261,5.854-1.283,8.565c-2.498,4.395-4.959,8.813-7.341,13.273c-0.634,1.186-1.456,1.528-2.624,1.225
			c-0.733-0.19-1.541-0.407-2.111-0.867c-2.251-1.81-4.967-2.719-7.459-4.059c-2.021-1.089-4.028-2.218-5.969-3.445
			c-2.916-1.847-5.771-3.787-8.645-5.699c-3.072-2.044-6.079-4.189-9.227-6.107c-1.204-0.734-2.686-1.141-4.094-1.383
			c-2.029-0.349-3.668,0.505-5.128,2.003c-4.286,4.398-7.688,9.52-11.706,14.135c-1.301,1.495-2.215,3.329-3.537,4.798
			c-1.535,1.698-3.272,3.232-5.045,4.688c-0.493,0.405-1.533,0.572-2.128,0.342c-1.343-0.52-2.644-1.246-3.821-2.085
			c-1.926-1.373-3.697-2.964-5.612-4.353c-2.548-1.844-5.153-3.61-7.769-5.356c-2.617-1.745-5.32-3.361-7.907-5.149
			c-3.407-2.355-6.79-4.756-10.088-7.264c-3.298-2.506-6.487-5.14-10.233-6.999c-1.82-0.901-3.486-0.789-5.305-0.024
			c-2.958,1.242-5.163,3.441-7.574,5.438c-4.133,3.425-8.311,6.837-12.753,9.839c-3.528,2.385-7.479,4.146-11.239,6.19
			c-1.012,0.55-2.013,1.12-3.018,1.685c-3.989,2.24-7.829,1.547-11.563-0.634c-2.647-1.548-5.286-3.112-7.878-4.752
			c-2.458-1.556-4.846-3.221-7.267-4.835c-2.614-1.747-5.226-3.505-7.851-5.236C368.928,300.118,367.071,298.116,365.538,295.37z"/>
		<path opacity="0.5" fill-rule="evenodd" clip-rule="evenodd" fill="#3799B3" d="M724.733,294.052
			c3.081,0.156,6.499,0.658,9.803,2.196c2.988,1.392,5.805,3.048,8.617,4.726c1.076,0.643,1.943,1.63,2.925,2.438
			c2.106,1.732,4.34,3.327,6.304,5.207c1.962,1.875,3.62,4.061,5.477,6.051c2.133,2.287,4.329,4.516,6.511,6.756
			c1.674,1.721,3.437,3.36,5.036,5.145c2.408,2.686,4.698,5.477,7.064,8.199c0.683,0.786,1.375,1.602,2.199,2.222
			c2.855,2.157,5.17,4.725,6.925,7.876c0.806,1.446,2.154,2.584,3.202,3.904c2.911,3.661,5.204,7.682,6.81,12.076
			c0.237,0.647,0.392,1.478,0.198,2.105c-1.131,3.68-2.275,7.387-4.357,10.66c-2.687,4.229-6.207,7.765-9.783,11.234
			c-1.658,1.611-3.312,3.229-4.992,4.819c-1.77,1.677-3.178,1.743-5.107,0.288c-0.191-0.145-0.443-0.236-0.588-0.416
			c-2.248-2.822-4.582-5.581-6.691-8.503c-2.104-2.916-3.938-6.023-5.963-8.997c-1.533-2.247-3.107-4.474-4.796-6.605
			c-1.292-1.629-2.694-3.202-4.243-4.581c-0.613-0.546-1.779-0.769-2.647-0.679c-3.342,0.346-6.589,0.81-9.415,3.1
			c-2.586,2.094-5.617,3.63-8.4,5.486c-2.861,1.911-5.732,3.748-9.01,4.936c-1.207,0.439-2.145,1.576-3.27,2.295
			c-2.232,1.422-4.535,2.735-6.762,4.166c-3.155,2.025-6.305,4.062-9.389,6.195c-3.052,2.112-6.329,3.757-9.754,5.142
			c-2.529,1.022-8.263-1.487-9.766-3.983c-2.479-4.119-5.263-8.035-7.036-12.584c-0.979-2.506-2.609-4.791-4.146-7.041
			c-1.606-2.35-7.197-3.653-9.916-2.868c-4.385,1.269-8.868,2.191-13.273,3.391c-3.45,0.938-6.999,0.918-10.494,1.387
			c-2.716,0.363-4.828-1.036-6.859-2.434c-1.255-0.862-1.156-3.557,0-4.869c2.378-2.7,4.685-5.487,7.264-7.986
			c2.396-2.321,5.11-4.313,7.681-6.454c0.247-0.205,0.5-0.411,0.707-0.654c2.271-2.69,5.435-4.149,8.254-6.099
			c1.892-1.309,3.451-3.089,5.211-4.597c1.023-0.881,2.139-1.662,3.234-2.455c1.229-0.89,2.492-1.734,3.729-2.614
			c1.245-0.885,2.436-1.853,3.723-2.667c2.1-1.325,4.059-2.805,6.008-4.354c2.379-1.896,4.445-4.149,6.887-5.923
			c3.368-2.452,6.25-5.51,9.924-7.605c1.992-1.136,3.535-3.03,5.436-4.366c4.585-3.23,9.133-6.527,14.131-9.13
			C715.394,295.47,719.72,294.399,724.733,294.052z"/>
		<path fill-rule="evenodd" clip-rule="evenodd" d="M787.002,362.493c-0.708,1.709-1.263,2.978-1.763,4.268
			c-1.365,3.526-3.877,6.25-6.335,8.995c-1.997,2.231-4.06,4.41-6.179,6.525c-1.625,1.621-3.32,3.184-5.1,4.631
			c-1.413,1.149-3.068,0.842-4.545,0.071c-0.908-0.475-1.824-1.126-2.441-1.926c-2.596-3.359-5.174-6.739-7.58-10.234
			c-2.803-4.071-5.41-8.281-8.814-11.899c-0.697-0.739-1.457-1.747-2.33-1.923c-1.605-0.323-3.357-0.351-4.885,0.578
			c-0.773,0.47-1.6,0.923-2.221,1.56c-1.995,2.044-4.697,2.925-7.044,4.378c-3.13,1.938-6.421,3.614-9.634,5.42
			c-1.513,0.85-2.963,1.823-4.514,2.596c-3.586,1.785-6.594,4.401-9.85,6.664c-3.595,2.5-7.346,4.742-11.76,5.537
			c-1.348,0.243-2.611,0.066-3.854-0.541c-2.917-1.427-5.077-3.617-6.709-6.388c-2.51-4.265-5.023-8.526-7.566-12.77
			c-1.889-3.151-4.004-3.942-7.559-3.086c-5.282,1.272-10.578,2.48-15.877,3.684c-0.67,0.152-1.381,0.129-2.075,0.157
			c-1.254,0.049-2.603-0.203-3.743,0.175c-1.904,0.632-3.214-0.187-4.566-1.206c-0.774-0.584-1.541-1.179-2.57-1.966
			c-0.743,0.831-1.562,1.585-2.189,2.476c-1.951,2.773-4.585,4.816-7.125,6.985c-2.158,1.845-4.2,3.833-6.221,5.831
			c-0.769,0.76-1.414,1.679-1.948,2.621c-0.206,0.362-0.114,1.09,0.124,1.476c0.881,1.418,1.9,2.747,2.83,4.136
			c1.506,2.253,2.93,4.562,4.481,6.782c1.946,2.784,4.009,5.487,5.978,8.256c2.057,2.892,4.097,5.794,6.072,8.739
			c1.43,2.133,2.758,4.336,4.096,6.527c0.318,0.52,0.499,1.124,0.75,1.705c2.348,0.94,4.803,0.868,7.234,0.746
			c3.637-0.184,7.229,0.109,10.84,0.506c2.896,0.319,5.835,0.257,8.755,0.354c0.625,0.021,1.289-0.129,1.872,0.029
			c2.455,0.667,4.828,0.053,7.219-0.344c0.206-0.034,0.42-0.148,0.611-0.116c3.99,0.671,7.906-0.797,11.873-0.418
			c1.356,0.129,2.75,0.456,4,0.992c1.257,0.539,1.615,1.949,1.738,3.162c0.385,3.81,0.631,7.634,0.869,11.456
			c0.13,2.08,0.006,4.183,0.229,6.249c0.242,2.273,0.859,4.506,1.109,6.778c0.25,2.273,0.217,4.576,0.367,6.862
			c0.141,2.142,0.185,4.311,0.591,6.407c0.461,2.377-0.474,4.534-0.662,6.801c-0.028,0.34-0.411,0.768-0.741,0.944
			c-1.811,0.969-3.538,2.168-5.819,1.612c-3.509-0.855-7.02-0.269-10.517,0.208c-0.332,0.046-0.65,0.193-1.193,0.36
			c0.342,0.854,0.543,1.674,0.967,2.352c1.556,2.473,3.211,4.883,4.782,7.346c1.085,1.702,2.051,3.48,3.149,5.174
			c2.045,3.151,4.186,6.241,6.217,9.401c1.539,2.396,3.004,4.846,4.445,7.303c2.105,3.593,4.186,7.201,6.229,10.83
			c1.156,2.057,2.17,4.193,3.33,6.246c1.984,3.508,3.977,7.014,6.078,10.452c1.811,2.964,3.768,5.839,5.682,8.737
			c0.775,1.174,1.561,2.337,1.109,3.836c-0.125,0.412-0.395,1.023-0.688,1.082c-0.349,0.067-0.953-0.262-1.173-0.597
			c-1.101-1.688-2.133-3.422-3.153-5.161c-1.902-3.246-3.791-6.499-5.664-9.764c-3.734-6.511-7.439-13.039-11.186-19.544
			c-1.945-3.38-3.893-6.761-5.955-10.067c-1.729-2.773-3.646-5.428-5.449-8.156c-3.067-4.644-6.145-9.283-9.145-13.973
			c-0.896-1.401-1.543-2.963-2.311-4.446c-0.658-1.271-1.635-1.672-3.102-1.501c-4.93,0.573-9.805,0.221-14.711-0.664
			c-4.438-0.802-8.965-1.213-13.471-1.496c-2.852-0.179-5.264,1.357-7.201,3.321c-2.011,2.04-4.15,3.884-6.473,5.543
			c-0.875,0.626-1.833,1.327-2.832,0.781c-1.065-0.581-1.566-1.753-1.549-3.007c0.027-1.866,0.023-3.742,0.225-5.594
			c0.326-3.029,0.001-5.979-0.706-8.914c-0.163-0.676-0.319-1.373-0.329-2.062c-0.07-4.592-0.097-9.185-0.142-13.776
			c-0.037-3.836-0.29-7.601-1.371-11.359c-0.631-2.197-0.239-4.695-0.253-7.058c-0.014-2.58,1.024-4.69,2.871-6.494
			c2.006-1.96,4.458-2.009,6.979-1.862c0.878,0.051,1.747,0.238,2.847,0.396c-0.35-1.641-0.865-2.869-1.66-4.002
			c-1.434-2.043-2.836-4.108-4.264-6.156c-1.112-1.598-2.255-3.178-3.365-4.777c-0.793-1.143-1.559-2.305-2.328-3.463
			c-0.309-0.462-0.58-0.95-0.898-1.404c-3.391-4.848-6.758-9.711-10.191-14.525c-2.263-3.175-4.659-6.254-6.929-9.424
			c-3.404-4.754-6.881-9.463-10.088-14.348c-4.696-7.156-9.196-14.441-13.746-21.694c-1.024-1.636-1.827-3.41-2.866-5.036
			c-1.573-2.463-3.307-4.823-4.893-7.278c-1.684-2.607-3.672-5.018-5.027-7.846c-0.41-0.856-1.199-1.523-1.732-2.33
			c-3.292-4.975-6.589-9.946-9.812-14.965c-0.706-1.098-1.47-1.829-2.979-1.729c-1.307,2.414-2.619,4.923-4.01,7.389
			c-1.264,2.244-2.551,4.479-3.937,6.648c-1.376,2.156-2.089,2.342-4.556,1.763c-1.726-0.406-3.225-1.175-4.689-2.191
			c-1.646-1.143-3.449-2.111-5.293-2.899c-2.482-1.062-4.463-2.822-6.643-4.31c-0.859-0.587-1.688-1.255-2.621-1.693
			c-2.607-1.226-4.754-3.108-7.1-4.709c-1.992-1.358-4.223-2.388-6.414-3.427c-1.559-0.739-2.986-0.32-4.128,1.009
			c-1.897,2.209-3.882,4.348-5.694,6.624c-2.857,3.591-5.633,7.248-8.387,10.92c-1.545,2.059-3.641,3.442-5.74,4.78
			c-1.088,0.691-2.434,0.46-3.555-0.332c-1.537-1.084-3.078-2.16-4.602-3.263c-3.66-2.651-7.276-5.365-10.98-7.953
			c-2.051-1.434-4.303-2.579-6.357-4.009c-3.65-2.543-7.197-5.234-10.83-7.803c-2.324-1.643-4.65-3.308-7.115-4.723
			c-2.466-1.417-4.686-0.457-6.657,1.292c-1.819,1.613-3.579,3.307-5.499,4.792c-2.471,1.909-5.014,3.746-7.641,5.432
			c-3.332,2.138-6.775,4.102-10.182,6.121c-1.904,1.129-3.787,2.306-5.76,3.303c-3.834,1.938-7.549,1.29-11.152-0.748
			c-2.48-1.402-5.012-2.718-7.455-4.179c-1.367-0.818-2.58-1.889-3.9-2.789c-3.565-2.429-7.176-4.792-10.717-7.256
			c-1.356-0.943-2.572-2.09-3.928-3.206c-0.073,0.029-0.328,0.052-0.427,0.188c-1.39,1.907-2.763,3.828-4.132,5.75
			c-1.844,2.591-3.73,5.152-5.51,7.788c-2.876,4.261-5.649,8.59-8.524,12.851c-1.396,2.071-2.9,4.072-4.4,6.07
			c-1.799,2.397-3.646,4.757-5.469,7.137c-0.253,0.33-0.456,0.701-0.724,1.019c-1.783,2.104-1.6,3.313,0.443,5.119
			c0.723,0.637,1.108,1.709,1.506,2.642c0.402,0.948,0.742,1.951,0.917,2.963c0.628,3.647,2.929,6.22,5.396,8.717
			c1.272,1.287,2.407,2.719,3.742,3.935c1.113,1.014,2.408,1.833,3.656,2.69c0.788,0.542,1.637,0.995,2.438,1.477
			c-0.246,1.64-1.176,2.503-2.342,3.221c-1.96,1.206-3.744,2.604-4.812,4.832c-0.573,0.076-1.188,0.199-1.805,0.229
			c-0.878,0.041-1.512-0.268-2.104-1.048c-1.044-1.373-2.36-2.534-3.482-3.854c-1.604-1.886-3.138-3.831-4.692-5.758
			c-0.174-0.215-0.242-0.529-0.441-0.708c-3.236-2.9-4.658-7.178-7.745-10.195c-0.419-0.409-0.642-1.021-1.122-1.812
			c-0.639,0.621-1.224,1.064-1.651,1.626c-2.526,3.316-4.848,6.808-7.558,9.965c-4.247,4.943-7.533,10.518-10.791,16.078
			c-1.949,3.326-4.098,6.42-6.502,9.404c-2.926,3.63-5.643,7.427-8.461,11.143c-0.714,0.941-1.49,1.836-2.209,2.773
			c-3.379,4.41-6.727,8.847-10.13,13.239s-6.905,8.708-10.274,13.126c-2.404,3.15-4.607,6.455-7,9.615
			c-1.974,2.608-4.154,5.06-6.135,7.663c-3.857,5.067-8.792,9.117-12.969,13.876c-3.297,3.757-6.508,7.59-9.724,11.417
			c-4.165,4.954-8.368,9.879-12.416,14.928c-2.298,2.866-4.276,5.985-6.47,8.937c-2.03,2.731-4.168,5.384-6.237,8.087
			c-3.89,5.08-7.749,10.183-11.651,15.251c-1.316,1.709-2.694,3.373-4.1,5.011c-2.596,3.021-4.805,6.306-6.511,9.894
			c-0.587,1.234-1.405,1.865-2.655,2.012c-0.492,0.059-1.253,0.049-1.473-0.245c-0.367-0.491-0.665-1.305-0.519-1.856
			c0.281-1.056,0.886-2.025,1.377-3.021c0.088-0.176,0.253-0.391,0.423-0.436c1.75-0.467,2.381-2.051,3.342-3.303
			c2.504-3.254,5.009-6.508,7.514-9.762c4.536-5.893,9.095-11.77,13.601-17.686c2.106-2.766,4.038-5.666,6.185-8.397
			c2.666-3.395,5.498-6.657,8.211-10.015c3.977-4.92,7.823-9.949,11.895-14.79c3.222-3.831,6.705-7.439,10.061-11.158
			c3.027-3.354,6.133-6.626,9.082-10.063c5.498-6.407,10.096-13.479,15.439-19.989c2.289-2.79,4.27-5.832,6.475-8.694
			c2.325-3.018,4.783-5.935,7.129-8.938c3.595-4.602,7.154-9.232,10.709-13.867c2.414-3.147,4.859-6.274,7.169-9.5
			c1.408-1.966,2.638-4.068,3.853-6.166c2.761-4.768,5.721-9.393,9.217-13.666c1.674-2.046,3.277-4.15,4.885-6.248
			c1.949-2.545,3.872-5.109,5.799-7.671c0.756-1.006,1.396-2.017,1.395-3.395c0-0.565,0.498-1.329,0.997-1.665
			c1.962-1.324,3.825-2.66,5.062-4.798c0.518-0.897,1.742-1.356,2.428-2.193c4.005-4.895,8.008-9.789,11.442-15.125
			c1.614-2.51,3.47-4.863,5.177-7.315c2.463-3.542,4.883-7.114,7.336-10.663c1.425-2.058,2.864-4.106,4.322-6.14
			c1.246-1.735,2.267-3.456,1.624-5.783c-0.409-1.481,0.326-2.901,1.112-4.125c0.323-0.504,1.151-0.925,1.766-0.947
			c1.309-0.047,1.994-0.795,2.684-1.712c2.465-3.276,4.885-6.587,7.452-9.78c2.694-3.354,5.565-6.568,8.308-9.886
			c1.329-1.607,2.585-3.279,3.797-4.978c2.182-3.06,4.552-5.948,7.074-8.742c1.896-2.101,3.368-4.582,5.074-6.86
			c1.498-2,3.07-3.946,4.586-5.934c0.285-0.374,0.549-0.808,0.67-1.256c0.435-1.603,0.939-3.203,1.172-4.839
			c0.537-3.791,1.004-7.595,1.359-11.407c0.479-5.132,0.813-10.277,1.242-15.415c0.117-1.381,0.436-2.747,0.516-4.129
			c0.165-2.776,0.131-5.567,0.359-8.338c0.353-4.235,0.837-8.46,0.498-12.72c-0.143-1.779-0.258-3.563-0.489-5.333
			c-0.102-0.778-0.459-1.523-1.103-2.255c-0.491,1.12-0.979,2.242-1.477,3.36c-2.199,4.938-3.975,10.066-6.694,14.77
			c-0.173,0.3-0.24,0.678-0.459,0.93c-1.192,1.367-1.433,2.896-1.19,4.676c0.156,1.135,0.012,2.394-0.338,3.488
			c-0.248,0.775-0.934,1.603-1.65,2c-2.844,1.576-6.773-0.646-6.811-3.875c-0.027-2.373,0.773-4.513,2.758-6.035
			c1.518-1.164,1.916-1.252,4.069-0.83c1.099-2.146,2.27-4.333,3.351-6.564c1.033-2.133,2.116-4.258,2.922-6.479
			c1.439-3.966,2.729-7.988,3.973-12.02c0.23-0.745,0.078-1.677-0.109-2.472c-1.289-5.481-2.594-10.961-3.983-16.417
			c-0.495-1.944-1.313-3.806-1.834-5.745c-0.216-0.801-0.036-1.709-0.036-2.844c-0.595,0-1.334,0.022-2.072-0.004
			c-3.125-0.115-6.252-0.214-9.375-0.395c-0.67-0.038-1.486-0.211-1.952-0.635c-1.303-1.185-2.929-1.463-4.482-2.031
			c-1.735-0.634-3.491-1.369-5.017-2.391c-2.471-1.657-4.779-3.559-7.115-5.41c-0.699-0.556-1.303-1.252-1.877-1.942
			c-1.82-2.183-3.693-4.329-5.384-6.609c-2.537-3.426-4.431-7.228-5.969-11.194c-0.544-1.403-0.879-2.888-1.343-4.445
			c-0.426-0.047-0.9-0.074-1.367-0.156c-1.699-0.296-2.951-1.091-3.469-2.873c-0.408-1.402-0.957-2.766-1.478-4.133
			c-0.165-0.433-0.365-0.895-0.679-1.219c-0.845-0.877-0.896-1.677,0.031-2.496c1.554,0.65,3.486,0.34,4.511-0.874
			c0.71-0.845,1.441-1.771,1.81-2.789c1.932-5.34,4.68-10.245,7.791-14.956c2.275-3.443,5.156-6.257,8.545-8.698
			c2.682-1.932,5.654-2.943,8.654-3.969c3.512-1.202,7.119-0.576,10.723-0.208c4.303,0.438,8.244,1.817,12.002,3.867
			c0.607,0.332,1.244,0.677,1.91,0.827c2.564,0.579,4.633,2.081,6.877,3.33c3.619,2.015,6.142,5.149,9.087,7.857
			c0.455,0.417,0.83,0.921,1.286,1.436c1.45-0.235,2.881-0.421,4.212,0.506c1.793,1.25,2.85,3.059,3.573,4.99
			c0.589,1.571-0.363,2.944-2.428,4.161c0.4,1.142,0.84,2.297,1.213,3.475c1.135,3.578,1.519,7.324,2.383,10.953
			c0.771,3.24,0.334,6.516,0.85,9.757c0.242,1.522-0.58,3.217-0.939,4.829c-0.121,0.544-0.308,1.071-0.457,1.608
			c-0.274,0.991-0.363,2.084-0.85,2.957c-1.305,2.349-2.572,4.732-4.873,6.372c-1.059,0.755-1.755,2.022-2.82,2.763
			c-3.023,2.099-6.147,4.038-9.799,4.941c-1.544,0.382-3.02,1.039-4.562,1.436c-1.472,0.377-2.99,0.566-4.482,0.87
			c-0.311,0.062-0.592,0.269-0.951,0.438c2.027,3.13,2.911,6.523,3.566,10.028c0.46,2.454,1.212,4.854,1.82,7.281
			c0.234,0.935,0.428,1.881,0.65,2.819c0.51,2.158,1.025,4.315,1.518,6.378c1.43,0.347,2.482,0.107,3.672-0.229
			c2.932-0.829,5.834-1.875,8.931-2.063c0.815-0.049,1.621-0.324,2.418-0.545c1.803-0.498,3.601-1.024,5.397-1.543
			c2.256-0.651,4.475-1.562,6.776-1.887c2.203-0.312,4.114-1.208,6.082-2.051c0.489-0.209,1.03-0.533,1.308-0.959
			c1.51-2.315,3.679-3.303,6.358-3.38c0.194-0.006,0.386-0.113,0.69-0.209c0.025-0.465,0.183-0.978,0.057-1.406
			c-1.268-4.337-1.166-8.806-1.408-13.251c-0.307-5.629-0.709-11.241-1.703-16.818c-0.645-3.618-0.664-7.347-0.979-11.025
			c-0.112-1.312-0.257-2.623-0.408-3.933c-0.166-1.455-0.456-2.904,0.513-4.237c0.375-0.516,0.762-0.791,1.396-0.605
			c1.576,0.463,3.172,0.865,4.724,1.398c3.677,1.266,7.307,2.678,11.007,3.865c2.372,0.763,4.619,1.809,7.096,2.376
			c4.666,1.066,9.197,2.712,13.816,4.006c2.538,0.712,5.133,1.233,7.718,1.769c1.978,0.409,3.977,0.72,5.97,1.044
			c0.962,0.157,1.931,0.286,2.9,0.355c2.281,0.167,3.357,1.224,3.637,3.444c0.524,4.162,0.22,8.317,0.082,12.483
			c-0.164,4.946-0.479,9.885-0.1,14.853c0.238,3.103,0.203,6.301-0.285,9.365c-0.676,4.246-2.648,6.705-7.043,6.239
			c-3.105-0.328-6.247-0.66-9.262-1.427c-6.406-1.629-12.812-3.237-19.312-4.441c-1.488-0.276-2.975-0.555-4.686-0.874
			c-0.32,6.843,0.712,13.404,0.936,19.995c0.225,6.562,0.994,13.105,1.543,19.881c0.576,0.159,1.301,0.32,1.998,0.56
			c2.971,1.021,5.799,2.3,8.385,4.145c1.634,1.165,3.5,1.999,5.23,3.035c0.761,0.456,1.462,1.019,2.152,1.579
			c1.721,1.396,3.417,2.825,5.133,4.229c0.377,0.308,0.852,0.511,1.186,0.854c3.098,3.175,6.246,6.303,9.227,9.583
			c1.578,1.735,2.764,3.823,4.293,5.612c1.568,1.836,3.424,3.427,4.994,5.262c1.258,1.468,2.504,3.026,3.355,4.743
			c2.094,4.218,5.205,7.66,8.081,11.294c0.947,1.198,1.815,2.464,2.666,3.735c2.431,3.635,4.782,7.322,7.271,10.917
			c1.063,1.534,2.393,2.885,3.592,4.325c0.221,0.267,0.511,0.532,0.596,0.846c0.834,3.069,3.236,5.126,4.896,7.66
			c1.517,2.317,2.939,4.695,4.46,7.008c1.3,1.976,2.639,3.927,4.037,5.833c1.35,1.841,2.064,3.869,2.323,6.126
			c0.261,2.271,0.38,4.597,1.811,6.567c2.119,2.917,4.241,5.835,6.281,8.808c1.532,2.231,2.942,4.548,4.399,6.831
			c0.111,0.174,0.137,0.413,0.266,0.565c4.085,4.764,6.721,10.523,10.66,15.407c1.771,2.193,2.91,4.889,4.406,7.312
			c1.607,2.609,3.338,5.142,4.941,7.753c2.182,3.553,4.256,7.173,6.446,10.72c4.429,7.172,9.245,14.079,14.321,20.807
			c0.998,1.321,1.931,2.691,3.054,4.264c0.754-0.72,1.373-1.333,2.014-1.924c2.862-2.632,5.688-5.305,8.611-7.866
			c1.515-1.326,3.166-2.466,4.364-4.146c0.803-1.126,1.785-2.141,2.788-3.099c0.87-0.832,1.228-1.804,1.323-2.952
			c0.059-0.692,0.184-1.382,0.311-2.065c0.188-1.016,0.703-1.739,1.666-2.249c0.717-0.378,1.436-0.936,1.885-1.597
			c2.996-4.399,7.348-7.387,11.207-10.885c1.133-1.026,2.277-2.047,3.49-2.974c4.852-3.71,9.725-7.392,14.609-11.058
			c0.88-0.66,1.843-1.214,2.786-1.783c3.72-2.245,6.858-5.219,10.142-8.018c5.191-4.427,10.486-8.721,16.169-12.521
			c2.484-1.662,4.807-3.58,7.354-5.133c2.598-1.582,5.308-3.033,8.104-4.224c3.175-1.352,6.653-1.451,10.059-1.742
			c0.402-0.035,0.819,0.101,1.229,0.162c1.512,0.228,3.023,0.457,4.535,0.684c0.139,0.021,0.303-0.016,0.412,0.049
			c2.619,1.523,5.662,2.24,8.035,4.228c0.321,0.269,0.594,0.661,0.963,0.795c3.128,1.138,4.915,4.015,7.521,5.755
			c2.99,1.996,4.7,5.073,7.236,7.428c2.428,2.256,4.391,4.98,7.11,6.985c1.322,0.974,2.367,2.351,3.446,3.621
			c1.795,2.116,3.506,4.3,5.273,6.438c0.519,0.627,1.022,1.32,1.68,1.77c2.574,1.76,4.547,4.044,6.269,6.613
			c0.962,1.437,2.077,2.78,3.221,4.081c2.134,2.431,3.706,5.206,5.173,8.058c0.254,0.495,0.527,1.002,0.658,1.537
			c0.881,3.586,2.869,6.524,5.143,9.368c1.861,2.329,3.398,4.914,5.152,7.334c1.958,2.703,4.062,5.302,5.984,8.028
			c1.668,2.366,3.219,4.82,4.733,7.288c2.216,3.61,4.369,7.259,6.517,10.91c0.668,1.135,1.225,2.335,1.846,3.497
			c2.52,4.711,4.797,9.549,7.605,14.11c1.566,2.542,2.771,5.306,4.331,7.852c2.835,4.626,5.817,9.161,8.729,13.739
			c2.242,3.521,4.465,7.053,6.701,10.576c3.541,5.582,7.078,11.166,10.631,16.741c2.989,4.69,5.901,9.434,9.028,14.032
			c2.774,4.083,5.826,7.978,8.702,11.993c2.148,2.998,4.19,6.069,6.316,9.084c2.609,3.698,5.26,7.368,7.883,11.058
			c2.945,4.145,5.829,8.332,8.83,12.436c3.369,4.604,6.025,9.689,9.711,14.087c1.649,1.966,2.896,4.265,4.387,6.368
			c2.291,3.23,4.643,6.417,6.947,9.638c0.525,0.735,0.947,1.544,1.445,2.302c0.568,0.863,1.156,1.713,1.758,2.552
			c0.201,0.281,0.506,0.489,0.7,0.774c0.607,0.888,0.62,2.143,0.056,2.49c-0.529,0.326-1.911-0.061-2.398-0.807
			c-0.875-1.336-1.639-2.742-2.48-4.099c-4.703-7.579-9.927-14.798-15.153-22.017c-2.772-3.832-5.272-7.861-7.993-11.733
			c-3.403-4.845-6.928-9.606-10.358-14.433c-2.22-3.122-4.313-6.334-6.558-9.439c-2.73-3.78-5.622-7.444-8.322-11.246
			c-2.215-3.117-4.254-6.358-6.363-9.55c-1.919-2.902-3.818-5.814-5.741-8.714c-2.151-3.246-4.366-6.451-6.468-9.729
			c-3.717-5.801-7.345-11.658-11.053-17.465c-3.373-5.28-6.809-10.522-10.203-15.789c-0.49-0.759-0.928-1.552-1.368-2.341
			c-1.698-3.041-3.419-6.07-5.073-9.136c-1.912-3.547-3.737-7.142-5.639-10.694c-2.988-5.583-6.002-11.153-9.611-16.37
			c-2.688-3.885-5.432-7.731-8.128-11.61c-1.312-1.885-2.511-3.849-3.869-5.698C791.56,368.384,789.372,365.599,787.002,362.493z
			 M375.038,291.931c1.389,2.488,3.071,4.303,5.205,5.709c2.379,1.569,4.744,3.162,7.113,4.745c2.193,1.463,4.357,2.972,6.585,4.381
			c2.348,1.486,4.738,2.903,7.138,4.306c3.384,1.977,6.863,2.604,10.479,0.574c0.91-0.511,1.816-1.028,2.734-1.526
			c3.406-1.853,6.986-3.448,10.184-5.609c4.025-2.72,7.811-5.812,11.556-8.915c2.185-1.81,4.183-3.802,6.862-4.928
			c1.648-0.692,3.158-0.795,4.807,0.022c3.395,1.685,6.285,4.071,9.273,6.342c2.988,2.272,6.053,4.447,9.141,6.582
			c2.344,1.62,4.793,3.084,7.165,4.666c2.37,1.582,4.73,3.183,7.039,4.854c1.735,1.258,3.34,2.699,5.085,3.943
			c1.067,0.761,2.246,1.419,3.463,1.89c0.539,0.209,1.481,0.058,1.929-0.31c1.605-1.319,3.18-2.71,4.57-4.249
			c1.199-1.33,2.027-2.992,3.206-4.347c3.641-4.183,6.723-8.822,10.606-12.808c1.323-1.357,2.808-2.131,4.646-1.815
			c1.276,0.22,2.618,0.588,3.71,1.253c2.852,1.738,5.576,3.682,8.359,5.534c2.604,1.732,5.191,3.491,7.834,5.164
			c1.758,1.112,3.576,2.136,5.408,3.122c2.258,1.214,4.719,2.038,6.758,3.678c0.518,0.416,1.249,0.613,1.914,0.785
			c1.058,0.275,1.803-0.035,2.377-1.109c2.158-4.041,4.389-8.045,6.652-12.027c1.398-2.457,2.072-4.922,1.162-7.761
			c-0.437-1.364-0.423-2.84-1.252-4.136c-2.1-3.277-4.1-6.622-6.152-9.932c-0.291-0.471-0.646-0.906-0.989-1.343
			c-1.805-2.292-3.642-4.56-5.405-6.881c-0.453-0.595-0.715-1.345-1.006-2.048c-0.727-1.746-1.617-3.358-2.975-4.73
			c-0.922-0.931-1.678-2.038-2.437-3.117c-1.077-1.533-2.074-3.122-3.134-4.668c-0.822-1.202-1.693-2.371-2.533-3.562
			c-1.359-1.928-2.633-3.924-4.084-5.78c-1.584-2.026-3.487-3.816-4.959-5.915c-1.549-2.21-2.727-4.676-4.114-7.003
			c-0.458-0.766-1.001-1.5-1.606-2.154c-1.842-1.985-3.758-3.9-5.593-5.892c-0.987-1.072-1.952-2.185-2.776-3.384
			c-2.129-3.103-4.477-5.984-7.508-8.271c-0.598-0.45-1.045-1.101-1.558-1.662c-0.423-0.462-0.755-1.082-1.273-1.368
			c-3.854-2.124-6.716-5.613-10.653-7.634c-1.847-0.948-3.461-2.359-5.327-3.256c-4.091-1.962-8.25-3.857-12.999-2.431
			c-0.124,0.037-0.279-0.044-0.416-0.026c-2.645,0.332-5.436,0.726-7.439,2.447c-2.9,2.491-6.248,3.92-9.747,5.027
			c-2.321,0.735-4.341,1.77-5.987,3.509c-2.285,2.414-4.521,4.877-6.768,7.328c-0.704,0.768-1.426,1.527-2.058,2.354
			c-1.136,1.486-1.913,3.491-3.382,4.419c-1.911,1.205-2.352,3.111-3.455,4.693c-0.479,0.685-0.92,1.406-1.477,2.021
			c-2.395,2.65-5.264,4.706-8.375,6.415c-2.888,1.585-5.359,3.614-7.303,6.288c-1.512,2.081-3.205,4.042-4.572,6.212
			c-0.973,1.545-2.272,2.751-3.391,4.137c-2.176,2.701-4.207,5.519-6.34,8.256c-1.749,2.244-3.588,4.418-5.332,6.667
			c-1.359,1.754-2.572,3.623-3.959,5.354c-2.201,2.747-4.512,5.403-6.738,8.13C380.286,285.374,377.688,288.64,375.038,291.931z
			 M723.045,300.56c-4.345,0.301-8.095,1.229-11.616,3.062c-4.332,2.256-8.273,5.113-12.248,7.913
			c-1.646,1.158-2.984,2.8-4.711,3.784c-3.184,1.816-5.682,4.467-8.602,6.592c-2.116,1.538-3.906,3.491-5.969,5.134
			c-1.689,1.344-3.387,2.626-5.207,3.774c-1.116,0.706-2.147,1.545-3.227,2.312c-1.072,0.763-2.166,1.495-3.231,2.266
			c-0.95,0.688-1.916,1.365-2.804,2.128c-1.525,1.308-2.877,2.851-4.517,3.984c-2.443,1.689-5.186,2.954-7.154,5.286
			c-0.179,0.211-0.398,0.39-0.612,0.567c-2.229,1.855-4.581,3.582-6.657,5.594c-2.235,2.166-4.234,4.582-6.296,6.922
			c-1.002,1.138-1.088,3.474,0,4.221c1.761,1.211,3.591,2.424,5.945,2.109c3.029-0.406,6.105-0.389,9.096-1.202
			c3.818-1.039,7.704-1.839,11.505-2.938c2.356-0.681,7.202,0.449,8.595,2.485c1.332,1.95,2.745,3.931,3.594,6.104
			c1.537,3.942,3.95,7.337,6.099,10.906c1.303,2.164,6.272,4.339,8.464,3.453c2.969-1.2,5.81-2.626,8.455-4.456
			c2.672-1.849,5.402-3.614,8.137-5.37c1.93-1.24,3.926-2.379,5.86-3.611c0.976-0.623,1.788-1.608,2.835-1.989
			c2.84-1.028,5.328-2.621,7.809-4.277c2.412-1.609,5.04-2.94,7.281-4.755c2.449-1.985,5.264-2.388,8.16-2.688
			c0.752-0.077,1.764,0.115,2.295,0.589c1.342,1.195,2.558,2.559,3.678,3.971c1.463,1.848,2.828,3.777,4.156,5.726
			c1.756,2.577,3.346,5.271,5.169,7.798c1.828,2.532,3.852,4.924,5.8,7.369c0.125,0.156,0.344,0.235,0.51,0.361
			c1.672,1.261,2.893,1.203,4.427-0.25c1.455-1.379,2.89-2.78,4.327-4.177c3.1-3.008,6.15-6.072,8.479-9.737
			c1.804-2.838,2.796-6.051,3.776-9.24c0.168-0.544,0.033-1.264-0.172-1.824c-1.392-3.81-3.379-7.294-5.902-10.468
			c-0.908-1.144-2.077-2.13-2.775-3.384c-1.521-2.731-3.527-4.957-6.002-6.826c-0.715-0.538-1.314-1.244-1.906-1.926
			c-2.051-2.36-4.035-4.779-6.123-7.106c-1.387-1.547-2.914-2.968-4.365-4.459c-1.891-1.942-3.795-3.873-5.643-5.855
			c-1.609-1.726-3.047-3.619-4.747-5.245c-1.702-1.629-3.638-3.012-5.464-4.513c-0.851-0.7-1.603-1.556-2.535-2.113
			c-2.438-1.454-4.879-2.89-7.469-4.096C728.679,301.13,725.716,300.695,723.045,300.56z M693.81,426.893
			c-0.846,0-1.488,0.129-2.06-0.021c-4.058-1.062-8.176-0.099-12.261-0.405c-2.622-0.197-5.281,0.163-7.916,0.081
			c-4.386-0.137-8.77-0.37-13.146-0.671c-3.577-0.245-7.077,0.508-10.622,0.616c-1.238,0.037-2.476,0.079-3.714,0.11
			c-2.157,0.056-4.325-0.007-6.47,0.188c-1.822,0.165-3.081,1.099-3.77,3.009c-0.863,2.394-0.77,4.76-0.684,7.213
			c0.195,5.57,0.269,11.146,0.319,16.721c0.058,6.322,1.022,12.604,0.806,18.939c-0.029,0.842,0.293,1.695,0.453,2.543
			c0.16,0.043,0.32,0.084,0.48,0.126c0.372-0.438,0.843-0.828,1.099-1.327c0.915-1.783,2.349-3.098,3.804-4.401
			c1.076-0.964,2.314-1.439,3.779-1.52c1.09-0.058,2.162-0.407,3.246-0.608c0.936-0.175,1.886-0.502,2.811-0.447
			c2.004,0.119,3.992,0.47,5.991,0.67c1.659,0.166,3.325,0.289,4.991,0.365c3.547,0.165,7.096,0.293,10.646,0.421
			c0.548,0.021,1.114,0.034,1.644-0.08c1.607-0.345,3.193-0.803,4.805-1.111c0.586-0.112,1.246,0.003,1.846,0.135
			c2.338,0.52,4.666,0.614,7.033,0.131c0.789-0.162,1.656-0.124,2.461,0.002c2.42,0.38,4.818,0.202,7.117,0.007
			c0.422-0.65,0.834-1.132,1.076-1.688c0.352-0.814,0.836-1.688,0.814-2.526c-0.062-2.494-0.263-4.994-0.566-7.474
			c-0.217-1.773-0.83-3.481-0.58-5.332c0.107-0.79-0.182-1.644-0.344-2.459c-0.6-2.996-1.354-5.967-1.793-8.985
			c-0.408-2.805-0.461-5.658-0.725-8.486C694.267,429.405,694.015,428.196,693.81,426.893z M512.332,119.604
			c-0.634-0.188-1.149-0.407-1.685-0.487c-2.607-0.384-5.234-0.65-7.828-1.112c-2.873-0.511-5.752-1.052-8.562-1.819
			c-5.225-1.426-10.428-2.945-15.592-4.58c-3.231-1.022-6.367-2.347-9.559-3.495c-2.424-0.871-4.855-1.724-7.314-2.481
			c-0.582-0.18-1.292,0.054-1.965,0.099c-0.042,0.736-0.09,1.221-0.095,1.704c-0.061,5.165,0.616,10.25,1.349,15.357
			c0.809,5.642,1.139,11.354,1.633,17.04c0.193,2.217,0.209,4.45,0.414,6.665c0.252,2.7,2.065,4.218,4.731,4.096
			c0.418-0.019,0.84-0.085,1.253-0.049c1.504,0.132,3.189-0.088,4.47,0.526c3.456,1.659,7.349,1.389,10.822,2.808
			c2.569-0.277,4.81,1.021,7.218,1.518c3.323,0.686,6.49,2.023,9.9,2.377c1.52,0.157,3.023,0.458,4.537,0.666
			c0.956,0.132,1.918,0.289,2.879,0.302c1.238,0.015,2.036-0.623,2.516-1.815c0.742-1.846,1.04-3.716,0.986-5.709
			c-0.131-4.74-0.203-9.483-0.183-14.225c0.02-4.457,0.208-8.913,0.274-13.369C512.552,122.306,512.405,120.99,512.332,119.604z
			 M433.37,88.381c-1.264,0.303-2.473,0.565-3.668,0.884c-2.275,0.604-4.535,1.266-6.814,1.855c-2.492,0.646-4.988,1.277-7.5,1.841
			c-2.607,0.584-5.231,1.092-7.853,1.606c-0.75,0.148-1.526,0.159-2.272,0.317c-1.902,0.402-3.786,0.885-5.689,1.276
			c-2.979,0.614-5.955,1.277-8.96,1.723c-1.45,0.215-2.784,0.704-4.167,1.035c-1.804,0.431-3.606,0.762-5.406,1.322
			c-3.486,1.086-7.095,1.784-10.661,2.61c-1.249,0.289-1.706,0.746-1.394,2.015c0.346,1.409,0.748,2.855,1.432,4.121
			c1.977,3.659,3.979,7.315,6.702,10.507c1.441,1.69,2.801,3.455,4.296,5.097c1.934,2.119,4.469,3.46,6.785,5.095
			c3.09,2.18,6.685,3.202,10.047,4.751c0.869,0.399,1.832,0.739,2.773,0.807c6.979,0.497,13.799,0.132,20.434-2.63
			c3.572-1.487,7.092-2.887,9.853-5.646c1.661-1.661,3.698-3.273,4.562-5.329c1.339-3.19,2.479-6.517,2.348-10.225
			c-0.213-5.954-1.053-11.779-2.525-17.516C435.218,92.055,434.215,90.348,433.37,88.381z M454.649,160.044
			c-1.188,0.461-1.832,0.711-2.475,0.962c-1.101,0.43-2.172,0.967-3.306,1.271c-3.536,0.952-7.103,1.801-10.647,2.719
			c-4.288,1.111-8.578,2.216-12.846,3.402c-1.584,0.441-3.105,1.11-4.87,1.754c0.445,1.83,0.777,3.597,1.335,5.289
			c0.213,0.643,0.842,1.337,1.458,1.622c2.131,0.988,4.294,1.956,6.53,2.658c4.895,1.538,9.842,2.907,14.764,4.351
			c1.715,0.503,2.058,0.969,2.229,2.79c0.083,0.898,0.173,1.807,0.381,2.681c0.546,2.299,1.141,4.587,1.754,6.868
			c0.297,1.104,0.684,2.184,1.081,3.436c0.536-0.473,0.883-0.799,1.249-1.102c1.807-1.491,3.502-3.106,5.727-4.046
			c3.026-1.279,4.954-0.763,6.646,2.085c0.36-0.049,0.769-0.069,1.158-0.169c0.459-0.116,0.9-0.303,1.471-0.5
			c0.111-11.029-0.359-21.939-2.646-32.863c-0.449,0.171-0.703,0.245-0.936,0.358c-2.875,1.396-3.824,1.237-6.051-1.135
			C455.941,161.715,455.322,160.866,454.649,160.044z M427.728,79.869c-0.608-0.774-1.021-1.413-1.545-1.942
			c-0.928-0.938-1.854-1.9-2.902-2.693c-2.658-2.012-5.292-4.04-8.534-5.148c-2.149-0.734-4.157-1.877-6.261-2.763
			c-1.146-0.483-2.344-0.861-3.543-1.2c-3.455-0.975-7.004-0.999-10.564-1.114c-4.038-0.131-7.528,1.534-10.795,3.389
			c-3.043,1.727-5.595,4.36-7.533,7.334c-2.26,3.47-4.289,7.099-6.27,10.74c-0.7,1.29-0.959,2.819-1.448,4.325
			c0.498,0.076,0.704,0.162,0.888,0.129c5.004-0.895,10.006-1.801,15.008-2.709c3.428-0.623,6.852-1.283,10.286-1.868
			c2.806-0.478,5.65-0.748,8.433-1.324c4.482-0.928,8.924-2.041,13.39-3.046c0.529-0.119,1.101-0.069,1.653-0.067
			c1.173,0.004,2.339,0.126,3.309-0.834c0.261-0.258,0.875-0.186,1.33-0.211c0.668-0.038,1.358,0.072,2.002-0.061
			C425.579,80.607,426.495,80.252,427.728,79.869z M432.587,221.121c0.092-0.11,0.223-0.268,0.355-0.423
			c3.2-3.756,6.375-7.531,9.609-11.257c1.404-1.618,2.974-3.091,4.359-4.723c0.387-0.454,0.644-1.296,0.518-1.861
			c-0.98-4.396-2.129-8.755-3.099-13.153c-0.396-1.797-1.425-2.732-3.113-3.14c-1.354-0.326-2.728-0.597-4.046-1.031
			c-2.294-0.753-4.714-0.931-6.967-1.991c-2.336-1.101-4.926-1.66-7.473-2.479c-1.131,14.796-2.258,29.542-3.414,44.664
			c1.05-1.111,1.93-1.964,2.72-2.895c1.812-2.14,4.046-3.15,6.848-2.627C430.104,220.434,431.296,220.798,432.587,221.121z
			 M435.8,84.325c-0.82-1.725-1.432-2.214-2.633-1.975c-2.039,0.404-4.062,0.886-6.09,1.344c-1.693,0.383-3.372,0.845-5.078,1.152
			c-4.381,0.792-8.779,1.481-13.158,2.279c-3.896,0.711-7.771,1.539-11.666,2.264c-4.104,0.762-8.225,1.433-12.328,2.2
			c-3.209,0.6-6.379,1.444-9.606,1.89c-3.804,0.524-7.409,1.751-11.081,2.738c-0.441,0.119-1.01,0.63-1.093,1.045
			c-0.225,1.113,0.65,2.179,1.8,2.315c0.751,0.09,1.539,0.126,2.277-0.003c2.811-0.483,5.607-1.045,8.41-1.574
			c1.021-0.192,2.199-0.111,3.041-0.605c2.404-1.416,5.144-1.584,7.722-2.285c2.938-0.799,6.005-1.127,9.011-1.686
			c4.302-0.799,8.601-1.609,12.896-2.439c1.955-0.378,3.841-0.977,5.885-1.09c1.83-0.101,3.615-0.911,5.429-1.381
			C424.896,87.127,430.261,85.751,435.8,84.325z M473.692,194.879c-0.238-13.339-1.371-26.548-2.363-39.71
			c-0.498-0.182-0.752-0.342-1.016-0.359c-1.501-0.108-3.005-0.183-4.633-0.275c-0.039,0.378-0.141,0.718-0.095,1.036
			c0.304,2.128,0.683,4.246,0.954,6.378c0.689,5.447,1.453,10.89,1.963,16.355c0.383,4.083,0.441,8.197,0.594,12.298
			c0.061,1.627,0.734,3.02,1.238,4.46C471.478,195,472.438,194.948,473.692,194.879z"/>
		<path fill-rule="evenodd" clip-rule="evenodd" d="M316.388,558.263c0.322,3.252,0.607,6.51,0.977,9.756
			c0.392,3.451,0.895,6.89,1.285,10.34c0.197,1.728,0.246,3.471,0.373,5.207c0.152,2.08,0.283,4.164,0.484,6.24
			c0.275,2.836-0.701,5.36-1.959,7.781c-0.634,1.222-1.445,2.39-2.361,3.416c-1.689,1.893-4.092,2.197-6.436,2.532
			c-0.826,0.118-1.697,0.04-2.485,0.271c-1.069,0.311-1.96,0.049-3.001-0.198c-1.658-0.393-3.44-0.431-5.16-0.367
			c-2.854,0.104-5.701,0.415-8.552,0.626c-0.485,0.037-1.001,0.111-1.46-0.003c-4.443-1.104-8.877,0.019-13.308,0.101
			c-2.161,0.04-4.396,0.471-6.335,1.729c-0.322,0.208-1,0.178-1.351-0.025c-1.511-0.873-3.083-0.625-4.687-0.494
			c-5.271,0.432-10.542,0.844-15.818,1.195c-4.032,0.27-8.072,0.437-12.109,0.646c-2.317,0.12-4.253-0.546-6.15-2.046
			c-2.582-2.041-2.541-4.943-3.164-7.635c-0.566-2.454-0.333-4.977-0.316-7.488c0.018-2.561-0.461-5.127-0.713-7.691
			c-0.136-1.384-0.257-2.769-0.369-4.154c-0.033-0.416,0.053-0.851-0.029-1.254c-1.174-5.768-0.621-11.639-1.027-17.453
			c-0.259-3.688,0.783-7.306,1.16-10.965c0.113-1.104,0.162-2.213,0.225-3.32c0.093-1.664,0.904-2.342,2.535-2.235
			c0.652,0.042,1.334-0.076,1.976-0.228c1.966-0.465,3.911-1.009,5.88-1.458c0.523-0.12,1.216-0.21,1.635,0.027
			c2.332,1.326,4.894,0.768,7.344,0.961c2.421,0.19,4.859,0.256,7.277-0.412c1.241-0.344,2.604-0.225,3.902-0.396
			c1.981-0.263,3.947-0.669,5.935-0.877c1.753-0.186,3.524-0.18,5.288-0.265c1.6-0.078,3.199-0.248,4.797-0.231
			c2.986,0.031,5.975,0.304,8.956,0.229c3.548-0.088,7.091-0.417,10.633-0.674c2.075-0.151,4.163-0.256,6.214-0.578
			c4.357-0.686,8.756-0.302,13.122-0.674c1.544-0.131,3.824,1.365,4.294,2.81c0.951,2.917,1.627,5.895,1.827,8.971
			c0.05,0.757,0.257,1.502,0.353,2.258c0.25,1.993,0.479,3.99,0.715,5.985C316.651,558.234,316.52,558.249,316.388,558.263z
			 M314.732,595.165c0.163-0.049,0.325-0.098,0.487-0.146c0.018-0.394,0.087-0.793,0.045-1.18c-0.098-0.867-0.471-1.764-0.341-2.585
			c0.777-4.872,0.374-9.741,0.054-14.604c-0.135-2.071-0.538-4.135-0.936-6.179c-0.892-4.581-1.422-9.203-1.84-13.847
			c-0.242-2.697-0.569-5.389-0.925-8.073c-0.085-0.65-0.431-1.267-0.727-2.093c-0.452,0.418-0.776,0.649-1.016,0.95
			c-1.21,1.522-2.374,3.083-3.597,4.593c-2.182,2.692-4.38,5.371-6.599,8.031c-1.509,1.81-3.069,3.576-4.597,5.369
			c-0.542,0.636-1.057,1.294-1.577,1.947c-0.556,0.699-1.101,1.405-1.656,2.105c-0.388,0.49-0.798,0.963-1.173,1.461
			c-1.486,1.979-2.867,4.047-4.469,5.926c-1.51,1.77-3.27,3.324-4.885,5.007c-2.732,2.85-6.045,4.152-9.979,3.745
			c-0.729-0.076-1.515-0.312-2.123-0.706c-1.092-0.705-2.051-1.61-3.098-2.389c-1-0.743-2.154-1.312-3.043-2.165
			c-2.81-2.699-5.667-5.329-8.666-7.82c-0.963-0.8-1.896-1.547-2.965-2.208c-2.227-1.378-4.417-2.841-6.473-4.459
			c-4.869-3.828-8.938-8.558-13.808-12.396c-0.372-0.295-0.606-0.76-0.938-1.115c-0.293-0.314-0.633-0.586-1.105-1.016
			c0,2.642-0.234,5.023,0.067,7.337c0.299,2.293,0.461,4.531,0.22,6.831c-0.237,2.281-0.381,4.578-0.426,6.869
			c-0.033,1.727,0.215,3.455,0.233,5.184c0.038,3.832-0.045,7.664,0.028,11.495c0.057,2.979,0.273,5.954,0.438,9.343
			c0.756-0.458,1.283-0.636,1.605-0.997c1.666-1.865,3.275-3.782,4.915-5.671c1.319-1.519,2.618-3.054,3.989-4.523
			c2.277-2.441,4.58-4.859,6.92-7.24c1.312-1.334,2.711-2.589,4.1-3.848c0.479-0.434,1.049-0.713,1.851-0.115
			c0,1.314,0,2.734,0,3.582c-1.733,1.542-3.106,2.68-4.378,3.924c-0.842,0.823-1.526,1.805-2.299,2.701
			c-1.543,1.787-3.066,3.593-4.653,5.34c-2.423,2.668-4.882,5.303-7.348,7.932c-0.778,0.828-1.628,1.592-2.54,2.478
			c1.211,0.842,2.253,0.992,3.409,0.925c3.331-0.197,6.665-0.346,9.999-0.465c1.316-0.047,2.637,0.057,3.953,0.047
			c1.393-0.012,2.795,0.014,4.174-0.14c2.48-0.274,4.949-0.964,7.417-0.943c3.118,0.027,6.198-1.01,9.329-0.265
			c0.312,0.074,0.682-0.111,1.027-0.145c2.074-0.2,4.146-0.516,6.223-0.559c3.819-0.078,7.643-0.91,11.461,0.001
			c0.133,0.032,0.293,0.054,0.416,0.009c2.707-1.011,5.53-0.163,8.291-0.513c1.99-0.251,4.031-0.059,6.049-0.11
			c2.086-0.053,4.178-0.09,6.252-0.285c0.842-0.079,1.646-0.56,2.83-0.988c-2.773-3.785-5.34-7.308-7.936-10.808
			c-0.451-0.608-1.136-1.058-1.527-1.694c-2.058-3.334-4.592-6.289-7.246-9.142c-0.842-0.903-1.141-1.894-1.021-3.05
			c0.175-1.679,1.22-2.225,2.601-1.305c0.557,0.37,0.992,0.95,1.412,1.491c0.504,0.65,0.904,1.384,1.401,2.04
			c2.261,2.992,4.528,5.979,6.816,8.95C309.458,588.392,312.101,591.774,314.732,595.165z M306.314,545.909
			c-1.716-0.514-5.767-0.445-7.541-0.044c-1.757,0.396-3.538,0.882-5.319,0.938c-2.549,0.079-5.109-0.211-7.666-0.32
			c-2.086-0.089-4.175-0.148-6.262-0.214c-3.953-0.125-7.904-0.285-11.857-0.354c-3.546-0.06-7.094-0.064-10.639-0.003
			c-3.471,0.059-6.957-0.395-10.411,0.305c-1.29,0.261-2.578,0.574-3.882,0.705c-2.428,0.242-4.866,0.352-7.299,0.55
			c-0.994,0.081-1.98,0.247-3.161,0.399c0.317,0.621,0.407,0.983,0.634,1.209c2.143,2.14,4.243,4.332,6.486,6.362
			c2.974,2.692,6.048,5.279,9.116,7.867c1.487,1.255,2.949,2.604,4.626,3.552c1.873,1.056,3.738,1.971,5.344,3.513
			c1.935,1.858,4.356,3.201,5.79,5.6c0.239,0.401,0.675,0.687,1.015,1.032c2.005,2.041,4.703,2.924,7.125,4.271
			c1.584,0.881,3.049,0.549,4.531-0.344c2.625-1.578,4.484-3.934,6.385-6.227c3.236-3.908,6.362-7.906,9.555-11.852
			c0.83-1.024,1.77-1.96,2.59-2.992c1.035-1.303,1.961-2.695,3.004-3.992c2.312-2.875,4.675-5.709,6.998-8.574
			C305.804,546.891,306.023,546.397,306.314,545.909z"/>
		<path fill-rule="evenodd" clip-rule="evenodd" d="M514.647,490.405c-0.323-0.056-0.74-0.104-1.146-0.199
			c-2.568-0.595-5.16-1.105-7.691-1.828c-2.666-0.76-5.254-1.799-7.916-2.584c-4.669-1.38-9.358-2.625-14.312-2.574
			c-3.204,0.032-3.677-0.806-2.606-3.799c0.445-1.245,0.896-2.489,1.299-3.747c0.426-1.327,0.71-2.583,0.05-4.029
			c-0.671-1.474-0.095-2.448,1.333-3.292c0.826-0.488,1.643-0.516,2.273,0.205c0.689,0.788,1.506,1.108,2.5,1.317
			c0.795,0.167,1.576,0.586,2.264,1.042c3.466,2.302,7.354,3.637,11.293,4.739c2.865,0.803,5.864,1.13,8.809,1.649
			c2.533,0.446,5.076,0.845,7.609,1.303c1.601,0.29,2.018,0.992,1.46,2.502c-0.458,1.234-1.069,2.414-1.514,3.653
			c-0.324,0.903-0.522,1.857-0.718,2.802C517.298,489.196,516.12,490.378,514.647,490.405z"/>
		<path fill-rule="evenodd" clip-rule="evenodd" d="M529.704,496.376c0.752-2.332,1.393-4.597,1.218-7.009
			c-0.039-0.556-0.114-1.124-0.044-1.67c0.177-1.387,1.168-1.73,2.377-0.992c0.672,0.409,1.556,0.932,2.23,0.803
			c3.312-0.629,6.53,0.226,9.787,0.402c3.059,0.166,6.118,0.345,9.176,0.537c3.693,0.234,7.329,0.821,10.93,1.688
			c1.131,0.271,2.328,0.369,3.492,0.362c0.939-0.005,1.537,0.229,1.546,1.212c0.021,2.232,0.075,4.47-0.055,6.695
			c-0.126,2.164-2.425,3.791-4.611,3.469c-3.437-0.509-6.866-1.262-10.319-1.408c-3.33-0.142-6.61-0.665-9.928-0.843
			c-1.521-0.082-3.039-0.257-4.558-0.391c-0.208-0.019-0.438,0.006-0.622-0.074c-2.73-1.198-5.631-1.13-8.52-1.168
			C530.784,497.978,530.112,497.438,529.704,496.376z"/>
		<path fill-rule="evenodd" clip-rule="evenodd" d="M324.427,302.546c0.264-1.21,0.731-2.202,1.33-3.286
			c5.49-2.106,5.49-0.047,9.19-2.106c2.565,1.644,3.144,4.049,2.828,6.893c-0.315,2.846-0.274,5.658,0.348,8.513
			c0.573,2.636,0.638,5.382,0.921,8.081c0.207,1.977,0.693,3.826,2.408,5.207c-0.783,2.371-0.842,2.105-2.957,2.569
			c-2.055,0.449-4.064,1.36-5.484,3.117c-0.436,0.54-0.794,1.248-1.363,1.549c-0.676,0.357-1.609,0.626-2.303,0.445
			c-0.889-0.231-1.374-1.069-1.292-2.14C328.053,331.388,323.364,307.421,324.427,302.546z"/>
		<path fill-rule="evenodd" clip-rule="evenodd" d="M331.864,512.629c-0.385-0.188-0.994-0.487-1.604-0.788
			c-1.242-0.609-2.46-1.279-3.739-1.801c-0.43-0.176-1.103-0.139-1.509,0.085c-0.999,0.548-1.57,0.099-2.101-0.645
			c-0.717-1.005-0.838-1.996-0.117-2.669c3.262-3.045,5.284-7.041,8.085-10.445c1.919-2.334,3.289-5.117,4.938-7.678
			c0.293-0.454,0.786-0.774,1.132-1.2c1.217-1.497,2.475-2.969,3.591-4.539c0.789-1.111,1.236-1.385,2.35-0.624
			c1.2,0.823,2.311,1.781,3.436,2.714c1.273,1.058,2.496,2.18,3.783,3.222c1.635,1.321,1.441,2.673-0.329,3.678
			c-1.362,0.771-2.696,1.742-3.73,2.903c-1.841,2.066-3.427,4.356-5.153,6.525c-0.938,1.18-2.17,2.163-2.347,3.811
			c-0.014,0.128-0.091,0.3-0.192,0.361c-1.868,1.14-2.175,3.311-3.284,4.947C334.362,511.535,333.593,512.529,331.864,512.629z"/>
		<path fill-rule="evenodd" clip-rule="evenodd" d="M580.529,488.926c0.258-0.536,0.335-1.065,0.624-1.232
			c1.064-0.617,2.18-1.534,3.307-1.581c4.295-0.182,6.611-3.179,9.154-5.929c0.746-0.808,1.551-1.569,2.234-2.427
			c1.559-1.947,3.127-3.892,4.562-5.929c1.386-1.97,2.285-2.148,4.195-0.707c0.698,0.528,1.553,0.896,2.388,1.191
			c1.287,0.454,1.892,1.515,1.658,2.857c-0.934,5.373-3.941,9.706-7.026,13.98c-0.668,0.928-1.793,1.517-2.672,2.301
			c-2.18,1.944-4.331,3.919-6.511,5.862c-0.411,0.367-0.878,0.687-1.359,0.958c-2.427,1.364-3.222,1.114-4.839-1.127
			c-1.41-1.956-3.006-3.776-4.434-5.721C581.256,490.666,580.937,489.736,580.529,488.926z"/>
		<path fill-rule="evenodd" clip-rule="evenodd" d="M331.247,278.921c0.059-0.222,0.143-0.777,0.354-1.277
			c0.455-1.073,1.063-2.088,1.45-3.182c0.625-1.763,1.167-3.558,1.661-5.361c0.491-1.797,0.835-3.634,1.331-5.428
			c0.426-1.533,0.979-3.03,1.469-4.545c0.556-1.712,1.1-3.429,1.662-5.139c0.194-0.591,0.352-1.217,0.668-1.741
			c0.602-0.994,1.496-1.015,2.619-0.585c1.868,0.717,3.814,1.229,5.725,1.837c0.851,0.271,1.788,0.419,2.518,0.886
			c1.166,0.746,1.112,1.521,0.629,2.866c-1.656,4.617-3.924,9.009-4.793,13.921c-0.551,3.113-1.522,6.154-2.34,9.217
			c-0.35,1.302-1.205,1.9-2.426,1.688c-2.735-0.481-5.452-0.932-8.257-0.479C332.181,281.813,331.286,280.758,331.247,278.921z"/>
		<path fill-rule="evenodd" clip-rule="evenodd" d="M408.368,572.151c-1.373-0.312-2.546,0.051-3.846,0.49
			c-1.676,0.566-3.557,0.572-5.355,0.718c-3.256,0.263-6.514,0.486-9.773,0.653c-2.432,0.126-4.869,0.141-7.305,0.194
			c-0.275,0.006-0.559-0.018-0.828-0.077c-2.458-0.542-2.678-1.005-2.041-3.462c0.254-0.978,0.217-2.035,0.273-3.059
			c0.057-1.038,0.014-2.085,0.105-3.119c0.127-1.435,0.94-2.21,2.334-1.996c4.627,0.71,9.285,0.624,13.939,0.733
			c1.131,0.026,2.186,0.101,3.109-0.804c0.31-0.302,1.129-0.437,1.517-0.245c2.583,1.275,4.871,0.131,7.224-0.695
			c0.911-0.32,1.854-0.627,2.807-0.734c2.195-0.243,3.663,1.413,3.357,3.621c-0.201,1.446-0.412,2.896-0.497,4.352
			c-0.12,2.066-1.343,3.367-3.382,3.428C409.449,572.165,408.892,572.151,408.368,572.151z"/>
		<path fill-rule="evenodd" clip-rule="evenodd" d="M485.707,551.019c2.087-1.622,4.448-2.008,6.761-2.362
			c3.658-0.559,7.343-0.518,11.047-0.318c4.087,0.22,8.191,0.169,12.287,0.149c2.752-0.015,3.363,0.543,3.383,3.174
			c0.01,1.24,0.247,2.481,0.425,3.716c0.099,0.688,0.34,1.356,0.426,2.044c0.243,1.951-0.347,2.57-2.335,2.359
			c-0.953-0.102-1.889-0.391-2.828-0.603c-0.406-0.091-0.805-0.269-1.213-0.29c-3.471-0.186-6.934-0.485-10.414-0.02
			c-2.404,0.322-4.831,0.504-7.253,0.648c-2.043,0.121-3.966,0.562-5.835,1.415c-1.597,0.729-3.526-0.62-3.18-2.294
			c0.467-2.242,0.123-4.269-0.828-6.273C485.974,551.995,485.889,551.585,485.707,551.019z"/>
		<path fill-rule="evenodd" clip-rule="evenodd" d="M482.888,385.323c1.053,0.514,1.443,1.463,1.547,2.668
			c0.13,1.519,0.301,3.045,0.611,4.536c0.432,2.081,0.42,2.337-0.988,3.922c-1.802,0.253-3.49,0.297-5.061,0.747
			c-4.715,1.354-9.585,1.781-14.385,2.625c-3.22,0.566-6.43,1.194-9.634,1.846c-0.664,0.136-1.303,0.454-1.919,0.758
			c-1.186,0.587-2.225,0.227-2.599-1.023c-0.176-0.591-0.266-1.232-0.259-1.851c0.021-1.739,0.123-3.478,0.176-5.217
			c0.051-1.63,0.977-2.663,2.58-2.607c3.598,0.124,7.039-0.695,10.502-1.493c2.908-0.67,5.863-1.143,8.785-1.764
			c1.012-0.215,1.979-0.631,2.975-0.924C477.687,386.82,480.159,386.112,482.888,385.323z"/>
		<path fill-rule="evenodd" clip-rule="evenodd" d="M389.273,397.04c-0.226-0.069-0.899-0.215-1.526-0.474
			c-3.008-1.249-5.996-2.543-9.004-3.789c-1.926-0.797-3.885-1.515-5.807-2.322c-0.426-0.18-0.753-0.593-1.133-0.889
			c-0.434-0.338-0.836-0.747-1.32-0.981c-1.418-0.686-2.846-1.295-4.047-2.395c-0.487-0.446-1.405-0.629-2.108-0.589
			c-1.45,0.084-2.171-0.813-2.825-1.806c-0.484-0.738-0.152-1.646,0.901-2.248c2.581-1.472,4.632-3.484,6.364-5.866
			c0.703-0.966,1.486-1.189,2.542-0.623c0.786,0.422,1.536,0.981,2.165,1.614c1.57,1.583,3.158,3.089,5.234,4.042
			c2.772,1.271,5.434,2.792,8.24,3.975c1.578,0.666,3.342,0.921,5.041,1.265c2.021,0.41,2.443,0.907,2.072,2.982
			c-0.377,2.108-0.812,4.205-1.266,6.299C392.492,396.649,391.88,396.982,389.273,397.04z"/>
		<path fill-rule="evenodd" clip-rule="evenodd" d="M437.036,395.739c-0.168,0.944-0.417,1.884-0.486,2.836
			c-0.091,1.236-0.092,2.486-0.033,3.725c0.105,2.23-1.004,3.024-3.132,2.303c-0.896-0.305-1.879-0.427-2.829-0.467
			c-3.451-0.146-6.904-0.224-10.357-0.321c-0.832-0.023-1.664-0.028-2.496-0.039c-1.285-0.018-2.623,0.359-3.737-0.724
			c-0.235-0.228-0.808-0.074-1.208-0.172c-2.156-0.525-4.342-0.965-6.447-1.648c-1.93-0.625-2.053-1.365-1.332-3.277
			c0.435-1.156,0.53-2.44,0.764-3.67c0.42-2.212,1.064-2.571,3.318-2.295c2.824,0.348,5.666,0.578,8.508,0.752
			c2.979,0.182,5.982,0.075,8.943,0.396c2.565,0.278,4.986-0.334,7.461-0.638c2.41-0.294,3.146,0.34,3.008,2.8
			c-0.008,0.139-0.043,0.275-0.065,0.414C436.956,395.722,436.996,395.73,437.036,395.739z"/>
		<path fill-rule="evenodd" clip-rule="evenodd" d="M370.023,234.29c-0.529,1.473-1.006,2.968-1.609,4.411
			c-0.428,1.021-1.022,1.975-1.553,2.953c-0.525,0.972-1.292,1.594-2.418,1.798c-1.577,0.284-3.145,0.62-4.709,0.966
			c-3.455,0.765-5.91-0.901-7.572-3.585c-1.227-1.978-1.975-4.285-2.729-6.517c-1.539-4.546,2.609-10.572,7.615-10.501
			c1.668,0.025,3.371,0.038,4.992,0.377C366.379,225.102,370.019,230.014,370.023,234.29z"/>
		<path fill-rule="evenodd" clip-rule="evenodd" d="M705.774,594.298c-2.367,0-4.854-0.07-7.334,0.02
			c-2.5,0.09-4.995,0.334-7.492,0.518c-2.012,0.148-4.029,0.258-6.033,0.48c-1.023,0.113-2.02,0.471-3.039,0.652
			c-0.596,0.104-1.267,0.25-1.812,0.081c-1.96-0.605-4.12-4.073-3.918-6.074c0.125-1.236,0.229-2.476,0.291-3.716
			c0.09-1.754,0.743-2.584,2.469-2.252c3.388,0.653,6.781,0.338,10.168,0.418c2.633,0.062,5.281-0.287,7.906-0.142
			c2.533,0.14,4.776-0.683,7.088-1.415c1.818-0.577,2.769,0.105,2.865,2.021c0.086,1.735,0.182,3.473,0.201,5.21
			C707.149,591.521,706.735,592.837,705.774,594.298z"/>
		<path fill-rule="evenodd" clip-rule="evenodd" d="M335.397,544.776c-0.574,0.85-1.07,1.585-1.621,2.4
			c-1.649-0.413-3.111-0.191-4.516,0.866c-0.856,0.646-1.968,0.956-3.176,0.692c-0.553-0.121-1.197,0.202-1.805,0.283
			c-1.383,0.184-2.268-0.6-1.885-1.928c0.309-1.068,0.04-1.866-0.385-2.751c-0.875-1.816-1.676-3.669-2.577-5.472
			c-1.243-2.484-1.468-5.185-1.786-7.869c-0.161-1.369-0.316-2.739-0.434-4.113c-0.094-1.103-0.291-2.232-0.149-3.311
			c0.229-1.736,1.231-2.248,2.968-1.822c0.669,0.164,1.363,0.277,2.051,0.303c2.214,0.083,4.432,0.068,6.643,0.18
			c1.754,0.087,2.457,1.102,1.979,2.811c-0.449,1.604-1.188,3.141-0.922,4.878c0.053,0.343-0.018,0.72,0.094,1.037
			c0.674,1.914,0.859,3.907,1.076,5.904c0.291,2.683,1.857,4.746,3.476,6.765C334.688,543.954,334.964,544.264,335.397,544.776z"/>
		<path fill-rule="evenodd" clip-rule="evenodd" d="M604.909,441.21c-0.18-2.075-0.309-4.157-0.555-6.225
			c-0.206-1.742-0.696-3.371-1.986-4.719c-0.379-0.395-0.52-1.338-0.329-1.873c0.215-0.608,0.888-0.861,1.74-0.701
			c1.575,0.293,3.13-0.014,4.687-0.477c0.868-0.258,1.907-0.147,2.824,0.029c0.682,0.13,1.043,0.708,1.156,1.537
			c0.166,1.21,0.523,2.414,0.951,3.564c1.74,4.667,2.723,9.471,2.666,14.457c-0.018,1.729-0.208,3.457-0.347,5.183
			c-0.084,1.041-0.147,2.092-0.349,3.112c-0.404,2.044-1.155,2.596-3.16,2.412c-2.215-0.202-4.426-0.43-6.637-0.668
			c-1.209-0.131-1.641-0.536-1.605-1.72c0.042-1.381,0.271-2.754,0.344-4.134c0.173-3.254,0.301-6.509,0.447-9.764
			C604.808,441.221,604.858,441.215,604.909,441.21z"/>
		<path fill-rule="evenodd" clip-rule="evenodd" d="M424.076,468.253c-0.245-0.044-0.86-0.155-1.478-0.258
			c-0.742-0.123-1.496-0.379-2.23-0.332c-4.216,0.266-8.444,0.46-12.633,0.979c-2.041,0.253-4.007,1.142-5.997,1.774
			c-1.429,0.453-2.005,0.169-2.462-1.287c-0.412-1.306-0.652-2.529-0.458-4.004c0.22-1.653-0.438-3.42-0.702-5.139
			c-0.404-2.623,0.689-3.574,3.25-2.907c1.672,0.435,3.359,0.835,5.06,1.138c0.733,0.131,1.519-0.008,2.278-0.047
			c2.338-0.123,4.721,0.173,6.973-0.766c0.182-0.076,0.416-0.053,0.623-0.034c3.251,0.293,6.507,0.544,9.75,0.912
			c2.016,0.229,2.395,0.978,1.931,2.983c-0.378,1.628-0.615,3.287-0.94,4.927C426.722,467.79,426.055,468.309,424.076,468.253z"/>
		<path fill-rule="evenodd" clip-rule="evenodd" d="M597.396,421.145c-1.041-1.65-1.98-2.783-2.523-4.083
			c-0.895-2.144-2.807-3.184-4.42-4.558c-1.705-1.454-3.34-2.94-4.783-4.691c-1.209-1.464-2.822-2.638-4.394-3.745
			c-2.726-1.921-2.389-3.261-1.065-5.396c0.506-0.816,1.248-1.486,1.883-2.223c0.629-0.728,1.303-1.42,1.876-2.188
			c0.985-1.317,2.544-1.474,3.718-0.318c2.077,2.043,4.23,4.014,6.221,6.136c2.797,2.981,5.48,6.069,8.202,9.12
			c0.74,0.83,1.47,1.674,2.157,2.548c0.656,0.834,0.578,1.747-0.129,2.465c-1.544,1.567-3.184,3.041-4.747,4.589
			C598.785,419.398,598.278,420.097,597.396,421.145z"/>
		<path fill-rule="evenodd" clip-rule="evenodd" d="M541.196,382.569c0.062-0.694,0.12-1.389,0.186-2.084
			c0.328-3.488,3.01-5.143,6.316-4.058c3.96,1.301,7.972,2.445,11.957,3.67c1.198,0.369,2.382,0.783,3.575,1.166
			c2.562,0.823,5.118,1.665,7.692,2.448c1.568,0.478,1.912,1.017,1.447,2.553c-0.423,1.399-0.779,2.822-1.279,4.192
			c-0.329,0.901-0.782,1.78-1.316,2.578c-1.37,2.051-1.539,1.928-3.58,0.704c-1.824-1.097-3.836-1.912-5.824-2.702
			c-2.701-1.074-5.428-2.103-8.199-2.971c-2.718-0.852-5.499-1.503-8.266-2.183c-0.641-0.157-1.459,0.191-1.846-0.604
			c-0.414-0.848-0.737-1.74-1.1-2.613C541.038,382.635,541.117,382.602,541.196,382.569z"/>
		<path fill-rule="evenodd" clip-rule="evenodd" d="M383.313,461.71c1.934,0.447,2.359,2.004,2.73,3.598
			c0.234,1.009,0.428,2.028,0.693,3.028c0.326,1.234,0.316,2.33-0.842,3.182c-0.44,0.325-0.77,0.801-1.17,1.187
			c-0.664,0.637-1.447,0.945-2.264,0.388c-0.797-0.544-1.527-0.425-2.375-0.178c-3.67,1.073-7.215,2.484-10.547,4.331
			c-1.393,0.771-2.734,1.541-4.24,2.101c-0.995,0.37-1.819,1.244-2.669,1.955c-1.497,1.255-3.931,0.653-4.401-1.252
			c-0.201-0.813-0.648-1.299-1.076-1.919c-1.021-1.486-1.912-3.064-2.801-4.637c-0.365-0.645-0.439-1.452,0.225-1.899
			c0.518-0.348,1.399-0.698,1.854-0.485c1.183,0.559,2.08,0.242,3.152-0.25c1.121-0.515,2.388-0.705,3.576-1.082
			c0.724-0.229,1.493-0.43,2.113-0.838c2.947-1.942,6.254-2.992,9.58-4.01c2.051-0.627,4.116-1.215,6.138-1.925
			C381.821,462.712,382.555,462.143,383.313,461.71z"/>
		<path fill-rule="evenodd" clip-rule="evenodd" d="M435.223,566.504c0.167-2.488,0.263-4.983,0.526-7.462
			c0.188-1.77,1.574-2.625,3.325-2.356c0.675,0.104,1.386,0.065,2.069-0.005c1.582-0.158,3.159-0.369,4.736-0.572
			c4.947-0.633,9.955-0.889,14.747-2.467c0.56-0.184,1.218-0.073,1.831-0.089c1.065-0.026,1.334,0.565,1.502,1.554
			c0.451,2.656,1.039,5.291,1.642,7.918c0.274,1.201-0.935,2.735-2.196,2.624c-3.027-0.267-6.059-0.787-9.08-0.741
			c-2.894,0.045-5.815,0.502-8.656,1.096c-2.709,0.568-5.328,1.564-7.996,2.34C436.183,568.776,435.112,567.967,435.223,566.504z"/>
		<path fill-rule="evenodd" clip-rule="evenodd" d="M439.427,465.53c0.029-1.374,0.329-2.727-0.574-4.033
			c-0.523-0.758-0.073-1.624,0.473-2.307c0.66-0.827,1.585-0.826,2.486-0.602c2.156,0.536,4.285,1.184,6.447,1.694
			c2.365,0.56,4.785,0.9,7.126,1.542c3.599,0.986,7.331,1.574,10.698,3.32c0.43,0.223,0.881,0.411,1.338,0.574
			c1.783,0.634,2.096,1.074,1.855,2.896c-0.264,1.997-0.495,3.989-1.935,5.621c-0.785,0.89-1.639,1.298-2.751,0.995
			c-1.866-0.509-3.723-0.931-5.492-1.881c-2.107-1.134-4.375-1.98-6.809-2.483c-1.892-0.39-3.758-0.907-5.693-1.02
			c-1.723-0.099-3.453-0.133-5.178-0.11c-1.482,0.02-1.861-0.221-1.98-1.707C439.372,467.202,439.427,466.364,439.427,465.53z"/>
		<path fill-rule="evenodd" clip-rule="evenodd" d="M370.542,564.425c-0.6,0.463-1.239,0.959-1.935,1.496
			c-0.112,1.17,0.132,2.65-0.45,3.652c-0.718,1.24-2.12,2.082-3.262,3.128c-0.803-0.594-1.432-1.012-2.009-1.493
			c-2.655-2.213-6.015-2.792-9.128-3.934c-2.529-0.929-5.091-1.777-7.646-2.641c-1.186-0.4-2.372-0.811-3.586-1.108
			c-1.973-0.483-3.594-1.47-4.83-3.081c-0.788-1.027-0.691-1.985,0.473-2.498c0.896-0.395,0.91-1.127,1.199-1.802
			c0.378-0.881,0.668-1.844,1.234-2.591c0.971-1.283,2.482-1.044,3.705,0.041c1.114,0.988,2.44,1.881,3.83,2.391
			c5.012,1.838,9.783,4.344,15.03,5.518c1.34,0.299,2.733,0.459,4.106,0.488C369.196,562.03,369.64,562.26,370.542,564.425z"/>
		<path fill-rule="evenodd" clip-rule="evenodd" d="M527.521,378.93c1.264,0.939,1.729,1.929,1.098,3.35
			c-0.264,0.591-0.08,1.37-0.146,2.06c-0.115,1.217-0.473,1.496-1.701,1.647c-1.304,0.16-2.591,0.465-3.896,0.609
			c-3.791,0.423-7.592,0.765-11.381,1.2c-2.627,0.302-5.226,0.685-7.492,2.29c-1.277,0.904-2.371,0.348-2.777-1.203
			c-0.105-0.399-0.146-0.825-0.309-1.198c-0.346-0.789-1.227-1.357-0.836-2.438c0.537-1.494,0.596-3.351,1.949-4.282
			c1.389-0.955,3.07-1.659,4.723-2.021c3.041-0.665,6.176-0.893,9.232-1.502c3.19-0.636,6.342-1.477,9.491-2.3
			c0.737-0.193,1.366-0.706,2.066,0.069c0.819,0.906,1.011,1.732,0.524,2.846C527.96,378.302,527.783,378.517,527.521,378.93z"/>
		<path fill-rule="evenodd" clip-rule="evenodd" d="M542.38,553.233c1.55,0.271,3.123,0.484,4.669,0.828
			c4.403,0.98,8.791,2.028,13.191,3.021c1.56,0.352,3.149,0.577,4.705,0.943c2.106,0.497,2.8,1.756,2.593,3.98
			c-0.135,1.438,0.062,2.906,0.072,4.361c0.015,2.123-1.132,2.853-3.121,2.134c-1.744-0.632-3.502-1.358-5.316-1.642
			c-3.69-0.58-6.985-2.297-10.508-3.345c-2.669-0.794-5.277-1.689-8.137-1.356c-0.4,0.047-1.018-0.35-1.272-0.722
			c-0.716-1.047-1.222-2.155-0.498-3.491c0.278-0.514,0.196-1.222,0.271-1.843c0.093-0.76,0.028-1.58,0.307-2.263
			c0.262-0.646,0.785-1.354,1.38-1.625C541.024,552.074,541.737,552.817,542.38,553.233z"/>
		<path fill-rule="evenodd" clip-rule="evenodd" d="M613.882,576.165c0,0.599,0.027,1.436-0.004,2.27
			c-0.072,1.791-1.297,2.519-2.961,1.858c-3.951-1.569-8.016-2.672-12.26-3.165c-2.263-0.264-4.486-0.871-6.724-1.334
			c-1.839-0.382-3.671-0.794-5.512-1.17c-2.213-0.453-2.636-1.361-1.655-3.354c0.609-1.24,1.072-2.553,1.604-3.831
			c0.307-0.737,0.225-1.85,1.257-1.967c1.14-0.129,2.367-0.166,3.459,0.123c1.656,0.441,3.203,1.623,4.842,1.72
			c2.486,0.146,4.509,1.583,6.913,1.863c2.337,0.271,4.638,0.846,6.954,1.289c0.136,0.026,0.268,0.077,0.403,0.105
			c3.475,0.749,3.87,1.247,3.753,4.729C613.944,575.511,613.919,575.72,613.882,576.165z"/>
		<path fill-rule="evenodd" clip-rule="evenodd" d="M782.145,547.433c-0.526,0.702-0.96,1.416-1.524,2.006
			c-2.544,2.66-5.086,5.322-7.703,7.91c-2.324,2.297-4.76,4.482-7.112,6.753c-0.544,0.524-0.94,1.2-1.415,1.8
			c-1.528,1.923-3.172,1.877-4.523-0.172c-0.838-1.272-1.602-2.594-2.393-3.897c-0.873-1.437-0.902-2.104,0.303-3.318
			c1.411-1.423,2.924-2.762,4.503-3.998c1.464-1.146,3.165-1.993,4.595-3.175c2.402-1.986,4.664-4.146,7.008-6.205
			c0.724-0.636,1.469-1.279,2.299-1.752c0.971-0.553,2.364-0.182,3.117,0.625c0.662,0.709,1.371,1.373,2.014,2.1
			C781.618,546.456,781.817,546.901,782.145,547.433z"/>
		<path fill-rule="evenodd" clip-rule="evenodd" d="M789.635,535.637c-0.03-1.028,0.376-1.746,1.141-2.517
			c2.309-2.329,5.268-3.623,7.965-5.326c2.12-1.339,4.315-2.556,6.484-3.815c0.419-0.243,0.849-0.505,1.308-0.638
			c1.963-0.573,3.794-1.361,5.166-2.927c3.242,0.896,3.966,3.698,4.828,6.294c0.439,1.32-0.116,1.929-1.512,2.529
			c-3.362,1.451-6.758,2.839-10.043,4.449c-1.836,0.9-3.799,1.813-4.703,3.913c-0.053,0.121-0.171,0.224-0.278,0.31
			c-1.288,1.031-2.538,2.118-3.884,3.07c-1.57,1.11-2.553,0.843-3.558-0.847c-0.639-1.074-1.196-2.196-1.849-3.263
			C790.421,536.412,789.995,536.045,789.635,535.637z"/>
		<path fill-rule="evenodd" clip-rule="evenodd" d="M744.635,569.793c1.153,0.443,1.821,1.05,1.7,2.485
			c-0.094,1.141,0.271,2.336,0.523,3.486c0.391,1.783,0.238,2.302-1.238,3.377c-0.335,0.243-0.688,0.491-1.068,0.641
			c-2.52,0.981-5.021,2.021-7.584,2.877c-2.822,0.94-5.686,1.773-8.568,2.514c-1.471,0.377-3.014,0.531-4.535,0.629
			c-1.385,0.088-1.812-0.479-1.825-1.889c-0.016-1.658,0.011-3.326-0.159-4.971c-0.161-1.558,0.342-2.551,1.869-2.869
			c1.156-0.241,2.334-0.374,3.506-0.512c4.596-0.542,8.902-1.904,12.947-4.196C741.497,570.631,743.044,570.341,744.635,569.793z"/>
		<path fill-rule="evenodd" clip-rule="evenodd" d="M659.595,590.522c-1.426,0.828-2.885,0.552-4.313,0.318
			c-3.564-0.583-7.124-1.205-10.68-1.844c-0.957-0.17-1.898-0.435-2.837-0.697c-2.209-0.62-4.422-1.231-6.614-1.914
			c-0.778-0.242-1.562-0.59-2.229-1.053c-0.844-0.59-1.086-1.574-0.488-2.389c0.566-0.771,0.538-1.514,0.54-2.354
			c0.005-1.822,1.548-2.839,3.28-2.246c3.426,1.173,6.881,2.35,10.518,2.507c2.93,0.126,5.734,0.851,8.6,1.265
			c0.753,0.109,1.52,0.146,2.279,0.165c1.772,0.043,2.575,0.78,2.485,2.513C660.034,586.722,660.46,588.71,659.595,590.522z"/>
		<path fill-rule="evenodd" clip-rule="evenodd" d="M851.261,531.057c-0.975-1.345-2.27-1.681-3.827-1.752
			c-3.259-0.149-6.5-0.656-9.757-0.764c-2.279-0.075-4.578,0.215-6.859,0.439c-1.966,0.194-3.817-0.722-4.594-2.49
			c-0.158-0.358-0.222-0.818-0.158-1.204c0.184-1.094,0.404-2.188,0.705-3.256c0.396-1.414,1.021-1.903,2.58-1.889
			c1.17,0.011,2.336,0.28,3.508,0.344c2.557,0.139,5.129,0.096,7.672,0.35c3.861,0.387,7.705,0.955,11.553,1.466
			c0.619,0.083,1.234,0.231,1.83,0.417c0.822,0.255,1.268,0.832,1.209,1.72c-0.102,1.526-0.145,3.064-0.377,4.571
			c-0.078,0.508-0.573,1.104-1.041,1.36C853.055,530.724,852.251,530.797,851.261,531.057z"/>
		<path fill-rule="evenodd" clip-rule="evenodd" d="M871.46,539.214c-2.713,0.076-5.325-0.863-7.731-2.586
			c-3.05-2.182-4.136-5.615-3.097-9.448c1.107-4.082,4.182-6.291,8.186-6.61c2.161-0.173,4.654-0.129,6.657,1.185
			c2.349,1.54,3.788,3.846,4.644,6.48c0.25,0.77,0.238,1.658,0.195,2.483C880.128,534.163,876.649,539.745,871.46,539.214z
			 M875.333,530.121c0.062-1.934-0.94-3.344-2.115-4.673c-1.428-1.617-2.936-2.02-4.839-0.973c-1.192,0.656-2.231,1.631-3.24,2.57
			c-1.197,1.116-1.522,3.013-0.44,4.151c1.418,1.492,3.019,2.937,4.804,3.924c2.144,1.186,4.339,0.133,5.21-2.158
			C875.052,532.066,875.134,531.072,875.333,530.121z"/>
		<path fill-rule="evenodd" clip-rule="evenodd" d="M429.298,118.471c-0.43,0.616-0.791,1.192-1.21,1.722
			c-2.148,2.708-5.04,4.57-7.887,6.361c-1.425,0.896-3.446,0.906-5.22,1.171c-2.053,0.306-4.127,0.516-6.2,0.646
			c-1.804,0.114-3.603,0.069-5.313-0.729c-1.187-0.555-2.448-0.948-3.678-1.412c-0.194-0.072-0.401-0.116-0.59-0.205
			c-1.236-0.582-1.951-1.731-1.605-2.57c0.373-0.908,2.299-1.334,3.314-0.501c2.25,1.85,4.965,2.092,7.619,2.209
			c1.898,0.083,3.826-0.515,5.738-0.813c0.206-0.031,0.414-0.157,0.608-0.135c4.366,0.503,6.698-2.714,9.445-5.162
			c0.255-0.229,0.435-0.54,0.671-0.793C426.655,116.482,427.247,116.482,429.298,118.471z"/>
		<path fill-rule="evenodd" clip-rule="evenodd" d="M396.806,107.848c-0.018,0.278,0.02,0.778-0.089,1.244
			c-0.931,3.988-2.78,4.865-6.281,3.468c-1.169-0.467-2.179-1.439-3.124-2.326c-0.82-0.77-0.859-1.875-0.586-2.929
			c0.59-2.267,3.356-4.436,5.68-4.496c2.439-0.063,4.072,1.371,4.312,3.794C396.752,106.947,396.767,107.294,396.806,107.848z"/>
		<path fill-rule="evenodd" clip-rule="evenodd" d="M418.776,103.041c0.435,0.105,0.863,0.264,1.305,0.305
			c1.59,0.151,2.203,0.95,1.861,2.488c-0.029,0.134-0.09,0.262-0.146,0.387c-0.254,0.567-0.511,1.131-0.804,1.779
			c-1.059,0.131-1.899,0.081-2.743-0.87c-0.924-1.04-2.353-1.076-3.71-0.903c-0.815,0.104-1.646,0.387-2.179-0.626
			c-0.562-1.064-0.22-1.891,0.574-2.595c1.291-1.146,2.598-2.277,3.943-3.357c1.193-0.959,2.65-1.145,4.127-1.209
			c1.171-0.051,2.342-0.119,3.513-0.176c0.995-0.048,1.96,0.546,2.356,1.421c0.383,0.842,0.096,1.555-0.576,2.014
			c-0.412,0.281-1.029,0.367-1.553,0.362c-0.971-0.011-1.945-0.111-2.907-0.249c-1.149-0.166-2.138,0.127-3.058,0.72
			C418.779,102.701,418.778,102.872,418.776,103.041z"/>
	</g>
</g>
</svg>
