<?xml version="1.0" encoding="utf-8"?>
<!-- Generator: Adobe Illustrator 16.0.4, SVG Export Plug-In . SVG Version: 6.00 Build 0)  -->
<!DOCTYPE svg PUBLIC "-//W3C//DTD SVG 1.1//EN" "http://www.w3.org/Graphics/SVG/1.1/DTD/svg11.dtd">
<svg version="1.1" id="Layer_1" xmlns="http://www.w3.org/2000/svg" xmlns:xlink="http://www.w3.org/1999/xlink" x="0px" y="0px"
	 width="621px" height="635.697px" viewBox="0 0 621 635.697" enable-background="new 0 0 621 635.697" xml:space="preserve">
<path fill-rule="evenodd" clip-rule="evenodd" fill="#BCBEC0" d="M217.195,380.329c-0.002-2.125-0.07-2.187-2.28-2.189
	c-5.867-0.006-11.733-0.001-17.599-0.001c-5.925,0-11.849,0.048-17.771-0.031c-1.645-0.021-2.22,0.478-2.202,2.163
	c0.076,7.073,0.03,14.148,0.034,21.223c0.001,2.26,0.049,2.42,2.34,2.261c1.998-0.138,3.377,0.52,4.498,2.154
	c0.907,1.321,2.091,2.45,3.06,3.733c0.685,0.905,1.189,0.83,1.885,0.036c1.363-1.558,2.828-3.027,4.172-4.6
	c0.818-0.959,1.74-1.318,3.001-1.308c6.269,0.053,12.538-0.019,18.806,0.051c1.593,0.019,2.103-0.518,2.088-2.097
	C217.161,394.594,217.202,387.461,217.195,380.329z M184.891,383.77c7.578-0.012,15.157-0.012,22.735,0
	c0.836,0.002,1.854-0.149,1.821,1.196c-0.035,1.358-1.092,1.104-1.897,1.109c-3.789,0.025-7.578,0.012-11.367,0.012
	c-3.73,0-7.463,0.014-11.193-0.012c-0.809-0.005-1.873,0.245-1.917-1.098C183.028,383.648,184.045,383.771,184.891,383.77z
	 M199.85,398.161c-2.53,0.002-5.06,0.001-7.589,0.001c-2.529-0.001-5.058,0-7.587-0.001c-0.871-0.001-1.642-0.126-1.628-1.271
	c0.012-1.059,0.786-1.19,1.55-1.193c5.115-0.022,10.23-0.022,15.347-0.001c0.768,0.004,1.539,0.157,1.549,1.202
	C201.501,398.038,200.717,398.16,199.85,398.161z M207.84,392.221c-3.853,0.016-7.706,0.007-11.56,0.007c0,0.008,0,0.014,0,0.02
	c-3.393,0-6.786,0.002-10.179,0c-0.517-0.002-1.036-0.003-1.553-0.029c-0.812-0.043-1.493-0.254-1.503-1.264
	c-0.01-1.003,0.626-1.275,1.467-1.275c7.822-0.005,15.643-0.006,23.464-0.001c0.823,0,1.487,0.212,1.492,1.239
	C209.475,392.057,208.693,392.218,207.84,392.221z"/>
<path fill-rule="evenodd" clip-rule="evenodd" fill="#509B56" d="M489.585,321.392c-0.004-3.389-0.113-3.487-3.637-3.492
	c-9.357-0.009-18.713-0.001-28.066-0.001c-9.449,0-18.896,0.076-28.342-0.05c-2.623-0.034-3.539,0.761-3.512,3.45
	c0.121,11.28,0.049,22.563,0.055,33.845c0.002,3.604,0.078,3.859,3.732,3.605c3.186-0.22,5.385,0.828,7.172,3.436
	c1.447,2.107,3.336,3.907,4.881,5.954c1.092,1.443,1.896,1.323,3.006,0.058c2.174-2.484,4.51-4.828,6.652-7.335
	c1.305-1.529,2.775-2.103,4.785-2.086c9.998,0.084,19.996-0.029,29.99,0.081c2.541,0.029,3.354-0.825,3.33-3.344
	C489.53,344.141,489.595,332.766,489.585,321.392z M438.065,326.879c12.086-0.019,24.172-0.019,36.258,0
	c1.334,0.003,2.957-0.238,2.904,1.907c-0.057,2.167-1.74,1.762-3.025,1.77c-6.043,0.041-12.086,0.019-18.129,0.019
	c-5.949,0-11.9,0.022-17.85-0.019c-1.291-0.008-2.988,0.391-3.059-1.75C435.097,326.686,436.718,326.882,438.065,326.879z
	 M461.921,349.83c-4.035,0.003-8.068,0.001-12.102,0.001c-4.033-0.001-8.066,0-12.1-0.001c-1.389-0.002-2.617-0.201-2.596-2.028
	c0.018-1.688,1.254-1.898,2.471-1.902c8.158-0.036,16.316-0.036,24.475-0.002c1.225,0.006,2.455,0.251,2.471,1.917
	C464.556,349.634,463.306,349.828,461.921,349.83z M474.665,340.356c-6.145,0.024-12.291,0.011-18.436,0.011
	c0,0.013,0,0.021,0,0.031c-5.41,0-10.822,0.003-16.232,0c-0.824-0.003-1.652-0.005-2.477-0.047
	c-1.295-0.068-2.381-0.405-2.396-2.015c-0.016-1.6,0.998-2.034,2.34-2.034c12.475-0.008,24.945-0.01,37.418-0.002
	c1.312,0,2.373,0.338,2.381,1.977C477.271,340.095,476.026,340.352,474.665,340.356z"/>
<g>
	<path fill="#E6E7E8" d="M439.68,470.667c-0.222-0.11-0.449-0.164-0.673-0.154c-5.236-1.002-10.865-2.582-14.441-6.782
		c-1.432-1.68-1.31-3.055-1.952-4.592c-1.806-4.335-1.445-9.981-1.514-14.578c-0.051-3.294-0.01-6.595,0.126-9.886
		c0.039-0.911-0.791-1.673-1.673-1.673c-18.189,0-36.381,0-54.572,0c-0.883,0-1.713,0.762-1.675,1.673
		c0.168,4.032,0.182,8.072,0.084,12.101c-0.066,2.932-0.211,5.882-0.626,8.784c-0.23,1.614-1.137,3.272-1.23,4.841
		c-0.13,2.262-3.124,5.155-5.516,6.597c-3.294,1.987-7.17,2.9-10.91,3.597c-1.1,0.205-1.689,1.766-1.677,2.721
		c0.051,3.571,5.778,3.22,8.168,3.22c4.057,0,8.114,0,12.17,0c8.189,0,16.384,0,24.578,0c9.712,0,19.427,0,29.141,0
		c5.364,0,10.73,0,16.097,0c1.996,0,5.073,0.191,6.626-1.381c1.044-1.058,1.104-2.482,0.344-3.635
		C440.431,471.139,440.148,470.824,439.68,470.667z"/>
	<path fill="#E6E7E8" d="M519.37,243.633c-6.395,0-12.783,0-19.174,0H490.5c-20.865,0-41.733,0-62.595,0c-25.358,0-50.72,0-76.076,0
		c-20.77,0-41.539,0-62.307,0c-7.749,0-15.493,0-23.237,0c-2.993,0-5.486,2.496-5.486,5.487c0,12.318,0,24.636,0,36.954
		c0,24.665,0,49.332,0,73.997c0,18.586,0,37.168,0,55.753c0,1.66,0,3.317,0,4.976c0,2.991,2.493,5.488,5.486,5.488
		c9.036,0,18.076,0,27.112,0c21.45,0,42.9,0,64.349,0c25.355,0,50.718,0,76.076,0c20.768,0,41.539,0,62.31,0
		c7.743,0,15.49,0,23.238,0c2.989,0,5.481-2.497,5.481-5.488c0-12.317,0-24.637,0-36.953c0-24.665,0-49.333,0-74
		c0-18.584,0-37.167,0-55.751c0-1.659,0-3.317,0-4.975C524.852,246.129,522.359,243.633,519.37,243.633z M391.354,416.044
		c-3.722,0-6.734-3.016-6.734-6.732c0-3.72,3.013-6.733,6.734-6.733c3.716,0,6.729,3.014,6.729,6.733
		C398.083,413.028,395.069,416.044,391.354,416.044z M508.048,391.671H279.222V263.218H477.65h9.694h20.703V391.671z"/>
</g>
<path fill-rule="evenodd" clip-rule="evenodd" fill="#E6E7E8" d="M236.239,332.77c-23.922,0-53.912,0-77.834,0
	c-4.373,0-3.547,4.938-3.545,8.253c0.029,42.577,0.016,85.153,0.021,127.73c0,6.685,2.029,8.724,8.752,8.729
	c20.477,0.015,43.983,0.015,64.459,0c6.438-0.006,11.561-1.971,11.566-8.354c0.02-22.637,0.023-45.274,0.023-67.91l0.003-40.837
	c0-6.612-0.001-13.228,0-19.843C239.687,337.417,240.626,332.77,236.239,332.77z M189.327,337.889h15.891
	c0.69,0,1.248,0.561,1.248,1.249s-0.558,1.249-1.248,1.249h-15.891c-0.688,0-1.248-0.561-1.248-1.249
	S188.64,337.889,189.327,337.889z M197.649,471.514c-2.844,0.079-5.09-2.095-5.14-4.976c-0.052-3.107,1.833-5.061,4.903-5.079
	c2.857-0.018,5.156,2.23,5.129,5.016C202.517,469.119,200.259,471.446,197.649,471.514z M232.573,451.271
	c0.01,2.971-3.93,3.674-6.781,3.658c-20.179-0.115-36.727-0.061-56.908-0.063c-3.719,0-6.76-0.009-6.76-3.837
	c-0.004-17.12-0.004-34.241-0.004-51.36c0-17.213,0.07-34.431-0.068-51.645c-0.021-2.968,3.938-3.686,6.79-3.668
	c20.179,0.112,36.728,0.106,56.906,0c2.788-0.012,6.838,0.597,6.827,3.623c-0.016,4.134-0.011,8.27-0.02,12.402l-0.057,40.814
	C232.499,417.887,232.524,434.577,232.573,451.271z"/>
<circle fill-rule="evenodd" clip-rule="evenodd" fill="#E6E7E8" cx="84.271" cy="243.633" r="52.955"/>
<circle fill-rule="evenodd" clip-rule="evenodd" fill="#E6E7E8" stroke="#509B56" stroke-width="4" stroke-miterlimit="10" cx="509.926" cy="130.719" r="68.859"/>
<g>
	<g>
		<g>
			<g>
				<g>
					
						<rect x="321.438" y="237.398" transform="matrix(0.6447 0.7645 -0.7645 0.6447 299.2502 -161.3761)" fill="#BCBEC0" width="3.554" height="7.627"/>
					
						<rect x="330.123" y="230.078" transform="matrix(0.6445 0.7646 -0.7646 0.6445 296.8244 -170.6235)" fill="#BCBEC0" width="3.553" height="7.627"/>
					
						<rect x="338.807" y="222.757" transform="matrix(0.6445 0.7646 -0.7646 0.6445 294.3145 -179.8658)" fill="#BCBEC0" width="3.553" height="7.627"/>
					
						<rect x="347.491" y="215.436" transform="matrix(0.6446 0.7645 -0.7645 0.6446 291.7541 -189.1024)" fill="#BCBEC0" width="3.554" height="7.625"/>
					
						<rect x="356.176" y="208.115" transform="matrix(0.6444 0.7647 -0.7647 0.6444 289.3301 -198.3577)" fill="#BCBEC0" width="3.554" height="7.628"/>
					
						<rect x="364.862" y="200.793" transform="matrix(0.6445 0.7646 -0.7646 0.6445 286.7828 -207.5961)" fill="#BCBEC0" width="3.553" height="7.626"/>
					
						<rect x="373.544" y="193.474" transform="matrix(0.6447 0.7645 -0.7645 0.6447 284.1859 -216.8179)" fill="#BCBEC0" width="3.554" height="7.625"/>
				</g>
			</g>
			<g>
				<g>
					
						<rect x="382.23" y="186.151" transform="matrix(0.6444 0.7647 -0.7647 0.6444 281.7993 -226.09)" fill="#BCBEC0" width="3.554" height="7.627"/>
					
						<rect x="390.914" y="178.83" transform="matrix(0.6444 0.7647 -0.7647 0.6444 279.2891 -235.3334)" fill="#BCBEC0" width="3.554" height="7.628"/>
					
						<rect x="399.598" y="171.51" transform="matrix(0.6446 0.7645 -0.7645 0.6446 276.6911 -244.5505)" fill="#BCBEC0" width="3.554" height="7.628"/>
					
						<rect x="408.283" y="164.189" transform="matrix(0.6445 0.7646 -0.7646 0.6445 274.231 -253.8093)" fill="#BCBEC0" width="3.553" height="7.625"/>
					
						<rect x="416.967" y="156.867" transform="matrix(0.6447 0.7645 -0.7645 0.6447 271.632 -263.0207)" fill="#BCBEC0" width="3.554" height="7.627"/>
					
						<rect x="425.654" y="149.546" transform="matrix(0.6446 0.7645 -0.7645 0.6446 269.1589 -272.2771)" fill="#BCBEC0" width="3.554" height="7.626"/>
					
						<rect x="434.336" y="142.227" transform="matrix(0.6444 0.7647 -0.7647 0.6444 266.7385 -281.5518)" fill="#BCBEC0" width="3.554" height="7.625"/>
				</g>
			</g>
		</g>
	</g>
</g>
<g>
	<g>
		<g>
			<g>
				
					<rect x="152.393" y="329.177" transform="matrix(0.7647 -0.6444 0.6444 0.7647 -177.8012 177.5085)" fill="#BCBEC0" width="3.554" height="6.097"/>
				
					<rect x="146.542" y="322.235" transform="matrix(0.7645 -0.6446 0.6446 0.7645 -174.7477 172.1953)" fill="#BCBEC0" width="3.554" height="6.097"/>
				
					<rect x="140.689" y="315.293" transform="matrix(0.7645 -0.6446 0.6446 0.7645 -171.651 166.7882)" fill="#BCBEC0" width="3.554" height="6.097"/>
				
					<rect x="134.836" y="308.35" transform="matrix(0.7645 -0.6446 0.6446 0.7645 -168.5536 161.3806)" fill="#BCBEC0" width="3.554" height="6.096"/>
				
					<rect x="128.983" y="301.407" transform="matrix(0.7645 -0.6446 0.6446 0.7645 -165.457 155.9732)" fill="#BCBEC0" width="3.554" height="6.097"/>
				
					<rect x="123.13" y="294.464" transform="matrix(0.7647 -0.6444 0.6444 0.7647 -162.3333 150.5146)" fill="#BCBEC0" width="3.554" height="6.097"/>
				
					<rect x="117.278" y="287.523" transform="matrix(0.7645 -0.6446 0.6446 0.7645 -159.263 145.1593)" fill="#BCBEC0" width="3.554" height="6.096"/>
			</g>
		</g>
	</g>
</g>
<g>
	<path fill="#BCBEC0" d="M482.003,128.937h3.024c1.439,0,2.507-0.36,3.2-1.08c0.694-0.72,1.041-1.675,1.041-2.867
		c0-1.152-0.344-2.049-1.031-2.69c-0.687-0.642-1.633-0.962-2.837-0.962c-1.087,0-1.996,0.298-2.729,0.894s-1.1,1.371-1.1,2.327
		h-5.675c0-1.492,0.402-2.831,1.208-4.015c0.805-1.185,1.931-2.111,3.377-2.779s3.04-1.001,4.781-1.001
		c3.024,0,5.394,0.723,7.108,2.17c1.715,1.446,2.572,3.439,2.572,5.979c0,1.309-0.399,2.514-1.197,3.613
		c-0.799,1.1-1.847,1.944-3.143,2.533c1.61,0.576,2.812,1.44,3.604,2.592c0.792,1.152,1.188,2.513,1.188,4.084
		c0,2.54-0.927,4.575-2.779,6.107c-1.852,1.532-4.303,2.297-7.354,2.297c-2.854,0-5.187-0.752-7-2.258
		c-1.813-1.506-2.72-3.496-2.72-5.97h5.675c0,1.074,0.402,1.951,1.208,2.631c0.805,0.681,1.797,1.021,2.975,1.021
		c1.349,0,2.405-0.356,3.171-1.07c0.766-0.713,1.149-1.659,1.149-2.837c0-2.854-1.571-4.281-4.713-4.281h-3.005V128.937z"/>
	<path fill="#BCBEC0" d="M518.546,133.925c0,3.953-0.818,6.977-2.454,9.072c-1.637,2.094-4.032,3.142-7.188,3.142
		c-3.115,0-5.498-1.027-7.147-3.083c-1.649-2.055-2.493-5-2.532-8.836v-5.263c0-3.992,0.827-7.023,2.483-9.091
		s4.042-3.103,7.157-3.103c3.116,0,5.498,1.024,7.147,3.073s2.494,4.991,2.533,8.826V133.925z M512.871,128.139
		c0-2.371-0.324-4.098-0.972-5.179c-0.648-1.081-1.659-1.622-3.034-1.622c-1.335,0-2.32,0.515-2.955,1.543
		c-0.635,1.029-0.972,2.637-1.011,4.826v6.958c0,2.332,0.317,4.065,0.952,5.198c0.635,1.133,1.652,1.7,3.053,1.7
		c1.388,0,2.39-0.543,3.005-1.631c0.615-1.087,0.936-2.751,0.962-4.993V128.139z"/>
	<path fill="#BCBEC0" d="M522.297,122.654c0-1.754,0.569-3.178,1.708-4.271s2.631-1.64,4.477-1.64c1.872,0,3.378,0.54,4.517,1.62
		c1.139,1.08,1.708,2.542,1.708,4.389v1.414c0,1.767-0.569,3.188-1.708,4.261c-1.139,1.073-2.631,1.61-4.477,1.61
		c-1.859,0-3.361-0.54-4.507-1.62c-1.146-1.08-1.718-2.537-1.718-4.369V122.654z M526.066,124.19c0,0.79,0.226,1.425,0.678,1.906
		c0.451,0.48,1.044,0.721,1.777,0.721c0.732,0,1.315-0.244,1.747-0.73c0.432-0.488,0.648-1.139,0.648-1.956v-1.461
		c0-0.79-0.217-1.428-0.648-1.916c-0.432-0.487-1.027-0.73-1.787-0.73c-0.72,0-1.302,0.24-1.747,0.721s-0.668,1.149-0.668,2.004
		V124.19z M529.641,143.605l-2.769-1.493l13.961-22.346l2.769,1.492L529.641,143.605z M535.963,138.735
		c0-1.767,0.576-3.191,1.729-4.271c1.151-1.08,2.644-1.62,4.477-1.62c1.859,0,3.361,0.533,4.507,1.6s1.718,2.537,1.718,4.409v1.414
		c0,1.754-0.562,3.171-1.688,4.251c-1.126,1.08-2.625,1.62-4.497,1.62c-1.885,0-3.396-0.543-4.535-1.63
		c-1.14-1.086-1.709-2.526-1.709-4.32V138.735z M539.733,140.292c0,0.724,0.235,1.343,0.707,1.856c0.471,0.513,1.06,0.77,1.767,0.77
		c1.598,0,2.396-0.889,2.396-2.667v-1.501c0-0.79-0.222-1.425-0.667-1.905s-1.034-0.721-1.768-0.721s-1.322,0.24-1.768,0.721
		c-0.444,0.48-0.667,1.136-0.667,1.965V140.292z"/>
</g>
<g>
	<path fill="#BCBEC0" d="M82.306,234.637l-9.562,21.99h-5.181l9.579-20.772H64.845v-3.958h17.461V234.637z"/>
	<path fill="#BCBEC0" d="M85.38,236.652c0-1.517,0.492-2.749,1.478-3.694c0.985-0.946,2.276-1.418,3.873-1.418
		c1.619,0,2.921,0.467,3.906,1.401s1.478,2.2,1.478,3.796v1.223c0,1.529-0.492,2.757-1.478,3.686
		c-0.985,0.929-2.276,1.393-3.872,1.393c-1.608,0-2.908-0.467-3.898-1.401s-1.486-2.194-1.486-3.779V236.652z M88.642,237.981
		c0,0.683,0.195,1.233,0.586,1.648s0.902,0.624,1.537,0.624c0.634,0,1.138-0.211,1.512-0.632c0.373-0.422,0.561-0.985,0.561-1.691
		v-1.264c0-0.683-0.188-1.236-0.561-1.657c-0.374-0.421-0.889-0.632-1.546-0.632c-0.623,0-1.127,0.208-1.512,0.624
		c-0.386,0.416-0.577,0.994-0.577,1.734V237.981z M91.732,254.776l-2.396-1.291l12.077-19.329l2.395,1.291L91.732,254.776z
		 M97.202,250.563c0-1.529,0.498-2.76,1.494-3.694s2.287-1.401,3.873-1.401c1.607,0,2.906,0.461,3.897,1.384
		s1.486,2.194,1.486,3.813v1.223c0,1.518-0.487,2.743-1.46,3.677c-0.975,0.934-2.271,1.401-3.891,1.401
		c-1.631,0-2.938-0.47-3.924-1.41c-0.984-0.94-1.477-2.186-1.477-3.737V250.563z M100.463,251.91c0,0.626,0.204,1.161,0.611,1.605
		c0.407,0.444,0.917,0.666,1.528,0.666c1.382,0,2.072-0.769,2.072-2.306v-1.299c0-0.683-0.192-1.233-0.577-1.648
		c-0.386-0.415-0.895-0.624-1.528-0.624c-0.635,0-1.145,0.208-1.529,0.624c-0.385,0.416-0.577,0.982-0.577,1.7V251.91z"/>
</g>
</svg>
