<?xml version="1.0" encoding="utf-8"?>
<!-- Generator: Adobe Illustrator 16.0.4, SVG Export Plug-In . SVG Version: 6.00 Build 0)  -->
<!DOCTYPE svg PUBLIC "-//W3C//DTD SVG 1.1//EN" "http://www.w3.org/Graphics/SVG/1.1/DTD/svg11.dtd">
<svg version="1.1" id="Layer_1" xmlns="http://www.w3.org/2000/svg" xmlns:xlink="http://www.w3.org/1999/xlink" x="0px" y="0px"
	 width="621px" height="635.697px" viewBox="0 0 621 635.697" enable-background="new 0 0 621 635.697" xml:space="preserve">
<g>
	<g>
		<path fill="#509B56" d="M290.082,297.084c37.891,6.979,75.777,13.953,113.671,20.93c0.695-4.148,1.072-8.406,1.072-12.752
			c0-1.855-0.088-3.686-0.217-5.506c-23.357-4.299-46.717-8.604-70.077-12.904c-6.414-1.178-3.688-10.933,2.691-9.758
			c20.526,3.777,41.051,7.557,61.577,11.336c1.447,0.268,2.893,0.533,4.34,0.801c-7.374-34.79-38.252-60.898-75.238-60.898
			c-37.317,0-68.42,26.57-75.436,61.824C265.003,292.466,277.542,294.775,290.082,297.084z"/>
	</g>
	<g>
		<path fill="#509B56" d="M371.636,322.354c-40.158-7.394-80.315-14.788-120.476-22.185c-0.11,1.686-0.187,3.379-0.187,5.092
			c0,3.855,0.291,7.646,0.844,11.354c26.796,4.933,53.592,9.869,80.389,14.8c6.412,1.182,3.685,10.938-2.693,9.762
			c-20.525-3.781-41.051-7.562-61.578-11.34c-4.576-0.844-9.158-1.685-13.735-2.528c9.479,31.737,38.882,54.876,73.702,54.876
			c34.623,0,63.898-22.879,73.547-54.337C391.512,326.014,381.573,324.185,371.636,322.354z"/>
	</g>
</g>
<g opacity="0.3">
	<path fill-rule="evenodd" clip-rule="evenodd" fill="#666666" d="M167.656,422.229c-0.158-3.045-1.456-5.178-3.771-5.967
		c-1.266-0.432-2.567-0.543-3.917-0.367c-2.698,0.354-5.113,1.387-7.262,3.004c-7.085,5.329-12.116,12.396-16.654,19.868
		c-0.334,0.549-0.025,0.65,0.44,0.624c0.679-0.04,1.356-0.093,2.035-0.141c4.893-0.185,9.751-0.642,14.515-1.834
		c4.534-1.135,8.686-2.923,11.691-6.728C166.698,428.2,167.824,425.452,167.656,422.229z"/>
	<path fill-rule="evenodd" clip-rule="evenodd" fill="#666666" d="M88.453,431.331c0.547-0.048,1.127-0.062,1.694-0.15
		c3.339-0.525,6.098-2.227,8.602-4.379c6.024-5.174,10.597-11.535,14.804-18.193c0.513-0.812,0.031-0.797-0.561-0.786
		c-3.91,0.073-7.797,0.448-11.652,1.069c-3.93,0.634-7.814,1.515-11.348,3.434c-5.027,2.734-8.169,6.838-7.971,12.732
		c0.128,3.787,1.523,5.468,4.778,6.139C87.326,431.307,87.879,431.286,88.453,431.331z"/>
	<path fill-rule="evenodd" clip-rule="evenodd" fill="#666666" d="M150.443,418.988c3.281-2.701,6.9-4.568,11.309-4.444
		c1.158,0.032,2.229,0.418,3.471,0.752c-0.208-0.48-0.339-0.821-0.497-1.148c-4.394-9.041-9.58-17.601-15.616-25.646
		c-0.787-1.049-1.744-1.809-2.928-2.287c-4.226-1.706-8.396-1.438-12.401,0.631c-3.719,1.921-6.532,4.938-9.274,8.028
		c-0.66,0.746-0.668,1.268-0.179,2.103c5.681,9.706,11.323,19.436,16.967,29.164c0.21,0.362,0.539,0.691,0.516,1.247
		c-0.319-0.08-0.612-0.134-0.892-0.225c-4.711-1.533-9.402-3.139-14.143-4.571c-1.682-0.508-2.85-1.117-2.489-3.114
		c0.017-0.093-0.039-0.197-0.062-0.297c-0.013-7.336-0.25-14.667-0.576-21.995c-0.012-0.265,0.095-0.62-0.329-0.82
		c-2.612,3.304-5.054,6.72-7.104,10.404c-0.067,0.074-0.149,0.14-0.2,0.226c-3.678,6.297-7.896,12.199-12.857,17.556
		c-1.71,1.599-3.388,3.232-5.294,4.607c-2.666,1.924-5.552,3.251-8.887,3.443c-1.637,0.093-3.206-0.192-4.698-0.846
		c-0.137,0.37,0.039,0.566,0.138,0.771c4.219,8.849,9.152,17.268,15.023,25.133c2.753,3.686,6.51,4.845,10.866,4.363
		c5.135-0.565,9.082-3.338,12.458-7.063c2.203-2.141,4.021-4.601,5.824-7.069c3.151-4.316,5.646-9.053,8.623-13.479
		C141.018,428.753,145.139,423.357,150.443,418.988z M143.465,400.67c0.569-3.959,1.035-7.933,1.533-11.901
		c0.043-0.335,0.021-0.682,0.37-1.098c5.781,7.563,10.137,15.872,14.786,24.039c-0.46,0.218-0.654-0.038-0.863-0.165
		c-5.018-3.051-10.021-6.123-15.051-9.155C143.521,401.956,143.344,401.52,143.465,400.67z M123.489,452.62
		c-6.471-2.045-12.938-4.103-19.415-6.119c-0.758-0.236-0.945-0.579-0.791-1.321c0.135-0.658,0.119-1.351,0.17-2.027
		c0.229-2.083,0.479-4.164,0.684-6.249c0.33-3.334,0.628-6.673,0.94-10.009c0.216-1.534,0.431-3.069,0.647-4.604
		c0.088-0.037,0.176-0.073,0.265-0.111c6.104,10.144,12.211,20.288,18.316,30.435C123.98,452.857,123.734,452.698,123.489,452.62z"
		/>
</g>
<g id="JTDOZE_1_" opacity="0.3">
	<g>
		<path fill-rule="evenodd" clip-rule="evenodd" fill="#ACACAC" d="M305.064,75.675c-0.599,1.525-0.357,3.124-0.361,4.691
			c-0.025,8.162-0.001,16.324-0.02,24.484c-0.007,3.241-0.25,3.492-3.407,3.508c-4.3,0.021-8.601-0.007-12.9-0.015
			c-0.012-18.835-0.022-37.671-0.034-56.507c1.219-0.778,1.804,0.201,2.326,0.952c4.393,6.301,9.205,12.319,12.979,19.032
			c0.566,1.008,2.012,1.128,2.125,2.445C305.886,74.911,305.688,75.401,305.064,75.675z"/>
		<path fill-rule="evenodd" clip-rule="evenodd" fill="#4A4A4A" d="M367.592,107.868c-3.938,1.04-7.948,0.275-11.922,0.429
			c-1.511,0.059-3.129,0.505-4.571-0.436c0.103-0.076,0.206-0.154,0.31-0.231c3.602-0.074,7.205,0.001,10.022-0.03
			c-2.263,0-5.313,0.032-8.362-0.021c-0.8-0.015-1.804,0.455-2.348-0.634c-0.175-7.662-0.099-15.319-0.041-22.974
			c0.023-3.083-0.232-6.107-0.791-9.116c0.702-2.408,2.67-4.015,3.969-6.05c2.775-4.347,5.75-8.579,8.824-12.732
			c1.094-1.478,2.209-2.96,2.428-4.882c0.133-1.616,0.246-3.237,1.927-4.125c0.967,1.351,0.467,2.886,0.47,4.328
			C367.561,70.219,367.57,89.044,367.592,107.868z"/>
		<path fill-rule="evenodd" clip-rule="evenodd" fill="#959595" d="M351.182,74.042c0.042,11.104,0.083,22.208,0.126,33.311
			c0.157,0.104,0.218,0.217,0.185,0.342c-0.035,0.13-0.076,0.195-0.121,0.195l-0.139,0.001l-0.134-0.03
			c-0.126-0.018-0.251-0.036-0.377-0.053c-0.67-0.762-0.319-1.681-0.321-2.516c-0.032-8.249-0.002-16.498-0.043-24.746
			c-0.004-0.964,0.512-2.163-0.774-2.81c-3.214,4.476-6.422,8.957-9.648,13.423c-0.612,0.845-1.309,1.629-1.965,2.441
			c-1.303,0.598-2.117-0.021-2.837-1.064c-2.228-3.221-4.577-6.362-6.674-9.669c-0.613-0.969-1.67-2.146-0.548-3.507
			c4.909-6.175,9.087-12.873,13.724-19.241c3.242-4.453,6.073-9.203,9.653-13.412c0.401,0.365,0.619,0.829,0.727,1.353
			c0.505,1.253,0.467,2.572,0.471,3.884c0.014,5.511,0.01,11.023,0.002,16.535C352.484,70.437,352.218,72.329,351.182,74.042z"/>
		<path fill-rule="evenodd" clip-rule="evenodd" d="M305.064,75.675c-0.15-0.363-0.3-0.725-0.449-1.088
			c-0.884-2.172-1.285-4.422-1.268-6.774c0.045-5.872-0.068-11.746,0.074-17.616c0.029-1.17-0.347-2.815,1.678-2.96
			c7.464,10.675,14.926,21.349,22.388,32.024c0.509,1.384,0.514,2.684-0.401,3.955c-2.189,3.045-4.292,6.155-6.475,9.208
			c-0.701,0.979-1.415,1.811-2.782,1.263C313.573,87.682,309.32,81.678,305.064,75.675z"/>
		<path fill-rule="evenodd" clip-rule="evenodd" fill="#717171" d="M317.829,93.686c3.453-4.653,7.264-9.065,9.658-14.426
			c0.148,0.005,0.289,0.038,0.424,0.1c2.991,5.001,6.23,9.828,10.059,14.24c-3.187,4.731-6.37,9.462-9.556,14.192
			c-0.326,0.408-0.653,0.408-0.979,0.001C324.233,103.091,321.03,98.387,317.829,93.686z"/>
		<path fill-rule="evenodd" clip-rule="evenodd" fill="#7F7F7F" d="M305.1,47.236c-0.636,1.249-0.33,2.593-0.342,3.889
			c-0.071,7.82-0.1,15.641-0.143,23.461c-4.954-6.946-9.907-13.894-14.863-20.837c-0.461-0.646-0.94-1.276-1.41-1.913
			c-0.22-5.202-0.22-5.202,4.885-5.203c3.05-0.001,6.1-0.014,9.148,0.011C303.314,46.651,304.316,46.478,305.1,47.236z"/>
		<path fill-rule="evenodd" clip-rule="evenodd" fill="#373737" d="M351.191,47.628c0.032-0.307,0.064-0.614,0.097-0.921
			c4.591-0.016,9.182-0.038,13.771-0.039c0.677,0,1.399-0.137,1.977,0.399c-0.016,1.751-0.033,3.502-0.05,5.253
			c-0.83,0.354-1.359-0.042-1.651-0.761c-0.917-2.262-2.812-2.603-4.919-2.606c-1.998-0.003-3.996,0-5.993-0.018
			C353.163,48.923,351.99,48.75,351.191,47.628z"/>
		<path fill-rule="evenodd" clip-rule="evenodd" fill="#EEEEEE" d="M349.583,77.736c0.275-0.342,0.49-1.217,1.015-0.348
			c0.281,0.464,0.16,1.191,0.16,1.8c-0.005,9.54-0.022,19.08-0.036,28.62c-0.973-0.834-0.582-1.968-0.585-2.972
			c-0.035-7.647-0.021-15.296-0.021-22.943C350.116,80.483,350.139,79.073,349.583,77.736z"/>
		<path fill-rule="evenodd" clip-rule="evenodd" fill="#3B3B3B" d="M351.191,47.628c3.756,0.001,7.517,0.102,11.269-0.033
			c2.569-0.091,4.346,0.405,4.151,3.484c-0.026,0.404,0.244,0.827,0.375,1.241c-4.561,6.467-9.108,12.944-13.694,19.393
			c-0.604,0.847-1.401,1.556-2.11,2.329C351.185,65.237,351.188,56.433,351.191,47.628z"/>
		<path fill-rule="evenodd" clip-rule="evenodd" fill="#404040" d="M351.371,107.889c-0.021-0.179-0.043-0.356-0.063-0.537
			c4.74,0,9.481,0,14.222,0c0.002,0.18,0.005,0.358,0.008,0.537C360.814,107.889,356.092,107.889,351.371,107.889z"/>
	</g>
</g>
<g id="AC5URL_1_" opacity="0.3">
	<g>
		<path fill-rule="evenodd" clip-rule="evenodd" fill="#5E5E5E" d="M152.537,170.963c2.133,1.266,3.904,2.972,5.638,4.708
			c13.352,13.365,17.413,33.255,10.394,50.798c-0.13,0.324-0.307,0.629-0.461,0.943c-0.577,0.177-0.686,0.753-0.859,1.181
			c-1.053,2.583-2.588,4.879-4.172,7.142c-2.843,4.06-6.31,7.526-10.274,10.491c-0.342,0.256-0.744,0.869-1.302,0.237
			c0.03-0.754,0.729-0.938,1.179-1.269c4.13-3.022,7.531-6.73,10.423-10.925c3.237-4.695,5.374-9.894,6.722-15.396
			c1.079-4.411,1.242-8.936,0.986-13.467c-0.137-2.412-0.603-4.776-1.09-7.137c-0.121-0.587-0.365-1.081-0.848-1.445
			c-1.003-3.969-2.894-7.569-4.749-11.172c-0.677-1.314-1.624-2.491-2.555-3.655c-0.592-0.741-1.047-1.594-1.817-2.185
			c-1.823-2.182-3.904-4.11-6.097-5.897c-2.45-1.998-5.116-3.679-7.958-5.104c-2.817-1.414-5.747-2.486-8.743-3.422
			c-0.435-0.785-1.258-0.826-1.984-0.959c-3.421-0.628-6.861-1.179-10.352-1.03c-2.366,0.101-4.723,0.36-7.07,0.763
			c-3.156,0.542-6.24,1.348-9.166,2.586c-3.574,1.513-7.003,3.327-10.092,5.752c-1.981,1.556-3.906,3.159-5.653,4.968
			c-2.042,2.115-3.753,4.488-5.388,6.932c-1.876,2.806-3.271,5.834-4.446,8.971c-0.756,2.021-1.298,4.104-1.767,6.225
			c-0.866,3.912-0.974,7.847-0.86,11.811c0.054,1.889,0.336,3.756,0.683,5.617c0.082,0.438,0.484,1.095-0.342,1.363
			c-0.493-0.225-0.509-0.716-0.579-1.136c-0.716-4.3-0.983-8.61-0.522-12.969c0.261-2.454,0.689-4.862,1.247-7.26
			c0.363-1.563,0.941-3.049,1.491-4.546c0.032-0.095,0.065-0.191,0.098-0.286c0.887-2.52,2.197-4.84,3.425-7.2
			c0.037-0.083,0.084-0.162,0.136-0.236c0.412-0.475,0.759-0.995,1.04-1.559c0.04-0.081,0.088-0.156,0.144-0.226
			c1.663-2.454,3.703-4.606,5.529-6.931c2.563-2.24,5.148-4.435,8.006-6.315c2.54-1.671,5.297-2.841,8.028-4.112
			c3.517-1.637,7.224-2.481,11.028-2.949c2.779-0.341,5.592-0.406,8.383-0.216c5.017,0.342,9.878,1.408,14.574,3.27
			c2.23,0.884,4.335,1.982,6.417,3.142c0.829,0.462,1.641,0.968,2.399,1.549C151.709,170.673,152.036,171.006,152.537,170.963z"/>
		<path fill-rule="evenodd" clip-rule="evenodd" fill="#595959" d="M121.397,255.733c-4.227-0.139-8.324-1.021-12.245-2.524
			c-16.314-6.255-26.838-17.851-30.225-34.999c-3.61-18.276,2.204-33.679,16.376-45.794c3.878-3.316,8.28-5.869,13.179-7.472
			c0.295-0.096,0.533-0.35,0.871-0.358c0.676,0.099,0.343,0.463,0.132,0.679c-0.231,0.237-0.579,0.354-0.896,0.459
			c-2.736,0.91-5.204,2.321-7.663,3.814c-2.971,1.804-5.664,3.958-8.09,6.378c-1.808,1.804-3.477,3.799-4.964,5.92
			c-1.837,2.62-3.496,5.341-4.746,8.282c-1.596,3.757-2.867,7.625-3.373,11.702c-0.332,2.685-0.685,5.372-0.569,8.088
			c0.225,5.255,1.179,10.349,3.101,15.276c1.166,2.991,2.515,5.868,4.248,8.56c1.312,2.04,2.793,3.963,4.361,5.815
			c0.229,0.271,0.566,0.414,0.837,0.639c3.101,3.465,6.721,6.276,10.713,8.649c4.449,2.645,9.282,4.262,14.291,5.363
			c1.683,0.37,3.435,0.51,5.169,0.681c2.076,0.206,4.144,0.218,6.211,0.134c1.066-0.043,2.15-0.114,3.211-0.316
			c0.198-0.038,0.393-0.032,0.592-0.029c0.278,0.004,0.625-0.031,0.668,0.313c0.05,0.393-0.43,0.128-0.565,0.343
			c-1.168,0.338-2.36,0.443-3.571,0.396C126.099,255.862,123.748,255.862,121.397,255.733z"/>
		<path fill-rule="evenodd" clip-rule="evenodd" fill="#5C5C5C" d="M132.021,255.337c0.293-0.231,0.354-0.409-0.119-0.376
			c-0.73,0.049-1.461,0.113-2.188,0.195c-6.819,0.775-13.42-0.324-19.835-2.54c-5.288-1.827-10.073-4.608-14.31-8.3
			c-1.42-1.237-2.815-2.488-4.016-3.944c-1.403-1.314-2.559-2.838-3.696-4.377c-1.979-2.679-3.645-5.552-4.942-8.605
			c-1.356-3.194-2.482-6.49-3.041-9.934c-0.504-3.112-1.021-6.244-0.856-9.402c0.203-3.905,0.603-7.797,1.712-11.58
			c0.358-1.222,0.643-2.465,1.217-3.609c0.128-0.254,0.146-0.659,0.593-0.634c-0.5,1.842-1.278,3.592-1.687,5.471
			c-1.008,4.628-1.696,9.269-1.22,14.027c0.181,1.806,0.232,3.625,0.621,5.406c0.088,0.401,0.243,0.788,0.367,1.181
			c0.379,0.161,0.419,0.507,0.493,0.853c1.016,4.717,2.95,9.071,5.383,13.199c1.57,2.664,3.444,5.119,5.559,7.4
			c2.366,2.553,5.006,4.76,7.851,6.742c2.886,1.889,5.821,3.681,9.126,4.771c1.302,0.429,2.554,0.988,3.876,1.369
			c1.778,0.514,3.592,0.842,5.399,1.207c2.664,0.537,5.365,0.661,8.069,0.603c4.643-0.1,9.157-0.929,13.562-2.426
			c2.482-0.843,4.906-1.809,7.218-3.042c1.378-0.735,2.692-1.583,3.982-2.466c0.147-0.075,0.296-0.101,0.448-0.015
			c1.415-0.585,2.486-1.661,3.637-2.61c2.319-1.913,4.428-4.057,6.249-6.441c2.103-2.753,4.214-5.521,5.519-8.789
			c0.176-0.439,0.463-0.836,0.717-1.241c0.104-0.166,0.254-0.334,0.4-0.017c-1.303,2.9-2.816,5.684-4.649,8.287
			c-3.651,5.186-8.163,9.457-13.474,12.936c-5.302,3.473-11.098,5.571-17.298,6.666C132.47,255.338,132.243,255.326,132.021,255.337
			z"/>
		<path fill-rule="evenodd" clip-rule="evenodd" fill="#5B5B5B" d="M82.538,192.23c-1.21,1.688-1.54,3.704-2.005,5.646
			c-0.91,3.792-1.586,7.667-1.392,11.555c0.267,5.321,1.062,10.57,3.048,15.611c1.428,3.62,3.133,7.046,5.381,10.208
			c1.033,1.453,2.002,2.96,3.322,4.193c0.271,0.254,0.442,0.617,0.66,0.93c-1.12-0.432-1.658-1.49-2.339-2.334
			c-2.631-3.268-4.88-6.796-6.488-10.682c-2.014-4.862-3.297-9.896-3.677-15.184c-0.413-5.747,0.198-11.362,1.855-16.834
			c1.135-3.749,2.66-7.352,4.785-10.711c1.992-3.151,4.21-6.111,6.843-8.708c2.533-2.499,5.217-4.85,8.366-6.636
			c1.52-0.862,2.979-1.839,4.557-2.613c0.918-0.45,1.83-0.89,2.836-1.138c0.453-0.112,1.145-0.148,1.062-0.945
			c3.886-1.441,7.887-2.328,12.038-2.485c2.355-0.129,4.711-0.129,7.067,0c3.479,0.375,6.914,0.958,10.278,1.971
			c5.003,1.506,9.558,3.879,13.8,6.892c-0.372,0.209-0.688,0.045-0.967-0.181c-2.203-1.779-4.729-3.047-7.293-4.125
			c-4.414-1.854-8.998-3.122-13.814-3.654c-4.043-0.447-8.029-0.35-12,0.264c-4.618,0.714-9.029,2.138-13.271,4.172
			c-4.691,2.25-8.695,5.395-12.489,8.871c-1.084,1.269-2.261,2.457-3.293,3.771c-0.798,1.015-1.513,2.089-2.27,3.134
			c-0.41,0.557-0.704,1.192-1.149,1.727l0,0c-1.241,2.146-2.395,4.336-3.287,6.656C82.623,191.808,82.709,192.051,82.538,192.23z"/>
		<path fill-rule="evenodd" clip-rule="evenodd" fill="#5C5C5C" d="M121.397,255.733c2.35,0,4.7,0,7.051,0
			C126.099,256.034,123.748,256.036,121.397,255.733z"/>
		<path fill-rule="evenodd" clip-rule="evenodd" fill="#5E5E5E" d="M128.459,162.101c-2.355,0-4.711,0-7.066,0
			C123.747,161.795,126.103,161.797,128.459,162.101z"/>
		<path fill-rule="evenodd" clip-rule="evenodd" fill="#636363" d="M160.024,179.572c3.263,3.614,5.532,7.849,7.513,12.24
			c0.689,1.528,1.152,3.172,1.502,4.829c0.574,0.45,0.593,1.151,0.736,1.767c1.159,4.972,1.471,10,0.944,15.082
			c-0.521,5.024-1.817,9.833-3.984,14.396c-0.546,1.15-1.072,2.318-1.714,3.416c-1.612,2.759-3.466,5.352-5.588,7.751
			c-2.496,2.823-5.338,5.264-8.379,7.458c-1.773,1.28-3.689,2.359-5.729,3.214c-1.673,0.702-3.254,1.621-4.996,2.168
			c-2.551,0.802-5.12,1.565-7.762,1.965c-3.07,0.465-6.179,0.503-9.282,0.425c-3.847-0.097-7.583-0.832-11.251-1.977
			c-1.522-0.475-3.031-0.975-4.473-1.656c-2.156-1.02-4.29-2.069-6.344-3.306c-2.714-1.635-5.147-3.611-7.426-5.762
			c-2.041-1.928-3.824-4.11-5.465-6.416c-1.795-2.523-3.224-5.226-4.507-8.024c-1.385-3.021-2.412-6.144-2.976-9.431
			c-0.99-5.791-1.118-11.574-0.042-17.362c0.708-3.811,1.969-7.429,3.603-10.949c1.976-4.257,4.627-8.042,7.728-11.513
			c1.683-1.883,3.612-3.536,5.638-5.066c1.808-1.367,3.632-2.711,5.65-3.747c2.549-1.308,5.127-2.533,7.871-3.438
			c4.981-1.643,10.079-2.329,15.295-2.238c2.77,0.048,5.52,0.37,8.238,0.915c0.319,0.064,0.729,0.036,0.916,0.425
			c0.032,0.728-0.46,0.652-0.911,0.565c-1.692-0.325-3.403-0.521-5.12-0.608c-1.178-0.06-2.318-0.355-3.501-0.385
			c-1.89-0.047-3.734,0.364-5.603,0.456c-2.186,0.107-4.294,0.524-6.384,1.116c-2.177,0.617-4.381,1.153-6.408,2.206
			c-2.575,1.338-5.255,2.489-7.636,4.181c-2.131,1.513-4.185,3.103-5.932,5.08c-0.621,0.703-1.329,1.345-1.982,2.036
			c-2.812,2.979-4.873,6.426-6.724,10.05c-1.761,3.449-2.72,7.139-3.692,10.845c-0.516,1.964-0.403,3.991-0.744,5.966
			c-0.343,1.99-0.161,3.95,0.097,5.933c0.233,1.797,0.252,3.616,0.684,5.395c1.056,4.354,2.469,8.544,4.587,12.537
			c2.204,4.151,5.127,7.67,8.435,10.923c1.861,1.831,3.904,3.446,6.099,4.872c1.842,1.196,3.745,2.261,5.769,3.11
			c0.089,0.029,0.18,0.058,0.27,0.088c0.791,0.422,1.698,0.599,2.436,1.141c0.218,0.208,0.509,0.185,0.774,0.241
			c0.792,0.192,1.492,0.661,2.316,0.752c1.097,0.573,2.297,0.748,3.498,0.932c1.529,0.44,3.116,0.579,4.673,0.828
			c1.647,0.264,3.354,0.176,5.036,0.165c1.361-0.009,2.741,0.061,4.08-0.13c1.342-0.191,2.703-0.314,4.022-0.65
			c0.525-0.134,1.053-0.247,1.58-0.359c1.628-0.197,3.133-0.812,4.673-1.332c1.978-0.668,3.833-1.582,5.691-2.5
			c0.744-0.359,1.481-0.732,2.177-1.185c2.264-1.161,4.208-2.774,6.171-4.357c2.449-1.974,4.423-4.401,6.434-6.792
			c0.187-0.222,0.314-0.477,0.491-0.7c0.667-0.748,1.235-1.567,1.737-2.435c0.582-0.544,0.688-1.359,1.133-1.981
			c0.756-1.197,1.539-2.379,1.909-3.772c1.037-2.18,1.839-4.438,2.365-6.797c0.179-0.803,0.476-1.578,0.643-2.387
			c0.289-0.947,0.47-1.917,0.619-2.895c0.006-0.106,0.011-0.211,0.014-0.317c0.234-1.5,0.107-3.025,0.471-4.526
			c0.241-1.001,0.103-2.053-0.141-3.108c-0.289-1.253-0.188-2.581-0.333-3.87c-0.006-0.105-0.016-0.21-0.03-0.315
			c-0.444-1.71-0.31-3.554-1.182-5.167c-0.165-0.323-0.114-0.683-0.181-1.023c-0.263-1.164-0.584-2.307-1.157-3.364
			c-0.511-1.488-1.312-2.846-1.917-4.292c-1.126-2.474-2.445-4.831-4.195-6.928c-0.411-0.492-0.701-1.064-1.058-1.592
			C159.554,180.031,159.553,179.732,160.024,179.572z"/>
		<path fill-rule="evenodd" clip-rule="evenodd" fill="#5F5F5F" d="M135.666,164.803c-1.769-0.613-3.626-0.754-5.463-0.928
			c-1.935-0.184-3.881-0.28-5.832-0.23c-4.857,0.124-9.588,0.921-14.155,2.593c-4.773,1.747-9.181,4.178-13.13,7.378
			c-3.253,2.637-6.061,5.692-8.523,9.105c-2.08,2.879-3.666,6.012-5.04,9.226c-1.504,3.519-2.446,7.242-2.898,11.083
			c-0.725,6.165-0.31,12.223,1.345,18.203c1.082,3.909,2.758,7.583,4.827,11.025c2.471,4.108,5.611,7.697,9.266,10.861
			c6.43,5.568,13.872,8.914,22.178,10.366c4.292,0.75,8.635,0.696,12.976,0.197c6.363-0.731,12.207-2.961,17.691-6.151
			c4.17-2.426,7.693-5.658,10.887-9.268c3.166-3.579,5.57-7.637,7.431-11.992c1.659-3.884,2.771-7.957,3.165-12.194
			c0.174-1.874,0.443-3.742,0.372-5.629c-0.153-3.996-0.555-7.958-1.722-11.807c0.537-0.191,0.572,0.231,0.668,0.558
			c0.604,2.058,0.97,4.166,1.235,6.288c0.295,2.349,0.257,4.717,0.196,7.076c-0.165,6.416-1.787,12.461-4.574,18.24
			c-1.467,3.04-3.284,5.833-5.337,8.478c-2.396,3.088-5.193,5.786-8.341,8.115c-0.457,0.338-0.979,0.612-1.301,1.114
			c-0.064,0.064-0.129,0.128-0.192,0.192c-15.983,10.637-35.825,10.644-51.786,0c-5.133-3.483-9.402-7.795-12.703-13.073
			c-2.973-4.752-5.244-9.776-6.284-15.313c0.143-0.847-0.173-1.642-0.286-2.458c-0.748-5.385-0.676-10.736,0.345-16.095
			c0.969-5.092,2.92-9.8,5.471-14.244c1.404-2.447,3.138-4.717,5.026-6.86c2.467-2.798,5.248-5.209,8.275-7.359
			c3.619-2.57,7.563-4.472,11.772-5.876c4.896-1.634,9.936-2.37,15.067-2.312c3.574,0.041,7.121,0.557,10.598,1.456
			c0.405,0.105,0.594,0.218,0.312,0.62C136.569,165.538,136.049,165.447,135.666,164.803z"/>
		<path fill-rule="evenodd" clip-rule="evenodd" fill="#636363" d="M135.666,164.803c0.512,0.128,1.023,0.255,1.535,0.383
			c1.876,0.271,3.677,0.871,5.361,1.67c2.616,1.242,5.29,2.396,7.69,4.068c3.595,2.505,7.035,5.176,9.771,8.647
			c-0.222,0.434,0.065,0.72,0.296,1.025c1.936,2.575,3.787,5.203,5.074,8.18c-0.2,0.118-0.387,0.081-0.564-0.052
			c-0.423-0.367-0.647-0.866-0.887-1.352c-1.587-3.226-3.749-6.034-6.207-8.636c-2.121-2.246-4.427-4.285-6.92-6.098
			c-1.641-1.192-3.482-2.067-5.269-3.025c-3.314-1.777-6.84-2.998-10.479-3.849c-1.709-0.4-3.484-0.569-5.237-0.788
			c-2.142-0.268-4.267-0.337-6.382-0.222c-2.717,0.148-5.428,0.455-8.094,1.148c-2.977,0.773-5.844,1.792-8.643,3.049
			c-1.024,0.46-1.937,1.121-2.955,1.572c-2.143,0.947-3.977,2.374-5.776,3.807c-2.012,1.602-3.878,3.385-5.599,5.321
			c-2.325,2.617-4.224,5.499-5.819,8.602c-1.461,2.841-2.687,5.764-3.567,8.846c-0.508,1.777-0.836,3.59-1.221,5.385
			c-0.264,1.229-0.271,2.552-0.291,3.839c-0.045,2.812-0.191,5.654,0.23,8.418c0.338,2.215,0.648,4.508,1.689,6.574
			c0.817,2.587,1.751,5.137,3.039,7.524c1.221,2.264,2.464,4.529,4.137,6.511c1.734,2.026,3.424,4.101,5.439,5.861
			c2.511,2.194,5.143,4.224,8.117,5.781c0.966,0.505,1.895,1.095,2.852,1.631c0.182,0.277,0.162,0.534-0.092,0.761
			c-2.843-1.171-5.486-2.674-7.963-4.513c-2.992-2.221-5.643-4.791-8.05-7.607c-2.799-3.274-4.904-6.999-6.587-10.947
			c-1.58-3.71-2.771-7.562-3.192-11.582c-0.343-3.255-0.571-6.499-0.221-9.821c0.368-3.494,1.079-6.868,2.12-10.18
			c1.191-3.789,3.009-7.294,5.175-10.634c1.836-2.832,4.024-5.349,6.438-7.679c2.861-2.76,6.007-5.125,9.575-6.929
			c2.881-1.457,5.779-2.842,8.9-3.718c2.959-0.832,5.978-1.261,9.032-1.57c4.211-0.427,8.34,0.099,12.475,0.749
			C134.961,165.012,135.359,165.192,135.666,164.803z"/>
		<path fill-rule="evenodd" clip-rule="evenodd" fill="#5C5C5C" d="M87.141,183.216c0.728-1.53,1.791-2.835,2.888-4.094
			c0.847-0.973,1.595-2.055,2.675-2.811c-0.312,0.868-1.053,1.426-1.642,2.054c-1.24,1.323-2.255,2.803-3.332,4.243
			C87.562,182.833,87.339,183.015,87.141,183.216z"/>
		<path fill-rule="evenodd" clip-rule="evenodd" fill="#5C5C5C" d="M82.538,192.23c0.075-1.862,1.292-3.267,1.98-4.881
			c0.367-0.863,0.726-1.763,1.473-2.407c-0.858,1.764-1.724,3.525-2.571,5.294C83.105,190.891,82.831,191.565,82.538,192.23z"/>
		<path fill-rule="evenodd" clip-rule="evenodd" fill="#5C5C5C" d="M85.991,184.942c0.278-0.646,0.544-1.3,1.149-1.727
			C86.941,183.914,86.578,184.502,85.991,184.942z"/>
		<path fill-rule="evenodd" clip-rule="evenodd" fill="#5E5E5E" d="M99.607,246.701c0.51,0.112,0.943,0.382,1.375,0.66
			c5.617,3.623,11.768,5.812,18.362,6.785c6.356,0.938,12.612,0.283,18.778-1.36c3.885-1.035,7.438-2.886,10.957-4.778
			c0.776-0.418,1.414-1.094,2.313-1.307c-1.027,0.971-2.263,1.639-3.485,2.308c-5.264,2.883-10.878,4.729-16.829,5.479
			c-3.232,0.408-6.485,0.387-9.736,0.118c-4.617-0.381-9.062-1.492-13.335-3.243c-2.772-1.136-5.431-2.529-7.939-4.183
			C99.888,247.062,99.76,246.863,99.607,246.701z"/>
		<path fill-rule="evenodd" clip-rule="evenodd" fill="#656565" d="M165.012,188.586c0.127,0.064,0.256,0.128,0.383,0.192
			c0.467,1.485,1.354,2.779,1.918,4.22c0.325,1.17,0.699,2.325,1.151,3.453c0.001,0.332-0.007,0.666,0.192,0.959
			c0.531,1.758,0.803,3.572,1.15,5.37c0.483,4.028,0.483,8.055,0,12.083c-0.228,1.017-0.4,2.043-0.576,3.069
			c-0.7,2.108-1.115,4.3-1.906,6.386c-0.361,0.954-0.813,1.865-1.162,2.82c-0.521,1.337-1.31,2.542-1.918,3.836
			c-0.496,0.571-0.61,1.373-1.15,1.918c-0.616,0.803-0.973,1.786-1.727,2.493c-1.742,2.023-3.347,4.175-5.324,5.981
			c-2.44,2.228-4.957,4.364-7.91,5.911c-0.661,0.46-1.448,0.689-2.109,1.15c-3.047,1.55-6.149,2.959-9.505,3.717
			c-0.278,0.062-0.567,0.08-0.853,0.119c-2.368,0.59-4.761,0.95-7.207,1.095c-1.459,0.087-2.925,0.238-4.373,0.124
			c-2.33-0.183-4.697-0.162-6.964-0.862c-0.404-0.125-0.832,0.057-1.211-0.166c-1.171-0.249-2.398-0.292-3.452-0.959
			c-0.812-0.124-1.563-0.424-2.302-0.767c-0.271,0-0.536-0.029-0.768-0.191c-0.856-0.329-1.637-0.823-2.493-1.151
			c0-0.192,0-0.384,0-0.575c0.588-0.416,1.079,0.064,1.591,0.205c0.387,0.106,0.756,0.32,1.093,0.563
			c0.738,0.62,1.715,0.653,2.567,0.965c2.167,0.795,4.444,1.276,6.734,1.569c3.245,0.414,6.508,0.627,9.784,0.337
			c2.698-0.239,5.377-0.578,8.001-1.273c3.167-0.838,6.221-1.996,9.093-3.554c3.288-1.784,6.355-3.885,9.15-6.421
			c2.634-2.389,4.877-5.064,6.906-7.953c1.471-2.094,2.494-4.429,3.664-6.689c0.993-1.917,1.516-3.991,2.203-6.001
			c0.455-1.327,0.62-2.779,0.923-4.166c0.733-3.351,0.452-6.722,0.523-10.087c0.033-1.528-0.079-3.047-0.497-4.529
			c-0.115-0.407-0.055-0.826-0.085-1.238c-0.213-2.105-0.976-4.069-1.57-6.076c-0.335-1.129-0.705-2.247-1.425-3.207
			c-0.304-0.524-0.553-1.07-0.651-1.673C164.903,189.246,164.652,188.882,165.012,188.586z"/>
		<path fill-rule="evenodd" clip-rule="evenodd" fill="#636363" d="M115.911,252.455c1.79,0.045,3.524,0.52,5.304,0.697
			c2.875,0.287,5.717,0.244,8.589-0.009c1.979-0.175,3.897-0.663,5.862-0.879c-1.695,0.693-3.498,0.945-5.29,1.11
			c-4.061,0.374-8.125,0.364-12.159-0.351C117.439,252.885,116.68,252.647,115.911,252.455z"/>
		<path fill-rule="evenodd" clip-rule="evenodd" fill="#636363" d="M169.807,214.862c0.256-4.028,0.256-8.055,0-12.083
			c0.333,2.574,0.789,5.146,0.485,7.751C170.123,211.974,170.15,213.44,169.807,214.862z"/>
		<path fill-rule="evenodd" clip-rule="evenodd" fill="#636363" d="M169.807,202.779c-0.54-1.757-0.798-3.574-1.15-5.37
			C169.363,199.129,169.646,200.941,169.807,202.779z"/>
		<path fill-rule="evenodd" clip-rule="evenodd" fill="#636363" d="M164.244,230.974c0.422-1.388,1.212-2.591,1.918-3.836
			C165.817,228.563,165.049,229.777,164.244,230.974z"/>
		<path fill-rule="evenodd" clip-rule="evenodd" fill="#636363" d="M168.464,196.45c-0.64-1.066-1.003-2.224-1.151-3.453
			C167.826,194.105,168.204,195.258,168.464,196.45z"/>
		<path fill-rule="evenodd" clip-rule="evenodd" fill="#636363" d="M161.367,235.385c0.577-0.83,0.939-1.808,1.727-2.493
			C162.651,233.815,162.287,234.792,161.367,235.385z"/>
		<path fill-rule="evenodd" clip-rule="evenodd" fill="#636363" d="M169.23,217.931c-0.004-1.06,0.143-2.091,0.576-3.069
			C169.791,215.918,169.587,216.939,169.23,217.931z"/>
		<path fill-rule="evenodd" clip-rule="evenodd" fill="#636363" d="M106.896,249.386c0.938,0.154,1.723,0.636,2.493,1.151
			C108.453,250.382,107.668,249.9,106.896,249.386z"/>
		<path fill-rule="evenodd" clip-rule="evenodd" fill="#636363" d="M146.023,248.427c0.575-0.619,1.346-0.878,2.109-1.15
			C147.559,247.895,146.787,248.155,146.023,248.427z"/>
		<path fill-rule="evenodd" clip-rule="evenodd" fill="#636363" d="M110.157,250.729c0.804,0.147,1.546,0.479,2.302,0.767
			C111.604,251.504,110.829,251.27,110.157,250.729z"/>
		<path fill-rule="evenodd" clip-rule="evenodd" fill="#666666" d="M165.012,188.586c0.063,0.32,0.127,0.64,0.191,0.959
			c-0.606,0.105-0.732-0.424-0.943-0.77c-0.998-1.633-1.791-3.384-2.942-4.93c-2.271-3.052-4.743-5.899-7.675-8.359
			c-1.514-1.27-3.049-2.513-4.712-3.543c-1.426-0.884-2.879-1.764-4.432-2.446c-3.308-1.454-6.656-2.759-10.228-3.445
			c-3.078-0.591-6.179-0.984-9.307-0.926c-1.481,0.027-3.004-0.011-4.453,0.469c-1.072-0.186-2.096,0.163-3.121,0.347
			c-4.756,0.854-9.197,2.549-13.399,4.949c-2.086,1.19-4.088,2.498-5.953,3.98c-1.991,1.583-3.782,3.406-5.487,5.311
			c-1.405,1.57-2.7,3.219-3.807,5.001c-1.201,1.935-2.426,3.869-3.221,6.026c-0.416,1.128-0.942,2.205-1.313,3.364
			c-0.96,3.007-1.702,6.037-2.063,9.181c-0.385,3.367-0.386,6.709-0.013,10.077c0.263,2.366,0.725,4.681,1.312,6.979
			c0.094,0.369,0.045,0.626-0.331,0.767c-0.59-0.808-0.625-1.801-0.865-2.717c-0.598-2.287-1.001-4.617-1.038-6.982
			c-0.048-3-0.193-6.017,0.215-8.996c0.302-2.206,0.852-4.378,1.446-6.536c1.044-3.789,2.782-7.27,4.696-10.66
			c1.333-2.362,3.035-4.483,4.851-6.509c2.289-2.555,4.845-4.82,7.633-6.79c2.521-1.782,5.265-3.221,8.108-4.449
			c3.806-1.643,7.768-2.763,11.879-3.221c3.193-0.356,6.397-0.415,9.631-0.092c3.137,0.313,6.176,0.937,9.172,1.841
			c2.947,0.89,5.685,2.255,8.41,3.673c3.691,1.921,6.84,4.542,9.775,7.422c2.045,2.007,3.839,4.244,5.455,6.636
			C163.438,185.609,164.066,187.183,165.012,188.586z"/>
		<path fill-rule="evenodd" clip-rule="evenodd" fill="#686868" d="M83.114,221.575c0.225-0.794-0.152-1.517-0.343-2.235
			c-1.219-4.594-1.418-9.286-1.139-13.977c0.186-3.112,0.828-6.188,1.721-9.202c1.097-3.701,2.659-7.191,4.682-10.456
			c2.35-3.79,5.265-7.12,8.625-10.068c2.896-2.541,6.098-4.614,9.522-6.341c4.138-2.086,8.545-3.347,13.112-4.072
			c0.42-0.067,0.829-0.02,1.22,0.154c0.01,0.049,0.021,0.098,0.03,0.147c-0.664,0.631-1.551,0.626-2.363,0.792
			c-2.36,0.479-4.695,0.974-6.988,1.788c-2.44,0.867-4.727,1.973-6.953,3.249c-0.082,0.043-0.165,0.087-0.248,0.132
			c-1.771,1.008-3.515,2.061-5.059,3.41c-0.512,0.336-1.04,0.65-1.442,1.125c-1.15,0.875-2.243,1.808-3.095,2.992
			c-0.098,0.095-0.189,0.194-0.257,0.312c-0.521,0.567-1.068,1.109-1.606,1.659c-2.236,2.73-4.24,5.626-5.778,8.801
			c-1.233,2.546-2.334,5.162-2.937,7.958c-0.458,2.13-1.116,4.216-1.215,6.417c-0.042,0.942-0.198,1.879-0.167,2.827
			c0,0.303,0.055,0.622-0.089,0.897c-0.332,0.637-0.312,1.252,0.002,1.887c0.151,0.304,0.087,0.647,0.082,0.977
			c0.065,1.933,0.158,3.858,0.589,5.758c0.515,2.267,1.031,4.532,1.724,6.753c0.795,1.899,1.465,3.858,2.482,5.656
			c1.007,1.78,2.074,3.526,3.259,5.198c0.159,0.223,0.37,0.431,0.383,0.736c-0.003,0.339-0.052,0.651-0.466,0.727
			c-1.071-1.016-1.865-2.275-2.569-3.521c-1.843-3.257-3.582-6.584-4.587-10.228C83.222,221.738,83.158,221.659,83.114,221.575z"/>
		<path fill-rule="evenodd" clip-rule="evenodd" fill="#6A6A6A" d="M90.402,235.577c0.063-0.256,0.127-0.512,0.191-0.767
			c0.346-0.158,0.507,0.053,0.694,0.303c1.087,1.447,2.283,2.815,3.567,4.075c1.923,1.887,3.959,3.654,6.247,5.122
			c1.542,0.99,3.079,1.986,4.663,2.908c1.352,0.629,2.715,1.232,4.102,1.786c0.342,0.137,0.761,0.211,0.744,0.723
			c-0.388,0.543-0.814,0.029-1.222,0.043c-0.789-0.427-1.622-0.744-2.493-0.958c-1.927-0.906-3.762-1.968-5.566-3.101
			c-3.155-1.979-5.844-4.484-8.418-7.137C92.002,237.634,91.222,236.59,90.402,235.577z"/>
		<path fill-rule="evenodd" clip-rule="evenodd" fill="#686868" d="M109.39,249.77c0.384-0.255,0.768,0.008,1.151,0
			c0.446-0.462,0.913-0.13,1.34,0.008c0.865,0.28,1.719,0.596,2.618,0.759c1.183,0.167,2.316,0.562,3.499,0.739
			c1.719,0.401,3.46,0.577,5.221,0.613c1.444,0.128,2.889,0.122,4.332,0.029c1.654-0.261,3.33-0.276,4.99-0.563
			c3.456-0.597,6.787-1.531,10.016-2.913c4.857-2.078,9.114-5.02,12.922-8.644c1.067-0.999,2.146-1.991,2.965-3.222
			c0.058-0.07,0.111-0.141,0.162-0.216c0.503-0.561,1.013-1.118,1.428-1.754c0.053-0.079,0.107-0.157,0.162-0.234
			c1.963-2.559,3.604-5.326,4.891-8.264c0.911-2.08,1.58-4.271,2.189-6.479c0.604-2.188,0.887-4.406,1.158-6.64
			c0.698-4.191,0.072-8.318-0.588-12.443c-0.354-2.21-1.177-4.291-1.777-6.433c-0.507-1.804-1.451-3.385-2.221-5.055
			c-0.053-0.081-0.105-0.164-0.156-0.246c-0.876-1.718-1.883-3.358-3.023-4.915c-0.167-0.321-0.379-0.609-0.637-0.866
			c-0.378-0.574-0.748-1.151-1.268-1.611c-0.075-0.112-0.17-0.207-0.257-0.308c-0.464-0.649-1.057-1.179-1.619-1.737
			c-0.051-0.074-0.104-0.146-0.16-0.217c-0.832-1.296-2.116-2.118-3.257-3.09c-2.773-2.585-5.999-4.487-9.346-6.208
			c-2.4-1.07-4.859-1.99-7.366-2.765c-1.426-0.44-2.933-0.525-4.39-0.845c-3.502-0.768-7.062-0.548-10.607-0.59
			c-0.428-0.005-0.906,0.14-1.247-0.282l0,0c0.19-0.241,0.442-0.35,0.745-0.371c3.826-0.267,7.628-0.248,11.429,0.449
			c2.645,0.485,5.262,1.019,7.771,1.992c2.08,0.807,4.158,1.629,6.098,2.757c1.927,1.121,3.854,2.245,5.601,3.635
			c2.248,1.79,4.389,3.7,6.295,5.862c2.418,2.744,4.486,5.722,6.144,8.984c0.157,0.309,0.403,0.573,0.607,0.857
			c0.191,0.512,0.384,1.023,0.575,1.535c0.905,1.333,1.254,2.887,1.762,4.38c0.559,1.643,0.901,3.338,1.308,5.018
			c0.7,3.632,0.601,7.308,0.571,10.977c-0.032,3.965-0.956,7.764-2.154,11.517c-1.058,3.31-2.606,6.405-4.425,9.322
			c-1.939,3.111-4.268,5.969-6.969,8.49c-3.218,3.003-6.775,5.523-10.71,7.49c-4.841,2.42-9.946,3.904-15.358,4.386
			c-5.142,0.458-10.207,0.08-15.216-1.084c-1.579-0.367-3.114-0.929-4.662-1.423C109.727,250.089,109.567,249.9,109.39,249.77z"/>
		<path fill-rule="evenodd" clip-rule="evenodd" fill="#666666" d="M168.848,200.478c-0.105-0.23-0.256-0.451-0.309-0.693
			c-0.638-2.991-1.515-5.907-2.761-8.705c0.891,0.898,1.181,2.084,1.517,3.236C167.889,196.35,168.729,198.324,168.848,200.478z"/>
		<path fill-rule="evenodd" clip-rule="evenodd" fill="#6A6A6A" d="M158.874,180.915c0.063,0.064,0.128,0.128,0.191,0.192
			c0.465,0.562,0.912,1.138,1.343,1.726c0.191,0.255,0.384,0.511,0.576,0.767c1.072,1.631,2.083,3.301,3.068,4.986
			c1.488,2.917,2.73,5.927,3.541,9.112c0.469,1.842,0.88,3.7,1.109,5.579c0.164,1.345,0.306,2.708,0.254,4.081
			c-0.062,1.686-0.01,3.375-0.017,5.063c-0.308,1.971-0.509,3.957-0.948,5.91c-0.784,3.487-1.977,6.833-3.57,10.018
			c-0.834,1.666-1.749,3.311-2.954,4.769c-0.419,0.507-0.616,1.183-1.06,1.693c-0.49,0.656-1.015,1.286-1.534,1.918
			c-1.059,1.053-1.857,2.352-3.069,3.26c-1.472,1.413-2.971,2.815-4.662,3.945c-2.512,1.677-4.995,3.412-7.806,4.603
			c-4.679,1.982-9.487,3.378-14.602,3.546c-0.312,0.01-0.622,0.118-0.933,0.181c-1.534,0.157-3.068,0.157-4.604,0
			c-1.809-0.025-3.592-0.278-5.37-0.575c-1.169-0.172-2.297-0.533-3.452-0.768c-1.279-0.383-2.558-0.767-3.836-1.151
			c-1.356-0.906-3.01-1.159-4.399-1.994c-0.189-0.114-0.392-0.206-0.588-0.308c-0.124-0.364,0.043-0.593,0.353-0.751
			c0.767,0.045,1.366,0.571,2.094,0.729c2.747,1.433,5.691,2.301,8.703,2.937c3.019,0.637,6.082,1.083,9.167,0.996
			c3.382-0.095,6.729-0.561,10.027-1.39c4.919-1.237,9.454-3.275,13.61-6.179c3.409-2.381,6.387-5.188,9.031-8.417
			c3.647-4.455,6.156-9.479,7.762-14.937c0.744-2.528,1.237-5.156,1.446-7.833c0.1-1.287,0.202-2.576,0.233-3.868
			c0.075-3.174-0.45-6.288-1.132-9.363c-0.7-3.158-1.765-6.216-3.144-9.146c-1.466-3.114-3.387-5.949-5.565-8.606
			c-3.062-3.734-6.751-6.731-10.842-9.286c-3.07-1.917-6.381-3.263-9.812-4.284c-2.443-0.727-4.958-1.22-7.521-1.482
			c-2.601-0.266-5.199-0.317-7.788-0.136c-2.385,0.167-4.746,0.6-7.073,1.199c-4.867,1.252-9.393,3.228-13.553,6.081
			c-2.123,1.456-4.138,3.043-5.941,4.85c-2.611,2.617-4.815,5.573-6.76,8.74c-1.765,2.875-3.056,5.943-3.967,9.148
			c-0.803,2.821-1.568,5.66-1.698,8.653c-0.072,1.664-0.167,3.333-0.146,4.996c0.029,2.211,0.158,4.421,0.737,6.579
			c0.523,1.948,0.702,3.986,1.561,5.85c0.071,0.154,0.171,0.406,0.05,0.624c-0.23,0.341-0.481,0.616-0.931,0.324
			c-1.151-3.801-2.242-7.613-2.316-11.629c-0.007-0.344-0.115-0.687-0.177-1.03c0.04-1.342,0.04-2.685,0-4.027
			c0.33-1.436,0.199-2.915,0.453-4.365c0.653-3.718,1.597-7.335,3.104-10.812c1.725-3.983,4.055-7.57,6.801-10.907
			c0.425-0.653,1.109-1.074,1.534-1.726c0.063-0.064,0.127-0.128,0.191-0.192c0.915-1.206,2.146-2.077,3.261-3.069
			c0.448-0.384,0.896-0.767,1.343-1.151c1.641-1.279,3.39-2.396,5.179-3.452c4.35-2.544,8.996-4.255,13.974-5.103
			c2.769-0.472,5.549-0.823,8.346-0.723c4.46,0.16,8.853,0.773,13.114,2.234c1.779,0.61,3.441,1.485,5.228,2.057
			c3.254,1.769,6.457,3.612,9.206,6.138c1.173,1.064,2.478,1.987,3.452,3.261C157.632,179.718,158.391,180.193,158.874,180.915z"/>
		<path fill-rule="evenodd" clip-rule="evenodd" fill="#6A6A6A" d="M84.456,223.494c0.256-0.128,0.512-0.256,0.767-0.384
			c0.649,0.802,0.896,1.795,1.291,2.717c1.109,2.59,2.541,4.993,4.131,7.316c1.344,1.966,2.911,3.736,4.529,5.469
			c0.34,0.364,0.684,0.725,1.117,0.984c2.149,2.175,4.635,3.897,7.223,5.502c0.846,0.524,1.846,0.891,2.424,1.795
			c-0.128,0.192-0.256,0.384-0.384,0.575c-3.701-2.025-7.136-4.44-10.23-7.3c-1.585-1.465-2.946-3.164-4.277-4.871
			c-0.137-0.174-0.301-0.326-0.452-0.487C87.995,231.337,85.901,227.591,84.456,223.494z"/>
		<path fill-rule="evenodd" clip-rule="evenodd" fill="#6A6A6A" d="M144.489,169.598c-0.429-0.12-0.881-0.185-1.281-0.367
			c-4.069-1.847-8.332-2.937-12.765-3.491c-5.289-0.661-10.482-0.229-15.628,1.055c-3.604,0.899-7.039,2.232-10.274,4.067
			c-0.219,0.124-0.475,0.181-0.713,0.27c0.758-0.757,1.719-1.215,2.66-1.645c4.242-1.938,8.641-3.372,13.297-3.918
			c0.247-0.029,0.486-0.126,0.729-0.191c1.18,0.005,2.358-0.129,3.53-0.152c5.196-0.101,10.301,0.501,15.255,2.198
			C141.085,168.036,142.803,168.771,144.489,169.598z"/>
		<path fill-rule="evenodd" clip-rule="evenodd" fill="#6A6A6A" d="M103.828,171.133c-1.727,1.15-3.453,2.301-5.179,3.452
			C100.169,173.125,101.913,172.001,103.828,171.133z"/>
		<path fill-rule="evenodd" clip-rule="evenodd" fill="#6A6A6A" d="M97.307,175.736c-0.939,1.179-2.198,2.02-3.261,3.069
			C94.817,177.446,96.038,176.565,97.307,175.736z"/>
		<path fill-rule="evenodd" clip-rule="evenodd" fill="#6A6A6A" d="M81.963,206.807c0.305,1.343,0.305,2.685,0,4.027
			C81.743,209.492,81.743,208.15,81.963,206.807z"/>
		<path fill-rule="evenodd" clip-rule="evenodd" fill="#6A6A6A" d="M93.854,178.997c-0.282,0.778-0.943,1.221-1.534,1.726
			C92.603,179.944,93.264,179.501,93.854,178.997z"/>
		<path fill-rule="evenodd" clip-rule="evenodd" fill="#6A6A6A" d="M160.408,234.81c0.792-1.823,2.135-3.305,3.096-5.028
			c2.37-4.249,3.902-8.781,4.762-13.553c0.219-1.218,0.389-2.444,0.582-3.667c0.129,0.192,0.139,0.384,0,0.575
			c-0.089,3.127-0.884,6.121-1.792,9.082c-1.101,3.588-2.717,6.955-4.78,10.08C161.709,233.156,161.27,234.153,160.408,234.81z"/>
		<path fill-rule="evenodd" clip-rule="evenodd" fill="#6A6A6A" d="M168.848,213.136c0-0.191,0-0.383,0-0.575
			c-0.031-3.688,0.125-7.377-0.546-11.045c-0.745-4.069-2.022-7.949-3.729-11.702c-0.184-0.404-0.348-0.819-0.52-1.229
			c0.534,0.414,0.722,1.046,0.984,1.619c2.176,4.744,3.574,9.71,3.946,14.917c0.177,2.479,0.039,4.98,0.03,7.472
			C169.014,212.775,168.905,212.956,168.848,213.136z"/>
		<path fill-rule="evenodd" clip-rule="evenodd" fill="#6A6A6A" d="M164.053,188.586c-1.207-1.549-2.133-3.271-3.068-4.986
			C162.238,185.119,163.248,186.79,164.053,188.586z"/>
		<path fill-rule="evenodd" clip-rule="evenodd" fill="#6A6A6A" d="M157.147,178.997c-1.126-1.113-2.435-2.033-3.452-3.261
			C155.003,176.656,156.323,177.564,157.147,178.997z"/>
		<path fill-rule="evenodd" clip-rule="evenodd" fill="#6A6A6A" d="M155.805,239.988c1.021-1.088,1.865-2.344,3.069-3.26
			C157.991,237.946,157.149,239.204,155.805,239.988z"/>
		<path fill-rule="evenodd" clip-rule="evenodd" fill="#6A6A6A" d="M123.199,252.263c1.535,0,3.069,0,4.604,0
			C126.269,252.575,124.734,252.575,123.199,252.263z"/>
		<path fill-rule="evenodd" clip-rule="evenodd" fill="#6A6A6A" d="M114.377,250.92c1.193,0.063,2.322,0.415,3.452,0.768
			C116.624,251.675,115.489,251.349,114.377,250.92z"/>
		<path fill-rule="evenodd" clip-rule="evenodd" fill="#6A6A6A" d="M158.874,180.915c-0.65-0.572-1.386-1.068-1.727-1.918
			C157.798,179.568,158.533,180.063,158.874,180.915z"/>
		<path fill-rule="evenodd" clip-rule="evenodd" fill="#6A6A6A" d="M158.874,236.728c0.366-0.755,0.87-1.4,1.534-1.918
			C160.064,235.583,159.564,236.232,158.874,236.728z"/>
		<path fill-rule="evenodd" clip-rule="evenodd" fill="#6A6A6A" d="M160.408,182.833c-0.612-0.447-1.05-1.03-1.343-1.726
			C159.689,181.544,160.163,182.099,160.408,182.833z"/>
		<path fill-rule="evenodd" clip-rule="evenodd" fill="#707070" d="M96.156,239.796c-0.505-0.112-0.804-0.504-1.127-0.849
			c-2.201-2.349-4.268-4.809-5.944-7.566c-1.588-2.613-3.046-5.294-3.862-8.272c-1.215-3.407-2.037-6.891-2.336-10.514
			c-0.275-3.359-0.292-6.713,0.246-10.02c0.747-4.584,2.028-9.045,4.2-13.18c1.86-3.541,4.183-6.763,6.879-9.743
			c3.082-3.405,6.712-6.078,10.653-8.333c3.735-2.136,7.785-3.493,11.995-4.406c2.888-0.626,5.812-0.944,8.737-0.917
			c3.409,0.031,6.783,0.493,10.133,1.291c2.76,0.657,5.392,1.635,7.95,2.748c2.923,1.271,5.571,3.102,8.116,5.049
			c3.165,2.423,5.896,5.273,8.238,8.481c3.137,4.296,5.403,9.016,6.763,14.179c1.006,3.822,1.521,7.68,1.496,11.637
			c-0.02,3.412-0.579,6.725-1.371,10.021c-0.84,3.499-2.132,6.833-3.877,9.962c-1.68,3.013-3.683,5.815-6.026,8.375
			c-3.447,3.766-7.464,6.793-11.942,9.167c-3.769,1.996-7.816,3.291-12.038,4.012c-2.551,0.435-5.119,0.813-7.703,0.746
			c-5.792-0.149-11.416-1.195-16.747-3.561c-0.259-0.115-0.489-0.295-0.733-0.444c0.054-0.343,0.303-0.441,0.6-0.482
			c0.946,0.097,1.72,0.659,2.588,0.969c3.122,1.112,6.31,1.934,9.616,2.273c0.568,0.058,1.125,0.238,1.706,0.21
			c2.052,0.052,4.104,0.088,6.154,0.001c2.396-0.187,4.754-0.612,7.085-1.189c4.691-1.16,9.05-3.095,13.067-5.766
			c1.99-1.323,3.938-2.765,5.607-4.451c2.486-2.51,4.852-5.155,6.6-8.289c0.649-1.162,1.443-2.254,1.997-3.468
			c1.914-4.201,3.495-8.503,3.962-13.147c0.089-0.882,0.084-1.786,0.358-2.647c0.078-1.933,0.118-3.866-0.021-5.797
			c-0.255-1.213-0.38-2.449-0.504-3.677c-0.282-2.8-1.239-5.409-2.111-8.046c-0.179-0.541-0.422-1.06-0.592-1.605
			c0.036-0.558-0.241-1.033-0.468-1.497c-1.822-3.726-4.014-7.235-6.84-10.268c-3.12-3.348-6.636-6.239-10.658-8.503
			c-3.996-2.25-8.247-3.757-12.717-4.655c-3.849-0.774-7.775-0.893-11.655-0.528c-4.183,0.393-8.243,1.43-12.172,3.053
			c-3.796,1.568-7.237,3.642-10.433,6.18c-2.477,1.968-4.642,4.242-6.583,6.732c-0.709,0.91-1.425,1.818-1.986,2.833
			c-2.475,3.65-4.171,7.662-5.419,11.867c-0.625,2.105-0.889,4.294-1.255,6.456c-0.093,0.551,0.137,1.105,0.032,1.662
			c-0.102,1.945-0.121,3.89-0.008,5.835c-0.017,3.359,0.736,6.586,1.751,9.754c1.396,4.357,3.411,8.401,6.161,12.083
			c1.29,1.727,2.641,3.388,4.162,4.911c0.263,0.264,0.606,0.471,0.657,0.892C96.512,239.591,96.392,239.744,96.156,239.796z"/>
		<path fill-rule="evenodd" clip-rule="evenodd" fill="#707070" d="M108.432,247.468c-0.192,0.064-0.384,0.128-0.576,0.192
			c-0.686-0.14-1.302-0.453-1.918-0.767c-0.965-0.298-1.724-0.964-2.549-1.492c-2.576-1.649-5.2-3.249-7.232-5.604
			c0.064-0.128,0.128-0.256,0.191-0.383c0.386-0.231,0.579,0.1,0.801,0.292c3.248,2.794,6.771,5.176,10.601,7.103
			C108.036,246.952,108.515,246.929,108.432,247.468z"/>
		<path fill-rule="evenodd" clip-rule="evenodd" fill="#717171" d="M108.432,247.468c-4.428-2.086-8.4-4.854-12.084-8.055
			c-1.285-1.503-2.769-2.818-3.965-4.412c-2.852-3.802-5.264-7.812-6.751-12.372c-0.796-2.438-1.461-4.883-1.876-7.412
			c-0.178-1.079-0.259-2.148-0.259-3.232c-0.157-2.11-0.157-4.22,0-6.33c0.357-7.282,2.724-13.888,6.713-19.947
			c0.25-0.184,0.469-0.132,0.665,0.088c0.182,0.387-0.074,0.655-0.244,0.959c-0.637,1.138-1.417,2.195-1.904,3.417
			c-1.788,3.196-2.863,6.672-3.709,10.191c-0.735,3.062-0.684,6.234-0.687,9.388c-0.004,2.674,0.229,5.307,0.809,7.903
			c0.66,2.957,1.626,5.832,2.912,8.571c1.67,3.559,3.812,6.828,6.381,9.824c3.729,4.35,8.271,7.619,13.4,10.064
			c3.799,1.812,7.805,2.985,12.003,3.583c3.415,0.486,6.808,0.473,10.204,0.139c4.606-0.452,9.021-1.749,13.173-3.746
			c4.142-1.992,7.923-4.552,11.166-7.893c1.944-2.003,3.782-4.06,5.305-6.396c1.798-2.758,3.385-5.624,4.543-8.717
			c1.19-3.178,1.802-6.499,2.328-9.82c0.308-1.94-0.001-3.952,0.105-5.923c0.139-2.584-0.379-5.076-0.938-7.555
			c-0.482-2.147-1.127-4.259-2.004-6.291c-0.15-0.349-0.354-0.784,0.075-1.133c0.163-0.074,0.313-0.058,0.45,0.06
			c1.084,2.836,2.087,5.699,2.598,8.704c0.256,1.504,0.444,3.02,0.663,4.53c0.157,2.11,0.157,4.22,0,6.33
			c-0.232,1.573-0.443,3.15-0.701,4.719c-0.447,2.723-1.374,5.307-2.341,7.878c-1.64,4.355-4.14,8.203-7.09,11.751
			c-2.646,3.183-5.827,5.787-9.297,8.05c-5.741,3.744-12.084,5.715-18.836,6.518c-0.158,0.019-0.319,0.013-0.479,0.019
			c-2.174,0.16-4.348,0.16-6.521,0c-4.269-0.375-8.418-1.251-12.381-2.927C109.393,247.796,108.908,247.642,108.432,247.468z"/>
		<path fill-rule="evenodd" clip-rule="evenodd" fill="#707070" d="M164.244,192.422c-0.128,0-0.256,0-0.384,0
			c-0.64,0.164-0.669-0.361-0.845-0.737c-1.787-3.805-4.004-7.328-6.854-10.436c-0.126-0.138-0.284-0.231-0.396-0.376
			c-1.245-1.201-2.438-2.457-3.771-3.567c-0.257-0.214-0.499-0.447-0.779-0.636c-2.5-2.024-5.225-3.692-8.106-5.113
			c-3.632-1.714-7.407-2.903-11.397-3.504c-3.82-0.575-7.619-0.586-11.436-0.153c-5.908,0.671-11.333,2.72-16.394,5.8
			c-3.138,1.91-6.04,4.122-8.539,6.818c-1.355,1.462-2.64,2.997-3.74,4.67c-0.201,0.305-0.329,0.724-0.817,0.711
			c-0.191-0.064-0.384-0.128-0.575-0.192c1.552-2.513,3.458-4.74,5.526-6.835c3.008-3.049,6.428-5.569,10.238-7.486
			c4.034-2.03,8.285-3.411,12.783-4.183c3.42-0.587,6.822-0.573,10.216-0.417c3.044,0.139,6.062,0.789,9.008,1.696
			c4.535,1.396,8.709,3.488,12.513,6.302c3.672,2.716,6.839,5.941,9.474,9.684c1.529,2.172,2.813,4.483,4.01,6.847
			C164.154,191.665,164.249,192.031,164.244,192.422z"/>
		<path fill-rule="evenodd" clip-rule="evenodd" fill="#707070" d="M122.24,250.92c2.174,0,4.348,0,6.521,0
			c-1.405,0.404-2.842,0.131-4.264,0.177C123.748,251.121,122.969,251.271,122.24,250.92z"/>
		<path fill-rule="evenodd" clip-rule="evenodd" fill="#707070" d="M83.497,205.656c0,2.11,0,4.22,0,6.33
			c-0.399-1.148-0.157-2.333-0.173-3.499C83.312,207.545,83.118,206.578,83.497,205.656z"/>
		<path fill-rule="evenodd" clip-rule="evenodd" fill="#707070" d="M167.505,211.986c0-2.11,0-4.22,0-6.33
			c0.361,0.793,0.195,1.635,0.175,2.448C167.647,209.398,167.905,210.709,167.505,211.986z"/>
		<path fill-rule="evenodd" clip-rule="evenodd" fill="#757575" d="M155.996,180.531c1.959,2.022,3.592,4.286,5.086,6.67
			c1.053,1.68,1.83,3.493,2.778,5.221c0.258,1.555,1.054,2.931,1.463,4.441c0.897,3.304,1.721,6.613,1.606,10.075
			c-0.082,2.456,0.185,4.919-0.186,7.368c-0.833,5.521-2.576,10.704-5.417,15.545c-1.629,2.776-3.512,5.344-5.697,7.663
			c-2.585,2.745-5.571,5.028-8.816,6.991c-5.404,3.268-11.272,5.204-17.501,5.757c-6.86,0.609-13.54-0.393-19.949-3.148
			c-5.124-2.203-9.681-5.189-13.564-9.148c-3.836-3.912-6.785-8.445-8.831-13.55c-1.92-4.792-3.019-9.723-2.925-14.926
			c0.055-3.037,0.023-6.077,0.663-9.052c0.509-2.369,1.228-4.696,2.117-6.955c0.479-1.214,1.103-2.371,1.661-3.553
			c0.248-0.071,0.409,0.032,0.506,0.258c0.039,0.27-0.087,0.494-0.197,0.723c-1.538,3.195-2.693,6.529-3.346,10.008
			c-0.395,2.101-0.83,4.22-0.633,6.389c-0.337,0.989-0.351,1.98-0.015,2.974c0.002,4.473,0.987,8.741,2.513,12.931
			c1.299,3.564,3.234,6.755,5.36,9.852c0.44,0.641,0.981,1.214,1.445,1.843c1.222,1.63,2.681,3.044,4.19,4.391
			c1.282,1.144,2.543,2.346,4.12,3.114c0.736,0.47,1.46,0.961,2.229,1.376c3.507,2.14,7.316,3.546,11.263,4.6
			c1.903,0.508,3.849,0.81,5.82,0.896c0.328,0.015,0.619,0.141,0.934,0.184c0.104,0.012,0.206,0.027,0.309,0.044
			c1.558,0.204,3.113,0.325,4.658-0.082c0.092-0.039,0.187-0.072,0.281-0.102c16.009-1.297,27.362-9.365,34.426-23.672
			c0.53-0.625,0.806-1.374,1.033-2.147c0.023-0.088,0.056-0.174,0.095-0.257c0.394-0.91,0.735-1.836,0.869-2.827
			c0.562-2.1,0.979-4.228,1.298-6.377c0.632-1.912,0.631-3.903,0.582-5.869c-0.051-2.035-0.19-4.081-0.73-6.066
			c-0.596-2.804-1.349-5.561-2.369-8.247c-1.476-3.879-3.713-7.316-6.156-10.624c-0.521-0.706-1.246-1.263-1.581-2.115
			C155.402,180.736,155.686,180.619,155.996,180.531z"/>
		<path fill-rule="evenodd" clip-rule="evenodd" fill="#767676" d="M88.867,190.121c-0.127-0.064-0.255-0.128-0.383-0.191
			c0.767-1.343,1.534-2.686,2.301-4.028c4.192-6.465,9.813-11.316,16.759-14.593c5.488-2.589,11.233-4.03,17.381-4.069
			c5.231-0.033,10.232,0.825,15.112,2.584c1.133,0.409,2.202,0.996,3.301,1.5c0.029,0.36-0.096,0.625-0.458,0.744
			c-2.092-0.751-4.13-1.651-6.266-2.283c-1.646-0.487-3.344-0.739-5.026-1.067c-1.455-0.284-2.908-0.396-4.379-0.401
			c-1.064-0.435-2.14-0.471-3.226-0.085c-0.302,0.14-0.624,0.114-0.942,0.119c-3.292,0.049-6.475,0.654-9.596,1.713
			c-1.235,0.419-2.536,0.742-3.693,1.292c-1.548,0.737-3.136,1.421-4.605,2.336c-1.865,1.162-3.746,2.293-5.446,3.697
			c-0.298,0.246-0.588,0.492-0.839,0.783c-1.496,0.841-2.557,2.147-3.691,3.39c-1.395,1.524-2.637,3.158-3.743,4.892
			c-0.614,0.962-1.279,1.899-1.758,2.948C89.514,189.742,89.35,190.121,88.867,190.121z"/>
		<path fill-rule="evenodd" clip-rule="evenodd" fill="#767676" d="M142.955,171.899c0.049-0.244,0.175-0.437,0.383-0.575
			c2.848,1.25,5.427,2.936,7.86,4.854c0.093,0.073,0.132,0.214,0.195,0.324c-0.036,0.299-0.227,0.431-0.507,0.461
			c-0.264,0.026-0.504-0.032-0.721-0.192c-2.135-1.571-4.363-2.993-6.705-4.239C143.221,172.405,142.936,172.26,142.955,171.899z"/>
		<path fill-rule="evenodd" clip-rule="evenodd" fill="#777777" d="M150.818,176.695c0.191-0.064,0.384-0.128,0.575-0.192
			c1.05,0.597,1.891,1.446,2.752,2.271c0.614,0.589,1.233,1.172,1.851,1.757c-0.127,0.191-0.255,0.383-0.383,0.575
			c-0.381,0.345-0.682,0.09-0.888-0.187c-0.979-1.322-2.442-2.134-3.507-3.362C151.006,177.312,150.595,177.147,150.818,176.695z"/>
		<path fill-rule="evenodd" clip-rule="evenodd" fill="#787878" d="M150.818,176.695c1.388,1.384,2.978,2.559,4.23,4.083
			c0.129,0.158,0.373,0.221,0.564,0.328c2.219,2.567,4.161,5.324,5.803,8.298c2.01,3.64,3.312,7.527,4.163,11.58
			c0.06,0.28,0.133,0.557,0.199,0.835c0.466,2.768,0.838,5.557,0.632,8.357c-0.101,1.366,0.027,2.776-0.439,4.109
			c-0.313,1.554-0.457,3.141-0.915,4.667c-0.164,0.548-0.286,1.108-0.428,1.663c-0.288,0.969-0.581,1.937-0.959,2.877
			c-0.272,0.787-0.624,1.541-0.959,2.301c-1.647,3.282-3.496,6.437-5.879,9.25c-3.284,3.878-7.068,7.155-11.534,9.625
			c-3.914,2.165-8.094,3.611-12.47,4.416c-1.577,0.29-3.188,0.67-4.833,0.493c-0.395,0.302-0.855,0.181-1.289,0.186
			c-1.36,0.017-2.721,0.002-4.081,0.005c-1.847-0.323-3.729-0.386-5.562-0.809c-4.242-0.979-8.295-2.438-12.063-4.642
			c-0.192-0.112-0.397-0.203-0.596-0.303c-0.134-0.192-0.192-0.393-0.065-0.613c0.229-0.221,0.481-0.217,0.75-0.086
			c2.363,1.635,5.019,2.651,7.707,3.581c3.385,1.171,6.884,1.718,10.448,2.062c2.452,0.237,4.83-0.047,7.232-0.301
			c4.784-0.505,9.274-2.02,13.516-4.211c3.552-1.835,6.884-4.017,9.629-7.008c1.163-1.267,2.461-2.41,3.487-3.806
			c2.273-3.093,4.353-6.283,5.689-9.927c0.895-2.436,1.709-4.901,2.174-7.434c0.598-3.248,0.951-6.553,0.688-9.87
			c-0.423-5.327-1.752-10.446-4.053-15.254c-1.612-3.369-3.688-6.487-6.26-9.238c-3.154-3.374-6.678-6.291-10.749-8.484
			c-2.616-1.41-5.412-2.412-8.261-3.265c-2.71-0.811-5.499-1.177-8.298-1.405c-6.461-0.525-12.607,0.796-18.562,3.264
			c-3.638,1.507-6.828,3.707-9.959,6.026c-0.255,0.189-0.466,0.464-0.836,0.259c-0.088-0.08-0.099-0.169-0.032-0.268
			c1.386-1.59,3.206-2.616,4.934-3.755c3.331-2.197,6.969-3.755,10.779-4.877c2.635-0.775,5.336-1.293,8.103-1.342
			c0.444-0.008,0.9,0.057,1.311-0.191c1.025-0.203,2.059-0.064,3.09-0.076c0.172-0.002,0.273,0.134,0.361,0.268
			c5.546,0.037,10.761,1.432,15.729,3.835c2.61,1.259,5.039,2.811,7.355,4.545C150.46,176.556,150.648,176.613,150.818,176.695z"/>
		<path fill-rule="evenodd" clip-rule="evenodd" fill="#777777" d="M98.649,178.037c0,0.064,0,0.128,0,0.192
			c0.206,0.541-0.261,0.76-0.538,1.023c-1.626,1.542-3.185,3.161-4.51,4.955c-1.8,2.434-3.533,4.936-4.729,7.743
			c-1.235,2.9-2.221,5.887-2.871,8.977c-0.378,1.793-0.472,3.62-0.663,5.435c-0.109,1.039-0.297,2.069-0.193,3.121
			c0.404,4.076,0.738,8.149,2.184,12.052c0.719,1.944,1.361,3.912,2.333,5.746c0.82,1.548,1.69,3.07,2.833,4.415
			c0.727,0.712,1.295,1.552,1.887,2.374c0.18,0.25,0.244,0.511,0.1,0.8c-0.145,0.232-0.312,0.422-0.626,0.324
			c-1.156-1.753-2.455-3.405-3.552-5.204c-2.86-4.69-4.692-9.736-5.46-15.172c-0.204-1.449-0.463-2.892-0.387-4.365
			c-0.157-1.087-0.157-2.174,0-3.26c0.134-6.036,1.73-11.693,4.411-17.07c1.437-2.491,2.909-4.959,4.733-7.194
			c1.212-1.485,2.501-2.902,3.906-4.208C97.834,178.414,98.203,178.156,98.649,178.037z"/>
		<path fill-rule="evenodd" clip-rule="evenodd" fill="#767676" d="M93.854,235.193c0.127-0.128,0.256-0.255,0.384-0.383
			c0.547-0.318,0.844,0.106,1.12,0.427c2.006,2.327,4.268,4.368,6.776,6.14c0.257,0.182,0.549,0.343,0.572,0.718
			c-0.02,0.277-0.135,0.486-0.413,0.579c-1.484-0.709-2.639-1.856-3.881-2.892C96.748,238.392,95.35,236.746,93.854,235.193z"/>
		<path fill-rule="evenodd" clip-rule="evenodd" fill="#777777" d="M165.971,214.287c0.192-2.252,0.508-4.504,0.362-6.769
			c-0.121-1.903-0.364-3.799-0.555-5.698c0.722,3.026,0.946,6.097,0.652,9.188C166.327,212.101,166.576,213.26,165.971,214.287z"/>
		<path fill-rule="evenodd" clip-rule="evenodd" fill="#777777" d="M102.294,242.673c0.063-0.192,0.127-0.383,0.191-0.576
			c1.028-0.202,1.92,0.422,1.918,1.343c0,0.192,0,0.384,0,0.575C103.699,243.568,102.996,243.121,102.294,242.673z"/>
		<path fill-rule="evenodd" clip-rule="evenodd" fill="#777777" d="M122.624,249.77c1.107-0.391,2.254-0.121,3.38-0.185
			c0.661-0.038,1.327-0.007,1.99-0.007c0,0.063,0,0.127,0,0.191c-1.726,0.157-3.452,0.157-5.179,0
			C122.752,249.77,122.688,249.77,122.624,249.77z"/>
		<path fill-rule="evenodd" clip-rule="evenodd" fill="#767676" d="M122.815,249.77c1.727,0,3.453,0,5.179,0
			C126.269,250.081,124.542,250.081,122.815,249.77z"/>
		<path fill-rule="evenodd" clip-rule="evenodd" fill="#777777" d="M163.669,223.494c0.189-1.002,0.496-1.966,0.959-2.877
			C164.512,221.644,164.226,222.613,163.669,223.494z"/>
		<path fill-rule="evenodd" clip-rule="evenodd" fill="#767676" d="M84.456,207.191c0,1.086,0,2.173,0,3.26
			C84.158,209.364,84.158,208.277,84.456,207.191z"/>
		<path fill-rule="evenodd" clip-rule="evenodd" fill="#777777" d="M162.71,225.795c0.152-0.836,0.511-1.588,0.959-2.301
			C163.561,224.349,163.231,225.112,162.71,225.795z"/>
		<path fill-rule="evenodd" clip-rule="evenodd" fill="#767676" d="M127.227,168.064c-1.133-0.375-2.302-0.114-3.451-0.192
			C124.94,167.676,126.113,167.335,127.227,168.064z"/>
		<path fill-rule="evenodd" clip-rule="evenodd" fill="#7C7C7C" d="M104.403,243.44c-0.511-0.631-1.295-0.871-1.918-1.343
			c-2.798-1.651-5.069-3.913-7.243-6.282c-0.322-0.351-0.598-0.741-1.004-1.006c-0.438-1.094-1.469-1.792-1.918-2.877
			c-0.523-1.276-1.447-2.312-2.1-3.512c-2.705-4.977-4.384-10.257-4.81-15.92c-0.106-1.417-0.384-2.824-0.285-4.251
			c0.28-4.053,0.745-8.067,2.032-11.959c1.262-3.818,3.037-7.35,5.357-10.632c3.04-4.302,6.768-7.822,11.204-10.694
			c4.019-2.603,8.343-4.388,12.95-5.461c4.014-0.935,8.128-1.216,12.246-0.844c4.065,0.367,8.022,1.29,11.8,2.85
			c4.601,1.899,8.72,4.54,12.36,7.978c3.068,2.898,5.617,6.169,7.688,9.815c1.639,2.887,2.803,5.982,3.661,9.195
			c0.949,3.555,1.392,7.172,1.34,10.838c-0.068,4.822-1.016,9.476-2.702,14.011c-1.289,3.47-3.062,6.667-5.274,9.574
			c-2.605,3.425-5.609,6.495-9.245,8.906c-2.181,1.446-4.389,2.808-6.79,3.855c-3.219,1.405-6.567,2.343-10.022,2.941
			c-3.291,0.569-6.609,0.614-9.913,0.343c-2.765-0.228-5.481-0.852-8.157-1.638c-2.766-0.812-5.35-2.036-7.896-3.354
			c-0.255-0.132-0.498-0.287-0.785-0.34C104.787,243.568,104.596,243.504,104.403,243.44z"/>
		<path fill-rule="evenodd" clip-rule="evenodd" fill="#7B7B7B" d="M104.979,243.632c0.493-0.163,0.874,0.132,1.252,0.346
			c4.255,2.404,8.854,3.875,13.652,4.52c4.594,0.619,9.204,0.521,13.803-0.477c3.846-0.835,7.511-2.102,10.94-3.953
			c2.63-1.42,5.121-3.125,7.35-5.153c1.913-1.74,3.742-3.576,5.272-5.664c1.465-2.001,2.856-4.046,3.972-6.296
			c1.358-2.738,2.416-5.556,3.146-8.51c0.573-2.328,0.893-4.683,1.074-7.083c0.28-3.701-0.022-7.335-0.786-10.934
			c-0.704-3.314-1.801-6.49-3.336-9.546c-1.898-3.78-4.315-7.168-7.226-10.181c-2.103-2.177-4.524-4.002-7.074-5.683
			c-1.912-1.261-3.929-2.284-6-3.153c-2.911-1.222-5.94-2.163-9.093-2.612c-4.943-0.704-9.872-0.663-14.767,0.354
			c-4.223,0.877-8.229,2.407-11.923,4.612c-2.929,1.748-5.731,3.744-8.1,6.225c-3.891,4.075-7.067,8.637-9.037,13.973
			c-1.425,3.858-2.249,7.813-2.54,11.932c-0.381,5.384,0.416,10.572,2.057,15.65c1.033,3.202,2.602,6.175,4.471,8.979
			c0.2,0.301,0.43,0.568,0.234,0.954c-1.593-1.897-2.784-4.043-3.778-6.293c-2.056-4.654-3.211-9.525-3.536-14.611
			c-0.322-5.034,0.457-9.896,1.901-14.699c1.315-4.37,3.504-8.275,6.179-11.923c0.901-1.229,1.957-2.35,2.98-3.485
			c0.832-0.924,1.72-1.796,2.583-2.691c1.756-1.213,3.497-2.447,5.271-3.635c3.871-2.594,8.157-4.255,12.666-5.276
			c5.604-1.269,11.248-1.335,16.908-0.185c6.747,1.371,12.812,4.211,18.036,8.639c4.468,3.787,8.134,8.311,10.586,13.69
			c1.972,4.325,3.219,8.855,3.685,13.613c0.576,5.892-0.241,11.596-2.091,17.167c-1.1,3.314-2.698,6.394-4.696,9.279
			c-2.941,4.247-6.488,7.853-10.754,10.775c-3.672,2.516-7.664,4.313-11.929,5.53c-3.708,1.057-7.505,1.619-11.347,1.527
			c-4.713-0.113-9.322-0.929-13.746-2.664C109.064,245.838,106.91,244.97,104.979,243.632z"/>
		<path fill-rule="evenodd" clip-rule="evenodd" fill="#848484" d="M86.375,208.782c0.096-21.667,17.334-39.126,39.151-39.104
			c21.692,0.022,39.075,17.276,39.063,39.171c-0.012,21.704-17.273,39.136-39.136,39.117
			C103.705,247.946,86.447,230.501,86.375,208.782z"/>
		<path fill-rule="evenodd" clip-rule="evenodd" fill="#8E8E8E" d="M100.184,236.152c-1.804-1.486-3.226-3.312-4.604-5.178
			c-0.488-1.877-2.08-3.172-2.638-5.012c-0.896-1.825-1.854-3.641-2.401-5.595c-0.684-2.444-1.408-4.881-1.545-7.466
			c-0.081-1.529-0.39-3.046-0.294-4.596c0.152-2.47,0.353-4.921,0.888-7.356c0.623-2.834,1.54-5.549,2.801-8.147
			c1.984-4.093,4.658-7.678,7.963-10.821c3.096-2.946,6.65-5.184,10.51-6.915c2.084-0.935,4.284-1.622,6.551-2.088
			c2.839-0.584,5.704-1.044,8.582-0.935c3.267,0.125,6.526,0.518,9.694,1.464c2.306,0.689,4.542,1.559,6.659,2.673
			c2.812,1.48,5.462,3.208,7.771,5.446c1.599,1.55,3.198,3.088,4.542,4.867c2.014,2.668,3.73,5.522,4.942,8.64
			c1.192,3.066,2.076,6.226,2.364,9.526c0.141,1.619,0.433,3.218,0.32,4.863c-0.22,3.242-0.567,6.447-1.5,9.585
			c-0.671,2.263-1.517,4.442-2.612,6.516c-1.354,2.563-2.862,5.027-4.85,7.181c-2.048,2.218-4.184,4.31-6.667,6.052
			c-1.949,1.366-4.016,2.495-6.153,3.514c-2.876,1.371-5.927,2.246-9.048,2.725c-3.505,0.539-7.025,0.693-10.602,0.173
			c-4.613-0.671-8.95-1.989-13.018-4.257c-2.323-1.296-4.556-2.707-6.489-4.551c-0.258-0.246-0.539-0.324-0.874-0.201
			C100.366,236.261,100.268,236.225,100.184,236.152z"/>
		<path fill-rule="evenodd" clip-rule="evenodd" fill="#898989" d="M100.184,236.152c0.064,0,0.127,0,0.191,0
			c0.447-0.053,0.78,0.13,1.11,0.432c2.827,2.579,6.081,4.474,9.564,6.022c2.064,0.918,4.198,1.57,6.402,2.039
			c3.343,0.71,6.705,1.183,10.13,0.909c5.042-0.403,9.901-1.544,14.416-3.885c2.828-1.467,5.48-3.191,7.854-5.365
			c2.212-2.025,4.299-4.154,5.946-6.644c1.765-2.667,3.293-5.47,4.32-8.542c0.704-2.104,1.404-4.217,1.683-6.395
			c0.417-3.273,0.657-6.542,0.203-9.892c-0.646-4.75-1.909-9.238-4.187-13.44c-1.976-3.644-4.511-6.839-7.565-9.663
			c-3.401-3.144-7.252-5.525-11.55-7.162c-2.854-1.088-5.775-1.873-8.88-2.141c-2.384-0.206-4.729-0.509-7.122-0.245
			c-2.854,0.316-5.705,0.677-8.435,1.603c-3.598,1.222-6.99,2.869-10.104,5.079c-2.906,2.062-5.462,4.502-7.64,7.294
			c-2.392,3.065-4.313,6.422-5.59,10.13c-0.742,2.157-1.491,4.323-1.746,6.583c-0.37,3.274-0.691,6.53-0.229,9.877
			c0.424,3.066,1.116,6.02,2.056,8.942c0.342,1.062,1.04,1.989,1.186,3.127c-0.07,0.223-0.207,0.375-0.452,0.403
			c-1.364-2.263-2.141-4.742-2.81-7.282c-0.801-3.043-1.238-6.136-1.191-9.26c0.096-6.386,1.713-12.371,4.775-18.022
			c1.852-3.414,4.149-6.406,6.912-9.085c3.248-3.149,7.032-5.484,11.131-7.337c2.451-1.108,5.002-1.94,7.647-2.414
			c3.812-0.682,7.656-0.995,11.519-0.475c4.351,0.586,8.496,1.772,12.471,3.746c4.303,2.138,8.02,4.957,11.293,8.415
			c1.184,1.25,2.119,2.698,3.113,4.102c1.615,2.28,2.854,4.755,3.867,7.324c1.051,2.663,1.942,5.386,2.288,8.277
			c0.228,1.901,0.562,3.797,0.502,5.705c-0.114,3.671-0.57,7.286-1.757,10.81c-0.684,2.031-1.407,4.022-2.345,5.947
			c-2.802,5.75-6.845,10.437-12.1,14.049c-3.3,2.269-6.885,3.945-10.732,5.167c-2.368,0.752-4.773,1.2-7.187,1.465
			c-2.965,0.326-5.956,0.275-8.959-0.23c-2.47-0.416-4.856-1.02-7.228-1.771c-1.867-0.592-3.567-1.541-5.318-2.389
			c-2.462-1.193-4.573-2.897-6.744-4.518C100.48,237.135,99.91,236.861,100.184,236.152z"/>
		<path fill-rule="evenodd" clip-rule="evenodd" fill="#8A8A8A" d="M91.745,225.22c0.063-0.128,0.128-0.256,0.191-0.384
			c0.413-0.178,0.505,0.124,0.65,0.403c0.159,0.305,0.328,0.623,0.692,0.748c0.854,1.262,1.56,2.623,2.527,3.81
			c0.402,0.494,0.016,0.817-0.227,1.177c-0.315,0.14-0.538,0.023-0.729-0.241C93.607,229.012,92.576,227.172,91.745,225.22z"/>
		<path fill-rule="evenodd" clip-rule="evenodd" fill="#FFFFFF" d="M158.688,208.86c-0.011,18.713-15.189,33.852-33.909,33.819
			c-18.661-0.033-33.789-15.196-33.783-33.861c0.005-18.678,15.241-33.873,33.923-33.832
			C143.581,175.027,158.699,190.193,158.688,208.86z"/>
		<path fill-rule="evenodd" clip-rule="evenodd" fill="#8A8A8A" d="M93.279,225.987c-0.316,0.231-0.564,0.23-0.761-0.168
			c-0.167-0.341-0.386-0.656-0.582-0.983c-0.841-2.002-1.752-3.978-2.26-6.103c-1.097-4.584-1.659-9.17-1.106-13.927
			c0.487-4.188,1.575-8.146,3.354-11.919c2.389-5.069,5.772-9.376,10.142-12.927c4.133-3.358,8.784-5.701,13.896-7.018
			c4.4-1.134,8.898-1.611,13.475-0.956c2.247,0.322,4.495,0.582,6.649,1.318c2.591,0.885,5.129,1.853,7.553,3.189
			c2.886,1.592,5.437,3.588,7.81,5.802c2.195,2.047,4.005,4.46,5.585,7.026c1.275,2.07,2.435,4.225,3.233,6.502
			c0.947,2.701,1.641,5.495,2.049,8.352c0.609,4.255,0.335,8.46-0.557,12.641c-0.914,4.292-2.643,8.252-4.947,11.968
			c-2.962,4.778-6.902,8.606-11.65,11.557c-4.893,3.041-10.236,4.848-15.994,5.424c-3.684,0.368-7.342,0.234-10.951-0.503
			c-5.253-1.073-10.091-3.189-14.453-6.312c-1.186-0.848-2.374-1.727-3.387-2.801c0.51-0.824,0.902-0.304,1.348,0.094
			c4.34,3.874,9.37,6.408,14.983,7.9c2.582,0.687,5.259,0.546,7.838,1.166c0.546,0.131,1.163,0.122,1.718,0.019
			c1.98-0.37,4.012-0.372,5.978-0.749c3.712-0.71,7.228-2.006,10.593-3.777c4.455-2.345,8.102-5.669,11.252-9.467
			c2.453-2.958,4.352-6.352,5.604-10.058c0.694-2.06,1.377-4.131,1.662-6.277c0.423-3.182,0.947-6.362,0.333-9.611
			c-0.277-1.461-0.311-2.975-0.657-4.439c-0.97-4.093-2.437-7.96-4.768-11.507c-1.231-1.874-2.484-3.727-4.089-5.274
			c-1.663-1.604-3.243-3.283-5.153-4.661c-3.088-2.228-6.391-3.981-9.957-5.19c-2.185-0.74-4.406-1.497-6.789-1.483
			c-0.85,0.004-1.701-0.23-2.551-0.36c-2.145-0.326-4.242,0.1-6.368,0.275s-4.147,0.632-6.174,1.189
			c-2.224,0.61-4.337,1.489-6.379,2.562c-2.289,1.203-4.49,2.554-6.438,4.246c-3.333,2.896-6.254,6.152-8.47,10.02
			c-2.184,3.811-3.658,7.879-4.305,12.191c-0.471,3.138-0.665,6.293-0.29,9.525c0.539,4.64,1.854,8.971,3.873,13.135
			C93.224,225.734,93.243,225.864,93.279,225.987z"/>
		<path fill-rule="evenodd" clip-rule="evenodd" fill="#3E3E3E" d="M136.76,228.176c-4.823,0.025-8.74-3.839-8.77-8.65
			c-0.029-4.82,3.822-8.728,8.647-8.773c4.866-0.046,8.812,3.848,8.816,8.699C145.459,224.273,141.594,228.151,136.76,228.176z"/>
		<path fill-rule="evenodd" clip-rule="evenodd" fill="#3E3E3E" d="M113.158,207.074c-4.831,0.018-8.738-3.838-8.765-8.652
			c-0.027-4.86,3.885-8.788,8.743-8.777c4.823,0.011,8.719,3.9,8.722,8.708C121.861,203.17,117.985,207.056,113.158,207.074z"/>
		<path fill-rule="evenodd" clip-rule="evenodd" fill="#BCBEC0" d="M136.719,207.003c-4.475,0.339-8.73-3.88-8.739-8.54
			c-0.011-4.965,4.312-8.952,8.841-8.774c4.813,0.189,8.615,3.857,8.631,8.679C145.467,203.275,141.136,207.332,136.719,207.003z"/>
		<path fill-rule="evenodd" clip-rule="evenodd" fill="#BCBEC0" d="M113.062,228.101c-4.404,0.318-8.715-3.899-8.685-8.698
			c0.028-4.628,4.227-8.819,8.906-8.617c4.749,0.205,8.608,3.946,8.568,8.742C121.81,224.528,117.469,228.446,113.062,228.101z"/>
	</g>
</g>
<g id="_x39_mkQ3u_1_" opacity="0.2">
	<g>
		<path fill="none" d="M325.713,559.443c3.39,0.211,6.697-0.294,9.939-0.979c10.119-2.14,18.829-6.908,25.988-14.426
			c1.074-1.129,1.065-1.361-0.145-2.369c-1.889-1.572-3.819-3.1-5.665-4.723c-0.965-0.848-1.642-0.949-2.629,0.053
			c-3.55,3.606-7.657,6.481-12.329,8.422c-6.871,2.853-13.99,3.744-21.396,2.531c-6.253-1.023-11.9-3.394-16.925-7.171
			c-12.783-9.607-18.314-25.588-14.091-41.074c3.508-12.859,11.774-21.62,24.153-26.277c8.063-3.033,16.389-3.121,24.668-0.498
			c8.38,2.653,14.983,7.692,20.007,14.87c4.261,6.087,6.491,12.885,7.056,20.243c0.206,2.685,0.244,5.397-1.377,7.783
			c-1.146,1.686-3.002,2.388-4.891,1.864c-1.866-0.517-3.166-2.253-3.154-4.304c0.008-1.229,0.178-2.458,0.151-3.684
			c-0.2-9.118-3.702-16.69-10.734-22.55c-10.738-8.947-26.702-8.9-37.425,0.073c-11.802,9.879-14.032,27.26-5.092,39.687
			c8.374,11.64,23.884,15.569,36.799,9.277c4.463-2.174,8.101-5.363,11.024-9.374c0.302-0.415,0.554-1.298,1.272-0.42
			c2.051,2.513,4.775,3.515,7.922,3.634c4.543,0.171,8.384-1.351,11.475-4.705c3.67-3.981,4.876-8.893,5.05-14.089
			c0.222-6.679-0.998-13.169-3.462-19.359c-4.301-10.811-11.422-19.312-21.564-25.099c-12.676-7.231-26.193-8.876-39.928-4.126
			c-19.202,6.644-30.687,20.3-33.8,40.517c-1.784,11.586,0.497,22.587,6.755,32.481
			C293.155,551.129,307.443,558.942,325.713,559.443z"/>
		<path fill-rule="evenodd" clip-rule="evenodd" d="M325.713,559.443c-18.27-0.501-32.558-8.314-42.346-23.791
			c-6.258-9.895-8.539-20.896-6.755-32.481c3.113-20.217,14.598-33.873,33.8-40.517c13.734-4.75,27.252-3.105,39.928,4.126
			c10.143,5.787,17.264,14.288,21.564,25.099c2.464,6.19,3.684,12.681,3.462,19.359c-0.174,5.196-1.38,10.107-5.05,14.089
			c-3.091,3.354-6.932,4.876-11.475,4.705c-3.146-0.119-5.871-1.121-7.922-3.634c-0.719-0.878-0.971,0.005-1.272,0.42
			c-2.924,4.011-6.562,7.2-11.024,9.374c-12.915,6.292-28.425,2.362-36.799-9.277c-8.94-12.427-6.71-29.808,5.092-39.687
			c10.723-8.974,26.687-9.021,37.425-0.073c7.032,5.859,10.534,13.432,10.734,22.55c0.026,1.226-0.144,2.455-0.151,3.684
			c-0.012,2.051,1.288,3.787,3.154,4.304c1.889,0.523,3.744-0.179,4.891-1.864c1.621-2.386,1.583-5.099,1.377-7.783
			c-0.564-7.358-2.795-14.156-7.056-20.243c-5.023-7.178-11.627-12.217-20.007-14.87c-8.279-2.623-16.604-2.535-24.668,0.498
			c-12.379,4.657-20.646,13.418-24.153,26.277c-4.224,15.486,1.308,31.467,14.091,41.074c5.024,3.777,10.672,6.147,16.925,7.171
			c7.405,1.213,14.524,0.321,21.396-2.531c4.672-1.94,8.779-4.815,12.329-8.422c0.987-1.002,1.664-0.9,2.629-0.053
			c1.846,1.623,3.776,3.15,5.665,4.723c1.21,1.008,1.219,1.24,0.145,2.369c-7.159,7.518-15.869,12.286-25.988,14.426
			C332.41,559.149,329.103,559.654,325.713,559.443z M325.797,491.312c-10.168-0.211-18.721,8.059-18.652,18.605
			c0.067,10.235,8.1,18.47,18.57,18.46c10.292-0.01,18.562-7.883,18.592-18.584C344.334,499.225,335.843,491.21,325.797,491.312z"/>
		<path fill-rule="evenodd" clip-rule="evenodd" fill="none" d="M325.797,491.312c10.046-0.103,18.537,7.912,18.51,18.481
			c-0.029,10.701-8.3,18.574-18.592,18.584c-10.471,0.01-18.503-8.225-18.57-18.46C307.076,499.371,315.629,491.102,325.797,491.312
			z M325.713,518.448c4.921-0.002,8.707-3.749,8.693-8.602c-0.015-4.859-3.836-8.714-8.652-8.725
			c-4.863-0.011-8.81,3.891-8.785,8.756C316.993,514.824,321.203,518.748,325.713,518.448z"/>
		<path fill-rule="evenodd" clip-rule="evenodd" d="M325.713,518.448c-4.51,0.3-8.72-3.624-8.744-8.57
			c-0.024-4.865,3.922-8.767,8.785-8.756c4.816,0.011,8.638,3.865,8.652,8.725C334.42,514.699,330.634,518.446,325.713,518.448z"/>
	</g>
</g>
<g opacity="0.3">
	<path fill-rule="evenodd" clip-rule="evenodd" fill="#939393" d="M537.368,404.452c3.566-2.651,3.568-2.651,6.828,0.595
		c3.439,3.429,6.835,6.902,10.336,10.267c1.348,1.295,1.453,2.229,0.062,3.602c-8.153,8.044-16.245,16.151-24.337,24.256
		c-0.959,0.96-1.996,1.5-3.391,1.496c-8.797-0.028-17.594-0.008-26.389-0.021c-0.609-0.001-1.459,0.244-1.748-0.422
		c-0.367-0.841,0.545-1.262,1.023-1.745c5.098-5.139,10.23-10.243,15.329-15.381c0.897-0.905,1.682-1.923,2.518-2.889
		c2.118-1.286,3.262-2.95,4.345-4.014c4.287-4.209,7.158-7.212,11.433-11.433C534.802,407.355,534.802,407.355,537.368,404.452z"/>
	<path fill-rule="evenodd" clip-rule="evenodd" fill="#414042" d="M517.654,466.692c-6.622-5.89-12.564-12.452-18.985-18.606
		c1.008-1.056,1.975-0.724,2.821-0.725c17.323-0.022,34.646,0.014,51.968-0.057c2.007-0.009,3.468,0.546,4.81,2.026
		c1.968,2.17,4.075,4.222,6.214,6.225c1.162,1.09,1.426,1.885,0.111,3.107c-2.482,2.307-4.831,4.758-7.205,7.18
		c-0.748,0.765-1.566,1.194-2.658,1.19c-12.006-0.026-24.013-0.031-36.018-0.058c-0.352-0.002-0.699-0.183-1.049-0.279
		c2.52-0.577,5.075-0.225,7.612-0.245c7.042-0.059,14.084-0.021,21.126-0.021c-8.964,0-17.929-0.004-26.894,0.009
		C518.886,466.439,518.224,466.256,517.654,466.692z"/>
	<path fill-rule="evenodd" clip-rule="evenodd" fill="#6D6E71" d="M497.351,421.484c-0.022-5.592,0.011-11.184-0.096-16.772
		c-0.038-2.068,0.61-2.979,2.817-2.964c10.632,0.068,21.265,0.022,31.897,0.032c0.706,0.001,1.657-0.251,2.027,0.454
		c0.507,0.965-0.557,1.434-1.086,1.969c-5.155,5.213-10.364,10.375-15.51,15.598c-1.171,1.188-2.43,1.768-4.127,1.738
		c-5.313-0.089-10.629-0.062-15.946-0.081L497.351,421.484z"/>
</g>
<g opacity="0.3">
	<path fill-rule="evenodd" clip-rule="evenodd" fill="#6B6B6B" d="M496.839,187.554c1.215-0.785,2.192-0.568,3.118-0.569
		c13.756-0.015,27.512-0.018,41.267,0.006c1.022,0.002,2.51-0.477,2.953,0.503c0.571,1.26-1.011,1.883-1.762,2.643
		c-6.547,6.619-13.161,13.174-19.719,19.785c-1.162,1.17-2.031,1.941-3.588,0.356c-7.115-7.248-14.333-14.397-21.505-21.591
		C497.321,188.404,497.145,188.016,496.839,187.554z"/>
	<path fill-rule="evenodd" clip-rule="evenodd" fill="#6B6B6B" d="M544.59,230.332c-15.944,0-31.769,0-47.864,0
		c0.684-1.879,2.059-2.76,3.131-3.848c4.463-4.527,9.061-8.926,13.429-13.541c1.697-1.793,2.712-1.604,4.302,0.07
		c3.075,3.24,3.188,3.176,6.413-0.034c1.196-1.19,2.056-2.229,3.788-0.425c5.283,5.501,10.75,10.826,16.137,16.227
		C544.286,229.142,544.731,229.482,544.59,230.332z"/>
	<path fill-rule="evenodd" clip-rule="evenodd" fill="#6C6C6C" d="M546.496,227.681c-2.16-2.411-4.249-4.891-6.492-7.221
		c-3.302-3.428-6.708-6.753-10.081-10.111c-0.86-0.857-1.713-1.596-0.434-2.852c5.737-5.625,11.429-11.297,17.148-16.937
		c0.111-0.11,0.385-0.056,0.84-0.106c0,12.193,0,24.35,0,36.506C547.151,227.201,546.823,227.441,546.496,227.681z"/>
	<path fill-rule="evenodd" clip-rule="evenodd" fill="#6B6B6B" d="M494.835,190.142c5.786,5.861,11.568,11.725,17.361,17.58
		c0.741,0.749,0.744,1.456,0.008,2.188c-5.891,5.861-11.78,11.723-18.123,18.033c0-12.914,0-25.114,0-37.313
		C494.333,190.466,494.585,190.304,494.835,190.142z"/>
	<path fill-rule="evenodd" clip-rule="evenodd" fill="#4E4E4E" d="M490.702,199.036c0.004,2.856,0.007,5.713,0,8.569
		c-0.001,0.635,0.221,1.487-0.099,1.867c-2.229,2.645-5.251,0.771-7.89,1.22c-1.373,0.233-2.132-0.501-2.124-2.022
		c0.035-6.56-0.46-13.166,0.19-19.662c0.406-4.061,4.436-1.427,6.766-1.977c1.457-0.343,3.273-0.413,3.183,2.166
		C490.612,192.472,490.7,195.755,490.702,199.036z"/>
	<path fill-rule="evenodd" clip-rule="evenodd" fill="#4F4F4F" d="M560.855,199.171c-0.003,2.956-0.093,5.917,0.026,8.868
		c0.086,2.101-0.792,2.765-2.799,2.731c-8.912-0.146-7.225,0.98-7.369-7.01c-0.083-4.539,0.108-9.086-0.062-13.619
		c-0.097-2.562,0.894-3.285,3.319-3.223c8.222,0.212,6.714-0.961,6.882,6.866C560.894,195.58,560.86,197.375,560.855,199.171z"/>
	<path fill-rule="evenodd" clip-rule="evenodd" fill="#515151" d="M532.387,243.838c-0.527-0.001-1.056,0-1.583-0.001
		c-7.839,0-8.144-0.402-7.199-8.432c0.178-1.512,0.839-2.003,2.214-1.998c4.432,0.014,8.863,0.024,13.295-0.012
		c1.582-0.013,2.382,0.631,2.29,2.253c-0.007,0.104,0,0.21,0.006,0.315C541.897,243.84,541.897,243.84,532.387,243.838z"/>
	<path fill-rule="evenodd" clip-rule="evenodd" fill="#4F4F4F" d="M507.571,233.398c0.635,0,1.269,0,1.902,0
		c7,0,8.268,1.678,6.837,8.797c-0.286,1.423-1.128,1.617-2.25,1.619c-4.334,0.007-8.669-0.022-13.003,0.016
		c-1.611,0.014-2.147-0.696-2.27-2.283C498.157,233.396,498.117,233.398,507.571,233.398z"/>
	<path fill-rule="evenodd" clip-rule="evenodd" fill="#505050" d="M550.702,222.064c-0.002-1.9,0.09-3.807-0.025-5.701
		c-0.137-2.253,0.797-2.811,2.846-2.196c3.355,1.005,5.92,4.575,5.814,8.216c-0.104,3.579-2.648,6.762-5.978,7.756
		c-2.019,0.604-2.739-0.046-2.671-2.055C550.755,226.08,550.704,224.071,550.702,222.064z"/>
	<path fill-rule="evenodd" clip-rule="evenodd" fill="#4E4E4E" d="M490.7,222.173c0,2.105-0.037,4.212,0.012,6.316
		c0.035,1.455-0.351,2.135-2.012,1.794c-3.537-0.724-6.338-4.145-6.389-8.02c-0.054-3.942,2.568-7.366,6.129-8.188
		c1.636-0.378,2.364-0.017,2.283,1.78C490.628,217.958,490.701,220.068,490.7,222.173z"/>
	<path fill-rule="evenodd" clip-rule="evenodd" fill="#4E4E4E" d="M544.835,176.521c-0.23-3.051-0.053-6.133-0.053-9.201
		c0-2.857-0.158-5.726,0.046-8.568c0.198-2.781-0.54-4.094-3.615-3.786c-2.619,0.263-5.288-0.015-7.93,0.075
		c-1.983,0.07-3.525-0.35-5.089-1.841c-3.762-3.589-9.994-4.274-13.648-0.876c-2.907,2.705-5.899,2.762-9.264,2.701
		c-1.799-0.031-3.609,0.133-5.393-0.035c-2.467-0.234-3.066,0.878-3.025,3.142c0.111,6.242,0.104,12.487,0.008,18.729
		c-0.035,2.136,0.57,3.064,2.861,2.945c3.166-0.164,6.348-0.001,9.521-0.051c1.537-0.024,2.771,0.131,2.648,2.13
		c-0.104,1.694,0.895,2.153,2.402,2.143c4.232-0.034,8.465-0.04,12.697,0.007c1.606,0.018,2.737-0.316,2.516-2.258
		c-0.209-1.836,0.918-2.039,2.361-2.02c3.174,0.045,6.358-0.141,9.52,0.057C543.956,179.974,545.044,179.274,544.835,176.521z
		 M510.122,174.091c-3.612,0.047-6.691-2.99-6.681-6.59c0.011-3.586,3.124-6.662,6.694-6.613c3.406,0.045,6.467,3.049,6.592,6.47
		C516.853,170.815,513.687,174.044,510.122,174.091z M531.406,174.086c-3.603-0.056-6.376-2.884-6.401-6.524
		c-0.026-3.705,2.984-6.744,6.615-6.675c3.484,0.066,6.434,3.067,6.461,6.572C538.112,171.156,535.102,174.143,531.406,174.086z"/>
	<path fill-rule="evenodd" clip-rule="evenodd" fill="#868686" d="M509.968,170.916c-2.081-0.176-3.299-1.322-3.303-3.417
		c-0.006-2.087,1.205-3.412,3.299-3.423c2.213-0.012,3.576,1.307,3.523,3.549C513.437,169.728,512.058,170.76,509.968,170.916z"/>
	<path fill-rule="evenodd" clip-rule="evenodd" fill="#878787" d="M531.286,170.904c-2.039-0.234-3.252-1.413-3.186-3.512
		c0.067-2.072,1.305-3.371,3.425-3.327c2.248,0.047,3.557,1.431,3.429,3.651C534.836,169.783,533.454,170.853,531.286,170.904z"/>
</g>
</svg>
