<?xml version="1.0" encoding="utf-8"?>
<!-- Generator: Adobe Illustrator 16.0.4, SVG Export Plug-In . SVG Version: 6.00 Build 0)  -->
<!DOCTYPE svg PUBLIC "-//W3C//DTD SVG 1.1//EN" "http://www.w3.org/Graphics/SVG/1.1/DTD/svg11.dtd">
<svg version="1.1" id="Layer_1" xmlns="http://www.w3.org/2000/svg" xmlns:xlink="http://www.w3.org/1999/xlink" x="0px" y="0px"
	 width="621px" height="635.697px" viewBox="0 0 621 635.697" enable-background="new 0 0 621 635.697" xml:space="preserve">
<g opacity="0.8">
	<path fill="#42A9C1" d="M403.16,167.102c-3.067-2.815-6.127-5.64-9.19-8.46c-1.585-1.459-3.168-2.922-4.763-4.372
		c-0.727-0.662-1.582-0.746-2.437-0.336c-0.843,0.404-1.186,1.139-1.153,2.081c0.022,0.705,0.365,1.2,0.854,1.65
		c4.023,3.711,8.042,7.428,12.066,11.141c0.662,0.612,1.313,1.238,2.008,1.812c0.736,0.61,1.596,0.733,2.453,0.3
		c0.766-0.386,1.136-1.061,1.096-1.96C404.144,168.176,403.72,167.615,403.16,167.102z"/>
	<path fill="#42A9C1" d="M362.615,154.36c-0.636,0.554-1.242,1.145-1.863,1.718c-4.047,3.727-8.093,7.455-12.143,11.18
		c-0.521,0.479-0.838,1.039-0.781,1.732c-0.031,0.917,0.375,1.565,1.145,1.94c0.827,0.404,1.658,0.309,2.373-0.282
		c0.628-0.518,1.206-1.096,1.806-1.649c4.131-3.808,8.269-7.609,12.387-11.432c0.998-0.927,1.053-2.294,0.208-3.197
		C364.914,153.479,363.646,153.464,362.615,154.36z"/>
	<path fill="#42A9C1" d="M417.541,129.321c-0.001-1.96-0.689-3.649-2.185-4.943c-3.669-3.18-7.342-6.357-11.014-9.534l-13.462-11.68
		c-3.778-3.278-7.559-6.553-11.322-9.845c-1.467-1.282-2.348-1.146-3.768,0.032c-12.106,10.042-24.242,20.048-36.463,29.949
		c-2.108,1.707-3.056,3.618-3.023,6.237c0.054,4.29,0.014,8.582,0.014,12.873c-0.002,10.297-0.017,20.595,0.007,30.892
		c0.01,3.783,2.053,6.348,5.276,6.716c1.207,0.137,2.426,0.225,3.637,0.227c10.553,0.017,21.105,0.01,31.658,0.01
		c0-0.041,0-0.081,0-0.121c2.922,0,5.844,0.004,8.767,0c8.415-0.015,16.83,0.004,25.243-0.07c4.083-0.036,6.592-2.465,6.607-6.548
		C417.579,158.784,417.545,144.053,417.541,129.321z M345.602,125.897c0.061-0.054,0.119-0.106,0.178-0.159
		c0.002-0.003,0.006-0.005,0.008-0.008c9.885-8.947,20.138-17.531,30.663-25.713c0.466-0.362,0.985-0.4,1.449,0
		c5.479,4.737,10.957,9.474,16.435,14.212l5.031,4.349c2.971,2.569,5.941,5.137,8.913,7.706c0.544,0.471,0.284,1.246-0.208,1.608
		c-10.311,7.643-20.62,15.285-30.932,22.929c-0.26,0.191-0.775,0.198-1.034,0c-10.099-7.772-20.198-15.544-30.296-23.316
		c-0.08-0.062-0.146-0.135-0.203-0.208C345.233,126.937,345.105,126.346,345.602,125.897z M408.351,173.846
		c-20.964-0.083-41.925-0.076-62.888-0.008c-2.112,0.006-2.661-0.711-2.649-2.727c0.077-11.805,0.031-23.61,0.049-35.416
		c0.003-0.664-0.374-1.6,0.421-1.92c0.592-0.239,1.11,0.505,1.613,0.883c10.02,7.505,20.061,14.982,30.024,22.562
		c1.539,1.169,2.554,1.116,4.064-0.025c9.871-7.464,19.813-14.834,29.735-22.23c0.616-0.46,1.257-0.886,2.301-1.617
		c0,3.806,0,7.089,0,10.372c0,9.087-0.054,18.173,0.042,27.259C411.084,173.051,410.623,173.854,408.351,173.846z"/>
</g>
<g id="inHA4o_1_">
	<g>
		<path fill-rule="evenodd" clip-rule="evenodd" fill="#E6E7E8" d="M197.865,466.183c0-8.396-0.279-16.806,0.092-25.187
			c0.277-6.289-1.644-10.361-7.557-13.403c-10.938-5.626-21.498-12.001-32.119-18.229c-8.293-4.863-9.182-9.42-2.97-16.896
			c11.444-13.776,22.905-27.555,34.868-40.875c4.225-4.704,4.662-7.794,0.352-12.595c-11.592-12.905-22.726-26.221-34.061-39.356
			c-7.841-9.084-6.962-13.905,3.604-19.53c39.275-20.91,78.607-41.717,117.771-62.834c6.899-3.72,11.904-2.965,16.879,2.951
			c10.984,13.065,22.523,25.674,33.211,38.972c4.408,5.486,6.449,4.539,10.387-0.278c10.619-12.998,21.923-25.436,32.67-38.334
			c5.219-6.264,10.321-6.868,17.533-2.978c38.914,20.991,78.042,41.586,117.088,62.332c11.303,6.005,12.07,10.375,3.769,19.944
			c-11.37,13.105-22.522,26.403-34.065,39.354c-3.948,4.43-3.958,7.406,0.137,11.963c11.967,13.315,23.474,27.054,34.932,40.818
			c6.794,8.161,5.789,12.514-3.573,17.892c-10.678,6.134-21.317,12.343-32.153,18.187c-4.807,2.592-6.596,6.035-6.524,11.449
			c0.233,17.63-0.088,35.269,0.103,52.9c0.088,8.161-3.068,13.176-10.605,17.087c-38.5,19.979-76.792,40.366-114.945,60.999
			c-6.668,3.604-12.127,3.912-18.781,0.333c-38.938-20.947-77.975-41.712-117.115-62.275c-5.963-3.132-8.844-7.351-8.84-13.861
			c0.006-9.516,0.002-19.03,0.002-28.547C197.922,466.183,197.893,466.183,197.865,466.183z M440.44,345.074
			c-36.137-19.136-69.999-37.036-103.819-55.018c-3.949-2.1-6.986-0.113-10.184,1.576c-30.918,16.347-61.842,32.687-92.721,49.108
			c-2.099,1.115-5.438,1.705-5.268,4.702c0.131,2.329,3.056,3.008,4.988,4.034c30.887,16.407,61.842,32.688,92.645,49.254
			c5.027,2.703,9.105,2.607,14.066-0.085c22.129-12.015,44.434-23.702,66.662-35.536C417.355,357.496,427.867,351.82,440.44,345.074
			z M491.362,396.66c-0.431-0.625-0.845-1.356-1.381-1.982c-10.005-11.684-20.028-23.35-30.038-35.029
			c-2.498-2.916-5.219-2.471-8.256-0.854c-32.829,17.496-65.653,35-98.561,52.346c-4.689,2.473-4.574,4.459-0.999,7.934
			c11.03,10.727,21.896,21.625,32.675,32.604c3.182,3.242,6.104,4.182,10.315,1.781c30.858-17.594,61.806-35.032,92.687-52.589
			C489.354,399.989,491.64,399.391,491.362,396.66z M274.732,455.028c2.921,0.109,4.35-1.292,5.732-2.67
			c11.3-11.254,22.473-22.637,33.911-33.747c4.351-4.227,1.804-5.733-1.968-7.729c-32.389-17.133-64.762-34.297-97.043-51.629
			c-4.521-2.428-7.63-1.944-10.873,1.972c-8.74,10.556-17.437,21.172-26.684,31.274c-4.203,4.592-3.15,6.498,1.664,9.196
			c30.258,16.955,60.396,34.123,90.591,51.188C271.746,453.835,273.584,454.507,274.732,455.028z M384.271,235.221
			c-3.475-0.469-4.621,2.147-6.199,3.957c-8.822,10.114-17.384,20.464-26.444,30.358c-4.426,4.834-3.187,7.243,2.016,9.978
			c32.669,17.172,65.305,34.412,97.804,51.906c4.546,2.446,6.902,1.286,9.824-2.2c8.439-10.07,16.941-20.107,25.838-29.771
			c4.883-5.303,3.778-7.888-2.264-11.053c-31.949-16.735-63.727-33.802-95.571-50.74
			C387.553,236.739,385.764,235.945,384.271,235.221z M317.467,273.88c-0.402-0.628-0.895-1.637-1.603-2.462
			c-9.843-11.461-19.757-22.861-29.553-34.363c-2.459-2.887-4.857-1.884-7.442-0.507c-33.084,17.627-66.137,35.316-99.291,52.81
			c-4.988,2.631-4.893,5.14-1.529,8.973c9.223,10.517,18.357,21.114,27.383,31.8c2.273,2.691,4.229,3.908,7.783,2.01
			c33.562-17.925,67.197-35.711,100.789-53.579C315.678,277.671,317.59,276.751,317.467,273.88z"/>
	</g>
</g>
<g opacity="0.8">
	<path fill="#FBD20F" d="M515.851,212.465c-0.134-0.066-0.271-0.098-0.405-0.093c-3.154-0.603-6.545-1.556-8.699-4.085
		c-0.862-1.012-0.789-1.841-1.176-2.766c-1.088-2.611-0.871-6.013-0.912-8.781c-0.03-1.984-0.006-3.973,0.076-5.955
		c0.023-0.549-0.477-1.008-1.008-1.008c-10.957,0-21.915,0-32.873,0c-0.531,0-1.031,0.459-1.009,1.008
		c0.102,2.428,0.109,4.862,0.051,7.289c-0.04,1.766-0.127,3.543-0.377,5.291c-0.139,0.972-0.685,1.972-0.741,2.916
		c-0.078,1.362-1.882,3.105-3.322,3.974c-1.984,1.197-4.319,1.747-6.572,2.167c-0.662,0.123-1.018,1.063-1.01,1.639
		c0.03,2.151,3.48,1.938,4.92,1.938c2.443,0,4.888,0,7.331,0c4.933,0,9.869,0,14.805,0c5.851,0,11.702,0,17.554,0
		c3.231,0,6.464,0,9.696,0c1.202,0,3.056,0.116,3.991-0.831c0.629-0.638,0.665-1.496,0.207-2.19
		C516.303,212.75,516.133,212.561,515.851,212.465z"/>
	<path fill="#FBD20F" d="M563.854,75.707c-3.852,0-7.7,0-11.55,0h-5.841c-12.568,0-25.139,0-37.705,0c-15.275,0-30.552,0-45.826,0
		c-12.511,0-25.021,0-37.531,0c-4.668,0-9.333,0-13.998,0c-1.803,0-3.305,1.503-3.305,3.305c0,7.42,0,14.84,0,22.26
		c0,14.857,0,29.716,0,44.574c0,11.195,0,22.389,0,33.583c0,1,0,1.999,0,2.997c0,1.802,1.502,3.305,3.305,3.305
		c5.443,0,10.889,0,16.332,0c12.921,0,25.842,0,38.762,0c15.273,0,30.551,0,45.826,0c12.51,0,25.021,0,37.533,0
		c4.664,0,9.331,0,13.998,0c1.801,0,3.302-1.503,3.302-3.305c0-7.42,0-14.84,0-22.26c0-14.857,0-29.716,0-44.575
		c0-11.195,0-22.388,0-33.583c0-1,0-1.999,0-2.997C567.155,77.21,565.654,75.707,563.854,75.707z M486.74,179.562
		c-2.242,0-4.057-1.816-4.057-4.056c0-2.24,1.814-4.056,4.057-4.056c2.238,0,4.054,1.816,4.054,4.056
		C490.794,177.746,488.979,179.562,486.74,179.562z M557.033,164.881H419.195V87.504h119.527h5.84h12.471V164.881z"/>
</g>
<path opacity="0.8" fill-rule="evenodd" clip-rule="evenodd" fill="#2F56A7" d="M135.928,183.603c-15.432,0-34.779,0-50.211,0
	c-2.821,0-2.288,3.185-2.287,5.324c0.019,27.466,0.01,54.934,0.014,82.4c0,4.312,1.31,5.628,5.646,5.631
	c13.209,0.01,28.374,0.01,41.583,0c4.153-0.003,7.458-1.271,7.462-5.389c0.013-14.603,0.015-29.207,0.015-43.81l0.002-26.344
	c0-4.267-0.001-8.534,0-12.801C138.152,186.6,138.758,183.603,135.928,183.603z M105.665,186.905h10.251
	c0.445,0,0.805,0.361,0.805,0.806s-0.359,0.805-0.805,0.805h-10.251c-0.444,0-0.806-0.36-0.806-0.805
	S105.221,186.905,105.665,186.905z M111.033,273.108c-1.834,0.051-3.283-1.353-3.315-3.21c-0.033-2.005,1.183-3.264,3.163-3.276
	c1.844-0.012,3.326,1.438,3.309,3.235C114.173,271.562,112.717,273.064,111.033,273.108z M133.563,260.048
	c0.006,1.917-2.535,2.371-4.375,2.36c-13.018-0.075-23.692-0.039-36.712-0.041c-2.399,0-4.361-0.006-4.361-2.476
	c-0.002-11.044-0.002-22.089-0.002-33.133c0-11.105,0.045-22.211-0.044-33.316c-0.015-1.915,2.54-2.378,4.38-2.367
	c13.018,0.073,23.693,0.069,36.711,0.001c1.799-0.009,4.411,0.384,4.404,2.336c-0.01,2.667-0.007,5.334-0.013,8.001l-0.036,26.329
	C133.516,238.512,133.531,249.28,133.563,260.048z"/>
<path opacity="0.8" fill-rule="evenodd" clip-rule="evenodd" fill="#EE9521" d="M226.43,82.679
	c-17.956-0.025-35.914-0.008-53.874-0.008v0.042c-17.955,0-35.912-0.026-53.871,0.011c-9.734,0.019-14.709,4.905-14.73,14.667
	c-0.049,23.896-0.019,47.791,0.053,71.686c0.016,5.2-0.215,10.391,0.495,15.605c0.832,6.116,3.472,9.084,9.628,9.314
	c5.063,0.189,10.144,0.224,15.203,0.021c3.822-0.153,4.917,0.985,3.668,4.792c-1.988,6.045-3.645,12.204-5.286,18.357
	c-0.431,1.62-0.793,3.612,0.993,4.766c1.777,1.147,2.9-0.494,4.143-1.395c10.67-7.725,21.35-15.434,32.004-23.178
	c3.143-2.286,6.485-3.397,10.488-3.361c16.941,0.153,33.887,0.15,50.83-0.005c8.947-0.083,13.609-2.413,13.674-13.019
	c0.172-28.229,0.492-56.458,0.631-84.688C240.538,83.693,226.43,82.679,226.43,82.679z M228.194,169.396
	c0,7.32-5.65,13.257-12.617,13.257h-86.748c-6.967,0-12.617-5.937-12.617-13.257v-60.762c0-7.32,5.65-13.257,12.617-13.257h86.748
	c6.967,0,12.617,5.937,12.617,13.257V169.396z"/>
<g>
	<g>
		<g>
			<g>
				<g>
					<path fill="#BCBEC0" d="M311.676,174.641l2.344,2.672c0,0,1.641-1.45,3.35-2.809c0.858-0.673,1.723-1.335,2.379-1.809
						c0.646-0.453,1.076-0.755,1.076-0.755l-1.949-2.971c0,0-0.128,0.086-0.351,0.238c-0.208,0.147-0.503,0.357-0.858,0.609
						c-0.7,0.504-1.607,1.199-2.504,1.903C313.379,173.138,311.677,174.642,311.676,174.641z"/>
					<path fill="#BCBEC0" d="M302.14,184.208l2.673,2.341c0,0,0.359-0.414,0.896-1.035c0.562-0.601,1.31-1.401,2.058-2.201
						c0.736-0.812,1.538-1.561,2.116-2.145c0.583-0.578,0.973-0.964,0.973-0.964l-2.459-2.566c0,0-0.402,0.399-1.008,0.998
						c-0.599,0.604-1.428,1.381-2.19,2.221c-0.774,0.829-1.549,1.658-2.13,2.279C302.512,183.779,302.14,184.208,302.14,184.208z"/>
					<path fill="#BCBEC0" d="M293.949,194.959l2.969,1.953c0,0,0.297-0.46,0.74-1.149c0.478-0.667,1.113-1.558,1.75-2.447
						c0.629-0.896,1.281-1.775,1.806-2.408c0.511-0.643,0.851-1.072,0.851-1.072l-2.773-2.221c0,0-0.354,0.444-0.883,1.112
						c-0.543,0.656-1.219,1.568-1.873,2.498c-0.66,0.924-1.32,1.849-1.816,2.542C294.258,194.481,293.949,194.959,293.949,194.959z"
						/>
					<path fill="#BCBEC0" d="M287.355,206.79l3.231,1.479c0,0,0.964-1.958,1.927-3.917c0.49-0.975,1.067-1.906,1.461-2.624
						c0.404-0.712,0.674-1.187,0.674-1.187l-3.06-1.807c0,0-0.28,0.495-0.702,1.236c-0.411,0.748-1.009,1.717-1.521,2.733
						C288.361,204.747,287.355,206.79,287.355,206.79z"/>
					<path fill="#BCBEC0" d="M282.781,219.56l3.433,0.921c0.001,0,0.495-2.124,1.25-4.173c0.347-1.034,0.693-2.067,0.954-2.842
						c0.311-0.756,0.518-1.261,0.518-1.261l-3.305-1.304c0,0-0.217,0.527-0.541,1.318c-0.272,0.811-0.637,1.892-1,2.972
						C283.303,217.336,282.782,219.561,282.781,219.56z"/>
					<path fill="#BCBEC0" d="M280.428,232.931l3.539,0.311c0,0,0.052-0.542,0.129-1.355c0.039-0.407,0.084-0.881,0.132-1.389
						c0.024-0.254,0.049-0.517,0.074-0.784c0.047-0.264,0.095-0.532,0.142-0.8c0.379-2.145,0.756-4.29,0.756-4.29l-3.479-0.724
						c0,0-0.396,2.248-0.793,4.496c-0.049,0.281-0.099,0.562-0.146,0.838c-0.027,0.28-0.055,0.555-0.08,0.821
						c-0.051,0.533-0.098,1.03-0.139,1.456C280.481,232.362,280.428,232.931,280.428,232.931z"/>
					<path fill="#BCBEC0" d="M280.408,246.493l3.542-0.292c0,0-0.149-2.175-0.298-4.351c0.029-2.179,0.058-4.357,0.058-4.357
						l-3.552-0.109c0,0-0.029,2.281-0.059,4.562C280.254,244.22,280.408,246.493,280.408,246.493z"/>
				</g>
			</g>
			<g>
				<g>
					<path fill="#BCBEC0" d="M282.602,259.857l3.454-0.834c0,0-0.128-0.532-0.318-1.329c-0.173-0.801-0.489-1.854-0.659-2.932
						c-0.332-2.158-0.665-4.316-0.665-4.316l-3.521,0.479c0,0,0.348,2.25,0.695,4.501c0.179,1.124,0.505,2.216,0.684,3.05
						C282.469,259.305,282.602,259.857,282.602,259.857z"/>
					<path fill="#BCBEC0" d="M286.658,272.74l3.312-1.288c0,0-0.209-0.507-0.523-1.268c-0.334-0.754-0.615-1.815-0.972-2.851
						c-0.679-2.083-1.357-4.166-1.357-4.166l-3.411,0.995C283.707,264.163,286.467,272.816,286.658,272.74z"/>
					<path fill="#BCBEC0" d="M292.268,284.99l3.147-1.651c0.001,0-3.981-7.843-3.806-7.919l-3.259,1.417
						C288.176,276.922,292.269,284.99,292.268,284.99z"/>
					<path fill="#BCBEC0" d="M299.074,296.581l2.98-1.937c0,0-0.311-0.456-0.777-1.139c-0.449-0.693-0.987-1.654-1.554-2.598
						c-1.12-1.896-2.239-3.791-2.239-3.791l-3.092,1.752c0,0,1.147,1.943,2.295,3.886c0.581,0.967,1.135,1.953,1.594,2.662
						C298.758,296.115,299.074,296.581,299.074,296.581z"/>
					<path fill="#BCBEC0" d="M306.86,307.503l2.822-2.16c0,0-1.352-1.747-2.702-3.494c-1.248-1.819-2.495-3.638-2.495-3.638
						l-2.927,2.015c0,0,1.274,1.858,2.549,3.716C305.484,305.722,306.86,307.503,306.86,307.503z"/>
					<path fill="#BCBEC0" d="M315.356,317.856l2.677-2.337c0,0-1.447-1.671-2.895-3.343c-0.713-0.845-1.474-1.652-1.967-2.318
						c-0.506-0.655-0.844-1.092-0.844-1.092l-2.771,2.224c0,0,0.344,0.445,0.859,1.112c0.504,0.679,1.273,1.498,1.998,2.357
						C313.886,316.157,315.356,317.856,315.356,317.856z"/>
					<path fill="#BCBEC0" d="M324.434,327.675l2.545-2.479c0,0-1.533-1.597-3.066-3.194c-0.767-0.798-1.533-1.597-2.107-2.195
						c-0.585-0.59-0.938-1.016-0.938-1.016l-2.63,2.39c0,0,0.359,0.432,0.951,1.031c0.582,0.607,1.359,1.417,2.137,2.226
						C322.879,326.056,324.434,327.675,324.434,327.675z"/>
				</g>
			</g>
		</g>
	</g>
</g>
<g>
	<g>
		<g>
			<g>
				<g>
					<path fill="#BCBEC0" d="M387.174,342.874l-0.918-3.434c0,0-2.429,0.636-4.857,1.271c-1.217,0.304-2.432,0.606-3.344,0.834
						c-0.907,0.216-1.512,0.36-1.512,0.36l0.793,3.464c0,0,0.623-0.148,1.556-0.37c0.923-0.23,2.153-0.537,3.384-0.844
						C384.725,343.515,387.174,342.874,387.174,342.874z"/>
					<path fill="#BCBEC0" d="M401.672,338.766l-1.015-3.405c0,0-2.411,0.708-4.823,1.417c-2.418,0.684-4.836,1.368-4.836,1.368
						l0.953,3.424c0,0,2.434-0.689,4.867-1.378C399.246,339.479,401.672,338.766,401.672,338.766z"/>
					<path fill="#BCBEC0" d="M416.052,334.284l-1.101-3.379c0,0-2.394,0.768-4.787,1.535c-2.4,0.747-4.8,1.495-4.8,1.495
						l1.044,3.396c0,0,2.414-0.752,4.828-1.504C413.645,335.057,416.052,334.284,416.052,334.284z"/>
					<path fill="#BCBEC0" d="M430.314,329.438l-1.185-3.351c0,0-2.372,0.828-4.745,1.656c-2.38,0.808-4.76,1.616-4.76,1.616
						l1.129,3.37c0,0,2.393-0.813,4.787-1.626C427.928,330.271,430.314,329.438,430.314,329.438z"/>
					<path fill="#BCBEC0" d="M444.453,324.235l-1.272-3.318c0,0-2.351,0.888-4.702,1.776c-2.359,0.868-4.718,1.736-4.718,1.736
						l1.214,3.34c0,0,2.373-0.873,4.746-1.746C442.086,325.129,444.453,324.235,444.453,324.235z"/>
					<path fill="#BCBEC0" d="M458.446,318.643l-1.363-3.282c0,0-2.325,0.954-4.649,1.908c-2.333,0.932-4.666,1.864-4.666,1.864
						l1.301,3.307c0,0,2.35-0.938,4.697-1.876C456.106,319.603,458.446,318.643,458.446,318.643z"/>
					<path fill="#BCBEC0" d="M472.273,312.654l-1.462-3.239c0,0-0.571,0.26-1.429,0.65c-0.861,0.379-2.012,0.886-3.16,1.392
						c-2.293,1.023-4.609,1.996-4.609,1.996l1.395,3.268c0,0,2.332-0.979,4.643-2.01c1.158-0.51,2.316-1.019,3.184-1.401
						C471.698,312.916,472.273,312.654,472.273,312.654z"/>
				</g>
			</g>
			<g>
				<g>
					<path fill="#BCBEC0" d="M485.915,306.224l-1.569-3.188c0,0-2.258,1.098-4.516,2.196c-2.272,1.07-4.545,2.14-4.545,2.14
						l1.496,3.223c0,0,2.291-1.078,4.58-2.157C483.639,307.331,485.915,306.224,485.915,306.224z"/>
					<path fill="#BCBEC0" d="M499.324,299.312l-1.689-3.126c0,0-0.551,0.299-1.378,0.748c-0.833,0.438-1.944,1.021-3.056,1.604
						c-2.215,1.181-4.463,2.299-4.463,2.299l1.607,3.169c0,0,2.268-1.127,4.503-2.319c1.122-0.589,2.243-1.178,3.083-1.619
						C498.768,299.614,499.324,299.312,499.324,299.312z"/>
					<path fill="#BCBEC0" d="M512.449,291.862l-1.82-3.052c0,0-2.148,1.293-4.324,2.542c-2.181,1.239-4.361,2.479-4.361,2.479
						l1.729,3.104c0,0,2.204-1.252,4.407-2.504C510.277,293.169,512.449,291.862,512.449,291.862z"/>
					<path fill="#BCBEC0" d="M525.238,283.819l-1.97-2.958c0,0-0.515,0.356-1.308,0.862c-0.788,0.51-1.84,1.191-2.892,1.872
						c-1.047,0.688-2.109,1.353-2.911,1.842c-0.8,0.495-1.333,0.824-1.333,0.824l1.868,3.023c0,0,0.539-0.333,1.348-0.833
						c0.811-0.496,1.886-1.167,2.945-1.864c1.064-0.689,2.129-1.378,2.928-1.895C524.716,284.18,525.238,283.819,525.238,283.819z"
						/>
					<path fill="#BCBEC0" d="M537.578,275.082l-2.137-2.839c0,0-0.5,0.375-1.252,0.938c-0.748,0.567-1.75,1.316-2.777,2.033
						c-1.02,0.726-2.039,1.453-2.804,1.998c-0.761,0.55-1.282,0.897-1.282,0.897l2.021,2.922c0,0,0.527-0.352,1.3-0.909
						c0.775-0.553,1.81-1.289,2.843-2.026c1.041-0.727,2.059-1.487,2.818-2.062C537.07,275.462,537.578,275.082,537.578,275.082z"/>
					<path fill="#BCBEC0" d="M549.377,265.592l-2.326-2.687c0,0-0.469,0.413-1.19,1.011c-0.719,0.602-1.677,1.404-2.636,2.207
						c-0.947,0.814-1.939,1.578-2.674,2.162c-0.734,0.582-1.225,0.97-1.225,0.97l2.196,2.793c0,0,0.498-0.394,1.245-0.985
						c0.746-0.594,1.752-1.369,2.718-2.197c0.975-0.816,1.949-1.633,2.681-2.245C548.9,266.013,549.377,265.592,549.377,265.592z"/>
					<path fill="#BCBEC0" d="M560.422,255.208l-2.54-2.486c0,0-0.438,0.444-1.095,1.109c-0.656,0.667-1.526,1.561-2.444,2.407
						c-0.906,0.858-1.812,1.717-2.492,2.36c-0.673,0.65-1.146,1.059-1.146,1.059l2.394,2.627c0,0,0.481-0.416,1.168-1.079
						c0.693-0.657,1.618-1.532,2.543-2.407c0.936-0.863,1.824-1.776,2.494-2.457C559.975,255.661,560.422,255.208,560.422,255.208z"
						/>
				</g>
			</g>
			<g>
				<g>
					<path fill="#BCBEC0" d="M570.521,243.855l-2.774-2.221c0.001,0-0.374,0.497-0.967,1.218c-0.605,0.711-1.412,1.66-2.219,2.609
						c-0.798,0.957-1.617,1.894-2.263,2.572c-0.632,0.688-1.054,1.147-1.054,1.147l2.614,2.407c0,0,0.431-0.47,1.078-1.174
						c0.659-0.693,1.499-1.654,2.317-2.634c0.826-0.972,1.653-1.945,2.273-2.674C570.135,244.365,570.521,243.855,570.521,243.855z"
						/>
					<path fill="#BCBEC0" d="M579.343,231.444l-3.02-1.874c0,0-1.351,2.084-2.702,4.168c-1.446,2.022-2.893,4.045-2.893,4.045
						l2.854,2.118c0,0,1.488-2.081,2.976-4.161C577.95,233.592,579.343,231.444,579.343,231.444z"/>
					<path fill="#BCBEC0" d="M586.453,217.94l-3.256-1.426c0,0-0.253,0.565-0.633,1.413c-0.376,0.849-0.873,1.983-1.465,3.075
						c-0.567,1.102-1.135,2.204-1.561,3.031c-0.204,0.417-0.405,0.75-0.541,0.984c-0.137,0.234-0.215,0.369-0.215,0.369l3.1,1.738
						c0,0,0.08-0.139,0.221-0.381c0.142-0.243,0.348-0.585,0.561-1.017c0.44-0.855,1.027-1.996,1.615-3.136
						c0.609-1.128,1.127-2.304,1.518-3.185C586.19,218.525,586.453,217.94,586.453,217.94z"/>
					<path fill="#BCBEC0" d="M591.457,203.489l-3.442-0.884c0,0-0.15,0.599-0.376,1.498c-0.203,0.905-0.633,2.068-0.988,3.252
						c-0.69,2.376-1.624,4.67-1.624,4.67l3.323,1.257c0,0,0.968-2.381,1.688-4.853c0.371-1.23,0.813-2.44,1.027-3.382
						C591.3,204.113,591.457,203.489,591.457,203.489z"/>
					<path fill="#BCBEC0" d="M594.006,188.394l-3.543-0.284c0,0-0.007,0.62-0.138,1.538c-0.111,0.92-0.26,2.146-0.408,3.373
						c-0.114,1.232-0.383,2.44-0.544,3.353c-0.17,0.911-0.282,1.519-0.282,1.519l3.485,0.69c0,0,0.118-0.632,0.295-1.582
						c0.168-0.95,0.445-2.208,0.566-3.492c0.154-1.277,0.309-2.555,0.424-3.513C593.996,189.039,594.006,188.394,594.006,188.394z"
						/>
					<path fill="#BCBEC0" d="M593.914,173.087l-3.539,0.313c0,0,0.044,0.617,0.11,1.542c0.05,0.925,0.194,2.157,0.206,3.393
						c0.021,2.472,0.041,4.943,0.041,4.943l3.553,0.083c0,0-0.021-2.572-0.041-5.145c-0.014-1.286-0.162-2.565-0.215-3.528
						C593.961,173.729,593.914,173.087,593.914,173.087z"/>
					<path fill="#BCBEC0" d="M591.389,158.024l-3.451,0.846c0,0,0.154,0.601,0.387,1.501c0.182,0.911,0.423,2.126,0.665,3.341
						c0.229,1.217,0.521,2.424,0.612,3.349c0.125,0.92,0.208,1.533,0.208,1.533l3.519-0.497c0,0-0.086-0.636-0.217-1.59
						c-0.096-0.96-0.396-2.21-0.633-3.47c-0.252-1.258-0.503-2.517-0.691-3.46C591.549,158.645,591.389,158.024,591.389,158.024z"/>
				</g>
			</g>
		</g>
	</g>
</g>
<g>
	<g>
		<g>
			<g>
				<g>
					<path fill="#BCBEC0" d="M300.221,350.38l0.293,3.541c0,0,2.559-0.207,5.115-0.479c1.28-0.152,2.561-0.305,3.52-0.419
						c0.975-0.137,1.623-0.228,1.623-0.228l-0.558-3.51c0,0-0.612,0.086-1.53,0.214c-0.936,0.111-2.186,0.26-3.435,0.409
						C302.74,350.175,300.221,350.379,300.221,350.38z"/>
					<path fill="#BCBEC0" d="M285.17,351.165l0.088,3.553c0,0,0.641-0.015,1.602-0.035c0.961-0.037,2.242-0.086,3.523-0.136
						c2.562-0.103,5.121-0.263,5.121-0.263l-0.219-3.547c0,0-2.525,0.157-5.055,0.259c-1.266,0.049-2.529,0.098-3.479,0.134
						C285.803,351.151,285.17,351.165,285.17,351.165z"/>
					<path fill="#BCBEC0" d="M270.088,351.16l-0.093,3.553c0,0,2.562,0.042,5.124,0.084c2.562,0.001,5.125,0.002,5.125,0.002
						l-0.027-3.554c0,0-2.532-0.001-5.064-0.002C272.62,351.202,270.088,351.16,270.088,351.16z"/>
					<path fill="#BCBEC0" d="M255.021,350.378l-0.269,3.544c0,0,2.553,0.219,5.112,0.344c1.278,0.073,2.557,0.146,3.516,0.201
						c0.96,0.039,1.6,0.065,1.6,0.065l0.15-3.551c0,0-0.633-0.025-1.581-0.064c-0.948-0.054-2.212-0.127-3.476-0.199
						C257.544,350.596,255.021,350.378,255.021,350.378z"/>
					<path fill="#BCBEC0" d="M240.014,348.86l-0.445,3.526c0,0,0.635,0.081,1.588,0.203c0.953,0.13,2.225,0.281,3.501,0.402
						c2.549,0.262,5.098,0.524,5.098,0.524l0.325-3.539c0,0-2.519-0.259-5.038-0.519c-1.261-0.119-2.519-0.27-3.459-0.397
						C240.641,348.941,240.014,348.86,240.014,348.86z"/>
					<path fill="#BCBEC0" d="M225.102,346.588l-0.626,3.498c0,0,0.631,0.115,1.576,0.287c0.944,0.183,2.208,0.394,3.476,0.578
						c2.533,0.39,5.065,0.78,5.065,0.78l0.504-3.519c0,0-2.503-0.385-5.005-0.771c-1.253-0.182-2.502-0.391-3.434-0.571
						C225.725,346.701,225.102,346.588,225.102,346.588z"/>
					<path fill="#BCBEC0" d="M210.338,343.545l-0.812,3.459c0,0,0.623,0.151,1.557,0.378c0.935,0.229,2.193,0.473,3.445,0.744
						c2.508,0.529,5.016,1.06,5.016,1.06l0.686-3.487c0,0-2.477-0.523-4.953-1.047c-1.236-0.268-2.479-0.508-3.4-0.733
						C210.952,343.693,210.338,343.545,210.338,343.545z"/>
				</g>
			</g>
			<g>
				<g>
					<path fill="#BCBEC0" d="M195.754,339.716l-1.004,3.409c0,0,2.472,0.686,4.942,1.371c1.235,0.342,2.472,0.683,3.399,0.938
						c0.933,0.231,1.555,0.386,1.555,0.386l0.875-3.445c0,0-0.615-0.151-1.536-0.38c-0.915-0.252-2.134-0.59-3.354-0.927
						C198.193,340.393,195.754,339.716,195.754,339.716z"/>
					<path fill="#BCBEC0" d="M181.438,335.014l-1.201,3.345c0,0,2.421,0.848,4.842,1.696c1.205,0.441,2.434,0.811,3.352,1.098
						c0.918,0.286,1.529,0.478,1.529,0.478l1.068-3.39c0,0-0.604-0.188-1.51-0.471c-0.905-0.283-2.117-0.646-3.305-1.082
						C183.825,335.851,181.438,335.014,181.438,335.014z"/>
					<path fill="#BCBEC0" d="M167.429,329.484l-1.404,3.265c0,0,0.589,0.256,1.47,0.641c0.881,0.391,2.057,0.901,3.258,1.353
						c2.39,0.936,4.779,1.871,4.779,1.871l1.268-3.319c0,0-2.355-0.923-4.711-1.845c-1.185-0.444-2.344-0.948-3.211-1.333
						C168.008,329.737,167.429,329.484,167.429,329.484z"/>
					<path fill="#BCBEC0" d="M153.772,323.135l-1.608,3.169c0,0,2.31,1.117,4.619,2.234c1.155,0.559,2.311,1.117,3.176,1.536
						c0.432,0.214,0.795,0.383,1.055,0.49c0.258,0.112,0.404,0.176,0.404,0.176l1.471-3.234c0,0-0.145-0.063-0.398-0.174
						c-0.256-0.105-0.613-0.272-1.038-0.482c-0.854-0.413-1.991-0.963-3.129-1.514C156.048,324.235,153.772,323.135,153.772,323.135
						z"/>
					<path fill="#BCBEC0" d="M140.604,315.841l-1.814,3.056c0,0,2.209,1.307,4.419,2.614c2.261,1.215,4.522,2.43,4.522,2.43
						l1.677-3.133c0,0-2.228-1.196-4.454-2.392C142.777,317.128,140.604,315.841,140.604,315.841z"/>
					<path fill="#BCBEC0" d="M127.902,307.762l-2.017,2.927c0,0,0.518,0.379,1.33,0.896c0.806,0.526,1.881,1.229,2.956,1.93
						c2.149,1.404,4.299,2.807,4.299,2.807l1.881-3.015c0,0-2.115-1.382-4.23-2.763c-1.059-0.691-2.117-1.382-2.91-1.9
						C128.411,308.136,127.902,307.762,127.902,307.762z"/>
					<path fill="#BCBEC0" d="M115.842,298.766l-2.212,2.781c0,0,2.011,1.596,4.022,3.192c2.078,1.507,4.156,3.014,4.156,3.014
						l2.081-2.88c0,0-2.045-1.483-4.091-2.965C117.82,300.336,115.842,298.766,115.842,298.766z"/>
				</g>
			</g>
		</g>
	</g>
</g>
<g>
	<g>
		<g>
			<g>
				<g>
					<path fill="#BCBEC0" d="M356.49,358.648l-3.446,0.866c0,0,0.607,2.482,1.214,4.965c0.288,1.243,0.575,2.486,0.791,3.419
						c0.203,0.927,0.338,1.544,0.338,1.544l3.479-0.729c0,0-0.139-0.637-0.349-1.592c-0.218-0.944-0.509-2.203-0.8-3.462
						C357.104,361.154,356.49,358.648,356.49,358.648z"/>
					<path fill="#BCBEC0" d="M352.501,343.824l-3.417,0.977c0,0,0.691,2.464,1.383,4.927c0.665,2.47,1.33,4.94,1.33,4.94
						l3.437-0.905c0,0-0.67-2.488-1.34-4.977C353.197,346.305,352.501,343.824,352.501,343.824z"/>
					<path fill="#BCBEC0" d="M348.055,329.134l-3.385,1.082c0,0,0.766,2.441,1.531,4.882c0.742,2.449,1.482,4.897,1.482,4.897
						l3.407-1.012c0,0-0.747-2.466-1.493-4.933C348.826,331.593,348.055,329.134,348.055,329.134z"/>
					<path fill="#BCBEC0" d="M343.146,314.586l-3.348,1.19c0,0,0.845,2.414,1.689,4.827c0.815,2.424,1.631,4.848,1.631,4.848
						l3.373-1.117c0,0-0.821-2.442-1.643-4.885C343.998,317.019,343.146,314.586,343.146,314.586z"/>
					<path fill="#BCBEC0" d="M337.751,300.208l-3.304,1.309c0,0,0.928,2.382,1.855,4.765c0.896,2.395,1.793,4.79,1.793,4.79
						l3.334-1.228c0,0-0.904-2.415-1.808-4.829C338.687,302.61,337.751,300.208,337.751,300.208z"/>
					<path fill="#BCBEC0" d="M331.807,286.035l-3.248,1.442c0,0,0.257,0.584,0.643,1.461c0.389,0.875,0.9,2.046,1.396,3.224
						c0.987,2.357,1.976,4.713,1.976,4.713l3.287-1.351c0,0-0.998-2.379-1.994-4.758c-0.501-1.189-1.018-2.371-1.41-3.256
						C332.066,286.625,331.807,286.035,331.807,286.035z"/>
					<path fill="#BCBEC0" d="M325.236,272.132l-3.174,1.597c0,0,0.287,0.569,0.719,1.423c0.419,0.86,0.979,2.007,1.537,3.155
						c1.09,2.308,2.182,4.616,2.182,4.616l3.226-1.491c0,0-1.103-2.334-2.206-4.668c-0.565-1.16-1.131-2.321-1.555-3.191
						C325.527,272.708,325.236,272.132,325.236,272.132z"/>
				</g>
			</g>
			<g>
				<g>
					<path fill="#BCBEC0" d="M317.938,258.57l-3.077,1.778c0,0,0.315,0.554,0.787,1.385c0.47,0.833,1.111,1.934,1.714,3.058
						c1.235,2.231,2.415,4.493,2.415,4.493l3.146-1.653c-0.001,0-1.195-2.291-2.447-4.554c-0.61-1.14-1.263-2.257-1.738-3.102
						C318.258,259.133,317.938,258.57,317.938,258.57z"/>
					<path fill="#BCBEC0" d="M309.752,245.5l-2.939,1.998c0,0,1.439,2.097,2.806,4.246c0.701,1.062,1.358,2.153,1.864,2.963
						c0.502,0.812,0.838,1.353,0.838,1.353l3.036-1.846c0,0-0.341-0.55-0.852-1.376c-0.515-0.824-1.182-1.933-1.896-3.014
						C311.219,247.638,309.752,245.5,309.752,245.5z"/>
					<path fill="#BCBEC0" d="M300.502,233.115l-2.738,2.264c0,0,0.419,0.475,1.004,1.227c0.59,0.747,1.378,1.741,2.166,2.736
						c0.762,1.015,1.525,2.03,2.098,2.792c0.559,0.772,0.931,1.287,0.931,1.287l2.882-2.079c0,0-0.381-0.526-0.95-1.314
						c-0.585-0.778-1.365-1.816-2.146-2.854c-0.807-1.019-1.612-2.038-2.217-2.801C300.933,233.603,300.502,233.114,300.502,233.115
						z"/>
					<path fill="#BCBEC0" d="M289.929,221.763l-2.435,2.589c0,0,1.83,1.741,3.592,3.554c0.867,0.921,1.758,1.819,2.388,2.53
						c0.632,0.708,1.054,1.18,1.054,1.18l2.653-2.365c0,0-0.434-0.485-1.085-1.213c-0.646-0.731-1.564-1.658-2.457-2.606
						C291.821,223.562,289.93,221.763,289.929,221.763z"/>
					<path fill="#BCBEC0" d="M277.75,212.038l-1.962,2.963c0,0,0.132,0.084,0.364,0.231c0.225,0.158,0.545,0.384,0.93,0.656
						c0.761,0.558,1.821,1.232,2.801,2.025c2.016,1.506,3.924,3.156,3.924,3.155l2.302-2.708c-0.001,0-1.979-1.711-4.082-3.282
						c-1.02-0.823-2.129-1.533-2.923-2.113c-0.402-0.284-0.738-0.52-0.973-0.685C277.889,212.126,277.75,212.038,277.75,212.038z"/>
					<path fill="#BCBEC0" d="M263.817,204.86l-1.249,3.327c0,0,0.146,0.054,0.402,0.147c0.254,0.102,0.629,0.209,1.055,0.406
						c0.855,0.379,2.012,0.853,3.145,1.378c1.115,0.565,2.241,1.108,3.069,1.549c0.816,0.464,1.36,0.774,1.36,0.774l1.756-3.09
						c0,0-0.572-0.325-1.432-0.812c-0.872-0.464-2.061-1.039-3.236-1.633c-1.197-0.556-2.42-1.059-3.326-1.458
						c-0.449-0.208-0.849-0.324-1.117-0.431C263.973,204.917,263.817,204.86,263.817,204.86z"/>
					<path fill="#BCBEC0" d="M248.49,201.327l-0.32,3.539c0,0,0.619,0.061,1.547,0.152c0.931,0.068,2.149,0.333,3.379,0.516
						c1.229,0.193,2.428,0.539,3.341,0.729c0.456,0.102,0.833,0.191,1.093,0.278c0.261,0.078,0.41,0.123,0.41,0.123l0.961-3.421
						c0,0-0.158-0.047-0.437-0.13c-0.274-0.091-0.678-0.188-1.163-0.297c-0.972-0.205-2.249-0.568-3.559-0.776
						c-1.311-0.198-2.609-0.475-3.603-0.55C249.15,201.393,248.49,201.327,248.49,201.327z"/>
				</g>
			</g>
		</g>
	</g>
</g>
<circle fill-rule="evenodd" clip-rule="evenodd" fill="#BCBEC0" cx="322.238" cy="168.932" r="7.324"/>
<circle fill-rule="evenodd" clip-rule="evenodd" fill="#BCBEC0" cx="241.982" cy="202.891" r="7.324"/>
<circle fill-rule="evenodd" clip-rule="evenodd" fill="#BCBEC0" cx="110.798" cy="297.092" r="7.324"/>
<circle fill-rule="evenodd" clip-rule="evenodd" fill="#BCBEC0" cx="587.486" cy="157.695" r="7.324"/>
</svg>
