<?xml version="1.0" encoding="utf-8"?>
<!-- Generator: Adobe Illustrator 16.0.4, SVG Export Plug-In . SVG Version: 6.00 Build 0)  -->
<!DOCTYPE svg PUBLIC "-//W3C//DTD SVG 1.1//EN" "http://www.w3.org/Graphics/SVG/1.1/DTD/svg11.dtd">
<svg version="1.1" id="Layer_1" xmlns="http://www.w3.org/2000/svg" xmlns:xlink="http://www.w3.org/1999/xlink" x="0px" y="0px"
	 width="621px" height="635.697px" viewBox="0 0 621 635.697" enable-background="new 0 0 621 635.697" xml:space="preserve">
<path fill="#BCBEC0" d="M589.031,145.855h-557.1c-4.612,0-8.365,3.632-8.365,8.097v23.309c0,4.465,3.753,8.098,8.365,8.098h557.1
	c4.612,0,8.364-3.633,8.364-8.098v-23.309C597.396,149.488,593.644,145.855,589.031,145.855z"/>
<path fill="#E6E7E8" d="M597.434,455.744c0-0.299-0.018-0.592-0.049-0.883V170.496H23.566v285.249v24.623v8.156h1.48
	c3.85,0.053,3.85,0.053,6.561,0.053h557.787c2.711,0,6.582,0.389,8.039-1.713l-0.049-1.762v-3.854
	c0.031-0.289,0.049-0.584,0.049-0.881V455.744z"/>
<circle fill="#F16060" cx="40.869" cy="158.271" r="3.514"/>
<circle fill="#FCBD52" cx="52.462" cy="158.271" r="3.513"/>
<circle fill="#46B75B" cx="63.879" cy="158.271" r="3.513"/>
<path opacity="0.5" fill="#7E4D8C" d="M480.992,270h-351c-6.627,0-12,7.32-12,16.349V388.65c0,9.029,5.373,16.35,12,16.35h351
	c6.627,0,12-7.32,12-16.35V286.349C492.992,277.32,487.619,270,480.992,270z M483.992,378.386c0,7.107-5.115,12.87-11.424,12.87
	H138.416c-6.309,0-11.424-5.763-11.424-12.87v-80.529c0-7.108,5.115-12.87,11.424-12.87h334.152c6.309,0,11.424,5.762,11.424,12.87
	V378.386z"/>
<path fill="#BCBEC0" d="M144.992,306.916c49.995,0,99.99,0,149.984,0c8.672,0,17.344,0,26.016,0c3.225,0,3.225-5,0-5
	c-49.995,0-99.99,0-149.984,0c-8.672,0-17.344,0-26.016,0C141.768,301.916,141.768,306.916,144.992,306.916L144.992,306.916z"/>
<path fill="#BCBEC0" d="M144.992,330.033c45.813-0.085,91.627-0.17,137.44-0.255c36.853-0.068,73.706-0.137,110.56-0.205
	c3.225-0.006,3.225-5.006,0-5c-45.813,0.085-91.627,0.17-137.44,0.255c-36.853,0.068-73.706,0.137-110.56,0.205
	C141.768,325.039,141.768,330.039,144.992,330.033L144.992,330.033z"/>
<path fill="#BCBEC0" d="M144.992,352.92c45.813-0.085,91.627-0.17,137.44-0.255c36.853-0.068,73.706-0.137,110.56-0.205
	c3.225-0.006,3.225-5.006,0-5c-45.813,0.085-91.627,0.17-137.44,0.255c-36.853,0.068-73.706,0.137-110.56,0.205
	C141.768,347.926,141.768,352.926,144.992,352.92L144.992,352.92z"/>
<path fill="#BCBEC0" d="M144.992,375.807c45.813-0.085,91.627-0.17,137.44-0.255c36.853-0.068,73.706-0.137,110.56-0.205
	c3.225-0.006,3.225-5.006,0-5c-45.813,0.085-91.627,0.17-137.44,0.255c-36.853,0.068-73.706,0.137-110.56,0.205
	C141.768,370.812,141.768,375.812,144.992,375.807L144.992,375.807z"/>
<g id="_x37_9oE91_1_" opacity="0.8">
	<g>
		<path fill-rule="evenodd" clip-rule="evenodd" fill="#2F56A7" d="M134.176,254.542c1.314,0.579,1.684,1.542,1.541,2.722
			c-0.145,1.191-0.909,1.888-2.01,2.248c-0.433,0.142-0.885,0.207-1.342,0.208c-1.172,0.002-2.343,0.01-3.515,0
			c-1.22-0.01-1.726-0.462-1.808-1.685c-0.105-1.571-0.049-3.146-0.028-4.719c0.008-0.592-0.046-1.186,0.042-1.779
			c0.119-0.798,0.498-1.262,1.306-1.333c1.603-0.141,3.218-0.185,4.812,0.062c1.54,0.237,2.25,1.177,2.139,2.66
			C135.26,253.629,134.988,254.21,134.176,254.542z M131.147,257.478c0.243-0.011,0.49,0.001,0.729-0.037
			c0.434-0.069,0.752-0.276,0.768-0.772c0.014-0.479-0.242-0.74-0.685-0.851c-0.516-0.128-1.04-0.065-1.56-0.065
			c-0.18,0-0.278,0.106-0.324,0.283C129.801,257.084,130.086,257.469,131.147,257.478z M131,253.995c0-0.002,0-0.005,0-0.007
			c0.192,0,0.386,0.015,0.576-0.003c0.55-0.053,0.846-0.458,0.732-0.987c-0.06-0.279-0.215-0.504-0.494-0.557
			c-0.532-0.1-1.115-0.204-1.592,0.038c-0.345,0.175-0.117,0.676-0.152,1.031c-0.036,0.364,0.164,0.505,0.51,0.487
			C130.72,253.989,130.859,253.995,131,253.995z"/>
		<path fill-rule="evenodd" clip-rule="evenodd" fill="#2F56A7" d="M186.117,253.69c0-0.683-0.006-1.366,0.002-2.049
			c0.005-0.328-0.092-0.538-0.46-0.562c-0.462-0.029-0.618-0.303-0.598-0.748c0.021-0.44,0.28-0.576,0.653-0.58
			c0.806-0.01,1.611-0.012,2.416-0.004c0.299,0.003,0.567,0.093,0.615,0.445c0.045,0.339,0.058,0.698-0.334,0.848
			c-0.346,0.131-0.342,0.39-0.35,0.678c-0.037,1.381,0.065,2.765-0.093,4.145c-0.239,2.08-1.354,3.156-3.438,3.354
			c-0.795,0.075-1.569,0.032-2.346-0.123c-1.434-0.285-2.254-1.181-2.586-2.572c-0.193-0.807-0.211-1.628-0.205-2.452
			c0.005-0.806-0.006-1.611-0.006-2.417c0-0.256-0.018-0.477-0.313-0.592c-0.409-0.16-0.431-0.52-0.367-0.883
			c0.071-0.415,0.4-0.43,0.728-0.43c0.753-0.001,1.506-0.01,2.258-0.002c0.386,0.004,0.681,0.123,0.698,0.596
			c0.017,0.446-0.151,0.707-0.61,0.743c-0.262,0.02-0.438,0.127-0.434,0.416c0.024,1.574-0.139,3.153,0.086,4.72
			c0.14,0.983,0.485,1.288,1.465,1.424c0.538,0.075,1.086,0.072,1.625,0.004c1.062-0.132,1.515-0.637,1.578-1.806
			c0.039-0.716,0.008-1.435,0.008-2.153C186.111,253.69,186.114,253.69,186.117,253.69z"/>
		<path fill-rule="evenodd" clip-rule="evenodd" fill="#2F56A7" d="M157.556,250.133c1.419,0,2.837-0.006,4.255,0.003
			c0.697,0.004,0.787,0.079,0.857,0.765c0.052,0.486,0.055,0.978,0.07,1.467c0.015,0.461-0.279,0.599-0.675,0.622
			s-0.798,0.06-0.887-0.483c-0.021-0.121-0.059-0.24-0.065-0.361c-0.022-0.426-0.223-0.637-0.666-0.62
			c-0.367,0.014-0.736,0.007-1.103-0.018c-0.464-0.032-0.61,0.181-0.608,0.624c0.01,1.891,0.002,3.782-0.01,5.673
			c-0.004,0.364,0.086,0.596,0.494,0.657c0.395,0.059,0.473,0.374,0.443,0.717c-0.031,0.354-0.237,0.538-0.59,0.539
			c-1.016,0.003-2.031,0.003-3.047-0.002c-0.348-0.002-0.561-0.169-0.583-0.536c-0.021-0.368,0.056-0.687,0.484-0.737
			c0.366-0.044,0.452-0.248,0.451-0.574c-0.007-1.943-0.007-3.887,0.001-5.831c0.001-0.378-0.15-0.556-0.53-0.536
			c-0.157,0.008-0.315,0.003-0.473,0.006c-1.111,0.019-1.118,0.017-1.474,1.091c-0.174,0.522-0.59,0.405-0.961,0.386
			c-0.361-0.018-0.591-0.181-0.566-0.594c0.03-0.489,0.018-0.982,0.064-1.469c0.062-0.657,0.202-0.783,0.861-0.787
			C154.719,250.126,156.138,250.133,157.556,250.133z"/>
		<path fill-rule="evenodd" clip-rule="evenodd" fill="#2F56A7" d="M210.681,250.191c0.385,0,0.771,0.001,1.155,0
			c0.31-0.001,0.59,0.077,0.589,0.441c-0.002,0.36,0.002,0.818-0.476,0.87c-0.453,0.048-0.586,0.28-0.651,0.663
			c-0.323,1.861-0.647,3.722-0.99,5.579c-0.062,0.335-0.039,0.537,0.349,0.595c0.28,0.042,0.431,0.251,0.396,0.531
			c-0.04,0.322-0.038,0.742-0.46,0.792c-0.938,0.11-1.885,0.079-2.828,0.012c-0.256-0.019-0.413-0.222-0.387-0.479
			c0.033-0.339,0.021-0.782,0.466-0.838c0.49-0.062,0.572-0.368,0.638-0.745c0.32-1.843,0.645-3.686,0.97-5.528
			c0.048-0.275,0.102-0.512-0.304-0.57c-0.35-0.051-0.413-0.326-0.359-0.642c0.055-0.321,0.107-0.649,0.528-0.662
			c0.455-0.014,0.909-0.003,1.365-0.003C210.681,250.2,210.681,250.196,210.681,250.191z"/>
		<path fill-rule="evenodd" clip-rule="evenodd" fill="#2F56A7" d="M477.172,258.5c-1.662,0-3.324,0.003-4.987-0.002
			c-0.771-0.002-0.911-0.148-0.908-0.886c0.003-0.705,0.136-0.852,0.882-0.853c3.366-0.008,6.731-0.008,10.097-0.003
			c0.788,0.001,0.905,0.135,0.9,0.89c-0.005,0.734-0.125,0.852-0.935,0.854C480.537,258.502,478.854,258.5,477.172,258.5z"/>
		<path fill-rule="evenodd" clip-rule="evenodd" fill="#2F56A7" d="M446.41,258.498c-1.663,0-3.327,0.005-4.99-0.002
			c-0.734-0.003-0.869-0.145-0.876-0.855c-0.005-0.726,0.126-0.881,0.846-0.883c3.368-0.007,6.735-0.008,10.104,0
			c0.821,0.002,1.199,0.679,0.835,1.433c-0.16,0.33-0.46,0.305-0.743,0.306C449.86,258.5,448.135,258.498,446.41,258.498z"/>
		<path fill-rule="evenodd" clip-rule="evenodd" fill="#2F56A7" d="M384.999,258.498c-1.683,0-3.365,0.005-5.049-0.001
			c-0.763-0.003-0.88-0.123-0.888-0.836c-0.009-0.765,0.105-0.902,0.884-0.904c3.366-0.008,6.731-0.006,10.097,0
			c0.297,0,0.666-0.057,0.809,0.298c0.154,0.389,0.16,0.814-0.027,1.198c-0.141,0.289-0.454,0.241-0.715,0.242
			C388.406,258.5,386.703,258.498,384.999,258.498z"/>
		<path fill-rule="evenodd" clip-rule="evenodd" fill="#2F56A7" d="M415.782,258.498c-1.683,0-3.367,0.006-5.05-0.002
			c-0.826-0.004-1.229-0.683-0.855-1.422c0.188-0.372,0.548-0.316,0.867-0.317c2.176-0.008,4.352-0.005,6.528-0.005
			c1.19,0,2.382-0.008,3.572,0.007c0.705,0.009,0.841,0.177,0.829,0.907c-0.011,0.683-0.144,0.826-0.841,0.83
			C419.15,258.503,417.466,258.498,415.782,258.498z"/>
		<path fill-rule="evenodd" clip-rule="evenodd" fill="#2F56A7" d="M384.953,255.545c-1.685,0-3.37,0.005-5.055-0.002
			c-0.731-0.003-0.842-0.132-0.836-0.881c0.006-0.707,0.093-0.797,0.84-0.798c3.431-0.006,6.863,0.002,10.295-0.019
			c0.585-0.003,0.754,0.254,0.748,0.78c-0.008,0.731-0.124,0.912-0.753,0.916C388.446,255.552,386.699,255.544,384.953,255.545z"/>
		<path fill-rule="evenodd" clip-rule="evenodd" fill="#2F56A7" d="M385.01,259.923c1.704,0,3.407-0.004,5.111,0.002
			c0.696,0.002,0.818,0.136,0.821,0.831c0.002,0.693-0.13,0.844-0.813,0.845c-3.426,0.004-6.854,0.005-10.281-0.001
			c-0.677-0.001-0.772-0.144-0.791-0.867c-0.014-0.56,0.177-0.826,0.781-0.818C381.562,259.939,383.286,259.923,385.01,259.923z"/>
		<path fill-rule="evenodd" clip-rule="evenodd" fill="#2F56A7" d="M384.982,252.589c-1.706,0-3.413,0.006-5.121-0.002
			c-0.703-0.004-0.797-0.119-0.794-0.849c0.004-0.705,0.112-0.824,0.825-0.825c3.393-0.004,6.787-0.004,10.18,0
			c0.732,0,0.867,0.144,0.868,0.857c0.001,0.69-0.133,0.819-0.899,0.821c-1.686,0.004-3.371,0.001-5.059,0.001
			C384.982,252.591,384.982,252.59,384.982,252.589z"/>
		<path fill-rule="evenodd" clip-rule="evenodd" fill="#2F56A7" d="M415.738,252.592c-1.705,0-3.41,0.004-5.115-0.003
			c-0.689-0.002-0.82-0.148-0.82-0.84c0.002-0.693,0.129-0.835,0.822-0.836c3.41-0.004,6.82-0.004,10.23,0
			c0.679,0.001,0.814,0.152,0.818,0.843c0.004,0.686-0.129,0.832-0.82,0.834C419.148,252.596,417.443,252.592,415.738,252.592z"/>
		<path fill-rule="evenodd" clip-rule="evenodd" fill="#2F56A7" d="M477.27,250.911c1.686-0.001,3.369-0.005,5.055,0.001
			c0.709,0.002,0.83,0.132,0.83,0.824c0.001,0.692-0.134,0.851-0.816,0.852c-3.432,0.007-6.862-0.004-10.293,0.012
			c-0.616,0.003-0.783-0.294-0.773-0.838c0.01-0.519,0.123-0.866,0.759-0.858C473.777,250.926,475.523,250.912,477.27,250.911z"/>
		<path fill-rule="evenodd" clip-rule="evenodd" fill="#2F56A7" d="M446.481,252.591c-1.705,0-3.408,0.004-5.112-0.002
			c-0.695-0.002-0.826-0.145-0.824-0.828c0.003-0.693,0.14-0.848,0.811-0.849c3.429-0.004,6.857,0.007,10.285-0.011
			c0.63-0.003,0.761,0.319,0.768,0.845c0.009,0.531-0.127,0.858-0.754,0.851C449.931,252.577,448.206,252.591,446.481,252.591z"/>
		<path fill-rule="evenodd" clip-rule="evenodd" fill="#2F56A7" d="M183.736,261.196c-1.418,0-2.836,0.003-4.254-0.002
			c-0.601-0.002-0.797-0.174-0.791-0.654c0.006-0.498,0.193-0.665,0.781-0.665c2.836-0.003,5.671-0.003,8.506,0
			c0.594,0,0.788,0.169,0.795,0.654c0.007,0.483-0.193,0.662-0.785,0.665C186.571,261.199,185.153,261.195,183.736,261.196z"/>
		<path fill-rule="evenodd" clip-rule="evenodd" fill="#2F56A7" d="M259.518,254.211c1.519,0.001,3.036-0.008,4.555,0.005
			c0.824,0.007,0.944,0.155,0.955,1.041c0.009,0.791-0.138,0.962-0.952,0.965c-3.036,0.011-6.072,0.01-9.109,0.001
			c-0.837-0.003-1.001-0.189-1.003-1.009c-0.003-0.823,0.157-0.996,1-1C256.481,254.204,257.999,254.21,259.518,254.211z"/>
		<path fill-rule="evenodd" clip-rule="evenodd" fill="#2F56A7" d="M294.78,256.226c-1.518,0-3.035,0.01-4.554-0.005
			c-0.809-0.008-0.965-0.201-0.961-1.047c0.004-0.797,0.146-0.957,0.96-0.959c3.035-0.008,6.069-0.008,9.104,0
			c0.869,0.002,0.971,0.125,0.973,1c0,0.871-0.111,1.002-0.969,1.009C297.814,256.235,296.298,256.227,294.78,256.226z"/>
		<path fill-rule="evenodd" clip-rule="evenodd" fill="#2F56A7" d="M330.415,256.225c-1.494-0.001-2.989,0.006-4.483-0.004
			c-0.896-0.006-1.064-0.181-1.057-1.022c0.01-0.817,0.166-0.984,1.02-0.987c3.013-0.006,6.025-0.007,9.039,0
			c0.853,0.003,0.967,0.142,0.964,1.018c-0.003,0.847-0.129,0.986-0.998,0.992C333.405,256.233,331.91,256.227,330.415,256.225z"/>
		<path fill-rule="evenodd" clip-rule="evenodd" fill="#2F56A7" d="M259.512,249.055c1.565,0,3.13,0.023,4.695-0.01
			c0.766-0.017,0.832,0.438,0.844,1.007c0.011,0.577-0.139,0.95-0.831,0.946c-3.13-0.017-6.26-0.002-9.39-0.011
			c-0.729-0.002-0.861-0.206-0.872-1.049c-0.007-0.603,0.176-0.914,0.859-0.897c1.564,0.038,3.13,0.012,4.694,0.012
			C259.512,249.053,259.512,249.053,259.512,249.055z"/>
		<path fill-rule="evenodd" clip-rule="evenodd" fill="#2F56A7" d="M259.527,259.44c1.563,0,3.127,0.022,4.689-0.01
			c0.703-0.014,0.83,0.365,0.836,0.934c0.005,0.585-0.097,1.023-0.839,1.02c-3.149-0.014-6.3-0.011-9.45-0.002
			c-0.764,0.002-0.797-0.498-0.801-1.056c-0.003-0.55,0.148-0.902,0.803-0.893C256.353,259.457,257.939,259.44,259.527,259.44z"/>
		<path fill-rule="evenodd" clip-rule="evenodd" fill="#2F56A7" d="M330.444,259.414c1.518,0,3.035,0.016,4.551-0.008
			c0.618-0.01,0.921,0.185,0.911,0.852c-0.013,0.932-0.102,1.114-0.865,1.118c-3.104,0.011-6.21-0.005-9.315,0.011
			c-0.726,0.003-0.86-0.392-0.86-1c0.001-0.623,0.166-0.978,0.887-0.961c1.562,0.034,3.128,0.01,4.692,0.01
			C330.444,259.428,330.444,259.421,330.444,259.414z"/>
		<path fill-rule="evenodd" clip-rule="evenodd" fill="#2F56A7" d="M294.77,250.991c-1.542,0-3.084-0.019-4.626,0.008
			c-0.715,0.012-0.888-0.348-0.886-0.973c0.003-0.611,0.134-0.987,0.868-0.982c3.107,0.022,6.215,0.024,9.324-0.001
			c0.729-0.006,0.868,0.34,0.863,0.965c-0.005,0.608-0.104,1.006-0.847,0.992C297.902,250.971,296.335,250.991,294.77,250.991z"/>
		<path fill-rule="evenodd" clip-rule="evenodd" fill="#2F56A7" d="M294.852,259.44c1.542,0,3.085,0.021,4.625-0.01
			c0.688-0.014,0.846,0.316,0.834,0.918c-0.01,0.575-0.037,1.039-0.804,1.035c-3.131-0.014-6.262-0.013-9.393,0.002
			c-0.73,0.003-0.853-0.4-0.855-1.005c-0.004-0.635,0.188-0.967,0.897-0.952C291.721,259.462,293.287,259.439,294.852,259.44z"/>
		<path fill-rule="evenodd" clip-rule="evenodd" fill="#2F56A7" d="M330.382,250.991c-1.538,0-3.077,0.008-4.614-0.003
			c-0.758-0.006-0.883-0.19-0.9-1.015c-0.013-0.653,0.23-0.935,0.918-0.93c3.076,0.023,6.153,0.023,9.23,0
			c0.701-0.005,0.909,0.302,0.889,0.946c-0.024,0.846-0.118,0.992-0.906,0.998C333.46,250.999,331.92,250.991,330.382,250.991z"/>
		<path fill-rule="evenodd" clip-rule="evenodd" fill="#2F56A7" d="M449.115,255.545c-0.822,0-1.645,0.008-2.467-0.002
			c-0.681-0.008-0.792-0.154-0.807-0.859c-0.012-0.548,0.156-0.837,0.774-0.828c1.686,0.025,3.371,0.024,5.057-0.004
			c0.598-0.01,0.741,0.282,0.737,0.794c-0.005,0.494-0.046,0.915-0.705,0.903C450.841,255.533,449.979,255.545,449.115,255.545z"/>
		<path fill-rule="evenodd" clip-rule="evenodd" fill="#2F56A7" d="M413.065,253.867c0.882,0,1.763,0.013,2.645-0.004
			c0.551-0.01,0.647,0.325,0.638,0.759c-0.012,0.432,0.033,0.916-0.616,0.917c-1.763,0.003-3.524,0.002-5.288,0.002
			c-0.629,0-0.639-0.438-0.643-0.895c-0.003-0.471,0.109-0.799,0.682-0.787c0.86,0.02,1.722,0.004,2.583,0.004
			C413.065,253.865,413.065,253.866,413.065,253.867z"/>
		<path fill-rule="evenodd" clip-rule="evenodd" fill="#2F56A7" d="M449.128,261.601c-0.86,0-1.722-0.011-2.583,0.004
			c-0.606,0.011-0.701-0.355-0.703-0.842c0-0.484,0.08-0.849,0.694-0.843c1.722,0.015,3.444,0.016,5.168-0.001
			c0.61-0.006,0.71,0.344,0.701,0.833c-0.009,0.472-0.075,0.864-0.693,0.853C450.851,261.589,449.989,261.601,449.128,261.601z"/>
		<path fill-rule="evenodd" clip-rule="evenodd" fill="#2F56A7" d="M413.09,261.6c-0.863,0-1.727-0.011-2.59,0.004
			c-0.608,0.011-0.703-0.356-0.702-0.845c0.002-0.486,0.092-0.847,0.704-0.841c1.727,0.016,3.453,0.014,5.18,0.002
			c0.584-0.004,0.668,0.355,0.666,0.809c-0.004,0.458-0.033,0.883-0.669,0.874C414.816,261.59,413.953,261.6,413.09,261.6z"/>
		<path fill-rule="evenodd" clip-rule="evenodd" fill="#2F56A7" d="M477.228,253.864c0.862-0.001,1.724,0.011,2.586-0.005
			c0.538-0.011,0.659,0.285,0.643,0.744c-0.017,0.458,0.051,0.941-0.646,0.939c-1.724-0.007-3.448-0.005-5.171,0.003
			c-0.659,0.003-0.682-0.423-0.688-0.915s0.131-0.784,0.69-0.771C475.504,253.879,476.366,253.864,477.228,253.864z"/>
		<path fill-rule="evenodd" clip-rule="evenodd" fill="#2F56A7" d="M477.266,259.925c0.842,0,1.685,0.013,2.527-0.004
			c0.581-0.012,0.673,0.328,0.664,0.799c-0.01,0.455,0.006,0.884-0.645,0.88c-1.727-0.01-3.453-0.005-5.18,0.001
			c-0.671,0.002-0.664-0.455-0.678-0.931c-0.017-0.514,0.186-0.762,0.721-0.751c0.863,0.017,1.726,0.004,2.59,0.004
			C477.266,259.923,477.266,259.924,477.266,259.925z"/>
		<path fill-rule="evenodd" clip-rule="evenodd" fill="#2F56A7" d="M320.717,255.148c0-0.048-0.006-0.096,0.002-0.143
			c0.078-0.471-0.256-1.123,0.245-1.382c0.587-0.301,1.302-0.189,1.945,0.005c0.502,0.152,0.509,0.6,0.429,1
			c-0.067,0.337-0.061,0.623,0.054,0.955c0.25,0.732-0.095,1.227-0.878,1.239C320.397,256.858,320.756,257,320.717,255.148z"/>
		<path fill-rule="evenodd" clip-rule="evenodd" fill="#2F56A7" d="M251.006,251.586c-0.874,0.001-1.592-0.708-1.589-1.57
			c0.003-0.818,0.783-1.604,1.587-1.6c0.854,0.005,1.568,0.73,1.57,1.598C252.578,250.904,251.898,251.585,251.006,251.586z"/>
		<path fill-rule="evenodd" clip-rule="evenodd" fill="#2F56A7" d="M251.013,253.625c0.88,0.009,1.568,0.708,1.563,1.587
			c-0.004,0.879-0.717,1.584-1.584,1.568c-0.872-0.016-1.588-0.739-1.575-1.59C249.43,254.32,250.146,253.617,251.013,253.625z"/>
		<path fill-rule="evenodd" clip-rule="evenodd" fill="#2F56A7" d="M251.017,261.962c-0.871,0.008-1.591-0.692-1.599-1.553
			c-0.007-0.875,0.679-1.558,1.574-1.567c0.907-0.009,1.582,0.646,1.584,1.544C252.579,261.285,251.918,261.953,251.017,261.962z"/>
		<path fill-rule="evenodd" clip-rule="evenodd" fill="#2F56A7" d="M322.056,248.357c0.299-0.021,0.498,0.104,0.598,0.394
			c0.268,0.785,0.544,1.567,0.808,2.354c0.06,0.175,0.133,0.394-0.068,0.517c-0.205,0.125-0.391,0.034-0.57-0.126
			c-0.608-0.541-0.976-0.545-1.559-0.005c-0.182,0.168-0.361,0.245-0.569,0.136c-0.223-0.115-0.146-0.337-0.092-0.508
			c0.257-0.789,0.532-1.571,0.794-2.358C321.504,248.432,321.739,248.332,322.056,248.357z"/>
		<path fill-rule="evenodd" clip-rule="evenodd" fill="#2F56A7" d="M284.702,261.365c0.087-0.171,0.314-0.123,0.432-0.303
			c0.241-0.375,0.542-0.462,0.777,0.037c0.077,0.162,0.214,0.254,0.382,0.289c0.249,0.052,0.497,0.036,0.6-0.235
			c0.098-0.261-0.092-0.388-0.307-0.468c-0.174-0.064-0.392-0.076-0.417-0.321c-0.026-0.258,0.172-0.301,0.36-0.352
			c0.192-0.052,0.383-0.142,0.323-0.382c-0.066-0.265-0.306-0.259-0.522-0.253c-0.173,0.004-0.322,0.077-0.426,0.219
			c-0.179,0.244-0.435,0.394-0.648,0.148c-0.238-0.275-0.069-0.588,0.165-0.814c0.289-0.278,1.464-0.32,1.846-0.067
			c0.468,0.309,0.418,0.77,0.267,1.208c-0.096,0.274,0.076,0.452,0.123,0.673c0.167,0.781-0.096,1.172-0.875,1.307
			C285.968,262.191,285.299,261.906,284.702,261.365z"/>
		<path fill-rule="evenodd" clip-rule="evenodd" fill="#2F56A7" d="M321.373,260.332c0.031,0.335-0.09,0.755,0.335,0.926
			c0.405,0.163,0.787,0.106,1.047-0.319c0.117-0.189,0.317-0.202,0.503-0.105c0.179,0.091,0.166,0.269,0.146,0.437
			c-0.039,0.329-0.164,0.587-0.514,0.69c-0.539,0.157-1.073,0.161-1.611,0.008c-0.306-0.087-0.497-0.277-0.552-0.584
			c-0.06-0.325-0.109-0.653-0.135-0.982c-0.117-1.583,0.568-1.896,2.244-1.621c0.277,0.045,0.457,0.247,0.511,0.53
			c0.035,0.185,0.085,0.402-0.099,0.524c-0.202,0.134-0.425,0.088-0.563-0.115c-0.201-0.293-0.475-0.375-0.803-0.329
			C321.296,259.475,321.396,259.935,321.373,260.332z"/>
		<path fill-rule="evenodd" clip-rule="evenodd" fill="#2F56A7" d="M286.021,256.051c0.349,0.254,0.74,0.12,1.098,0.165
			c0.212,0.027,0.462,0.024,0.477,0.312c0.017,0.317-0.25,0.296-0.455,0.303c-0.402,0.012-0.806,0.015-1.208,0.004
			c-0.345-0.008-0.757,0.066-0.79-0.47c-0.029-0.47,0.006-0.919,0.546-1.105c0.244-0.084,0.502-0.136,0.752-0.205
			c0.241-0.066,0.451-0.177,0.477-0.457c0.021-0.215-0.095-0.367-0.302-0.423c-0.271-0.073-0.53-0.048-0.679,0.227
			c-0.152,0.278-0.358,0.542-0.647,0.264c-0.292-0.28-0.122-0.667,0.132-0.875c0.528-0.431,1.155-0.375,1.753-0.153
			c0.509,0.188,0.456,0.659,0.461,1.087c0.007,0.506-0.26,0.774-0.727,0.914C286.608,255.726,286.231,255.663,286.021,256.051z"/>
		<path fill-rule="evenodd" clip-rule="evenodd" fill="#2F56A7" d="M286.393,249.376c-0.438-0.041-0.663,0.677-0.994,0.203
			c-0.31-0.445,0.27-0.614,0.488-0.879c0.241-0.294,0.582-0.441,0.953-0.302c0.411,0.152,0.301,0.55,0.309,0.863
			c0.018,0.617,0.013,1.234-0.008,1.851c-0.008,0.259-0.041,0.558-0.419,0.532c-0.334-0.024-0.323-0.3-0.326-0.534
			C286.387,250.528,286.393,249.946,286.393,249.376z"/>
	</g>
</g>
</svg>
