<?xml version="1.0" encoding="utf-8"?>
<!-- Generator: Adobe Illustrator 16.0.4, SVG Export Plug-In . SVG Version: 6.00 Build 0)  -->
<!DOCTYPE svg PUBLIC "-//W3C//DTD SVG 1.1//EN" "http://www.w3.org/Graphics/SVG/1.1/DTD/svg11.dtd">
<svg version="1.1" id="Layer_1" xmlns="http://www.w3.org/2000/svg" xmlns:xlink="http://www.w3.org/1999/xlink" x="0px" y="0px"
	 width="621px" height="635.697px" viewBox="0 0 621 635.697" enable-background="new 0 0 621 635.697" xml:space="preserve">
<path opacity="0.8" fill-rule="evenodd" clip-rule="evenodd" fill="#EE9521" d="M209.057,396.424
	c-0.002-2.125-0.07-2.187-2.28-2.189c-5.867-0.006-11.733-0.001-17.599-0.001c-5.925,0-11.849,0.048-17.771-0.031
	c-1.645-0.021-2.22,0.478-2.202,2.163c0.076,7.073,0.03,14.148,0.034,21.223c0.001,2.26,0.049,2.42,2.34,2.261
	c1.998-0.138,3.377,0.52,4.498,2.154c0.907,1.321,2.091,2.45,3.06,3.733c0.685,0.905,1.189,0.83,1.885,0.036
	c1.363-1.558,2.828-3.027,4.172-4.6c0.818-0.959,1.74-1.318,3.001-1.308c6.269,0.053,12.538-0.019,18.806,0.051
	c1.593,0.019,2.103-0.518,2.088-2.097C209.022,410.688,209.063,403.556,209.057,396.424z M176.752,399.864
	c7.578-0.012,15.157-0.012,22.735,0c0.836,0.002,1.854-0.149,1.821,1.196c-0.035,1.358-1.092,1.104-1.897,1.109
	c-3.789,0.025-7.578,0.012-11.367,0.012c-3.73,0-7.463,0.014-11.193-0.012c-0.809-0.005-1.873,0.245-1.917-1.098
	C174.89,399.743,175.906,399.866,176.752,399.864z M191.711,414.256c-2.53,0.002-5.06,0.001-7.589,0.001
	c-2.529-0.001-5.058,0-7.587-0.001c-0.871-0.001-1.642-0.126-1.628-1.271c0.012-1.059,0.786-1.19,1.55-1.193
	c5.115-0.022,10.23-0.022,15.347-0.001c0.768,0.004,1.539,0.157,1.549,1.202C193.362,414.133,192.578,414.255,191.711,414.256z
	 M199.701,408.315c-3.853,0.016-7.706,0.007-11.56,0.007c0,0.008,0,0.014,0,0.02c-3.393,0-6.786,0.002-10.179,0
	c-0.517-0.002-1.036-0.003-1.553-0.029c-0.812-0.043-1.493-0.254-1.503-1.264c-0.01-1.003,0.626-1.275,1.467-1.275
	c7.822-0.005,15.643-0.006,23.464-0.001c0.823,0,1.487,0.212,1.492,1.239C201.336,408.151,200.555,408.312,199.701,408.315z"/>
<g opacity="0.8">
	<path fill="#42A9C1" d="M366.296,194.836c-4.434-4.069-8.855-8.15-13.282-12.227c-2.291-2.11-4.578-4.223-6.883-6.32
		c-1.051-0.957-2.287-1.077-3.521-0.485c-1.218,0.584-1.714,1.646-1.667,3.007c0.032,1.018,0.528,1.735,1.233,2.385
		c5.814,5.364,11.622,10.736,17.438,16.101c0.957,0.885,1.898,1.79,2.901,2.618c1.064,0.884,2.307,1.062,3.546,0.435
		c1.106-0.559,1.641-1.534,1.583-2.833C367.717,196.389,367.104,195.579,366.296,194.836z"/>
	<path fill="#42A9C1" d="M307.7,176.423c-0.919,0.802-1.795,1.654-2.692,2.482c-5.849,5.386-11.696,10.772-17.549,16.157
		c-0.752,0.692-1.211,1.502-1.129,2.502c-0.045,1.327,0.542,2.262,1.654,2.804c1.195,0.583,2.396,0.447,3.43-0.408
		c0.907-0.748,1.742-1.583,2.609-2.382c5.97-5.504,11.949-10.997,17.901-16.521c1.442-1.341,1.521-3.316,0.3-4.621
		C311.022,175.15,309.189,175.127,307.7,176.423z"/>
	<path fill="#42A9C1" d="M387.078,140.236c-0.001-2.833-0.996-5.274-3.156-7.144c-5.303-4.595-10.61-9.188-15.917-13.779
		l-19.455-16.879c-5.461-4.738-10.924-9.47-16.363-14.228c-2.12-1.854-3.393-1.657-5.444,0.045
		c-17.496,14.513-35.035,28.975-52.696,43.282c-3.047,2.467-4.416,5.229-4.369,9.013c0.077,6.202,0.02,12.403,0.02,18.604
		c-0.003,14.881-0.024,29.764,0.01,44.646c0.015,5.466,2.967,9.173,7.625,9.706c1.745,0.199,3.506,0.325,5.256,0.328
		c15.251,0.024,30.502,0.015,45.753,0.015c0-0.059,0-0.117,0-0.175c4.223,0,8.445,0.005,12.669,0
		c12.161-0.022,24.323,0.005,36.481-0.102c5.9-0.052,9.526-3.562,9.549-9.463C387.134,182.816,387.084,161.526,387.078,140.236z
		 M283.112,135.289c0.088-0.079,0.172-0.152,0.257-0.23c0.003-0.004,0.009-0.007,0.012-0.012
		c14.285-12.929,29.103-25.334,44.313-37.16c0.673-0.524,1.424-0.579,2.095,0c7.919,6.846,15.835,13.691,23.751,20.539l7.271,6.286
		c4.293,3.712,8.586,7.424,12.881,11.135c0.786,0.68,0.41,1.801-0.301,2.325c-14.9,11.046-29.8,22.09-44.702,33.136
		c-0.375,0.277-1.121,0.287-1.494,0c-14.595-11.231-29.19-22.462-43.784-33.695c-0.115-0.09-0.211-0.195-0.293-0.3
		C282.58,136.79,282.396,135.936,283.112,135.289z M373.797,204.583c-30.297-0.12-60.59-0.11-90.885-0.011
		c-3.053,0.008-3.846-1.028-3.829-3.94c0.111-17.062,0.045-34.122,0.07-51.182c0.005-0.96-0.54-2.313,0.608-2.776
		c0.855-0.346,1.604,0.73,2.332,1.276c14.479,10.846,28.991,21.653,43.391,32.606c2.225,1.691,3.69,1.615,5.874-0.037
		c14.266-10.787,28.634-21.438,42.973-32.126c0.891-0.665,1.816-1.28,3.325-2.336c0,5.499,0,10.245,0,14.988
		c0,13.134-0.077,26.265,0.062,39.396C377.747,203.434,377.081,204.596,373.797,204.583z"/>
</g>
<path opacity="0.8" fill-rule="evenodd" clip-rule="evenodd" fill="#FBD20F" d="M191.061,155.328
	c0.001-6.54-0.001-13.081,0.001-19.621c0.001-3.087,0.93-7.682-3.41-7.682c-23.652,0-53.308,0-76.961,0
	c-4.324,0-3.508,4.881-3.506,8.161c0.028,42.1,0.016,84.2,0.021,126.3c0.001,6.609,2.008,8.627,8.656,8.632
	c20.245,0.015,43.491,0.015,63.737-0.001c6.365-0.005,11.432-1.947,11.438-8.259c0.02-22.384,0.022-44.768,0.022-67.15
	L191.061,155.328z M141.267,133.087h15.712c0.683,0,1.234,0.553,1.234,1.234c0,0.683-0.552,1.234-1.234,1.234h-15.712
	c-0.682,0-1.234-0.552-1.234-1.234C140.032,133.64,140.585,133.087,141.267,133.087z M149.495,265.218
	c-2.812,0.077-5.032-2.074-5.082-4.922c-0.051-3.071,1.812-5.003,4.85-5.021c2.824-0.018,5.097,2.205,5.07,4.959
	C154.308,262.849,152.075,265.149,149.495,265.218z M183.955,195.685c0.001,16.505,0.024,33.01,0.074,49.515
	c0.009,2.938-3.887,3.634-6.706,3.618c-19.953-0.114-36.315-0.059-56.271-0.062c-3.678,0-6.686-0.009-6.686-3.795
	c-0.003-16.929-0.002-33.857-0.002-50.785c0-17.021,0.068-34.045-0.066-51.066c-0.022-2.936,3.893-3.645,6.712-3.628
	c19.953,0.111,36.317,0.106,56.271,0.002c2.757-0.014,6.76,0.588,6.75,3.581c-0.014,4.088-0.01,8.177-0.019,12.265L183.955,195.685z
	"/>
<path opacity="0.8" fill-rule="evenodd" clip-rule="evenodd" fill="#FBD20F" d="M148.508,195.447c-9.347,0-18.694,0-28.041,0v3.322
	c0,6.627,5.373,12,12,12h16.041C148.508,205.662,148.508,200.555,148.508,195.447z"/>
<path opacity="0.8" fill-rule="evenodd" clip-rule="evenodd" fill="#FBD20F" d="M149.758,195.447c0,5.107,0,10.215,0,15.322H165.8
	c6.628,0,12-5.373,12-12v-3.322C168.453,195.447,159.105,195.447,149.758,195.447z"/>
<path opacity="0.8" fill-rule="evenodd" clip-rule="evenodd" fill="#FBD20F" d="M165.8,166.194h-33.333c-6.627,0-12,5.372-12,12
	v16.003c19.111,0,38.222,0,57.333,0v-16.003C177.8,171.566,172.428,166.194,165.8,166.194z M163.935,185.027
	c-10.369,0-20.738,0-31.107,0c-1.612,0-1.612-2.5,0-2.5c10.369,0,20.738,0,31.107,0
	C165.548,182.527,165.548,185.027,163.935,185.027z M163.935,177.027c-10.369,0-20.738,0-31.107,0c-1.612,0-1.612-2.5,0-2.5
	c10.369,0,20.738,0,31.107,0C165.548,174.527,165.548,177.027,163.935,177.027z"/>
<g opacity="0.8">
	<path fill="#EE9521" d="M186.46,484.633c-0.134-0.066-0.271-0.098-0.405-0.093c-3.154-0.603-6.545-1.556-8.699-4.085
		c-0.862-1.013-0.789-1.842-1.176-2.767c-1.088-2.61-0.871-6.013-0.912-8.781c-0.03-1.983-0.006-3.973,0.076-5.954
		c0.023-0.55-0.477-1.009-1.008-1.009c-10.957,0-21.915,0-32.873,0c-0.531,0-1.031,0.459-1.009,1.009
		c0.102,2.428,0.109,4.861,0.051,7.289c-0.04,1.766-0.127,3.543-0.377,5.29c-0.139,0.972-0.685,1.972-0.741,2.916
		c-0.078,1.362-1.882,3.105-3.322,3.974c-1.984,1.197-4.319,1.747-6.572,2.167c-0.662,0.123-1.018,1.063-1.01,1.64
		c0.03,2.15,3.48,1.938,4.92,1.938c2.443,0,4.888,0,7.331,0c4.933,0,9.869,0,14.805,0c5.851,0,11.702,0,17.554,0
		c3.231,0,6.464,0,9.696,0c1.202,0,3.056,0.117,3.991-0.83c0.629-0.639,0.665-1.496,0.207-2.19
		C186.912,484.917,186.742,484.729,186.46,484.633z"/>
	<path fill="#EE9521" d="M234.463,347.874c-3.852,0-7.7,0-11.55,0h-5.841c-12.568,0-25.139,0-37.705,0c-15.275,0-30.552,0-45.826,0
		c-12.511,0-25.021,0-37.531,0c-4.668,0-9.333,0-13.998,0c-1.803,0-3.305,1.503-3.305,3.306c0,7.42,0,14.84,0,22.26
		c0,14.857,0,29.716,0,44.574c0,11.194,0,22.389,0,33.583c0,1,0,1.999,0,2.997c0,1.802,1.502,3.305,3.305,3.305
		c5.443,0,10.889,0,16.332,0c12.921,0,25.842,0,38.762,0c15.273,0,30.551,0,45.826,0c12.51,0,25.021,0,37.533,0
		c4.664,0,9.331,0,13.998,0c1.801,0,3.302-1.503,3.302-3.305c0-7.42,0-14.84,0-22.26c0-14.857,0-29.717,0-44.575
		c0-11.194,0-22.388,0-33.583c0-1,0-1.998,0-2.996C237.765,349.377,236.264,347.874,234.463,347.874z M157.35,451.729
		c-2.242,0-4.057-1.815-4.057-4.056s1.814-4.057,4.057-4.057c2.238,0,4.054,1.816,4.054,4.057S159.588,451.729,157.35,451.729z
		 M227.643,437.049H89.805v-77.377h119.527h5.84h12.471V437.049z"/>
</g>
<g>
	<g>
		<g>
			<g>
				<g>
					
						<rect x="368.351" y="352.019" transform="matrix(0.9228 -0.3852 0.3852 0.9228 -108.501 170.0221)" fill="#BCBEC0" width="3.555" height="7.626"/>
					
						<rect x="363.978" y="341.536" transform="matrix(0.923 -0.3847 0.3847 0.923 -104.7106 167.2902)" fill="#BCBEC0" width="3.554" height="7.627"/>
					
						<rect x="359.606" y="331.054" transform="matrix(0.9229 -0.3849 0.3849 0.9229 -101.0576 164.9186)" fill="#BCBEC0" width="3.554" height="7.627"/>
					
						<rect x="355.232" y="320.57" transform="matrix(0.9229 -0.3851 0.3851 0.9229 -97.3792 162.4845)" fill="#BCBEC0" width="3.554" height="7.625"/>
					
						<rect x="350.859" y="310.088" transform="matrix(0.9229 -0.3849 0.3849 0.9229 -93.6608 159.9359)" fill="#BCBEC0" width="3.554" height="7.627"/>
					
						<rect x="346.485" y="299.604" transform="matrix(0.9229 -0.385 0.385 0.9229 -89.9772 157.4904)" fill="#BCBEC0" width="3.553" height="7.626"/>
					
						<rect x="342.113" y="289.123" transform="matrix(0.9229 -0.3849 0.3849 0.9229 -86.264 154.9535)" fill="#BCBEC0" width="3.554" height="7.625"/>
				</g>
			</g>
			<g>
				<g>
					
						<rect x="337.739" y="278.638" transform="matrix(0.9229 -0.385 0.385 0.9229 -82.5789 152.5064)" fill="#BCBEC0" width="3.553" height="7.627"/>
					
						<rect x="333.366" y="268.155" transform="matrix(0.9229 -0.385 0.385 0.9229 -78.8797 150.0144)" fill="#BCBEC0" width="3.553" height="7.627"/>
					
						<rect x="328.994" y="257.673" transform="matrix(0.9229 -0.3849 0.3849 0.9229 -75.1687 147.4798)" fill="#BCBEC0" width="3.554" height="7.627"/>
					
						<rect x="324.62" y="247.19" transform="matrix(0.9229 -0.385 0.385 0.9229 -71.4811 145.03)" fill="#BCBEC0" width="3.553" height="7.625"/>
					
						<rect x="320.247" y="236.707" transform="matrix(0.9229 -0.385 0.385 0.9229 -67.7822 142.5382)" fill="#BCBEC0" width="3.553" height="7.627"/>
					
						<rect x="315.874" y="226.222" transform="matrix(0.9229 -0.385 0.385 0.9229 -64.0823 140.0458)" fill="#BCBEC0" width="3.553" height="7.626"/>
					
						<rect x="311.501" y="215.742" transform="matrix(0.9229 -0.3849 0.3849 0.9229 -60.3751 137.5145)" fill="#BCBEC0" width="3.554" height="7.625"/>
				</g>
			</g>
		</g>
	</g>
</g>
<g>
	<g>
		<g>
			<g>
				<g>
					
						<rect x="346.972" y="361.697" transform="matrix(0.5661 -0.8244 0.8244 0.5661 -150.7545 446.5133)" fill="#BCBEC0" width="3.554" height="9.511"/>
					
						<rect x="335.294" y="353.682" transform="matrix(0.5661 -0.8244 0.8244 0.5661 -149.2145 433.4085)" fill="#BCBEC0" width="3.554" height="9.511"/>
					
						<rect x="323.617" y="345.667" transform="matrix(0.5661 -0.8244 0.8244 0.5661 -147.6749 420.304)" fill="#BCBEC0" width="3.554" height="9.511"/>
					
						<rect x="311.937" y="337.652" transform="matrix(0.5657 -0.8246 0.8246 0.5657 -146.1052 407.4053)" fill="#BCBEC0" width="3.553" height="9.509"/>
					
						<rect x="300.26" y="329.636" transform="matrix(0.5659 -0.8245 0.8245 0.5659 -144.5813 394.194)" fill="#BCBEC0" width="3.553" height="9.511"/>
					
						<rect x="288.58" y="321.619" transform="matrix(0.5659 -0.8245 0.8245 0.5659 -143.0419 381.0834)" fill="#BCBEC0" width="3.553" height="9.51"/>
					
						<rect x="276.903" y="313.606" transform="matrix(0.5658 -0.8245 0.8245 0.5658 -141.4996 368.01)" fill="#BCBEC0" width="3.554" height="9.509"/>
				</g>
			</g>
			<g>
				<g>
					
						<rect x="265.224" y="305.589" transform="matrix(0.5661 -0.8244 0.8244 0.5661 -139.9745 354.7758)" fill="#BCBEC0" width="3.554" height="9.511"/>
					
						<rect x="253.546" y="297.573" transform="matrix(0.5658 -0.8245 0.8245 0.5658 -138.4224 341.7902)" fill="#BCBEC0" width="3.554" height="9.511"/>
					
						<rect x="241.868" y="289.559" transform="matrix(0.566 -0.8244 0.8244 0.566 -136.892 328.5959)" fill="#BCBEC0" width="3.554" height="9.511"/>
					
						<rect x="230.188" y="281.543" transform="matrix(0.5658 -0.8245 0.8245 0.5658 -135.3456 315.5706)" fill="#BCBEC0" width="3.554" height="9.509"/>
					
						<rect x="218.511" y="273.527" transform="matrix(0.566 -0.8244 0.8244 0.566 -133.8128 302.3823)" fill="#BCBEC0" width="3.554" height="9.511"/>
					
						<rect x="206.831" y="265.511" transform="matrix(0.566 -0.8244 0.8244 0.566 -132.2727 289.2741)" fill="#BCBEC0" width="3.554" height="9.511"/>
					
						<rect x="195.154" y="257.498" transform="matrix(0.566 -0.8244 0.8244 0.566 -130.7337 276.1697)" fill="#BCBEC0" width="3.554" height="9.509"/>
				</g>
			</g>
		</g>
	</g>
</g>
<g>
	<g>
		<g>
			<g>
				
					<rect x="335.778" y="390.097" transform="matrix(-0.2635 -0.9647 0.9647 -0.2635 44.8708 825.4713)" fill="#BCBEC0" width="3.554" height="11.018"/>
				
					<rect x="319.947" y="394.421" transform="matrix(-0.2637 -0.9646 0.9646 -0.2637 20.8087 815.7422)" fill="#BCBEC0" width="3.555" height="11.018"/>
				
					<rect x="304.119" y="398.743" transform="matrix(-0.2633 -0.9647 0.9647 -0.2633 -3.5486 805.796)" fill="#BCBEC0" width="3.553" height="11.019"/>
				
					<rect x="288.286" y="403.068" transform="matrix(-0.2636 -0.9646 0.9646 -0.2636 -27.6185 796.0675)" fill="#BCBEC0" width="3.553" height="11.016"/>
				
					<rect x="272.458" y="407.389" transform="matrix(-0.2633 -0.9647 0.9647 -0.2633 -51.8882 786.1747)" fill="#BCBEC0" width="3.553" height="11.02"/>
				
					<rect x="256.625" y="411.714" transform="matrix(-0.2633 -0.9647 0.9647 -0.2633 -76.0608 776.362)" fill="#BCBEC0" width="3.553" height="11.018"/>
				
					<rect x="240.797" y="416.036" transform="matrix(-0.2636 -0.9646 0.9646 -0.2636 -100.1348 766.6436)" fill="#BCBEC0" width="3.553" height="11.017"/>
			</g>
		</g>
	</g>
</g>
<path fill="#BCBEC0" d="M547.373,483.502c-3.586-5.262-7.059-10.864-11.721-15.05c-3.809-3.42-6.027-7.356-8.309-11.612
	c-7.799-14.557-16.955-28.207-28.15-40.391c-7.408-8.063-12.492-9.265-22.385-4.321c-8.84,4.416-17.266,9.673-25.8,14.685
	c-7.071,4.152-10.229,3.741-15.806-2.285c-0.413-0.447-0.832-0.89-1.246-1.336c15.27-21.047,12.85-49.762-6.184-67.85
	c-17.803-16.92-45.867-17.188-65.15-2.866c-0.029,0.021-0.043,0.052-0.068,0.075c-0.029,0.018-0.061,0.022-0.088,0.047
	c-21.358,17.033-26.549,49.281-9.113,71.141c15.014,18.826,41.77,25.032,62.864,14.404c8.138,10.672,16.272,21.345,24.39,32.032
	c1.916,2.524,5.343,5.479,4.999,7.776c-0.528,3.537-5.593,2.287-8.409,3.829c-0.146,0.08-0.305,0.141-0.457,0.208
	c0.028,0.087,0.057,0.175,0.084,0.262c-2.072,0.678-4.227,1.175-6.205,2.063c-7.895,3.548-15.268,7.832-19.908,15.548
	c-2.137,3.552-1.87,7.141,0.594,10.373c2.589,3.399,6.007,2.339,9.182,1.047c2.789-1.137,5.5-2.512,8.137-3.977
	c3.891-2.16,7.994-3.391,12.44-3.665c12.122-0.755,24.144,0.864,36.21,1.423c2.114,0.099,3.078,1.418,4.054,3.196
	c3.159,5.764,7.509,10.711,11.7,15.719c2.867,3.424,7.021,3.964,10.475,1.418c14.189-10.455,28.211-21.14,42.136-31.946
	C548.878,490.938,549.794,487.053,547.373,483.502z M370.039,427.468c-15.301-14.855-15.272-39.474-2.102-55.52
	c13.22-16.108,36.871-18.44,53.988-7.589c19.617,12.438,23.232,39.098,10.932,57.653c-2.529-2.72-5.061-5.437-7.6-8.146
	c6.492-12.133,4.346-26.832-5.902-36.777c-10.537-10.223-27.243-10.017-38.702-1.712c-0.031,0.022-0.044,0.053-0.071,0.076
	c-0.027,0.019-0.057,0.023-0.085,0.047c-12.481,10.193-15.964,29.337-5.362,42.315c8.143,9.97,21.584,13.994,33.339,10.17
	c2.124,2.787,4.249,5.573,6.374,8.36C399.721,442.466,382.311,439.382,370.039,427.468z M415.961,403.905
	c-2.459-2.651-5.319-4.662-8.812-5.591c-7.607-2.021-13.092,3.497-11.18,11.102c0.893,3.555,3.132,6.275,5.266,9.075
	c1.91,2.506,3.82,5.012,5.73,7.517c-7.438,1.48-15.178-0.596-21.279-6.171c-9.305-8.503-9.043-22.998-1.574-32.434
	c7.498-9.476,21.101-10.591,31.043-4.74c10.562,6.211,13.15,19.278,8.764,29.766C421.261,409.592,418.603,406.756,415.961,403.905z
	 M537.253,489.937c-3.745,2.839-7.489,5.679-11.222,8.531c-7.862,6.013-15.774,11.965-23.547,18.095
	c-2.594,2.047-4.205,1.77-6.104-0.903c-8.458-11.911-9.223-8.56,2.407-17.51c9.175-7.06,18.447-13.992,27.674-20.985
	c0.801-0.607,1.587-1.234,2.954-2.301c4.423,2.012,6.391,6.602,9.338,10.168C540.634,487.307,538.943,488.656,537.253,489.937z"/>
</svg>
